<?xml version="1.0" encoding="utf-8"?>
<!-- Generator: Adobe Illustrator 16.0.0, SVG Export Plug-In . SVG Version: 6.00 Build 0)  -->
<!DOCTYPE svg PUBLIC "-//W3C//DTD SVG 1.1//EN" "http://www.w3.org/Graphics/SVG/1.1/DTD/svg11.dtd">
<svg version="1.1" id="Layer_1" xmlns="http://www.w3.org/2000/svg" xmlns:xlink="http://www.w3.org/1999/xlink" x="0px" y="0px"
	 width="759px" height="1281px" viewBox="0 0 759 1281" enable-background="new 0 0 759 1281" xml:space="preserve">
<symbol  id="FGJ" viewBox="-188.804 -51.229 377.608 102.456">
	<path fill="#872339" d="M12.696,28.377c8.966,4.566,18.466,7.25,28.5,8.051c6.233,0.467,11.533,0.032,15.9-1.301
		c6.1-1.899,12.3-6.116,18.6-12.649c2.267-2.333,3.75-4.45,4.45-6.351c-0.633-0.399-1.367-0.066-2.2,1
		c-4.667,5.867-9.317,10.101-13.95,12.7c-3.9,2.233-8.283,3.717-13.15,4.45c-4.467,0.633-9.133,0.617-14-0.05
		c-7.5-1.067-16.283-4.067-26.35-9c-2.4-1.2-4.217-2.083-5.45-2.65c-2.1-0.933-3.966-1.649-5.6-2.149
		c-3.767-1.167-8.167-1.7-13.2-1.601c-2.867,0.034-7.35,0.417-13.45,1.15c-8.533,1.033-15.367,1.75-20.5,2.149
		c-7.533,0.566-14.383,0.733-20.55,0.5c-15.467-0.566-28.767-3.566-39.9-9c2.8-2.1,5.867-3.6,9.2-4.5
		c2-0.566,5.733-1.133,11.2-1.699c9.467-1,18.867-2.917,28.2-5.75c1.867-0.533,3.083-1.268,3.65-2.2
		c0.633-1.034,0.617-2.217-0.05-3.55c-0.566-1.134-1.45-2.167-2.65-3.101c-3.733-3-7.95-4.966-12.65-5.899
		c-2.067-0.434-4.45-0.684-7.15-0.75c-1.267-0.033-3.684-0.018-7.25,0.05c-16.533-0.3-28.934-0.435-37.2-0.4
		c-14.6,0-26.85,1.167-36.75,3.5c-2.767,0.667-4.833,1.15-6.2,1.45c-2.4,0.467-4.517,0.717-6.35,0.75c-2.267,0-4.367-0.383-6.3-1.15
		c-2.133-0.833-3.8-2.05-5-3.649c-1.2-1.601-2.033-3.65-2.5-6.15c-0.933-4.633-0.517-8.533,1.25-11.7c2.034-3.5,5.617-6,10.75-7.5
		c1.667-0.5,3.85-0.967,6.55-1.399c3.6-0.567,5.8-0.935,6.6-1.101c-5.833-0.267-10.35-0.032-13.55,0.7
		c-5.167,1.2-8.967,3.518-11.4,6.95c-1.967,2.733-2.983,6.133-3.05,10.2c0,3.333,0.767,6.417,2.3,9.25
		c1.633,3.033,3.833,5.216,6.6,6.55c2.8,1.333,6.2,1.783,10.2,1.35c1.667-0.199,5.2-0.917,10.6-2.149
		c9.533-2.233,21.333-3.4,35.4-3.5c7.934-0.034,19.883,0.05,35.85,0.25c4.267-0.067,7.05-0.083,8.35-0.05
		c3.167,0.066,5.933,0.366,8.3,0.899c4.8,1.133,9.034,3.284,12.7,6.45c0.667,0.533,0.983,1.05,0.95,1.55
		c-0.034,0.601-0.534,1.101-1.5,1.5c-4.8,2.2-13,4.083-24.6,5.65c-10.967,1.466-19.033,3.6-24.2,6.399
		c-0.9,0.468-1.583,1.018-2.05,1.65c-0.567,0.767-0.684,1.5-0.35,2.2c0.2,0.466,0.8,0.95,1.8,1.45c6.1,2.767,12.967,4.85,20.6,6.25
		c6.233,1.133,13.417,1.883,21.55,2.25c5.033,0.232,9.316,0.267,12.85,0.1c2.633-0.133,5.784-0.45,9.45-0.95
		c2.1-0.267,5.25-0.683,9.45-1.25c5.566-0.667,10.867-1.149,15.9-1.45c4.033-0.232,7.433-0.267,10.2-0.1c3.7,0.233,7,0.867,9.9,1.9
		c1.566,0.566,3.466,1.417,5.7,2.55C8.379,26.11,10.229,27.077,12.696,28.377z M36.746,0.277l0.025,0.025
		c0.008,0.025,0.016,0.051,0.025,0.074c0.067,0.167,0.284,0.351,0.65,0.551l0.5,0.649c0.267,0.268,0.733,0.534,1.4,0.8
		c0.167,0.167,0.383,0.417,0.65,0.75c0.273,0.273,0.715,0.581,1.325,0.926l-0.025,0.024c0.075,0.169,0.208,0.229,0.4,0.175
		c0.016,0.009,0.033,0.017,0.05,0.025c0.433,0.367,0.767,0.517,1,0.45c0.167-0.034,0.283-0.167,0.35-0.4
		c0.033-0.167,0.017-0.333-0.05-0.5c-0.021-0.083-0.121-0.224-0.3-0.425c1.043-1.114,2.01-2.489,2.9-4.125
		c0.7-1.267,1.5-3.033,2.4-5.3c4.434-10.833,7.9-21.917,10.4-33.25c0.966-4.333,1.233-7.733,0.8-10.2
		c-3.633,14.867-7.9,29.367-12.8,43.5c-0.733,2-1.3,3.467-1.7,4.4c-0.742,1.56-1.592,3.034-2.55,4.425l-0.95-0.875
		c-0.8-0.867-1.367-1.4-1.7-1.601l-0.6-0.35c-0.167-0.2-0.317-0.333-0.45-0.4c-0.091-0.075-0.183-0.126-0.275-0.149
		c1.084-1.426,2.226-3.442,3.425-6.05c2.5-5.2,4.733-10.301,6.7-15.301c2.566-6.434,4.917-13.066,7.05-19.899
		c0.934-2.935,1.55-5.233,1.85-6.9c0.133-0.533,0.133-0.966,0-1.3c-0.02-0.08-0.045-0.154-0.075-0.225
		c1.169,0.045,2.661,0.403,4.475,1.074c19.167,6.9,40.483,12.95,63.95,18.15c16.509,3.662,36.034,7.295,58.575,10.9l1.85,5.3
		c-25.014-3.729-49.772-8.961-74.275-15.7c-12.1-3.367-28.7-8.467-49.8-15.3c5.033,2.7,12.333,5.683,21.9,8.95
		c33.386,11.194,67.952,19.429,103.7,24.699c-0.019,0.104-0.035,0.22-0.05,0.351c0,0.7-0.017,1.133-0.05,1.3l-0.1,0.65
		c-0.067,0.267,0.033,0.434,0.3,0.5l0.2,0.05l0.2,0.1c0.2,0,0.383-0.083,0.55-0.25s0.233-0.35,0.2-0.55l-0.1-0.3l-0.05-0.601
		c0.067-0.434,0.05-0.816-0.05-1.149c-0.133-0.5-0.333-0.817-0.6-0.95c-0.191,0.144-0.333,0.394-0.425,0.75
		c-0.033-0.226-0.058-0.442-0.075-0.65c0.013-0.013,0.03-0.029,0.05-0.05c0.167-0.133,0.167-0.466,0-1
		c-0.041-0.091-0.083-0.19-0.125-0.3c0.006-0.118,0.014-0.234,0.025-0.35c-0.055-0.009-0.113-0.017-0.175-0.025
		c-0.204-0.606-0.413-1.381-0.625-2.325c-0.325-1.333-0.617-2.3-0.875-2.899c0.323,0.048,0.647,0.099,0.975,0.149
		c-0.2-0.133-0.367-0.267-0.5-0.399c-0.294-0.245-0.561-0.471-0.8-0.676v-0.024c-0.306-0.275-0.564-0.518-0.775-0.726l-0.025-0.024
		c-0.055-0.051-0.105-0.102-0.15-0.15c-0.173-0.16-0.307-0.293-0.4-0.399c-0.032-0.032-0.049-0.065-0.05-0.101
		c0,0.119,0,0.26,0,0.425c-20.852-3.634-37.202-6.676-49.05-9.125c-26.267-5.467-49.6-11.532-70-18.199
		c-3.533-1.134-6.083-1.833-7.65-2.101c-0.467-0.1-0.85-0.065-1.15,0.101c-0.167,0.1-0.267,0.267-0.3,0.5
		c-0.005,0.032-0.005,0.066,0,0.1c-0.224,0.202-0.407,0.569-0.55,1.1c-0.8,3.667-2.133,8.301-4,13.9
		c-1.167,3.533-2.65,7.667-4.45,12.4l-5.9,15.1c-0.833,2.1-1.433,3.533-1.8,4.3c-0.6,1.228-1.233,2.301-1.9,3.226
		c-0.098,0.027-0.181,0.069-0.25,0.125c-0.227,0.171-0.319,0.361-0.275,0.574L36.746,0.277z M48.596,8.228
		c0.333,0.133,0.85,0.183,1.55,0.149c0.367,0,1.167,0.117,2.4,0.351c1.067,0.232,2.217,0.35,3.45,0.35
		c0.039-0.02,0.056-0.053,0.05-0.1c9.208,2.219,19.225,5.119,30.05,8.7c7.566,2.532,19.233,6.717,35,12.55
		c10.433,3.899,18.283,6.966,23.55,9.2c7.982,3.402,15.041,6.869,21.175,10.399c-0.04,0.483-0.065,0.95-0.075,1.4
		c0.167-0.034,0.283-0.185,0.35-0.45c0.061-0.239,0.119-0.472,0.175-0.7c0.332,0.181,0.657,0.363,0.975,0.55
		c-0.303-0.236-0.611-0.471-0.925-0.699c3.369-13.21,7.044-26.21,11.025-39c1.367-4.4,2.55-7.75,3.55-10.051
		c1.567-3.6,3.383-6.583,5.45-8.949c0.8-1.033,1.066-1.833,0.8-2.4c-1.167,0.033-2.333,0.867-3.5,2.5c-2,2.8-3.783,6.133-5.35,10
		c-1.1,2.7-2.316,6.3-3.65,10.8c-2.566,8.667-4.933,17.667-7.1,27c-0.928,3.851-1.495,7.101-1.7,9.75
		c-3.051-2.213-6.901-4.497-11.55-6.85c-7.733-3.935-16.65-7.833-26.75-11.7c-6.333-2.467-15.5-5.767-27.5-9.9
		c-10.7-3.732-18.883-6.417-24.55-8.05c-9.167-2.633-17.55-4.433-25.15-5.399c0.509,0.11,1.018,0.228,1.525,0.35
		c-1.045-0.088-2.12-0.088-3.225,0L48.596,8.228z M71.446,3.377c5.1,1.4,10.2,2.9,15.3,4.5c5.633,1.768,10.9,3.483,15.8,5.15
		c6.233,2.1,15.583,5.25,28.05,9.45c9.721,3.177,18.421,5.744,26.1,7.7l-0.05,0.649c0,0.356,0.008,0.656,0.025,0.9
		c-31.493-11.204-63.302-20.938-95.425-29.2c8.233,2.867,21.583,7.133,40.05,12.8c17.434,5.3,30.784,9.633,40.05,13
		c4.5,1.601,7.517,2.65,9.05,3.15c2.767,0.867,5.333,1.5,7.7,1.899c-0.167-0.333-0.25-0.732-0.25-1.199
		c-0.041-0.027-0.083-0.053-0.125-0.075l0.025-0.025l0.1-0.45v-0.899c0.009-0.07,0.025-0.154,0.05-0.25
		c0.049,0.021,0.099,0.037,0.15,0.05c0.067-0.4,0.167-0.817,0.3-1.25l-0.1-0.025c-0.026-0.26-0.076-0.45-0.15-0.574
		c-0.067-0.134-0.133-0.218-0.2-0.25l-0.25-0.051c-0.233,0-0.4,0.051-0.5,0.15c-0.055,0.055-0.088,0.164-0.1,0.325l-71.2-22.675
		c-3.3-1-5.667-1.667-7.1-2C76.046,3.544,73.613,3.277,71.446,3.377z M158.396,19.228c-0.6-0.067-1.083-0.018-1.45,0.149
		l-0.25,0.101l-0.25-0.101l-0.95-0.699c-0.267-0.2-0.467-0.417-0.6-0.65c-0.1-0.2-0.15-0.533-0.15-1l0.05-0.6
		c0.167-0.434,0.517-0.733,1.05-0.9c0.267-0.067,0.733-0.1,1.4-0.1c0.3,0,0.533,0.032,0.7,0.1c0.2,0.1,0.367,0.233,0.5,0.4
		c0.367,0.267,0.6,0.566,0.7,0.899c0.1,0.233,0.133,0.55,0.1,0.95c-0.033,0.533-0.033,0.883,0,1.05
		C158.946,18.827,158.663,18.96,158.396,19.228z M159.746,19.728c0.333-0.3,0.5-0.833,0.5-1.601c0.067-0.667,0.017-1.3-0.15-1.899
		c-0.167-0.7-0.517-1.217-1.05-1.55c-0.6-0.434-1.583-0.551-2.95-0.351l-1.15,0.2c-0.333,0.133-0.55,0.267-0.65,0.4
		c-0.167,0.167-0.283,0.5-0.35,1c-0.067,0.333-0.1,0.85-0.1,1.55c0,0.367,0.05,0.649,0.15,0.85c0.067,0.101,0.383,0.4,0.95,0.9
		l0.9,1c0.467,0.399,0.883,0.533,1.25,0.399c0.2-0.032,0.467-0.149,0.8-0.35c0.133-0.067,0.45-0.133,0.95-0.2
		C159.246,20.011,159.546,19.895,159.746,19.728z M160.946,10.527c0.066,0.067,0.2,0.117,0.4,0.15v0.1l0.5-0.25
		c0.033-0.033,0.083-0.1,0.15-0.2l0.05-0.1v-0.101l-0.3-0.5h-0.8c-0.2,0.268-0.267,0.468-0.2,0.601l0.05,0.149L160.946,10.527z
		 M156.546,6.827c0.367,0,0.65-0.033,0.85-0.1c0.7-0.233,1.083-0.717,1.15-1.45c0-0.533-0.167-1.017-0.5-1.45
		c-0.167-0.267-0.367-0.5-0.6-0.7c-0.167-0.133-0.483-0.3-0.95-0.5c-1.133-0.467-2-0.667-2.6-0.6c-0.467,0.033-0.867,0.2-1.2,0.5
		c-0.4,0.333-0.583,0.717-0.55,1.15c0,0.167,0.05,0.333,0.15,0.5c0.1,0.133,0.284,0.232,0.55,0.3c0.267,0.065,0.45,0.133,0.55,0.2
		c0.4-0.066,0.55-0.218,0.45-0.45c0-0.034-0.1-0.15-0.3-0.351c-0.167-0.167-0.2-0.3-0.1-0.399c0.767-0.167,1.533-0.083,2.3,0.25
		c0.6,0.267,1.233,0.7,1.9,1.3c-0.033,0.467-0.383,0.7-1.05,0.7c-0.767-0.101-1.217-0.117-1.35-0.05
		c0.033-0.233-0.133-0.351-0.5-0.351c-0.4,0-0.7,0.05-0.9,0.15c-0.3,0.2-0.434,0.433-0.4,0.7c0.066,0.267,0.233,0.449,0.5,0.55
		c0.367,0.167,0.833,0.216,1.4,0.149L156.546,6.827z M157.496-5.572c-0.367-0.533-0.95-0.983-1.75-1.351
		c-0.8-0.333-1.5-0.482-2.1-0.45c-0.8,0.033-1.533,0.367-2.2,1c-0.267,0.167-0.483,0.45-0.65,0.851c-0.033,0.1-0.05,0.617-0.05,1.55
		c0,0.967,0.017,1.5,0.05,1.6c0.067,0.233,0.284,0.634,0.65,1.2c0.267,0.4,0.517,0.667,0.75,0.8c0.267,0.134,0.6,0.167,1,0.101
		c0.1-0.034,0.433-0.133,1-0.3c1.367-0.5,2.25-0.934,2.65-1.301c0.533-0.467,0.867-1.05,1-1.75
		C157.979-4.355,157.863-5.006,157.496-5.572z M155.446-2.022c-0.3,0.232-0.534,0.35-0.7,0.35c-0.133,0-0.317-0.033-0.55-0.1
		c-0.233-0.101-0.417-0.133-0.55-0.101c-0.267,0.101-0.45,0.167-0.55,0.2c-0.2,0-0.417-0.149-0.65-0.45
		c-0.1-0.267-0.267-0.449-0.5-0.55c0.133-0.232,0.167-0.649,0.1-1.25c-0.033-0.565,0.05-0.966,0.25-1.2
		c0.233-0.267,0.617-0.399,1.15-0.399c0.2-0.034,0.5-0.05,0.9-0.05c0.433,0.066,0.816,0.167,1.15,0.3
		c0.433,0.167,0.717,0.367,0.85,0.6c0.2,0.233,0.283,0.55,0.25,0.95c-0.033,0.333-0.15,0.65-0.35,0.95
		C156.179-2.64,155.913-2.39,155.446-2.022z M141.746-7.522c-0.04-0.052-0.09-0.103-0.15-0.15c0.116-0.072,0.199-0.222,0.25-0.45
		c0-0.3,0.033-0.517,0.1-0.649l0.4-0.55c0.033-0.066,0.033-0.25,0-0.551c0-0.232,0.033-0.399,0.1-0.5
		c0.02-0.041,0.037-0.083,0.05-0.125c0.037,0.01,0.07,0.018,0.1,0.025c-0.018-0.033-0.034-0.066-0.05-0.1
		c-0.146-0.293-0.271-0.577-0.375-0.851c-0.073-0.253-0.131-0.503-0.175-0.75c-0.022-0.102-0.039-0.202-0.05-0.3
		c-0.034-0.3-0.034-0.583,0-0.85c-0.167,0.066-0.284,0.167-0.35,0.3c-0.067,0.133-0.067,0.315,0,0.55
		c0.009,0.072,0.017,0.139,0.025,0.2c-12.978-3.375-20.886-5.441-23.725-6.2c-13.377-3.694-25.061-7.302-35.05-10.825
		c-0.03-0.235-0.13-0.411-0.3-0.524c-0.667,0-1.133,0.25-1.4,0.75c-0.1,0.3-0.15,0.6-0.15,0.899c-0.033,0.4-0.167,0.851-0.4,1.351
		l-0.45,1.05c-0.167,0.466-0.233,0.95-0.2,1.45c0.066,0.3,0.183,0.449,0.35,0.449s0.217,0.033,0.15,0.101
		c0.333-0.067,0.716-0.333,1.15-0.8c0.467-0.5,0.85-0.783,1.15-0.851h0.575c-0.028,0.031-0.053,0.064-0.075,0.101
		c0.167,0.366,0.717,0.699,1.65,1c1.733,0.467,3.45,1.282,5.15,2.449c0.333-0.066,0.467-0.282,0.4-0.649
		c-1.567-1.268-3.284-2.25-5.15-2.95c-0.211-0.088-0.412-0.155-0.6-0.2c0.288-0.31,0.305-0.577,0.05-0.8
		c-0.067-0.067-0.25-0.133-0.55-0.2c-0.934-0.065-1.65-0.1-2.15-0.1c0.333-0.435,0.583-1.067,0.75-1.9
		c0.05-0.213,0.067-0.396,0.05-0.55c0.432,0.659,1.349,1.259,2.75,1.8c9.566,3.567,20.633,7.117,33.2,10.65
		c4.605,1.278,12.088,3.262,22.45,5.95c0,0.126,0,0.275,0,0.449c0,0.233-0.067,0.583-0.2,1.051c-0.133,0.467-0.2,0.816-0.2,1.05
		c0,0.076,0.008,0.149,0.025,0.225c-0.128-0.051-0.27-0.092-0.425-0.125c-17.567-4.1-35.667-8.815-54.3-14.149
		c0.6,0.366,1.25,0.649,1.95,0.85c7.033,2.533,17.783,5.733,32.25,9.6l7.8,2.101c4.567,1.232,8.983,2.383,13.25,3.45
		c0.233-0.033,0.4-0.184,0.5-0.45C141.963-7.04,141.913-7.29,141.746-7.522z M114.646-3.272c0.267,0,0.467-0.083,0.6-0.25
		c0.133-0.2,0.117-0.417-0.05-0.65c-0.034-0.065-0.2-0.216-0.5-0.45c-1.1-0.699-2.917-1.449-5.45-2.25l-1.2-0.25
		c-0.6-0.1-1.216,0-1.85,0.301c-0.067,0.3,0.066,0.616,0.4,0.949c0.1,0.066,0.433,0.184,1,0.351c0.667,0.167,1.6,0.517,2.8,1.05
		c1,0.533,1.783,0.883,2.35,1.05C113.479-3.256,114.113-3.206,114.646-3.272z M65.146-7.423l1.3,0.351
		c1.5,0.267,2.633,0.35,3.4,0.25c0.367,0,0.633-0.117,0.8-0.351c0.167-0.232,0.1-0.5-0.2-0.8c-0.133-0.167-0.383-0.3-0.75-0.4
		c-1.467-0.467-3.55-0.833-6.25-1.1l-0.6,0.05c-0.267,0.067-0.4,0.217-0.4,0.45c0,0.3,0.283,0.517,0.85,0.65
		C63.729-8.189,64.346-7.89,65.146-7.423z M65.446-14.923c1.367,0.567,2.883,1.333,4.55,2.3c0.533,0.301,0.917,0.45,1.15,0.45
		c0.467,0.133,0.817-0.033,1.05-0.5c-0.2-0.367-0.617-0.75-1.25-1.149c-1.467-0.634-2.55-1.15-3.25-1.551
		c-0.367-0.199-0.583-0.316-0.65-0.35c-0.033,0-0.316-0.05-0.85-0.15c-0.467-0.133-0.817-0.199-1.05-0.199
		c-0.4-0.066-0.683,0.083-0.85,0.449C64.429-15.489,64.813-15.256,65.446-14.923z M72.396-34.072c-0.167-0.4-0.6-0.733-1.3-1
		c-1.067-0.367-2.15-0.468-3.25-0.301c-0.125,0.036-0.242,0.069-0.35,0.101c0.125-0.376,0.008-0.743-0.35-1.101
		c-0.4,0-0.683,0.051-0.85,0.15l-0.35,0.45c-0.367,0.732-0.617,1.466-0.75,2.2l-0.15,0.699c-0.05,0.398-0.075,0.766-0.075,1.101
		c-0.061-0.021-0.119-0.036-0.175-0.05c-0.367,0-0.566,0.116-0.6,0.35c0.27,0.281,0.553,0.54,0.85,0.775
		c0.059,0.229,0.143,0.371,0.25,0.425c0.12,0.044,0.236,0.053,0.35,0.024c1.295,0.878,2.795,1.354,4.5,1.426
		c0.434,0,0.717-0.083,0.85-0.25c0.033-0.033,0.1-0.233,0.2-0.601c0.066-0.767,0.267-1.466,0.6-2.1
		c0.133-0.268,0.317-0.65,0.55-1.15C72.513-33.355,72.529-33.739,72.396-34.072z M70.296-31.873
		c-0.267,0.801-0.383,1.417-0.35,1.851c-1.346-0.229-2.629-0.629-3.85-1.2c0-0.049,0-0.099,0-0.15c0-0.399,0.05-0.667,0.15-0.8
		c0.067-0.133,0.167-0.3,0.3-0.5c0.067-0.167,0.1-0.399,0.1-0.7c0.067-0.133,0.2-0.3,0.4-0.5c0.216,0.058,0.516,0.04,0.9-0.05
		c0.933-0.2,1.85-0.133,2.75,0.2C70.729-33.322,70.596-32.706,70.296-31.873z"/>
</symbol>
<symbol  id="FXGH" viewBox="-129.999 -98.536 259.998 197.072">
	<path fill="#872339" d="M52.635,65.964c-2.633-1.967-4.833-3.8-6.6-5.5c-1.5-1.435-3.4-3.45-5.7-6.05
		c-2.833-3.134-4.917-5.768-6.25-7.9c-0.5-0.833-1.15-2-1.95-3.5c-0.933-1.7-1.583-2.867-1.95-3.5c-0.767-1.4-2.133-3.567-4.1-6.5
		l-9.5-14.2c3.367-2.7,6.017-4.716,7.95-6.05c3.034-2.067,5.917-3.683,8.65-4.85c3.233-1.367,6.45-2.167,9.65-2.4
		c3.533-0.267,6.75,0.217,9.65,1.45c1.533,0.633,3.733,1.815,6.6,3.55c1.6,0.8,2.65,1.483,3.15,2.05
		c0.333,0.367,0.65,0.867,0.95,1.5c0.3,0.733,0.517,1.284,0.65,1.65c1.4,3.933,3.15,7.667,5.25,11.2c3.1,5.066,6.367,8.232,9.8,9.5
		c2.4,7.633,2.783,15.383,1.15,23.25c-1.367,6.467-4.066,10.517-8.1,12.149c-2.233,0.9-4.817,0.983-7.75,0.25
		C60.952,71.264,57.103,69.23,52.635,65.964z M68.535,74.613c2.167-0.133,4.1-0.684,5.8-1.649c4.733-2.667,7.55-8.117,8.45-16.351
		c0.867-6.866,0.534-13.267-1-19.199c3.4,1.1,6.067,1.899,8,2.399c2.934,0.768,5.65,1.284,8.15,1.55
		c6.2,0.733,11.617-0.017,16.25-2.25c3.267-1.633,6.55-4.35,9.85-8.149c3.434-4.034,5.367-7.784,5.8-11.25
		c0.2-1.333,0.217-2.833,0.05-4.5c-0.1-1-0.333-2.483-0.7-4.45l-4.85-26.8c-0.833-4.435-1.633-7.784-2.4-10.05
		c-1.267-3.601-2.983-6.483-5.15-8.65c-1.167-1.167-2.65-2.3-4.45-3.4c-1.133-0.633-2.817-1.5-5.05-2.6
		c-3.6-1.767-6.433-2.983-8.5-3.65c-3.267-1.066-6.25-1.467-8.95-1.199c-2.967,0.267-5.983,1.35-9.05,3.25
		c-2.267,1.399-4.833,3.434-7.7,6.1c-2,1.767-3.483,2.9-4.45,3.4c-2.5,1.199-5.35,1.316-8.55,0.35
		c-3.167-0.933-6.017-2.75-8.55-5.45c-2.333-2.433-4.183-5.35-5.55-8.75c-1.133-2.867-2-6.183-2.6-9.95
		c-0.367-2.366-0.733-5.816-1.1-10.35l-1.35-16.5c-0.333-3.967-0.867-6.867-1.6-8.7c-1.233-3.267-3.184-5.383-5.85-6.35
		c1.3,2.367,2.1,3.933,2.4,4.7c0.8,2,1.35,4.366,1.65,7.1c0.167,1.267,0.317,3.75,0.45,7.45c0.3,7.267,1.083,14.617,2.35,22.05
		c0.7,4,1.483,7.317,2.35,9.95c1.167,3.533,2.683,6.533,4.55,9c2.367,3.133,5.283,5.533,8.75,7.2c2.067,1.032,4.167,1.667,6.3,1.899
		c2.333,0.268,4.467,0.018,6.4-0.75c1.533-0.633,3.183-1.716,4.95-3.25c1-0.867,2.45-2.216,4.35-4.05
		c4.6-3.933,9.217-5.833,13.85-5.7c1.733,0.034,3.633,0.4,5.7,1.101c1.1,0.366,2.917,1.1,5.45,2.199c3.733,1.7,6.5,3.134,8.3,4.301
		c2.9,1.899,5.034,4.032,6.4,6.399c0.7,1.233,1.3,2.717,1.8,4.45c0.3,1.1,0.65,2.683,1.05,4.75l5.65,28.85
		c0.5,2.566,0.8,4.533,0.9,5.9c0.2,2.233,0.083,4.2-0.35,5.9c-0.7,2.767-2.417,5.699-5.15,8.8c-4.567,5.232-9.317,8.3-14.25,9.2
		c-2.934,0.566-6.917,0.333-11.95-0.7c-3.7-0.768-7.117-1.534-10.25-2.3c-1.867-0.468-3.167-1.051-3.9-1.75
		c-0.7-0.601-1.333-1.65-1.9-3.15c-2.2-5.333-3.517-8.433-3.95-9.3c-1.767-3.367-3.8-5.917-6.1-7.65
		c-0.767-0.533-1.333-0.95-1.7-1.25c-0.667-0.5-1.2-0.966-1.6-1.399c-0.833-0.968-1.583-2.733-2.25-5.301
		c-1.767-6.566-4.283-12.816-7.55-18.75c-3.333-6.066-7.067-11.116-11.2-15.149c-2.2-2.233-5.4-4.95-9.6-8.15
		c-3.7-2.867-6.816-4.815-9.35-5.85c-2.966-1.167-6.917-1.833-11.85-2c-5.333-0.2-10.55-0.033-15.65,0.5
		c-4.5,0.5-7.9,1.45-10.2,2.85c-2.133,1.3-3.883,3.15-5.25,5.55c-1.267,2.2-2.133,4.667-2.6,7.4c-0.367,2.3-0.467,4.883-0.3,7.75
		c0.1,1.933,0.367,4.517,0.8,7.75c-1.167-0.433-2.367-0.483-3.6-0.15c-1.267,0.333-2.267,0.968-3,1.9c-0.9,1.1-1.533,2.7-1.9,4.8
		c-1.467,7.967-0.85,17.467,1.85,28.5c0.733,3,2.017,7.617,3.85,13.851c1.8,6.032,3.083,10.649,3.85,13.85
		c0.5,2.2,0.817,3.983,0.95,5.35c0.2,2,0.15,3.801-0.15,5.4c-0.533,2.8-1.75,4.75-3.65,5.85c-2.367,1.4-5.583,1.134-9.65-0.8
		c-4.633-2.3-9.117-5.767-13.45-10.399c-3.067-3.301-6.6-7.851-10.6-13.65c-4.2-6.133-7.667-11.567-10.4-16.3
		c-3.5-6-6.317-11.768-8.45-17.3c-0.566-1.5-1.4-3.768-2.5-6.801c-1-2.667-1.933-4.866-2.8-6.6c-2.467-4.967-5.583-8.533-9.35-10.7
		c-3.367-1.933-6.617-2.466-9.75-1.6c-1.667,0.466-3.1,1.333-4.3,2.6c-1.267,1.3-2,2.768-2.2,4.4c-0.167,1.565,0.233,3.667,1.2,6.3
		c2.566,6.8,6.683,14.55,12.35,23.25c3.072,4.767,7.722,11.742,13.95,20.925c-0.126-0.056-0.26-0.114-0.4-0.175
		c-0.1-0.067-0.967-0.45-2.6-1.15c-1.267-0.6-2.217-1.032-2.85-1.3c-1.1-0.533-2.066-0.917-2.9-1.149
		c-1.6-0.5-3.45-0.783-5.55-0.851c-1.333-0.065-3.217-0.033-5.65,0.101c-5.4,0.333-9.517,1-12.35,2
		c-2.534,0.899-4.983,2.25-7.35,4.05c-3.233,2.466-5.95,5.433-8.15,8.899c-2.233,3.533-3.767,7.268-4.6,11.2
		c-0.733,3.4-0.983,7.4-0.75,12c0.467,7.8,2.283,14.083,5.45,18.851c0.4,0.6,0.8,0.949,1.2,1.05c0.267,0.1,0.533,0.083,0.8-0.05
		c-0.059,0.296-0.142,0.563-0.25,0.8c1.133,0.633,2.434,1.2,3.9,1.7c6.167,2.1,12.617,2.434,19.35,1
		c6.667-1.434,12.45-4.351,17.35-8.75c3.333-3,6.05-6.483,8.15-10.45c2.167-4.034,3.534-8.233,4.1-12.601
		c0.6-4.399,0.383-8.8-0.65-13.199c-0.541-2.287-1.266-4.461-2.175-6.525c0.05-0.605-0.059-1.23-0.325-1.875
		c-0.367-0.9-0.933-1.667-1.7-2.3c-0.226-0.191-0.476-0.374-0.75-0.55c0.117-0.223,0.167-0.506,0.15-0.851
		c-0.034-0.565-0.233-1.133-0.6-1.7c-6.3-9.267-10.95-16.25-13.95-20.949c-5.2-8.233-9-15.65-11.4-22.25
		c-1-2.9-1.233-5.117-0.7-6.65c0.333-0.967,0.934-1.783,1.8-2.45c0.8-0.667,1.733-1.133,2.8-1.399c1.9-0.468,3.95-0.25,6.15,0.649
		c4.133,1.633,7.583,5,10.35,10.101c0.967,1.8,1.95,4.05,2.95,6.75c1.1,3.1,1.933,5.417,2.5,6.949
		c2.133,5.634,4.967,11.518,8.5,17.65c2.767,4.8,6.3,10.3,10.6,16.5c3.966,5.7,7.45,10.2,10.45,13.5
		c4.233,4.6,8.583,8.117,13.05,10.55c2.333,1.268,4.55,2.067,6.65,2.4c2.533,0.399,4.717,0.05,6.55-1.05c2.533-1.5,4.1-4,4.7-7.5
		c0.367-2.2,0.2-5.218-0.5-9.051c-0.7-3.699-1.867-8.399-3.5-14.1c-2.267-7.867-3.583-12.533-3.95-14
		c-2.9-11.333-3.65-20.933-2.25-28.8c0.3-2,0.9-3.467,1.8-4.4c0.566-0.633,1.283-1,2.15-1.1c0.9-0.101,1.633,0.117,2.2,0.649
		c0.534,3.5,1.017,6.134,1.45,7.9c0.733,2.867,1.7,5.317,2.9,7.35c1.133,1.833,2.783,3.934,4.95,6.301
		c3.4,3.699,6.333,6.167,8.8,7.399c1.934,0.967,4,1.534,6.2,1.7c2.233,0.167,4.383-0.067,6.45-0.7c1.333-0.367,2.25-0.482,2.75-0.35
		c0.767,0.167,1.517,0.899,2.25,2.2l7.3,11.899c3.033,5,5.45,8.851,7.25,11.55c2.833,4.167,5.583,7.768,8.25,10.801
		c3.633,4.1,7.683,7.816,12.15,11.149c3.933,2.967,7.5,4.917,10.7,5.851C64.502,74.48,66.535,74.714,68.535,74.613z M15.335,16.014
		c-0.367-0.033-0.767-0.333-1.2-0.9c-4.933-6.267-9.533-11.366-13.8-15.3c-5.467-5.033-11.067-8.815-16.8-11.35
		c-0.466-4.633-0.55-9.167-0.25-13.601c0.2-2.5,0.534-4.55,1-6.149c0.633-2.167,1.617-3.9,2.95-5.2c2-1.867,5.083-3.083,9.25-3.65
		c3.033-0.467,7.217-0.8,12.55-1c3.3-0.1,5.934-0.066,7.9,0.101c2.9,0.232,5.433,0.783,7.6,1.649c2.133,0.867,4.833,2.483,8.1,4.851
		c3.5,2.466,6.5,4.85,9,7.149c9.167,8.468,16,20.667,20.5,36.601c-2.667-1.5-4.683-2.583-6.05-3.25c-2.367-1.167-4.5-2-6.4-2.5
		c-5.567-1.435-11.5-0.768-17.8,2c-4.333,1.867-9.417,5.183-15.25,9.95C16.068,15.847,15.635,16.047,15.335,16.014z M12.585,17.464
		c-1.133,0.7-2.434,1.149-3.9,1.35c-2.7,0.3-6.1-0.6-10.2-2.7c-1.3-0.732-2.15-1.282-2.55-1.649c-0.434-0.367-0.883-0.883-1.35-1.55
		c-0.533-0.768-0.95-1.316-1.25-1.65c-0.467-0.567-1.3-1.45-2.5-2.65c-1.1-1.066-1.917-1.949-2.45-2.649
		c-1-1.333-1.816-2.967-2.45-4.9c-0.433-1.267-0.883-3.05-1.35-5.35c-0.4-1.867-0.65-3.268-0.75-4.2
		c1.267,0.133,2.883,0.917,4.85,2.35c4.633,3.268,7.95,5.816,9.95,7.65c1.567,1.367,4.017,3.867,7.35,7.5l2.75,3
		c0.767,0.833,1.417,1.6,1.95,2.3C11.118,14.914,11.752,15.964,12.585,17.464z M74.535,30.464c-3.667-4.733-6.45-9.883-8.35-15.45
		c1.6,0.533,3.216,2.033,4.85,4.5c1.133,1.6,2.133,3.333,3,5.2l3.4,7.95C76.502,32.497,75.535,31.764,74.535,30.464z
		 M-95.165,94.313c-4.6,1.733-9.434,2.435-14.5,2.101c-4.409-0.26-8.55-1.276-12.425-3.051c-0.056-0.207-0.231-0.457-0.525-0.75
		c-1.4-1.333-2.533-3.517-3.4-6.55c-2.4-8.033-2.617-16.183-0.65-24.45c0.5-2.267,1.167-4.199,2-5.8c0.733-1.433,1.95-3.2,3.65-5.3
		c0.676-0.807,1.343-1.565,2-2.275c0.065,0.038,0.132,0.08,0.2,0.125c1.267,0.7,2.35,1.367,3.25,2
		c0.277,0.208,0.535,0.416,0.775,0.625l-0.025,0.025c0.078,0.049,0.162,0.099,0.25,0.15c0.251,0.218,0.484,0.435,0.7,0.649
		c0.5,0.4,0.817,0.633,0.95,0.7c0.198,0.057,0.373,0.073,0.525,0.05c8.004,5.107,13.979,9.124,17.925,12.05
		c6.5,4.867,11.867,9.768,16.1,14.7c0.241,0.271,0.466,0.521,0.675,0.75c-0.073,0.117-0.148,0.233-0.225,0.351
		c-2.067,3.167-4.567,5.934-7.5,8.3C-88.415,91.113-91.665,92.98-95.165,94.313z M-112.515,50.613
		c-1.616-1.293-3.358-2.525-5.225-3.699c2.253-2.229,4.429-3.896,6.525-5c2.167-1.134,4.717-1.95,7.65-2.45
		c2.1-0.367,4.816-0.633,8.15-0.8c2.6-0.134,4.667-0.083,6.2,0.149c2.1,0.3,5,1.25,8.7,2.851c1.78,0.781,3.105,1.499,3.975,2.149
		c0.464,0.883,0.956,1.934,1.475,3.15c1.1,2.6,1.85,4.649,2.25,6.149c0.466,1.833,0.733,3.801,0.8,5.9
		c0.167,3.767-0.267,7.483-1.3,11.15c-0.829,3.066-2.021,5.941-3.575,8.625c-0.337-0.604-0.762-1.229-1.275-1.875
		c-1.733-2.268-3.9-4.551-6.5-6.851c-1.867-1.633-4.35-3.617-7.45-5.95c-7.529-5.631-14.271-10.082-20.225-13.35
		C-112.395,50.714-112.453,50.663-112.515,50.613z M-92.215,54.964c-0.167-0.3-0.15-0.685,0.05-1.15l0.65-1.3
		c1-1.833,2.067-3.167,3.2-4c1.633-1.233,3.5-1.6,5.6-1.1c0.267,0.633,0.167,1.333-0.3,2.1c-0.567,0.8-0.95,1.417-1.15,1.85
		c-0.267,0.667-0.517,1.134-0.75,1.4c-0.167,0.233-0.45,0.45-0.85,0.65c-0.467,0.232-0.817,0.417-1.05,0.55
		c-0.667,0.533-1.184,0.899-1.55,1.1c-0.967,0.601-1.983,0.733-3.05,0.4C-91.814,55.331-92.082,55.164-92.215,54.964z
		 M-92.215,56.514c-0.033,0.5,0.383,0.783,1.25,0.85c1.467,0.134,2.55,0,3.25-0.399c0.367-0.233,0.85-0.685,1.45-1.351
		c0.367-0.267,0.95-0.633,1.75-1.1c0.367-0.3,0.817-0.85,1.35-1.65c0.7-1.066,1.167-1.866,1.4-2.399
		c0.467-0.9,0.717-1.768,0.75-2.601c0.067-0.934-0.167-1.583-0.7-1.949c-0.333-0.2-0.8-0.301-1.4-0.301
		c-1.967,0-3.4,0.184-4.3,0.551c-0.967,0.399-1.917,1.116-2.85,2.149c-2.267,2.5-3.383,5.15-3.35,7.95c0,0.5,0.15,0.733,0.45,0.7
		c0.033,0,0.183-0.133,0.45-0.4c0.067-0.1,0.15-0.149,0.25-0.149C-92.332,56.381-92.248,56.414-92.215,56.514z"/>
</symbol>
<symbol  id="GFH" viewBox="-221.826 -93.062 443.652 186.123">
	<g id="Layer_3_2_">
		<path fill="#872339" d="M20.125,27.938c1.333-1.367,2.333-2.65,3-3.851c1.633-2.732,2.633-6.649,3-11.75
			c0.133-2.167,0.367-3.684,0.7-4.55c0.533-1.433,1.7-2.966,3.5-4.6c1.566-1.5,3.217-2.9,4.95-4.2
			c0.258-0.169,0.483-0.335,0.675-0.5c4.999,5.992,9.34,10.842,13.025,14.55c4.567,4.567,9.133,8.534,13.7,11.9
			c0.233-0.534,0.517-1,0.85-1.4c-8.924-7.041-17.89-15.95-26.9-26.725c-0.218-0.258-0.435-0.517-0.65-0.775l-0.025-0.024
			c-0.027-0.022-0.052-0.048-0.075-0.075c-5.833-7-13.917-17.75-24.25-32.25c-0.27-0.366-0.528-0.716-0.775-1.05
			c0.764-0.114,1.772-0.498,3.025-1.15c8.733-4.933,20.2-12.6,34.4-23c15.867-11.667,27.184-19.6,33.95-23.8
			c3.438-2.134,7.164-4.334,11.175-6.601c12.396,13.485,24.038,27.535,34.925,42.15c4.333,5.767,7.433,10.6,9.3,14.5l1.25,2.85
			c0.022,0.33,0.022,0.646,0,0.95c-0.066,0.935-0.35,1.817-0.85,2.65s-1.133,1.5-1.9,2c-0.367,0.2-0.6,0.399-0.7,0.6
			c-0.031,0.063-0.056,0.128-0.075,0.2c-17.076,7.597-33.301,16.53-48.675,26.8c-5.4,3.601-9.767,6.867-13.1,9.8
			c-4.434,3.968-7.917,8.083-10.45,12.351c0.767,0.065,1.6-0.45,2.5-1.55c4.333-5.233,9.817-10.268,16.45-15.101
			c4.867-3.6,11.183-7.633,18.95-12.1c10.7-6.133,21.684-11.935,32.95-17.4c1.2-0.6,2.283-1.133,3.25-1.6
			c0.367-0.768,0.85-1.65,1.45-2.65h-0.025c0.225-0.368,0.466-0.751,0.725-1.149l1.2-1.9c0.133-0.7,0.183-1.417,0.15-2.15
			c-0.033-1-0.317-2.133-0.85-3.399c-0.642-1.595-1.4-2.903-2.275-3.925c-0.652-1.259-1.46-2.65-2.425-4.176
			c-2.633-4.032-6.65-9.5-12.05-16.399c-5.5-6.935-9.767-12.217-12.8-15.851c-3.833-4.667-7.033-8.267-9.6-10.8
			c-2.03-2.03-4.063-3.83-6.1-5.399c0.103-0.047,0.203-0.097,0.3-0.15c-0.333-0.2-0.6-0.3-0.8-0.3c-0.024,0-0.058,0-0.1,0h-0.05
			c-0.124,0.008-0.274,0.041-0.45,0.1l-0.6,0.2c-0.1,0.033-0.184,0.05-0.25,0.05c0.044,0.048,0.085,0.099,0.125,0.15
			c-2.774,1.178-4.982,2.178-6.625,3c-5.7,2.767-11.934,6.517-18.7,11.25c-2.267,1.6-8.15,5.95-17.65,13.05
			c-11.833,8.833-24,17.417-36.5,25.75c-1.077,0.8-2.052,1.316-2.925,1.55c-0.502-0.658-0.944-1.225-1.325-1.7
			c0.267,2.134,1.467,4.768,3.6,7.9c3.433,5.167,8.816,12.333,16.15,21.5c1.801,2.26,3.534,4.402,5.2,6.425
			c-0.327,0.179-0.694,0.421-1.1,0.726c-1.2,0.967-2.5,2.1-3.9,3.399c-2.133,2-3.566,3.733-4.3,5.2
			c-0.767,1.567-1.283,3.867-1.55,6.9c-0.3,3.467-0.667,5.833-1.1,7.1c-0.767,2.267-2.3,4.617-4.6,7.05
			c-3.367,3.435-7.35,6.034-11.95,7.8c-4.6,1.801-9.283,2.551-14.05,2.25c-3.633-0.232-6.767-1.05-9.4-2.449
			c-1.267-0.7-2.9-1.884-4.9-3.551c-2.434-2-4.267-3.917-5.5-5.75c-0.934-1.467-2.034-4.083-3.3-7.85
			c-1.8-5.733-2.95-10.083-3.45-13.05c-0.233-1.467-0.534-3.667-0.9-6.601c-0.4-2.6-0.917-4.732-1.55-6.399
			c-0.867-2.233-2.1-4.083-3.7-5.55c-1.767-1.634-3.7-2.518-5.8-2.65c-1.767-0.067-3.617,0.433-5.55,1.5
			c-1.3,0.7-2.934,1.85-4.9,3.45c-4.966,4.2-9.9,8.667-14.8,13.399c-2.333,2.333-4.133,4.051-5.4,5.15c-1.934,1.633-4.2,3.3-6.8,5
			c-3.933,2.633-8.167,5.15-12.7,7.55c-3.3,1.733-6.017,2.967-8.15,3.7c-3.133,1.1-7.517,2-13.15,2.7c-5.066,0.6-9.3,0.8-12.7,0.6
			c-4.633-0.232-8.65-1.216-12.05-2.95c-1.433-0.732-2.983-1.699-4.65-2.899c-0.733-0.567-2.183-1.7-4.35-3.4
			c-3.9-3.065-9.55-7.133-16.95-12.2c-3.267-2.3-5.883-3.883-7.85-4.75c-3.2-1.399-6.9-2.3-11.1-2.699
			c-2.667-0.268-4.767-0.167-6.3,0.3c-1.367,0.399-3.1,1.399-5.2,3c-2.767,2.065-5.5,4.333-8.2,6.8
			c-5.3,4.767-9.034,9.283-11.2,13.55c-1.4,2.733-2.283,5.55-2.65,8.45c-0.367,3.1-0.067,5.983,0.9,8.65c1,2.767,2.817,5.434,5.45,8
			c1.767,1.767,4.367,3.833,7.8,6.199c3.333,2.301,6.2,4.101,8.6,5.4c2.133,1.1,5.083,2.333,8.85,3.7c3.233,1.133,5.8,1.899,7.7,2.3
			c2,0.433,4.717,0.783,8.15,1.05c2.8,0.167,7.8,0.351,15,0.55c6.367,0.167,11.367,0.417,15,0.75
			c7.487,0.726,14.096,2.101,19.825,4.125c0.023,0.022,0.048,0.049,0.075,0.075c0.767,0.633,2,1.25,3.7,1.851
			c1.867,0.633,3.15,1.184,3.85,1.649c1.3,0.833,2.35,2.101,3.15,3.8c0.867,1.733,1.233,3.367,1.1,4.9
			c-0.033,0.567-0.217,1.45-0.55,2.65l-0.75,2.699c-0.467,1.833-1,3.184-1.6,4.051c-0.233,0.399-0.367,0.667-0.4,0.8
			c-0.133,0.367-0.05,0.633,0.25,0.8c0.333,0.167,0.7,0.05,1.1-0.35c1.067-0.968,2-2.733,2.8-5.301l0.85-2.399
			c0.4-1.333,0.617-2.185,0.65-2.55c0.1-0.934-0.033-2.184-0.4-3.75c-0.6-2.268-1.434-4-2.5-5.2c-0.733-0.867-2.1-1.867-4.1-3
			c-0.733-0.4-1.283-0.667-1.65-0.8c-1.233-0.233-2.133-0.468-2.7-0.7c-0.7-0.367-1.25-0.601-1.65-0.7
			c-0.198-0.054-0.381-0.087-0.55-0.1c-3.165-1.254-6.599-2.271-10.3-3.051c-5.233-1.1-12.217-1.866-20.95-2.3
			c-0.1,0-3.683-0.149-10.75-0.45c-4.833-0.133-8.45-0.333-10.85-0.6c-5.867-0.7-11.7-2.333-17.5-4.9
			c-5.467-2.434-10.684-5.583-15.65-9.449c-4.633-3.634-7.583-7.184-8.85-10.65c-0.967-2.667-1.167-5.55-0.6-8.65
			c0.5-2.866,1.566-5.616,3.2-8.25c1.367-2.267,3.217-4.566,5.55-6.899c1.467-1.435,3.667-3.417,6.6-5.95
			c1.833-1.6,3.466-2.967,4.9-4.1c2.167-1.733,4.033-2.801,5.6-3.2c1.267-0.333,3.066-0.367,5.4-0.101c4.467,0.5,8.233,1.5,11.3,3
			c1.4,0.7,3.617,2.101,6.65,4.2l10.85,7.65c3.067,2.2,5,3.617,5.8,4.25c3.733,2.966,5.95,4.683,6.65,5.149
			c3.933,2.468,8.633,3.983,14.1,4.551c3.933,0.434,8.9,0.316,14.9-0.351c4.1-0.5,7.35-1.065,9.75-1.7
			c5.5-1.467,12.066-4.532,19.7-9.199c3.8-2.301,6.867-4.316,9.2-6.051c2.867-2.167,7.15-6,12.85-11.5
			c5.367-5.232,9.683-9.017,12.95-11.35c2.267-1.6,4.167-2.417,5.7-2.45c1.467-0.033,2.85,0.45,4.15,1.45
			c1.167,0.933,2.1,2.133,2.8,3.6c0.533,1.2,0.95,2.634,1.25,4.301c0.066,0.366,0.283,1.866,0.65,4.5
			c0.867,6.899,2.75,14.167,5.65,21.8c0.867,2.267,1.717,4.033,2.55,5.3c0.9,1.333,2.583,3.067,5.05,5.2
			c2.967,2.6,5.45,4.383,7.45,5.35c2.233,1.034,4.817,1.685,7.75,1.95c5.567,0.533,11.05-0.2,16.45-2.2S16.259,32.005,20.125,27.938
			z M52.875,3.738c-0.1-0.267-0.283-0.483-0.55-0.65l-0.15-0.149c-0.034-0.067-0.034-0.117,0-0.15c0.1-0.065,0.216-0.033,0.35,0.101
			l0.1,0.05l0.2,0.25l0.1,0.25C52.993,3.538,52.976,3.639,52.875,3.738z M52.926,4.688c0.433-0.067,0.733-0.333,0.9-0.8
			c0.1-0.367,0.05-0.768-0.15-1.2c-0.3-0.601-0.7-0.967-1.2-1.101c-0.267-0.066-0.55-0.05-0.85,0.051
			c-0.267,0.133-0.45,0.333-0.55,0.6c-0.167-0.1-0.317-0.233-0.45-0.4l-0.1,0.101l0.3,0.75c0.267,0.667,0.7,1.232,1.3,1.7
			C52.458,4.588,52.726,4.688,52.926,4.688z M220.601-33.562h0.025c0-0.122,0.008-0.247,0.025-0.375
			c0.004-0.092,0.012-0.185,0.025-0.275c0.066-0.495,0.15-1.061,0.25-1.7c0-1.232,0.066-2.066,0.2-2.5c0.167-0.434,0.4-0.8,0.7-1.1
			c-0.167-0.633-0.434-1.117-0.8-1.45c-0.044,0.038-0.086,0.08-0.125,0.125c-0.146-0.054-0.338-0.095-0.575-0.125l-18.05-0.8
			c-0.966-0.067-2.45-0.133-4.45-0.2c-3.6,0-6.317-0.017-8.15-0.05c-3.2-0.033-5.9-0.217-8.1-0.55
			c-1.202-0.165-2.135-0.257-2.8-0.275c-0.019-0.006-0.035-0.015-0.05-0.024c-0.333-0.268-0.617-0.4-0.85-0.4
			c-0.133,0.033-0.267,0.117-0.4,0.25c-0.1,0.133-0.133,0.283-0.1,0.45c0.014,0.109,0.056,0.21,0.125,0.3
			c0.086,0.149,0.295,0.282,0.625,0.4c0.183,0.041,0.367,0.083,0.55,0.125l0.25,0.074l0.45,0.25c0.3,0.134,0.55,0.117,0.75-0.05
			c1.916,0.313,4.032,0.528,6.35,0.65c1.467,0.1,4.283,0.183,8.45,0.25c9,0.167,17.283,0.5,24.85,1
			c0.155,0.022,0.305,0.032,0.45,0.024c-0.093,0.392-0.126,0.833-0.1,1.325l0.05,1.5c0.033,0.601,0.017,1.101-0.05,1.5
			c-0.109,0.415-0.167,0.74-0.175,0.976c-24.079-0.443-42.521-1.061-55.325-1.851c0.063-2.417,0.063-4.815,0-7.2l2.5,0.075
			c2.767,0.067,4.417,0.133,4.95,0.2c1.433,0.1,2.816,0.3,4.15,0.6c0.233,0.066,0.4,0.083,0.5,0.051c0.2,0,0.367-0.134,0.5-0.4
			c0.067-0.2,0-0.4-0.2-0.6c-0.133-0.134-0.333-0.2-0.6-0.2c-1.067-0.233-2.3-0.4-3.7-0.5l-2.5-0.2
			c-1.293-0.062-3.202-0.037-5.725,0.075c-0.124-0.248-0.282-0.339-0.475-0.275c-0.2,0-0.341,0.125-0.425,0.375h-0.025
			c-0.156,0.004-0.406,0.029-0.75,0.075c-1.833,0.633-3.233,1.083-4.2,1.35l-1.25,0.25c-1.733,0.367-4.167,0.518-7.3,0.45
			c-0.267,0-0.483,0.05-0.65,0.15c-0.133,0.133-0.184,0.3-0.15,0.5c0,0.232,0.083,0.417,0.25,0.55c0.2,0.167,0.55,0.283,1.05,0.35
			c0.933,0.167,2.433,0.566,4.5,1.2l3.7,1.25c0.4,0.167,0.883,0.4,1.45,0.7l2.575,1.275l-0.025,0.024
			c-0.167,0.133-0.2,0.268-0.1,0.4l0.35,0.1c0.142,0.012,0.283,0.021,0.425,0.025c0.053,0.34,0.194,0.548,0.425,0.625
			c0.3,0.065,0.5-0.05,0.6-0.351c0.032-0.053,0.057-0.11,0.075-0.175c15.313,1.254,30.421,1.946,45.325,2.075
			c4.013,0.032,7.462-0.06,10.35-0.275c0.044,0.047,0.094,0.089,0.15,0.125c0.067,0.066,0.133,0.101,0.2,0.101
			C220.583-33.392,220.592-33.475,220.601-33.562z M162.676-37.062c-2.267-1.333-3.917-2.185-4.95-2.55c-0.5-0.2-1.633-0.533-3.4-1
			l5-0.801l4.1-1.425c-0.019,0.121-0.035,0.246-0.05,0.375l0.05,5.9L162.676-37.062z M129.676-39.462
			c-4.1-6.033-9.05-12.533-14.85-19.5c-3.467-4.167-8.833-10.333-16.1-18.5c-0.767-0.833-1.433-1.232-2-1.2l13.1,15.351
			c3.066,3.6,5.333,6.333,6.8,8.2c1.434,1.732,3.55,4.383,6.35,7.949C125.509-44.028,127.743-41.462,129.676-39.462z M95.826-14.861
			c-0.567-0.033-1.283,0.184-2.15,0.649c-5.133,2.733-8.917,4.867-11.35,6.4c-0.934,0.633-1.567,1.2-1.9,1.7
			c0,0.1,0.1,0.149,0.3,0.149c1.2-0.2,2.75-0.767,4.65-1.7c2.767-1.399,5.033-2.633,6.8-3.699
			C94.108-12.562,95.326-13.729,95.826-14.861z M88.426-82.861c-15.733,9.467-29.817,19.449-42.25,29.949
			c-0.667,0.533-0.983,1.066-0.95,1.601c11.3-7.667,21.5-14.75,30.6-21.25c3.2-2.233,5.967-4.233,8.3-6
			C86.292-80.262,87.726-81.694,88.426-82.861z M67.976-8.262c-9.267-10.1-17.683-20.733-25.25-31.9
			c-0.167,1.167,0.35,2.7,1.55,4.601c4.767,7.5,10.117,14.617,16.05,21.35c4.133,4.667,7.917,8.217,11.35,10.65
			C71.009-4.829,69.775-6.395,67.976-8.262z M45.176-5.662c0.533,0.2,1.1,0.218,1.7,0.051s1.1-0.45,1.5-0.851
			c0.833-0.833,1.217-1.899,1.15-3.2c0-0.3-0.066-0.649-0.2-1.05c-0.167-0.433-0.45-0.917-0.85-1.45
			c-1.3-1.866-2.817-3.149-4.55-3.85c-0.434-0.167-0.833-0.25-1.2-0.25c-0.633-0.033-1.3,0.233-2,0.8
			c-0.333,0.233-0.6,0.534-0.8,0.9c-0.2,0.433-0.3,1-0.3,1.7c0,0.467,0.033,0.8,0.1,1c0.1,0.566,0.333,1.149,0.7,1.75
			c0.2,0.366,0.566,0.883,1.1,1.55l1.3,1.5c0.233,0.3,0.483,0.533,0.75,0.7l0.6,0.25C44.676-5.845,45.009-5.694,45.176-5.662z
			 M41.076-11.412c-0.467-1.333-0.367-2.3,0.3-2.899c0.567-0.567,1.367-0.65,2.4-0.25c0.5,0.267,1.067,0.649,1.7,1.149
			c0.667,0.601,1.067,0.968,1.2,1.101c0.933,1,1.417,1.933,1.45,2.8c0.067,0.533-0.05,1.05-0.35,1.55
			c-0.267,0.5-0.65,0.817-1.15,0.95c-0.667,0.2-1.483,0.017-2.45-0.55c-0.534-0.268-1.083-0.685-1.65-1.25
			C41.926-9.412,41.442-10.278,41.076-11.412z M50.926-18.111c4.3,5.699,7.583,9.866,9.85,12.5
			c3.833,4.467,7.583,8.184,11.25,11.149c-8.133-10.399-14.2-18.232-18.2-23.5c-7.133-9.3-12.567-17.517-16.3-24.649
			c-0.233-0.367-0.417-0.583-0.55-0.65c-0.233-0.1-0.467-0.067-0.7,0.1c-0.2,0.134-0.333,0.333-0.4,0.601
			c-0.066,0.399,0.033,0.899,0.3,1.5c1.7,3.667,3.95,7.617,6.75,11.85C44.593-26.712,47.259-23.012,50.926-18.111z M29.676-23.212
			c0.1-0.033,0.45-0.267,1.05-0.7c0.2-0.167,0.783-0.532,1.75-1.1c0.7-0.4,1.2-0.817,1.5-1.25c0.367-0.567,0.467-1.067,0.3-1.5
			c-0.066-0.2-0.2-0.333-0.4-0.4c-0.1-0.032-0.25,0.018-0.45,0.15c-1.434,0.8-2.85,1.8-4.25,3c-0.333,0.333-0.534,0.567-0.6,0.7
			c-0.133,0.333-0.133,0.617,0,0.85C28.809-23.062,29.176-22.979,29.676-23.212z M29.726-30.462c0.467-0.5,0.65-0.982,0.55-1.45
			h-0.3l-0.4,0.2c-0.367,0.133-0.8,0.383-1.3,0.75l-2,1.4l-0.5,0.45c-0.167,0.232-0.2,0.449-0.1,0.649
			c0.133,0.268,0.4,0.367,0.8,0.3c0.167-0.066,0.417-0.217,0.75-0.449c0.1-0.101,0.533-0.4,1.3-0.9
			C29.059-29.845,29.458-30.162,29.726-30.462z"/>
	</g>
</symbol>
<g>
	<g>
		<g>
			<path fill="#A82B47" d="M43.145,238.311c3.88-6.947,8.16-12.283,12.841-16.01c3.1-2.443,6.114-4.002,9.046-4.678
				c3.517-4.05,10.571-6.973,21.159-8.773c2.809-1.151,7.174-2.135,13.099-2.953c6.555-0.877,11.171-1.733,13.852-2.571
				c6.15-1.952,15.099-2.942,26.841-2.969c13.16-0.021,34.423-21.785,39.278-22.735c13.868-2.759,31.713-4.52,53.537-5.278
				c1.637-0.053,10.674-0.271,27.111-0.65c10.802-0.254,19.618-0.599,26.453-1.034l50.646-10.697c3.775,0.652,9.565,1,17.372,1.044
				c8.25,0.046,14.265-0.234,18.047-0.843l40.895,0.712c0.251-0.093,0.52-0.171,0.805-0.232c1.077-1.13,3.094-1.701,6.054-1.716
				c1.417,0.008,3.544-0.138,6.378-0.437c2.835-0.3,4.962-0.444,6.378-0.437c3.337,0.02,8.467,0.206,15.392,0.56
				c6.926,0.354,10.528,0.533,10.813,0.534c8.153,0.046,66.54-10.54,79.578-11.411c13.008-0.873,33.935,16.394,43.913,16.45
				c5.573,0.032,11.697-0.061,18.374-0.274c5.102-0.129,8.799-0.14,11.098-0.032c5.728,0.316,18.2,2.516,37.413,6.598
				c6.415,1.359,11.847,3.897,16.298,7.611c6.361,5.335,10.912,13.133,13.658,23.396c0.77,2.968,2.494,7.173,5.17,12.611
				c2.584,5.313,4.507,10.51,5.769,15.594c0.769,3.222,1.885,9.061,3.35,17.521c1.218,7.228,2.015,11.252,2.387,12.074
				c0.905,1.33,1.697,3.131,2.378,5.406c1.362,4.358,2.021,10.054,1.982,17.086c-0.005,0.756-0.041,1.781-0.111,3.074
				c0.061,0.063,0.109,0.125,0.138,0.19c0.563,0.981-7.408,15.107-7.057,19.335c41.245,18.894,1.267,22.616,3.822,67.47
				l8.724,20.407c0.155,0.379,0.385,1.515,0.689,3.409c0.304,1.894,0.533,3.047,0.688,3.458l0.095,66.93
				c0.694,5.554,1.188,9.64,1.489,12.259c0.509,4.544,0.762,7.319,0.756,8.329c-0.048,8.515-0.702,16.205-1.971,23.072
				c-0.553,3.086-1.375,6.424-2.465,10.013c-0.147,15.197-0.329,30.475-0.542,45.83c-0.425,30.647-0.733,46.271-0.925,46.868
				c-0.093,5.267-0.218,10.609-0.375,16.034c-0.312,10.78-0.563,16.472-0.757,17.068l-0.656,32.634
				c-0.353,1.007-0.576,1.575-0.673,1.699c-0.061,0.096-0.156,0.174-0.283,0.236c-0.061,5.266-0.339,12.47-0.83,21.611
				c-0.522,8.825-0.786,13.634-0.789,14.421c-0.005,0.788-18.702,44.06-17.977,54.88c0.727,10.85,1.088,16.672,1.083,17.46
				c-0.009,1.355-0.298,5.312-0.87,11.867c-0.638,6.997-1.187,12.021-1.645,15.079l-5.449,35.629
				c0.622,1.422,1.312,4.957,2.066,10.605c0.514,3.788,1.187,9.799,2.023,18.034l-17.967,24.451
				c-3.706,26.404-0.941,43.536-5.575,55.682c-1.918,5.002-4.147,9.452-6.687,13.349c-1.463,2.261-3.873,5.447-7.235,9.56
				c-6.28,8.511-11.069,14.837-14.369,18.98c-5.805,7.377-11.072,12.267-15.809,14.669c-9.188,4.709-20.713,7.813-34.574,9.312
				c-15.592,1.015-65.14,36.445-64.336,15.41l-58.552-4.899c-3.466,0.391-7.514,0.636-12.144,0.735
				c-2.771,0.079-6.987,0.104-12.654,0.07c-2.268-0.012-6.883,0.435-13.846,1.342c-6.995,0.905-10.523,1.358-10.586,1.357
				c-1.573-0.009-2.801-0.299-3.678-0.872c-0.063-0.062-0.127-0.126-0.188-0.189c-0.851,0.058-1.891,0.085-3.118,0.076
				c-0.22-0.001-4.092-0.338-11.613-1.011c-7.488-0.673-13.059-1.019-16.71-1.041c-3.053-0.332-7.648-0.673-13.786-1.023
				c-6.138-0.349-10.748-0.692-13.83-1.025l-36.126-0.202c-15.318-2.453-45.867-20.342-76.56-20.988
				c-30.725-0.647-53.747-2.196-69.065-4.648c-4.463-1.256-10.171-2.265-17.125-3.029c-7.836-0.77-13.719-1.434-17.652-1.992
				c-14.25-2.004-25.795-6.531-34.634-13.581c-7.554-5.973-13.208-11.05-16.963-15.23c-5.819-6.531-10.093-13.729-12.818-21.596
				c-1.27-3.761-3.342-7.478-6.218-11.15c-1.625-2.091-4.41-5.181-8.354-9.271c-3.725-3.837-6.431-6.895-8.119-9.176
				c-2.624-3.609-4.429-7.277-5.416-11.004l0.048-0.047c-1.306-2.939-2.092-6.003-2.357-9.188
				c-1.517-15.775-2.931-27.389-4.243-34.837c-0.945-5.557-1.781-13.507-2.51-23.854c-0.125,0-0.2-3.676-0.221-11.022
				c0.01-7.41,0.127-11.382,0.35-11.917l0.85-66.924c0.767-7.565,1.16-13.001,1.178-16.313c0.019-3.279-0.289-13.026-0.921-29.237
				l0.171-30.271c0.16-0.408,0.408-2.505,0.744-6.286c0.335-3.783,0.583-5.859,0.744-6.239c0.115-20.339,0.017-30.981-0.292-31.929
				l0.144-25.541c0.35-6.306,0.885-14.611,1.604-24.917c0.517-8.039,0.692-13.92,0.524-17.642l0.722-44.314l0.303-53.59
				l-0.464-1.421c-0.217-17.344-0.481-26.491-0.791-27.439l-0.197-48.72c-0.155-0.474-0.371-4.022-0.648-10.646
				s-0.494-10.172-0.649-10.646l0.352-62.434C28.232,278.304,33.667,255.285,43.145,238.311z"/>
		</g>
		
			<use xlink:href="#FXGH"  width="259.998" height="197.072" x="-129.999" y="-98.536" transform="matrix(0.0053 -0.946 -0.9445 -0.0053 93.1431 1013.7744)" overflow="visible"/>
		
			<use xlink:href="#FGJ"  width="377.608" height="102.456" x="-188.804" y="-51.229" transform="matrix(0.8118 -0.4835 -0.4827 -0.8131 286.9004 128.8179)" overflow="visible"/>
		
			<use xlink:href="#GFH"  width="443.652" height="186.123" x="-221.826" y="-93.062" transform="matrix(-0.0053 0.946 -0.9445 -0.0053 670.7178 1076.5342)" overflow="visible"/>
		<g>
			<path fill="#00AFF0" d="M47.43,299.115c-1.477-0.355-2.21-1.527-2.2-3.512c0.031-5.614,2.538-14.602,7.519-26.965
				c5.461-13.718,10.88-22.849,16.258-27.391c0.854-0.687,2.274-1.295,4.261-1.819c1.924-0.589,3.345-1.227,4.261-1.917
				c1.201-0.843,2.42-2.131,3.658-3.857c0.603-0.849,1.905-2.875,3.906-6.08c1.398-2.2,3.846-3.542,7.343-4.027
				c0.472,0.003,3.353,0.02,8.642,0.05c0.725,0.003,1.433,0.007,2.125,0.012c0.001-0.094,0.001-0.205,0.002-0.331
				c14.229-5.061,24.523-7.697,30.884-7.916c4.157-0.071,11.427,0.38,21.811,1.355c2.33,0.013,6.879-0.215,13.652-0.682
				c8.188-0.457,14.74-1.019,19.656-1.684c0.661,0.004,1.18,0.226,1.554,0.67c-8.8,3.041-16.084,4.971-21.851,5.789
				c4.439,0.057,10.058,0.199,16.857,0.427c23.481,1.173,37.551,1.773,42.21,1.799c6.453,0.037,16.396-1.593,29.827-4.893
				c-17.974-0.732-32.5-1.334-43.579-1.807l0.011-1.844c8.218-0.364,19.146-0.806,32.781-1.329
				c12.627-0.371,19.838-0.549,21.633-0.539c2.361,0.014,6.232,0.208,11.614,0.586c8.226-1.341,15.816-1.992,22.775-1.952
				c1.039,0.005,5.872-0.22,14.502-0.675c9.164-0.39,16.202-0.523,21.112-0.4c4.785,0.215,10.926-0.002,18.421-0.654
				c8.19-0.679,13.655-1.01,16.395-0.994c3.18,0.018,6.231,0.508,9.154,1.471c4.996,1.699,9.081,2.936,12.259,3.71
				c2.642,0.552,6.685,0.748,12.131,0.588c2.805-0.171,5.969-0.328,9.496-0.466c15.491,0.087,26.433-0.181,32.827-0.807
				c3.466-0.329,8.851-0.661,16.158-0.998c6.614-0.436,12.19-1.302,16.731-2.601l53.409,0.301c2.933-0.519,6.726-0.97,11.39-1.354
				c3.841-0.261,6.787-0.387,8.833-0.375c2.708,0.016,7.474,0.91,14.295,2.682c8.426,2.066,16.314,4.665,23.663,7.798
				c15.451,6.678,25.265,14.174,29.436,22.492c0.848,0.635,1.516,2.059,2.009,4.268c0.732,3.978,1.05,14.748,0.95,32.312
				c-0.03,5.359,0.816,8.755,2.54,10.184c0.785,0.318,1.523,0.686,2.213,1.099c0.038-0.945,0.233-1.985,0.586-3.119
				c0.158,0.001,0.362-0.155,0.614-0.469c0.256-0.346,0.996-0.515,2.225-0.507c1.95,0.011,3.52,1.186,4.703,3.526
				c0.777,1.55,1.166,2.796,1.159,3.742c-0.012,2.112-0.712,3.481-2.101,4.105c-0.348,0.187-0.853,0.279-1.516,0.275
				c2.018,5.529,3.478,14.493,4.384,26.89c0.704-7.752,2.514-13.041,5.425-15.863l2.124,0.297c0.439,0.317,0.655,1.169,0.646,2.558
				c-0.002,0.536-0.434,1.574-1.292,3.115c-0.859,1.541-1.572,2.451-2.14,2.73l-0.086,15.088c1.529,19.244,2.28,31.042,2.256,35.393
				c-0.092,16.365-1.21,30.454-3.354,42.266c-0.78,4.221-1.475,7.45-2.087,9.685c0.806,8.014,1.438,16.043,1.896,24.087
				c0.026,1.009,1.219,4.138,3.582,9.385c2.303,5.089,3.44,9.811,3.415,14.162c-0.019,3.595-0.987,7.815-2.905,12.66
				c-1.854,4.909-2.794,9.712-2.818,14.411c0.852,33.272,0.847,50.727-0.011,52.361c0.867,7.636,1.621,16.391,2.259,26.265
				c0.637,10.031,0.942,17.395,0.915,22.095c-0.033,5.771-0.638,9.851-1.815,12.24c-1.147,2.39-1.722,3.6-1.722,3.632
				c0.56,1.392,1.116,2.813,1.676,4.268c1.149,2.905,1.711,6.819,1.682,11.738c-0.068,11.982-0.568,25.35-1.501,40.102
				c-1.024,14.12-2.216,27.167-3.573,39.144l-0.023,4.209c0.392,2.84,0.869,10.096,1.434,21.767
				c0.487,2.746,1.088,5.367,1.798,7.862c0.216,0.946,0.805,2.416,1.771,4.409c0.683,1.485,1.021,2.811,1.017,3.978
				c-0.759,22.574-0.941,35.517-0.551,38.831c-0.012,2.145-0.35,3.214-1.012,3.21c-0.174-2.146-0.235-8.42-0.176-18.827
				c0.09-15.985-1.001-26.509-3.269-31.566c-0.498-1.138-0.882-2.795-1.152-4.973l-0.031,5.487
				c0.157,11.005-0.119,24.089-0.836,39.253c-0.951,18.063-1.692,32.327-2.224,42.794l-0.278,49.426
				c1.398,14.165,1.648,22.761,0.749,25.783c-0.319,0.849-0.843,1.539-1.568,2.073c-0.758,0.468-1.249,1.111-1.474,1.93
				c-0.739,2.393-1.238,4.266-1.499,5.62c-0.579,2.488-1.038,5.812-1.377,9.973c-0.163,1.039-0.466,1.795-0.909,2.266
				c-0.601,0.374-1.027,0.734-1.282,1.08c-1.141,1.381-1.478,5.179-1.007,11.395c0.198,3.596-0.026,7.348-0.678,11.252
				c-0.586,3.309-1.148,5.197-1.686,5.667c-0.854,0.593-2.937,1.387-6.247,2.378c-1.988,0.493-3.573,2.469-4.757,5.932
				c-1.891,5.823-3.074,9.396-3.554,10.718c-2.016,5.412-3.688,8.713-5.015,9.904c-1.552,1.473-3.4,2.44-5.544,2.901
				c-1.165,0.215-3.056,0.377-5.669,0.488c-1.794,0.021-3.736,0.893-5.822,2.616c-2.405,2.161-4.257,3.665-5.552,4.511
				c-1.581,1.155-4.866,2.936-9.854,5.334c-6.313,3.055-10.525,4.575-12.636,4.563c-1.386-0.007-2.265-0.231-2.642-0.676
				c-0.063-0.064-0.171-0.301-0.326-0.713c-6.724,2.706-14.317,4.1-22.787,4.178c-15.263-1.16-26.563-1.76-33.897-1.802
				c-12.184-0.067-20.843,0.135-25.978,0.611c-9.011,1.084-20.1,2.219-33.267,3.405c-7.839-0.044-19.661,0.031-35.468,0.226
				c-8.377,0.205-14.485,0.328-18.325,0.37c15.632,2.516,24.912,3.925,27.839,4.225l0.324,1.279
				c-39.648-3.598-67.298-5.442-82.946-5.531c-1.069-0.005-3.591,0.422-7.564,1.283c-3.938,0.766-6.443,1.145-7.515,1.14
				c-3.525-0.02-7.395-0.61-11.608-1.77c-1.004-0.259-4.776-1.494-11.313-3.706c-4.974-0.028-8.72-0.096-11.237-0.205
				c-4.155-0.276-7.916-0.753-11.279-1.436c-10.013-0.056-18.167-0.04-24.464,0.052c-6.423,0.059-12.798,0.069-19.126,0.034
				c-0.976-0.007-5.477-0.284-13.502-0.834c-9.252-0.651-15.846-1.067-19.781-1.247c-3.494-0.114-8.984-0.76-16.471-1.938
				c-7.108-1.081-12.096-1.629-14.961-1.645c-1.259-0.008-1.888-0.153-1.886-0.437c0-0.157-0.014-0.442-0.042-0.853
				c0.009-1.671,1.232-3.444,3.666-5.322c-6.606-1.048-11.906-1.913-15.9-2.598c-2.548-0.394-5.643-1.654-9.283-3.791
				c-3.891-2.196-7.214-4.691-9.969-7.481c-2.928-0.017-6.841-1.236-11.739-3.661c-4.897-2.298-7.851-3.45-8.858-3.456
				c-1.04-0.006-2.365,0.509-3.976,1.539c-1.676,1.063-3.017,1.592-4.024,1.586c-4.848-0.028-9.365-3.158-13.548-9.396
				c-5.526-8.229-10.061-13.489-13.607-15.78c-1.378-0.922-2.487-2.648-3.323-5.174c-0.96-2.687-1.614-4.204-1.958-4.553
				c-0.219-0.222-1.267-1.505-3.143-3.848c-1.969-2.409-3.425-3.852-4.368-4.33c-1.944-1.115-4.419-3.446-7.422-6.995
				c-2.751-3.357-4.954-6.382-6.607-9.07c-0.176-7.948-0.627-14.494-1.354-19.638c-0.028-0.599-0.104-1.137-0.227-1.609
				c-0.692-0.065-1.305-0.244-1.838-0.531c-1.728-0.641-2.621-1.653-2.675-3.043c-0.293-20.749-1.095-31.994-2.407-33.736
				c-0.75-0.982-0.731-12.887,0.06-35.712c-4.183-0.844-6.512-3.821-6.986-8.932c-0.325-3.881-0.234-14.304,0.27-31.264
				c0.009-1.545,0.407-5.061,1.193-10.542c0.756-5.482,1.472-9.767,2.15-12.854l0.742-31.022c0.16-0.411,0.444-0.614,0.854-0.612
				c0.283,0.002,0.429-0.563,0.435-1.698c0.097-17.343-0.71-30.592-2.421-39.746c-1.744-9.092-2.584-19.298-2.52-30.618
				c0.013-2.302,0.284-8.402,0.811-18.301c0.565-10.687,1.007-16.375,1.325-17.067c0.565-33.202,1.055-50.306,1.47-51.313
				l1.255-113.701c0.223-0.535,0.516-4.759,0.875-12.671c0.359-7.944,0.65-12.168,0.874-12.671l0.214-37.886
				c-0.187-0.474-0.634-2.227-1.34-5.259c-0.738-3.031-1.325-5.242-1.758-6.632l0.049-8.797c1.215-3.084,2.671-7.474,4.372-13.172
				c1.573-5.226,2.361-8.123,2.364-8.689c0.006-1.009-0.412-2.273-1.254-3.791c-0.842-1.424-1.261-2.671-1.254-3.744
				c0.01-1.734,0.331-5.659,0.964-11.772c0.268-2.773,0.501-5.027,0.699-6.759c-0.44,0.028-0.961,0.042-1.559,0.039
				c0.006-1.042,0.663-2.945,1.969-5.713c1.211-2.736,1.826-5.618,1.843-8.645C49.597,300.073,48.876,299.47,47.43,299.115z
				 M68.643,239.022c-2.435,1.878-4.644,2.812-6.628,2.8c-1.259-0.006-2.091-0.438-2.495-1.291c-0.218-0.412-0.39-0.808-0.513-1.185
				c0.415-1.04,1.571-2.356,3.47-3.954c1.549-1.41,2.729-3.958,3.538-7.643l0.426-0.139c0.567-0.092,1.496-0.134,2.787-0.126
				c1.384,0.007,2.581,0.172,3.586,0.493c0.346,0.16,1.098,0.622,2.259,1.385l0.32,1.941
				C73.486,234.478,71.236,237.05,68.643,239.022z M125.258,223.733c1.86-0.209,7.952-0.286,18.278-0.227
				c1.385,0.008,4.269-0.466,8.65-1.419c2.364-0.554,4.792-0.934,7.279-1.141c-7.328-1.43-15.084-2.165-23.271-2.211
				c-3.368-0.019-8.853,1.101-16.454,3.358c-2.807,0.835-5.234,1.517-7.284,2.041c1.698,0.388,3.331,0.964,4.902,1.73
				C119.16,224.897,121.792,224.187,125.258,223.733z M191.522,205.945l3.641-0.593c0.815,0.508,1.879,1.775,3.188,3.802
				c1.216,2.056,1.824,3.4,1.82,4.031c-0.007,1.322-0.092,2.333-0.254,3.023c-0.289,1.041-0.515,2-0.678,2.883l-3.781,0.592
				c-1.472-1.207-2.659-2.932-3.56-5.176c-0.747-1.611-1.119-2.703-1.115-3.269c0.008-1.45,0.045-2.396,0.111-2.836
				C190.896,208.307,191.105,207.488,191.522,205.945z M409.001,205.519c8.656,0.46,15.141,0.716,19.454,0.773
				c3.021,0.111,8.354,0.646,15.998,1.604c7.395,0.925,12.979,1.398,16.759,1.419c0.788,0.004,3.276-0.25,7.467-0.761
				c-1.481,0.275-4.366,0.904-8.654,1.891c-5.768,1.291-9.74,1.931-11.911,1.918c-4.063-0.022-8.059-0.186-11.993-0.494
				c-3.869-0.368-9.268-0.573-16.194-0.612c-1.132-0.164-5.87-0.222-14.215-0.174c-5.668,0.029-9.848-1.191-12.542-3.666
				c0.193-0.568,0.291-1.198,0.294-1.89c0.16-0.473,0.902-0.704,2.227-0.696C396.286,204.833,400.723,205.063,409.001,205.519z
				 M473.216,207.964c6.898-0.907,10.869-1.357,11.909-1.352c0.817,0.005,3.793,0.147,8.922,0.43
				c5.067,0.216,8.831,0.333,11.285,0.347l0.61,0.666c-4.915,0.477-12.048,0.688-21.397,0.636
				c-8.846-0.146-13.788-0.22-14.827-0.226C470.788,208.281,471.954,208.115,473.216,207.964z M644.976,342.179
				c-1.506-1.364-2.597-3.277-3.273-5.742c0.3,8.011,0.423,17.03,0.365,27.058c-0.006,1.009-0.454,5.28-1.346,12.812
				c-0.926,7.499-1.389,11.753-1.394,12.763c-0.016,2.648,0.533,8.263,1.65,16.848c0.135-1.418,0.316-2.852,0.545-4.301
				c0.756-5.483,1.582-15.426,2.482-29.833c0.794-12.389,1.198-19.969,1.215-22.745C645.231,346.989,645.15,344.702,644.976,342.179
				z M72.221,952.984c0.881,0.005,5.55,3.893,14.008,11.668c8.3,7.582,12.449,11.547,12.447,11.896
				c-0.007,1.323-0.06,2.3-0.158,2.931l-0.24,0.851c-0.096,0.221-0.758,0.327-1.986,0.32c-4.942-0.027-9.602-2.955-13.977-8.784
				c-1.281-1.74-3.186-4.461-5.716-8.168c-2.405-3.291-4.689-5.969-6.85-8.031c0.191-0.503,0.29-1.148,0.294-1.938
				C70.205,953.225,70.93,952.977,72.221,952.984z M117.678,981.999l1.896-1.219c1.352,0.419,3.034,0.711,5.049,0.881
				c1.257,0.29,1.881,1.351,1.871,3.178c-0.016,2.808-0.846,4.68-2.488,5.615c-0.758,0.438-1.688,0.653-2.79,0.646
				c-1.322-0.007-2.403-0.928-3.243-2.761C117.103,986.379,117.003,984.266,117.678,981.999z M172.435,986.471
				c2.128,2.347,5.519,3.91,10.174,4.695c2.517,0.423,7.537,0.655,15.062,0.698c2.927,0.017,7.835,0.722,14.722,2.117
				c6.856,1.363,11.654,2.054,14.392,2.069c0.127,0.001,4.664-0.685,13.613-2.053c1.796-0.274,3.467-0.533,5.01-0.775
				c-2.926-0.271-5.961-0.586-9.108-0.95c-21.962-2.457-35.258-3.652-39.885-3.583c-6.015,0.027-12.922-0.53-20.724-1.679
				C174.559,986.752,173.473,986.57,172.435,986.471z M307.113,996.836c6.664,1.487,11.43,2.239,14.294,2.256
				c1.103,0.006,3.765-0.373,7.989-1.138c0.535-0.154,1.103-0.275,1.702-0.368l-9.019-0.05c-2.33-0.015-5.9-0.665-10.709-1.955
				c-4.843-1.286-8.317-1.938-10.427-1.95c-0.849-0.005-3.355,0.265-7.512,0.811C297.363,994.871,301.925,995.671,307.113,996.836z
				 M651.456,524.414c-2.131-1.558-2.854-4.873-2.164-9.945c0.547-2.142,1.407-3.776,2.578-4.905
				c0.887-0.91,1.803-1.362,2.747-1.356c1.228,0.007,1.967,0.09,2.217,0.25c-0.001,0.347,0.125,0.552,0.376,0.617l0.237-0.331
				c0.22,0.001,0.327,0.664,0.319,1.989c-0.001,0.283-0.493,0.974-1.475,2.073c-1.206,1.316-1.854,2.069-1.95,2.258l-0.029,5.345
				c0.91,0.383,1.6,0.782,2.07,1.195c1.037,0.637,1.785,1.586,2.25,2.85c0.345,0.222,0.532,0.444,0.563,0.666
				c0.187,0.442-0.379,0.657-1.702,0.65C654.504,525.755,652.489,525.302,651.456,524.414z M648.525,449.521
				c0.026-4.699,1.89-8.236,5.588-10.61c1.347,1.111,2.238,1.889,2.677,2.333c0.689,0.761,1.032,1.568,1.028,2.418
				c-0.006,0.915-0.442,2.883-1.313,5.905c-0.959,2.864-1.364,4.991-1.215,6.379l-0.096,0.236c-0.098,0.22-0.758,0.329-1.987,0.321
				C650.061,456.484,648.498,454.157,648.525,449.521z M655.746,634.693c-0.45,12.958-1.102,19.433-1.95,19.43
				c0.041-7.348,0.667-17.608,1.874-30.781c1.108-12.324,1.95-19.098,2.522-20.326l0.805-0.325c0.505,0.003,0.754,0.65,0.746,1.942
				c-0.004,0.694-0.304,3.326-0.895,7.894c-0.786,5.389-1.368,10.684-1.742,15.884C656.705,632.192,656.253,634.285,655.746,634.693
				z"/>
		</g>
	</g>
</g>
</svg>
