<?xml version="1.0" encoding="utf-8"?>
<!-- Generator: Adobe Illustrator 16.0.0, SVG Export Plug-In . SVG Version: 6.00 Build 0)  -->
<!DOCTYPE svg PUBLIC "-//W3C//DTD SVG 1.1//EN" "http://www.w3.org/Graphics/SVG/1.1/DTD/svg11.dtd">
<svg version="1.1" id="Layer_2" xmlns="http://www.w3.org/2000/svg" xmlns:xlink="http://www.w3.org/1999/xlink" x="0px" y="0px"
	 width="800px" height="450px" viewBox="0 0 800 450" enable-background="new 0 0 800 450" xml:space="preserve">
<symbol  id="FGJ" viewBox="-188.804 -51.229 377.608 102.456">
	<path fill="#872339" d="M12.696,28.377c8.966,4.566,18.466,7.25,28.5,8.051c6.233,0.467,11.533,0.032,15.9-1.301
		c6.1-1.899,12.3-6.116,18.6-12.649c2.267-2.333,3.75-4.45,4.45-6.351c-0.633-0.399-1.367-0.066-2.2,1
		c-4.667,5.867-9.317,10.101-13.95,12.7c-3.9,2.233-8.283,3.717-13.15,4.45c-4.467,0.633-9.133,0.617-14-0.05
		c-7.5-1.067-16.283-4.067-26.35-9c-2.4-1.2-4.217-2.083-5.45-2.65c-2.1-0.933-3.966-1.649-5.6-2.149
		c-3.767-1.167-8.167-1.7-13.2-1.601c-2.867,0.034-7.35,0.417-13.45,1.15c-8.533,1.033-15.367,1.75-20.5,2.149
		c-7.533,0.566-14.383,0.733-20.55,0.5c-15.467-0.566-28.767-3.566-39.9-9c2.8-2.1,5.867-3.6,9.2-4.5
		c2-0.566,5.733-1.133,11.2-1.699c9.467-1,18.867-2.917,28.2-5.75c1.867-0.533,3.083-1.268,3.65-2.2
		c0.633-1.034,0.617-2.217-0.05-3.55c-0.566-1.134-1.45-2.167-2.65-3.101c-3.733-3-7.95-4.966-12.65-5.899
		c-2.067-0.434-4.45-0.684-7.15-0.75c-1.267-0.033-3.684-0.018-7.25,0.05c-16.533-0.3-28.934-0.435-37.2-0.4
		c-14.6,0-26.85,1.167-36.75,3.5c-2.767,0.667-4.833,1.15-6.2,1.45c-2.4,0.467-4.517,0.717-6.35,0.75c-2.267,0-4.367-0.383-6.3-1.15
		c-2.133-0.833-3.8-2.05-5-3.649c-1.2-1.601-2.033-3.65-2.5-6.15c-0.933-4.633-0.517-8.533,1.25-11.7c2.034-3.5,5.617-6,10.75-7.5
		c1.667-0.5,3.85-0.967,6.55-1.399c3.6-0.567,5.8-0.935,6.6-1.101c-5.833-0.267-10.35-0.032-13.55,0.7
		c-5.167,1.2-8.967,3.518-11.4,6.95c-1.967,2.733-2.983,6.133-3.05,10.2c0,3.333,0.767,6.417,2.3,9.25
		c1.633,3.033,3.833,5.216,6.6,6.55c2.8,1.333,6.2,1.783,10.2,1.35c1.667-0.199,5.2-0.917,10.6-2.149
		c9.533-2.233,21.333-3.4,35.4-3.5c7.934-0.034,19.883,0.05,35.85,0.25c4.267-0.067,7.05-0.083,8.35-0.05
		c3.167,0.066,5.933,0.366,8.3,0.899c4.8,1.133,9.034,3.284,12.7,6.45c0.667,0.533,0.983,1.05,0.95,1.55
		c-0.034,0.601-0.534,1.101-1.5,1.5c-4.8,2.2-13,4.083-24.6,5.65c-10.967,1.466-19.033,3.6-24.2,6.399
		c-0.9,0.468-1.583,1.018-2.05,1.65c-0.567,0.767-0.684,1.5-0.35,2.2c0.2,0.466,0.8,0.95,1.8,1.45c6.1,2.767,12.967,4.85,20.6,6.25
		c6.233,1.133,13.417,1.883,21.55,2.25c5.033,0.232,9.316,0.267,12.85,0.1c2.633-0.133,5.784-0.45,9.45-0.95
		c2.1-0.267,5.25-0.683,9.45-1.25c5.566-0.667,10.867-1.149,15.9-1.45c4.033-0.232,7.433-0.267,10.2-0.1c3.7,0.233,7,0.867,9.9,1.9
		c1.566,0.566,3.466,1.417,5.7,2.55C8.379,26.11,10.229,27.077,12.696,28.377z M36.746,0.277l0.025,0.025
		c0.008,0.025,0.016,0.051,0.025,0.074c0.067,0.167,0.284,0.351,0.65,0.551l0.5,0.649c0.267,0.268,0.733,0.534,1.4,0.8
		c0.167,0.167,0.383,0.417,0.65,0.75c0.273,0.273,0.715,0.581,1.325,0.926l-0.025,0.024c0.075,0.169,0.208,0.229,0.4,0.175
		c0.016,0.009,0.033,0.017,0.05,0.025c0.433,0.367,0.767,0.517,1,0.45c0.167-0.034,0.283-0.167,0.35-0.4
		c0.033-0.167,0.017-0.333-0.05-0.5c-0.021-0.083-0.121-0.224-0.3-0.425c1.043-1.114,2.01-2.489,2.9-4.125
		c0.7-1.267,1.5-3.033,2.4-5.3c4.434-10.833,7.9-21.917,10.4-33.25c0.966-4.333,1.233-7.733,0.8-10.2
		c-3.633,14.867-7.9,29.367-12.8,43.5c-0.733,2-1.3,3.467-1.7,4.4c-0.742,1.56-1.592,3.034-2.55,4.425l-0.95-0.875
		c-0.8-0.867-1.367-1.4-1.7-1.601l-0.6-0.35c-0.167-0.2-0.317-0.333-0.45-0.4c-0.091-0.075-0.183-0.126-0.275-0.149
		c1.084-1.426,2.226-3.442,3.425-6.05c2.5-5.2,4.733-10.301,6.7-15.301c2.566-6.434,4.917-13.066,7.05-19.899
		c0.934-2.935,1.55-5.233,1.85-6.9c0.133-0.533,0.133-0.966,0-1.3c-0.02-0.08-0.045-0.154-0.075-0.225
		c1.169,0.045,2.661,0.403,4.475,1.074c19.167,6.9,40.483,12.95,63.95,18.15c16.509,3.662,36.034,7.295,58.575,10.9l1.85,5.3
		c-25.014-3.729-49.772-8.961-74.275-15.7c-12.1-3.367-28.7-8.467-49.8-15.3c5.033,2.7,12.333,5.683,21.9,8.95
		c33.386,11.194,67.952,19.429,103.7,24.699c-0.019,0.104-0.035,0.22-0.05,0.351c0,0.7-0.017,1.133-0.05,1.3l-0.1,0.65
		c-0.067,0.267,0.033,0.434,0.3,0.5l0.2,0.05l0.2,0.1c0.2,0,0.383-0.083,0.55-0.25s0.233-0.35,0.2-0.55l-0.1-0.3l-0.05-0.601
		c0.067-0.434,0.05-0.816-0.05-1.149c-0.133-0.5-0.333-0.817-0.6-0.95c-0.191,0.144-0.333,0.394-0.425,0.75
		c-0.033-0.226-0.058-0.442-0.075-0.65c0.013-0.013,0.03-0.029,0.05-0.05c0.167-0.133,0.167-0.466,0-1
		c-0.041-0.091-0.083-0.19-0.125-0.3c0.006-0.118,0.014-0.234,0.025-0.35c-0.055-0.009-0.113-0.017-0.175-0.025
		c-0.204-0.606-0.413-1.381-0.625-2.325c-0.325-1.333-0.617-2.3-0.875-2.899c0.323,0.048,0.647,0.099,0.975,0.149
		c-0.2-0.133-0.367-0.267-0.5-0.399c-0.294-0.245-0.561-0.471-0.8-0.676v-0.024c-0.306-0.275-0.564-0.518-0.775-0.726l-0.025-0.024
		c-0.055-0.051-0.105-0.102-0.15-0.15c-0.173-0.16-0.307-0.293-0.4-0.399c-0.032-0.032-0.049-0.065-0.05-0.101
		c0,0.119,0,0.26,0,0.425c-20.852-3.634-37.202-6.676-49.05-9.125c-26.267-5.467-49.6-11.532-70-18.199
		c-3.533-1.134-6.083-1.833-7.65-2.101c-0.467-0.1-0.85-0.065-1.15,0.101c-0.167,0.1-0.267,0.267-0.3,0.5
		c-0.005,0.032-0.005,0.066,0,0.1c-0.224,0.202-0.407,0.569-0.55,1.1c-0.8,3.667-2.133,8.301-4,13.9
		c-1.167,3.533-2.65,7.667-4.45,12.4l-5.9,15.1c-0.833,2.1-1.433,3.533-1.8,4.3c-0.6,1.228-1.233,2.301-1.9,3.226
		c-0.098,0.027-0.181,0.069-0.25,0.125c-0.227,0.171-0.319,0.361-0.275,0.574L36.746,0.277z M48.596,8.228
		c0.333,0.133,0.85,0.183,1.55,0.149c0.367,0,1.167,0.117,2.4,0.351c1.067,0.232,2.217,0.35,3.45,0.35
		c0.039-0.02,0.056-0.053,0.05-0.1c9.208,2.219,19.225,5.119,30.05,8.7c7.566,2.532,19.233,6.717,35,12.55
		c10.433,3.899,18.283,6.966,23.55,9.2c7.982,3.402,15.041,6.869,21.175,10.399c-0.04,0.483-0.065,0.95-0.075,1.4
		c0.167-0.034,0.283-0.185,0.35-0.45c0.061-0.239,0.119-0.472,0.175-0.7c0.332,0.181,0.657,0.363,0.975,0.55
		c-0.303-0.236-0.611-0.471-0.925-0.699c3.369-13.21,7.044-26.21,11.025-39c1.367-4.4,2.55-7.75,3.55-10.051
		c1.567-3.6,3.383-6.583,5.45-8.949c0.8-1.033,1.066-1.833,0.8-2.4c-1.167,0.033-2.333,0.867-3.5,2.5c-2,2.8-3.783,6.133-5.35,10
		c-1.1,2.7-2.316,6.3-3.65,10.8c-2.566,8.667-4.933,17.667-7.1,27c-0.928,3.851-1.495,7.101-1.7,9.75
		c-3.051-2.213-6.901-4.497-11.55-6.85c-7.733-3.935-16.65-7.833-26.75-11.7c-6.333-2.467-15.5-5.767-27.5-9.9
		c-10.7-3.732-18.883-6.417-24.55-8.05c-9.167-2.633-17.55-4.433-25.15-5.399c0.509,0.11,1.018,0.228,1.525,0.35
		c-1.045-0.088-2.12-0.088-3.225,0L48.596,8.228z M71.446,3.377c5.1,1.4,10.2,2.9,15.3,4.5c5.633,1.768,10.9,3.483,15.8,5.15
		c6.233,2.1,15.583,5.25,28.05,9.45c9.721,3.177,18.421,5.744,26.1,7.7l-0.05,0.649c0,0.356,0.008,0.656,0.025,0.9
		c-31.493-11.204-63.302-20.938-95.425-29.2c8.233,2.867,21.583,7.133,40.05,12.8c17.434,5.3,30.784,9.633,40.05,13
		c4.5,1.601,7.517,2.65,9.05,3.15c2.767,0.867,5.333,1.5,7.7,1.899c-0.167-0.333-0.25-0.732-0.25-1.199
		c-0.041-0.027-0.083-0.053-0.125-0.075l0.025-0.025l0.1-0.45v-0.899c0.009-0.07,0.025-0.154,0.05-0.25
		c0.049,0.021,0.099,0.037,0.15,0.05c0.067-0.4,0.167-0.817,0.3-1.25l-0.1-0.025c-0.026-0.26-0.076-0.45-0.15-0.574
		c-0.067-0.134-0.133-0.218-0.2-0.25l-0.25-0.051c-0.233,0-0.4,0.051-0.5,0.15c-0.055,0.055-0.088,0.164-0.1,0.325l-71.2-22.675
		c-3.3-1-5.667-1.667-7.1-2C76.046,3.544,73.613,3.277,71.446,3.377z M158.396,19.228c-0.6-0.067-1.083-0.018-1.45,0.149
		l-0.25,0.101l-0.25-0.101l-0.95-0.699c-0.267-0.2-0.467-0.417-0.6-0.65c-0.1-0.2-0.15-0.533-0.15-1l0.05-0.6
		c0.167-0.434,0.517-0.733,1.05-0.9c0.267-0.067,0.733-0.1,1.4-0.1c0.3,0,0.533,0.032,0.7,0.1c0.2,0.1,0.367,0.233,0.5,0.4
		c0.367,0.267,0.6,0.566,0.7,0.899c0.1,0.233,0.133,0.55,0.1,0.95c-0.033,0.533-0.033,0.883,0,1.05
		C158.946,18.827,158.663,18.96,158.396,19.228z M159.746,19.728c0.333-0.3,0.5-0.833,0.5-1.601c0.067-0.667,0.017-1.3-0.15-1.899
		c-0.167-0.7-0.517-1.217-1.05-1.55c-0.6-0.434-1.583-0.551-2.95-0.351l-1.15,0.2c-0.333,0.133-0.55,0.267-0.65,0.4
		c-0.167,0.167-0.283,0.5-0.35,1c-0.067,0.333-0.1,0.85-0.1,1.55c0,0.367,0.05,0.649,0.15,0.85c0.067,0.101,0.383,0.4,0.95,0.9
		l0.9,1c0.467,0.399,0.883,0.533,1.25,0.399c0.2-0.032,0.467-0.149,0.8-0.35c0.133-0.067,0.45-0.133,0.95-0.2
		C159.246,20.011,159.546,19.895,159.746,19.728z M160.946,10.527c0.066,0.067,0.2,0.117,0.4,0.15v0.1l0.5-0.25
		c0.033-0.033,0.083-0.1,0.15-0.2l0.05-0.1v-0.101l-0.3-0.5h-0.8c-0.2,0.268-0.267,0.468-0.2,0.601l0.05,0.149L160.946,10.527z
		 M156.546,6.827c0.367,0,0.65-0.033,0.85-0.1c0.7-0.233,1.083-0.717,1.15-1.45c0-0.533-0.167-1.017-0.5-1.45
		c-0.167-0.267-0.367-0.5-0.6-0.7c-0.167-0.133-0.483-0.3-0.95-0.5c-1.133-0.467-2-0.667-2.6-0.6c-0.467,0.033-0.867,0.2-1.2,0.5
		c-0.4,0.333-0.583,0.717-0.55,1.15c0,0.167,0.05,0.333,0.15,0.5c0.1,0.133,0.284,0.232,0.55,0.3c0.267,0.065,0.45,0.133,0.55,0.2
		c0.4-0.066,0.55-0.218,0.45-0.45c0-0.034-0.1-0.15-0.3-0.351c-0.167-0.167-0.2-0.3-0.1-0.399c0.767-0.167,1.533-0.083,2.3,0.25
		c0.6,0.267,1.233,0.7,1.9,1.3c-0.033,0.467-0.383,0.7-1.05,0.7c-0.767-0.101-1.217-0.117-1.35-0.05
		c0.033-0.233-0.133-0.351-0.5-0.351c-0.4,0-0.7,0.05-0.9,0.15c-0.3,0.2-0.434,0.433-0.4,0.7c0.066,0.267,0.233,0.449,0.5,0.55
		c0.367,0.167,0.833,0.216,1.4,0.149L156.546,6.827z M157.496-5.572c-0.367-0.533-0.95-0.983-1.75-1.351
		c-0.8-0.333-1.5-0.482-2.1-0.45c-0.8,0.033-1.533,0.367-2.2,1c-0.267,0.167-0.483,0.45-0.65,0.851c-0.033,0.1-0.05,0.617-0.05,1.55
		c0,0.967,0.017,1.5,0.05,1.6c0.067,0.233,0.284,0.634,0.65,1.2c0.267,0.4,0.517,0.667,0.75,0.8c0.267,0.134,0.6,0.167,1,0.101
		c0.1-0.034,0.433-0.133,1-0.3c1.367-0.5,2.25-0.934,2.65-1.301c0.533-0.467,0.867-1.05,1-1.75
		C157.979-4.355,157.863-5.006,157.496-5.572z M155.446-2.022c-0.3,0.232-0.534,0.35-0.7,0.35c-0.133,0-0.317-0.033-0.55-0.1
		c-0.233-0.101-0.417-0.133-0.55-0.101c-0.267,0.101-0.45,0.167-0.55,0.2c-0.2,0-0.417-0.149-0.65-0.45
		c-0.1-0.267-0.267-0.449-0.5-0.55c0.133-0.232,0.167-0.649,0.1-1.25c-0.033-0.565,0.05-0.966,0.25-1.2
		c0.233-0.267,0.617-0.399,1.15-0.399c0.2-0.034,0.5-0.05,0.9-0.05c0.433,0.066,0.816,0.167,1.15,0.3
		c0.433,0.167,0.717,0.367,0.85,0.6c0.2,0.233,0.283,0.55,0.25,0.95c-0.033,0.333-0.15,0.65-0.35,0.95
		C156.179-2.64,155.913-2.39,155.446-2.022z M141.746-7.522c-0.04-0.052-0.09-0.103-0.15-0.15c0.116-0.072,0.199-0.222,0.25-0.45
		c0-0.3,0.033-0.517,0.1-0.649l0.4-0.55c0.033-0.066,0.033-0.25,0-0.551c0-0.232,0.033-0.399,0.1-0.5
		c0.02-0.041,0.037-0.083,0.05-0.125c0.037,0.01,0.07,0.018,0.1,0.025c-0.018-0.033-0.034-0.066-0.05-0.1
		c-0.146-0.293-0.271-0.577-0.375-0.851c-0.073-0.253-0.131-0.503-0.175-0.75c-0.022-0.102-0.039-0.202-0.05-0.3
		c-0.034-0.3-0.034-0.583,0-0.85c-0.167,0.066-0.284,0.167-0.35,0.3c-0.067,0.133-0.067,0.315,0,0.55
		c0.009,0.072,0.017,0.139,0.025,0.2c-12.978-3.375-20.886-5.441-23.725-6.2c-13.377-3.694-25.061-7.302-35.05-10.825
		c-0.03-0.235-0.13-0.411-0.3-0.524c-0.667,0-1.133,0.25-1.4,0.75c-0.1,0.3-0.15,0.6-0.15,0.899c-0.033,0.4-0.167,0.851-0.4,1.351
		l-0.45,1.05c-0.167,0.466-0.233,0.95-0.2,1.45c0.066,0.3,0.183,0.449,0.35,0.449s0.217,0.033,0.15,0.101
		c0.333-0.067,0.716-0.333,1.15-0.8c0.467-0.5,0.85-0.783,1.15-0.851h0.575c-0.028,0.031-0.053,0.064-0.075,0.101
		c0.167,0.366,0.717,0.699,1.65,1c1.733,0.467,3.45,1.282,5.15,2.449c0.333-0.066,0.467-0.282,0.4-0.649
		c-1.567-1.268-3.284-2.25-5.15-2.95c-0.211-0.088-0.412-0.155-0.6-0.2c0.288-0.31,0.305-0.577,0.05-0.8
		c-0.067-0.067-0.25-0.133-0.55-0.2c-0.934-0.065-1.65-0.1-2.15-0.1c0.333-0.435,0.583-1.067,0.75-1.9
		c0.05-0.213,0.067-0.396,0.05-0.55c0.432,0.659,1.349,1.259,2.75,1.8c9.566,3.567,20.633,7.117,33.2,10.65
		c4.605,1.278,12.088,3.262,22.45,5.95c0,0.126,0,0.275,0,0.449c0,0.233-0.067,0.583-0.2,1.051c-0.133,0.467-0.2,0.816-0.2,1.05
		c0,0.076,0.008,0.149,0.025,0.225c-0.128-0.051-0.27-0.092-0.425-0.125c-17.567-4.1-35.667-8.815-54.3-14.149
		c0.6,0.366,1.25,0.649,1.95,0.85c7.033,2.533,17.783,5.733,32.25,9.6l7.8,2.101c4.567,1.232,8.983,2.383,13.25,3.45
		c0.233-0.033,0.4-0.184,0.5-0.45C141.963-7.04,141.913-7.29,141.746-7.522z M114.646-3.272c0.267,0,0.467-0.083,0.6-0.25
		c0.133-0.2,0.117-0.417-0.05-0.65c-0.034-0.065-0.2-0.216-0.5-0.45c-1.1-0.699-2.917-1.449-5.45-2.25l-1.2-0.25
		c-0.6-0.1-1.216,0-1.85,0.301c-0.067,0.3,0.066,0.616,0.4,0.949c0.1,0.066,0.433,0.184,1,0.351c0.667,0.167,1.6,0.517,2.8,1.05
		c1,0.533,1.783,0.883,2.35,1.05C113.479-3.256,114.113-3.206,114.646-3.272z M65.146-7.423l1.3,0.351
		c1.5,0.267,2.633,0.35,3.4,0.25c0.367,0,0.633-0.117,0.8-0.351c0.167-0.232,0.1-0.5-0.2-0.8c-0.133-0.167-0.383-0.3-0.75-0.4
		c-1.467-0.467-3.55-0.833-6.25-1.1l-0.6,0.05c-0.267,0.067-0.4,0.217-0.4,0.45c0,0.3,0.283,0.517,0.85,0.65
		C63.729-8.189,64.346-7.89,65.146-7.423z M65.446-14.923c1.367,0.567,2.883,1.333,4.55,2.3c0.533,0.301,0.917,0.45,1.15,0.45
		c0.467,0.133,0.817-0.033,1.05-0.5c-0.2-0.367-0.617-0.75-1.25-1.149c-1.467-0.634-2.55-1.15-3.25-1.551
		c-0.367-0.199-0.583-0.316-0.65-0.35c-0.033,0-0.316-0.05-0.85-0.15c-0.467-0.133-0.817-0.199-1.05-0.199
		c-0.4-0.066-0.683,0.083-0.85,0.449C64.429-15.489,64.813-15.256,65.446-14.923z M72.396-34.072c-0.167-0.4-0.6-0.733-1.3-1
		c-1.067-0.367-2.15-0.468-3.25-0.301c-0.125,0.036-0.242,0.069-0.35,0.101c0.125-0.376,0.008-0.743-0.35-1.101
		c-0.4,0-0.683,0.051-0.85,0.15l-0.35,0.45c-0.367,0.732-0.617,1.466-0.75,2.2l-0.15,0.699c-0.05,0.398-0.075,0.766-0.075,1.101
		c-0.061-0.021-0.119-0.036-0.175-0.05c-0.367,0-0.566,0.116-0.6,0.35c0.27,0.281,0.553,0.54,0.85,0.775
		c0.059,0.229,0.143,0.371,0.25,0.425c0.12,0.044,0.236,0.053,0.35,0.024c1.295,0.878,2.795,1.354,4.5,1.426
		c0.434,0,0.717-0.083,0.85-0.25c0.033-0.033,0.1-0.233,0.2-0.601c0.066-0.767,0.267-1.466,0.6-2.1
		c0.133-0.268,0.317-0.65,0.55-1.15C72.513-33.355,72.529-33.739,72.396-34.072z M70.296-31.873
		c-0.267,0.801-0.383,1.417-0.35,1.851c-1.346-0.229-2.629-0.629-3.85-1.2c0-0.049,0-0.099,0-0.15c0-0.399,0.05-0.667,0.15-0.8
		c0.067-0.133,0.167-0.3,0.3-0.5c0.067-0.167,0.1-0.399,0.1-0.7c0.067-0.133,0.2-0.3,0.4-0.5c0.216,0.058,0.516,0.04,0.9-0.05
		c0.933-0.2,1.85-0.133,2.75,0.2C70.729-33.322,70.596-32.706,70.296-31.873z"/>
</symbol>
<symbol  id="FXGH" viewBox="-129.999 -98.536 259.998 197.072">
	<path fill="#872339" d="M52.635,65.964c-2.633-1.967-4.833-3.8-6.6-5.5c-1.5-1.435-3.4-3.45-5.7-6.05
		c-2.833-3.134-4.917-5.768-6.25-7.9c-0.5-0.833-1.15-2-1.95-3.5c-0.933-1.7-1.583-2.867-1.95-3.5c-0.767-1.4-2.133-3.567-4.1-6.5
		l-9.5-14.2c3.367-2.7,6.017-4.716,7.95-6.05c3.034-2.067,5.917-3.683,8.65-4.85c3.233-1.367,6.45-2.167,9.65-2.4
		c3.533-0.267,6.75,0.217,9.65,1.45c1.533,0.633,3.733,1.815,6.6,3.55c1.6,0.8,2.65,1.483,3.15,2.05
		c0.333,0.367,0.65,0.867,0.95,1.5c0.3,0.733,0.517,1.284,0.65,1.65c1.4,3.933,3.15,7.667,5.25,11.2c3.1,5.066,6.367,8.232,9.8,9.5
		c2.4,7.633,2.783,15.383,1.15,23.25c-1.367,6.467-4.066,10.517-8.1,12.149c-2.233,0.9-4.817,0.983-7.75,0.25
		C60.952,71.264,57.103,69.23,52.635,65.964z M68.535,74.613c2.167-0.133,4.1-0.684,5.8-1.649c4.733-2.667,7.55-8.117,8.45-16.351
		c0.867-6.866,0.534-13.267-1-19.199c3.4,1.1,6.067,1.899,8,2.399c2.934,0.768,5.65,1.284,8.15,1.55
		c6.2,0.733,11.617-0.017,16.25-2.25c3.267-1.633,6.55-4.35,9.85-8.149c3.434-4.034,5.367-7.784,5.8-11.25
		c0.2-1.333,0.217-2.833,0.05-4.5c-0.1-1-0.333-2.483-0.7-4.45l-4.85-26.8c-0.833-4.435-1.633-7.784-2.4-10.05
		c-1.267-3.601-2.983-6.483-5.15-8.65c-1.167-1.167-2.65-2.3-4.45-3.4c-1.133-0.633-2.817-1.5-5.05-2.6
		c-3.6-1.767-6.433-2.983-8.5-3.65c-3.267-1.066-6.25-1.467-8.95-1.199c-2.967,0.267-5.983,1.35-9.05,3.25
		c-2.267,1.399-4.833,3.434-7.7,6.1c-2,1.767-3.483,2.9-4.45,3.4c-2.5,1.199-5.35,1.316-8.55,0.35
		c-3.167-0.933-6.017-2.75-8.55-5.45c-2.333-2.433-4.183-5.35-5.55-8.75c-1.133-2.867-2-6.183-2.6-9.95
		c-0.367-2.366-0.733-5.816-1.1-10.35l-1.35-16.5c-0.333-3.967-0.867-6.867-1.6-8.7c-1.233-3.267-3.184-5.383-5.85-6.35
		c1.3,2.367,2.1,3.933,2.4,4.7c0.8,2,1.35,4.366,1.65,7.1c0.167,1.267,0.317,3.75,0.45,7.45c0.3,7.267,1.083,14.617,2.35,22.05
		c0.7,4,1.483,7.317,2.35,9.95c1.167,3.533,2.683,6.533,4.55,9c2.367,3.133,5.283,5.533,8.75,7.2c2.067,1.032,4.167,1.667,6.3,1.899
		c2.333,0.268,4.467,0.018,6.4-0.75c1.533-0.633,3.183-1.716,4.95-3.25c1-0.867,2.45-2.216,4.35-4.05
		c4.6-3.933,9.217-5.833,13.85-5.7c1.733,0.034,3.633,0.4,5.7,1.101c1.1,0.366,2.917,1.1,5.45,2.199c3.733,1.7,6.5,3.134,8.3,4.301
		c2.9,1.899,5.034,4.032,6.4,6.399c0.7,1.233,1.3,2.717,1.8,4.45c0.3,1.1,0.65,2.683,1.05,4.75l5.65,28.85
		c0.5,2.566,0.8,4.533,0.9,5.9c0.2,2.233,0.083,4.2-0.35,5.9c-0.7,2.767-2.417,5.699-5.15,8.8c-4.567,5.232-9.317,8.3-14.25,9.2
		c-2.934,0.566-6.917,0.333-11.95-0.7c-3.7-0.768-7.117-1.534-10.25-2.3c-1.867-0.468-3.167-1.051-3.9-1.75
		c-0.7-0.601-1.333-1.65-1.9-3.15c-2.2-5.333-3.517-8.433-3.95-9.3c-1.767-3.367-3.8-5.917-6.1-7.65
		c-0.767-0.533-1.333-0.95-1.7-1.25c-0.667-0.5-1.2-0.966-1.6-1.399c-0.833-0.968-1.583-2.733-2.25-5.301
		c-1.767-6.566-4.283-12.816-7.55-18.75c-3.333-6.066-7.067-11.116-11.2-15.149c-2.2-2.233-5.4-4.95-9.6-8.15
		c-3.7-2.867-6.816-4.815-9.35-5.85c-2.966-1.167-6.917-1.833-11.85-2c-5.333-0.2-10.55-0.033-15.65,0.5
		c-4.5,0.5-7.9,1.45-10.2,2.85c-2.133,1.3-3.883,3.15-5.25,5.55c-1.267,2.2-2.133,4.667-2.6,7.4c-0.367,2.3-0.467,4.883-0.3,7.75
		c0.1,1.933,0.367,4.517,0.8,7.75c-1.167-0.433-2.367-0.483-3.6-0.15c-1.267,0.333-2.267,0.968-3,1.9c-0.9,1.1-1.533,2.7-1.9,4.8
		c-1.467,7.967-0.85,17.467,1.85,28.5c0.733,3,2.017,7.617,3.85,13.851c1.8,6.032,3.083,10.649,3.85,13.85
		c0.5,2.2,0.817,3.983,0.95,5.35c0.2,2,0.15,3.801-0.15,5.4c-0.533,2.8-1.75,4.75-3.65,5.85c-2.367,1.4-5.583,1.134-9.65-0.8
		c-4.633-2.3-9.117-5.767-13.45-10.399c-3.067-3.301-6.6-7.851-10.6-13.65c-4.2-6.133-7.667-11.567-10.4-16.3
		c-3.5-6-6.317-11.768-8.45-17.3c-0.566-1.5-1.4-3.768-2.5-6.801c-1-2.667-1.933-4.866-2.8-6.6c-2.467-4.967-5.583-8.533-9.35-10.7
		c-3.367-1.933-6.617-2.466-9.75-1.6c-1.667,0.466-3.1,1.333-4.3,2.6c-1.267,1.3-2,2.768-2.2,4.4c-0.167,1.565,0.233,3.667,1.2,6.3
		c2.566,6.8,6.683,14.55,12.35,23.25c3.072,4.767,7.722,11.742,13.95,20.925c-0.126-0.056-0.26-0.114-0.4-0.175
		c-0.1-0.067-0.967-0.45-2.6-1.15c-1.267-0.6-2.217-1.032-2.85-1.3c-1.1-0.533-2.066-0.917-2.9-1.149
		c-1.6-0.5-3.45-0.783-5.55-0.851c-1.333-0.065-3.217-0.033-5.65,0.101c-5.4,0.333-9.517,1-12.35,2
		c-2.534,0.899-4.983,2.25-7.35,4.05c-3.233,2.466-5.95,5.433-8.15,8.899c-2.233,3.533-3.767,7.268-4.6,11.2
		c-0.733,3.4-0.983,7.4-0.75,12c0.467,7.8,2.283,14.083,5.45,18.851c0.4,0.6,0.8,0.949,1.2,1.05c0.267,0.1,0.533,0.083,0.8-0.05
		c-0.059,0.296-0.142,0.563-0.25,0.8c1.133,0.633,2.434,1.2,3.9,1.7c6.167,2.1,12.617,2.434,19.35,1
		c6.667-1.434,12.45-4.351,17.35-8.75c3.333-3,6.05-6.483,8.15-10.45c2.167-4.034,3.534-8.233,4.1-12.601
		c0.6-4.399,0.383-8.8-0.65-13.199c-0.541-2.287-1.266-4.461-2.175-6.525c0.05-0.605-0.059-1.23-0.325-1.875
		c-0.367-0.9-0.933-1.667-1.7-2.3c-0.226-0.191-0.476-0.374-0.75-0.55c0.117-0.223,0.167-0.506,0.15-0.851
		c-0.034-0.565-0.233-1.133-0.6-1.7c-6.3-9.267-10.95-16.25-13.95-20.949c-5.2-8.233-9-15.65-11.4-22.25
		c-1-2.9-1.233-5.117-0.7-6.65c0.333-0.967,0.934-1.783,1.8-2.45c0.8-0.667,1.733-1.133,2.8-1.399c1.9-0.468,3.95-0.25,6.15,0.649
		c4.133,1.633,7.583,5,10.35,10.101c0.967,1.8,1.95,4.05,2.95,6.75c1.1,3.1,1.933,5.417,2.5,6.949
		c2.133,5.634,4.967,11.518,8.5,17.65c2.767,4.8,6.3,10.3,10.6,16.5c3.966,5.7,7.45,10.2,10.45,13.5
		c4.233,4.6,8.583,8.117,13.05,10.55c2.333,1.268,4.55,2.067,6.65,2.4c2.533,0.399,4.717,0.05,6.55-1.05c2.533-1.5,4.1-4,4.7-7.5
		c0.367-2.2,0.2-5.218-0.5-9.051c-0.7-3.699-1.867-8.399-3.5-14.1c-2.267-7.867-3.583-12.533-3.95-14
		c-2.9-11.333-3.65-20.933-2.25-28.8c0.3-2,0.9-3.467,1.8-4.4c0.566-0.633,1.283-1,2.15-1.1c0.9-0.101,1.633,0.117,2.2,0.649
		c0.534,3.5,1.017,6.134,1.45,7.9c0.733,2.867,1.7,5.317,2.9,7.35c1.133,1.833,2.783,3.934,4.95,6.301
		c3.4,3.699,6.333,6.167,8.8,7.399c1.934,0.967,4,1.534,6.2,1.7c2.233,0.167,4.383-0.067,6.45-0.7c1.333-0.367,2.25-0.482,2.75-0.35
		c0.767,0.167,1.517,0.899,2.25,2.2l7.3,11.899c3.033,5,5.45,8.851,7.25,11.55c2.833,4.167,5.583,7.768,8.25,10.801
		c3.633,4.1,7.683,7.816,12.15,11.149c3.933,2.967,7.5,4.917,10.7,5.851C64.502,74.48,66.535,74.714,68.535,74.613z M15.335,16.014
		c-0.367-0.033-0.767-0.333-1.2-0.9c-4.933-6.267-9.533-11.366-13.8-15.3c-5.467-5.033-11.067-8.815-16.8-11.35
		c-0.466-4.633-0.55-9.167-0.25-13.601c0.2-2.5,0.534-4.55,1-6.149c0.633-2.167,1.617-3.9,2.95-5.2c2-1.867,5.083-3.083,9.25-3.65
		c3.033-0.467,7.217-0.8,12.55-1c3.3-0.1,5.934-0.066,7.9,0.101c2.9,0.232,5.433,0.783,7.6,1.649c2.133,0.867,4.833,2.483,8.1,4.851
		c3.5,2.466,6.5,4.85,9,7.149c9.167,8.468,16,20.667,20.5,36.601c-2.667-1.5-4.683-2.583-6.05-3.25c-2.367-1.167-4.5-2-6.4-2.5
		c-5.567-1.435-11.5-0.768-17.8,2c-4.333,1.867-9.417,5.183-15.25,9.95C16.068,15.847,15.635,16.047,15.335,16.014z M12.585,17.464
		c-1.133,0.7-2.434,1.149-3.9,1.35c-2.7,0.3-6.1-0.6-10.2-2.7c-1.3-0.732-2.15-1.282-2.55-1.649c-0.434-0.367-0.883-0.883-1.35-1.55
		c-0.533-0.768-0.95-1.316-1.25-1.65c-0.467-0.567-1.3-1.45-2.5-2.65c-1.1-1.066-1.917-1.949-2.45-2.649
		c-1-1.333-1.816-2.967-2.45-4.9c-0.433-1.267-0.883-3.05-1.35-5.35c-0.4-1.867-0.65-3.268-0.75-4.2
		c1.267,0.133,2.883,0.917,4.85,2.35c4.633,3.268,7.95,5.816,9.95,7.65c1.567,1.367,4.017,3.867,7.35,7.5l2.75,3
		c0.767,0.833,1.417,1.6,1.95,2.3C11.118,14.914,11.752,15.964,12.585,17.464z M74.535,30.464c-3.667-4.733-6.45-9.883-8.35-15.45
		c1.6,0.533,3.216,2.033,4.85,4.5c1.133,1.6,2.133,3.333,3,5.2l3.4,7.95C76.502,32.497,75.535,31.764,74.535,30.464z
		 M-95.165,94.313c-4.6,1.733-9.434,2.435-14.5,2.101c-4.409-0.26-8.55-1.276-12.425-3.051c-0.056-0.207-0.231-0.457-0.525-0.75
		c-1.4-1.333-2.533-3.517-3.4-6.55c-2.4-8.033-2.617-16.183-0.65-24.45c0.5-2.267,1.167-4.199,2-5.8c0.733-1.433,1.95-3.2,3.65-5.3
		c0.676-0.807,1.343-1.565,2-2.275c0.065,0.038,0.132,0.08,0.2,0.125c1.267,0.7,2.35,1.367,3.25,2
		c0.277,0.208,0.535,0.416,0.775,0.625l-0.025,0.025c0.078,0.049,0.162,0.099,0.25,0.15c0.251,0.218,0.484,0.435,0.7,0.649
		c0.5,0.4,0.817,0.633,0.95,0.7c0.198,0.057,0.373,0.073,0.525,0.05c8.004,5.107,13.979,9.124,17.925,12.05
		c6.5,4.867,11.867,9.768,16.1,14.7c0.241,0.271,0.466,0.521,0.675,0.75c-0.073,0.117-0.148,0.233-0.225,0.351
		c-2.067,3.167-4.567,5.934-7.5,8.3C-88.415,91.113-91.665,92.98-95.165,94.313z M-112.515,50.613
		c-1.616-1.293-3.358-2.525-5.225-3.699c2.253-2.229,4.429-3.896,6.525-5c2.167-1.134,4.717-1.95,7.65-2.45
		c2.1-0.367,4.816-0.633,8.15-0.8c2.6-0.134,4.667-0.083,6.2,0.149c2.1,0.3,5,1.25,8.7,2.851c1.78,0.781,3.105,1.499,3.975,2.149
		c0.464,0.883,0.956,1.934,1.475,3.15c1.1,2.6,1.85,4.649,2.25,6.149c0.466,1.833,0.733,3.801,0.8,5.9
		c0.167,3.767-0.267,7.483-1.3,11.15c-0.829,3.066-2.021,5.941-3.575,8.625c-0.337-0.604-0.762-1.229-1.275-1.875
		c-1.733-2.268-3.9-4.551-6.5-6.851c-1.867-1.633-4.35-3.617-7.45-5.95c-7.529-5.631-14.271-10.082-20.225-13.35
		C-112.395,50.714-112.453,50.663-112.515,50.613z M-92.215,54.964c-0.167-0.3-0.15-0.685,0.05-1.15l0.65-1.3
		c1-1.833,2.067-3.167,3.2-4c1.633-1.233,3.5-1.6,5.6-1.1c0.267,0.633,0.167,1.333-0.3,2.1c-0.567,0.8-0.95,1.417-1.15,1.85
		c-0.267,0.667-0.517,1.134-0.75,1.4c-0.167,0.233-0.45,0.45-0.85,0.65c-0.467,0.232-0.817,0.417-1.05,0.55
		c-0.667,0.533-1.184,0.899-1.55,1.1c-0.967,0.601-1.983,0.733-3.05,0.4C-91.814,55.331-92.082,55.164-92.215,54.964z
		 M-92.215,56.514c-0.033,0.5,0.383,0.783,1.25,0.85c1.467,0.134,2.55,0,3.25-0.399c0.367-0.233,0.85-0.685,1.45-1.351
		c0.367-0.267,0.95-0.633,1.75-1.1c0.367-0.3,0.817-0.85,1.35-1.65c0.7-1.066,1.167-1.866,1.4-2.399
		c0.467-0.9,0.717-1.768,0.75-2.601c0.067-0.934-0.167-1.583-0.7-1.949c-0.333-0.2-0.8-0.301-1.4-0.301
		c-1.967,0-3.4,0.184-4.3,0.551c-0.967,0.399-1.917,1.116-2.85,2.149c-2.267,2.5-3.383,5.15-3.35,7.95c0,0.5,0.15,0.733,0.45,0.7
		c0.033,0,0.183-0.133,0.45-0.4c0.067-0.1,0.15-0.149,0.25-0.149C-92.332,56.381-92.248,56.414-92.215,56.514z"/>
</symbol>
<symbol  id="GFH" viewBox="-221.826 -93.062 443.652 186.123">
	<g id="Layer_3_2_">
		<path fill="#872339" d="M20.125,27.938c1.333-1.367,2.333-2.65,3-3.851c1.633-2.732,2.633-6.649,3-11.75
			c0.133-2.167,0.367-3.684,0.7-4.55c0.533-1.433,1.7-2.966,3.5-4.6c1.566-1.5,3.217-2.9,4.95-4.2
			c0.258-0.169,0.483-0.335,0.675-0.5c4.999,5.992,9.34,10.842,13.025,14.55c4.567,4.567,9.133,8.534,13.7,11.9
			c0.233-0.534,0.517-1,0.85-1.4c-8.924-7.041-17.89-15.95-26.9-26.725c-0.218-0.258-0.435-0.517-0.65-0.775l-0.025-0.024
			c-0.027-0.022-0.052-0.048-0.075-0.075c-5.833-7-13.917-17.75-24.25-32.25c-0.27-0.366-0.528-0.716-0.775-1.05
			c0.764-0.114,1.772-0.498,3.025-1.15c8.733-4.933,20.2-12.6,34.4-23c15.867-11.667,27.184-19.6,33.95-23.8
			c3.438-2.134,7.164-4.334,11.175-6.601c12.396,13.485,24.038,27.535,34.925,42.15c4.333,5.767,7.433,10.6,9.3,14.5l1.25,2.85
			c0.022,0.33,0.022,0.646,0,0.95c-0.066,0.935-0.35,1.817-0.85,2.65s-1.133,1.5-1.9,2c-0.367,0.2-0.6,0.399-0.7,0.6
			c-0.031,0.063-0.056,0.128-0.075,0.2c-17.076,7.597-33.301,16.53-48.675,26.8c-5.4,3.601-9.767,6.867-13.1,9.8
			c-4.434,3.968-7.917,8.083-10.45,12.351c0.767,0.065,1.6-0.45,2.5-1.55c4.333-5.233,9.817-10.268,16.45-15.101
			c4.867-3.6,11.183-7.633,18.95-12.1c10.7-6.133,21.684-11.935,32.95-17.4c1.2-0.6,2.283-1.133,3.25-1.6
			c0.367-0.768,0.85-1.65,1.45-2.65h-0.025c0.225-0.368,0.466-0.751,0.725-1.149l1.2-1.9c0.133-0.7,0.183-1.417,0.15-2.15
			c-0.033-1-0.317-2.133-0.85-3.399c-0.642-1.595-1.4-2.903-2.275-3.925c-0.652-1.259-1.46-2.65-2.425-4.176
			c-2.633-4.032-6.65-9.5-12.05-16.399c-5.5-6.935-9.767-12.217-12.8-15.851c-3.833-4.667-7.033-8.267-9.6-10.8
			c-2.03-2.03-4.063-3.83-6.1-5.399c0.103-0.047,0.203-0.097,0.3-0.15c-0.333-0.2-0.6-0.3-0.8-0.3c-0.024,0-0.058,0-0.1,0h-0.05
			c-0.124,0.008-0.274,0.041-0.45,0.1l-0.6,0.2c-0.1,0.033-0.184,0.05-0.25,0.05c0.044,0.048,0.085,0.099,0.125,0.15
			c-2.774,1.178-4.982,2.178-6.625,3c-5.7,2.767-11.934,6.517-18.7,11.25c-2.267,1.6-8.15,5.95-17.65,13.05
			c-11.833,8.833-24,17.417-36.5,25.75c-1.077,0.8-2.052,1.316-2.925,1.55c-0.502-0.658-0.944-1.225-1.325-1.7
			c0.267,2.134,1.467,4.768,3.6,7.9c3.433,5.167,8.816,12.333,16.15,21.5c1.801,2.26,3.534,4.402,5.2,6.425
			c-0.327,0.179-0.694,0.421-1.1,0.726c-1.2,0.967-2.5,2.1-3.9,3.399c-2.133,2-3.566,3.733-4.3,5.2
			c-0.767,1.567-1.283,3.867-1.55,6.9c-0.3,3.467-0.667,5.833-1.1,7.1c-0.767,2.267-2.3,4.617-4.6,7.05
			c-3.367,3.435-7.35,6.034-11.95,7.8c-4.6,1.801-9.283,2.551-14.05,2.25c-3.633-0.232-6.767-1.05-9.4-2.449
			c-1.267-0.7-2.9-1.884-4.9-3.551c-2.434-2-4.267-3.917-5.5-5.75c-0.934-1.467-2.034-4.083-3.3-7.85
			c-1.8-5.733-2.95-10.083-3.45-13.05c-0.233-1.467-0.534-3.667-0.9-6.601c-0.4-2.6-0.917-4.732-1.55-6.399
			c-0.867-2.233-2.1-4.083-3.7-5.55c-1.767-1.634-3.7-2.518-5.8-2.65c-1.767-0.067-3.617,0.433-5.55,1.5
			c-1.3,0.7-2.934,1.85-4.9,3.45c-4.966,4.2-9.9,8.667-14.8,13.399c-2.333,2.333-4.133,4.051-5.4,5.15c-1.934,1.633-4.2,3.3-6.8,5
			c-3.933,2.633-8.167,5.15-12.7,7.55c-3.3,1.733-6.017,2.967-8.15,3.7c-3.133,1.1-7.517,2-13.15,2.7c-5.066,0.6-9.3,0.8-12.7,0.6
			c-4.633-0.232-8.65-1.216-12.05-2.95c-1.433-0.732-2.983-1.699-4.65-2.899c-0.733-0.567-2.183-1.7-4.35-3.4
			c-3.9-3.065-9.55-7.133-16.95-12.2c-3.267-2.3-5.883-3.883-7.85-4.75c-3.2-1.399-6.9-2.3-11.1-2.699
			c-2.667-0.268-4.767-0.167-6.3,0.3c-1.367,0.399-3.1,1.399-5.2,3c-2.767,2.065-5.5,4.333-8.2,6.8
			c-5.3,4.767-9.034,9.283-11.2,13.55c-1.4,2.733-2.283,5.55-2.65,8.45c-0.367,3.1-0.067,5.983,0.9,8.65c1,2.767,2.817,5.434,5.45,8
			c1.767,1.767,4.367,3.833,7.8,6.199c3.333,2.301,6.2,4.101,8.6,5.4c2.133,1.1,5.083,2.333,8.85,3.7c3.233,1.133,5.8,1.899,7.7,2.3
			c2,0.433,4.717,0.783,8.15,1.05c2.8,0.167,7.8,0.351,15,0.55c6.367,0.167,11.367,0.417,15,0.75
			c7.487,0.726,14.096,2.101,19.825,4.125c0.023,0.022,0.048,0.049,0.075,0.075c0.767,0.633,2,1.25,3.7,1.851
			c1.867,0.633,3.15,1.184,3.85,1.649c1.3,0.833,2.35,2.101,3.15,3.8c0.867,1.733,1.233,3.367,1.1,4.9
			c-0.033,0.567-0.217,1.45-0.55,2.65l-0.75,2.699c-0.467,1.833-1,3.184-1.6,4.051c-0.233,0.399-0.367,0.667-0.4,0.8
			c-0.133,0.367-0.05,0.633,0.25,0.8c0.333,0.167,0.7,0.05,1.1-0.35c1.067-0.968,2-2.733,2.8-5.301l0.85-2.399
			c0.4-1.333,0.617-2.185,0.65-2.55c0.1-0.934-0.033-2.184-0.4-3.75c-0.6-2.268-1.434-4-2.5-5.2c-0.733-0.867-2.1-1.867-4.1-3
			c-0.733-0.4-1.283-0.667-1.65-0.8c-1.233-0.233-2.133-0.468-2.7-0.7c-0.7-0.367-1.25-0.601-1.65-0.7
			c-0.198-0.054-0.381-0.087-0.55-0.1c-3.165-1.254-6.599-2.271-10.3-3.051c-5.233-1.1-12.217-1.866-20.95-2.3
			c-0.1,0-3.683-0.149-10.75-0.45c-4.833-0.133-8.45-0.333-10.85-0.6c-5.867-0.7-11.7-2.333-17.5-4.9
			c-5.467-2.434-10.684-5.583-15.65-9.449c-4.633-3.634-7.583-7.184-8.85-10.65c-0.967-2.667-1.167-5.55-0.6-8.65
			c0.5-2.866,1.566-5.616,3.2-8.25c1.367-2.267,3.217-4.566,5.55-6.899c1.467-1.435,3.667-3.417,6.6-5.95
			c1.833-1.6,3.466-2.967,4.9-4.1c2.167-1.733,4.033-2.801,5.6-3.2c1.267-0.333,3.066-0.367,5.4-0.101c4.467,0.5,8.233,1.5,11.3,3
			c1.4,0.7,3.617,2.101,6.65,4.2l10.85,7.65c3.067,2.2,5,3.617,5.8,4.25c3.733,2.966,5.95,4.683,6.65,5.149
			c3.933,2.468,8.633,3.983,14.1,4.551c3.933,0.434,8.9,0.316,14.9-0.351c4.1-0.5,7.35-1.065,9.75-1.7
			c5.5-1.467,12.066-4.532,19.7-9.199c3.8-2.301,6.867-4.316,9.2-6.051c2.867-2.167,7.15-6,12.85-11.5
			c5.367-5.232,9.683-9.017,12.95-11.35c2.267-1.6,4.167-2.417,5.7-2.45c1.467-0.033,2.85,0.45,4.15,1.45
			c1.167,0.933,2.1,2.133,2.8,3.6c0.533,1.2,0.95,2.634,1.25,4.301c0.066,0.366,0.283,1.866,0.65,4.5
			c0.867,6.899,2.75,14.167,5.65,21.8c0.867,2.267,1.717,4.033,2.55,5.3c0.9,1.333,2.583,3.067,5.05,5.2
			c2.967,2.6,5.45,4.383,7.45,5.35c2.233,1.034,4.817,1.685,7.75,1.95c5.567,0.533,11.05-0.2,16.45-2.2S16.259,32.005,20.125,27.938
			z M52.875,3.738c-0.1-0.267-0.283-0.483-0.55-0.65l-0.15-0.149c-0.034-0.067-0.034-0.117,0-0.15c0.1-0.065,0.216-0.033,0.35,0.101
			l0.1,0.05l0.2,0.25l0.1,0.25C52.993,3.538,52.976,3.639,52.875,3.738z M52.926,4.688c0.433-0.067,0.733-0.333,0.9-0.8
			c0.1-0.367,0.05-0.768-0.15-1.2c-0.3-0.601-0.7-0.967-1.2-1.101c-0.267-0.066-0.55-0.05-0.85,0.051
			c-0.267,0.133-0.45,0.333-0.55,0.6c-0.167-0.1-0.317-0.233-0.45-0.4l-0.1,0.101l0.3,0.75c0.267,0.667,0.7,1.232,1.3,1.7
			C52.458,4.588,52.726,4.688,52.926,4.688z M220.601-33.562h0.025c0-0.122,0.008-0.247,0.025-0.375
			c0.004-0.092,0.012-0.185,0.025-0.275c0.066-0.495,0.15-1.061,0.25-1.7c0-1.232,0.066-2.066,0.2-2.5c0.167-0.434,0.4-0.8,0.7-1.1
			c-0.167-0.633-0.434-1.117-0.8-1.45c-0.044,0.038-0.086,0.08-0.125,0.125c-0.146-0.054-0.338-0.095-0.575-0.125l-18.05-0.8
			c-0.966-0.067-2.45-0.133-4.45-0.2c-3.6,0-6.317-0.017-8.15-0.05c-3.2-0.033-5.9-0.217-8.1-0.55
			c-1.202-0.165-2.135-0.257-2.8-0.275c-0.019-0.006-0.035-0.015-0.05-0.024c-0.333-0.268-0.617-0.4-0.85-0.4
			c-0.133,0.033-0.267,0.117-0.4,0.25c-0.1,0.133-0.133,0.283-0.1,0.45c0.014,0.109,0.056,0.21,0.125,0.3
			c0.086,0.149,0.295,0.282,0.625,0.4c0.183,0.041,0.367,0.083,0.55,0.125l0.25,0.074l0.45,0.25c0.3,0.134,0.55,0.117,0.75-0.05
			c1.916,0.313,4.032,0.528,6.35,0.65c1.467,0.1,4.283,0.183,8.45,0.25c9,0.167,17.283,0.5,24.85,1
			c0.155,0.022,0.305,0.032,0.45,0.024c-0.093,0.392-0.126,0.833-0.1,1.325l0.05,1.5c0.033,0.601,0.017,1.101-0.05,1.5
			c-0.109,0.415-0.167,0.74-0.175,0.976c-24.079-0.443-42.521-1.061-55.325-1.851c0.063-2.417,0.063-4.815,0-7.2l2.5,0.075
			c2.767,0.067,4.417,0.133,4.95,0.2c1.433,0.1,2.816,0.3,4.15,0.6c0.233,0.066,0.4,0.083,0.5,0.051c0.2,0,0.367-0.134,0.5-0.4
			c0.067-0.2,0-0.4-0.2-0.6c-0.133-0.134-0.333-0.2-0.6-0.2c-1.067-0.233-2.3-0.4-3.7-0.5l-2.5-0.2
			c-1.293-0.062-3.202-0.037-5.725,0.075c-0.124-0.248-0.282-0.339-0.475-0.275c-0.2,0-0.341,0.125-0.425,0.375h-0.025
			c-0.156,0.004-0.406,0.029-0.75,0.075c-1.833,0.633-3.233,1.083-4.2,1.35l-1.25,0.25c-1.733,0.367-4.167,0.518-7.3,0.45
			c-0.267,0-0.483,0.05-0.65,0.15c-0.133,0.133-0.184,0.3-0.15,0.5c0,0.232,0.083,0.417,0.25,0.55c0.2,0.167,0.55,0.283,1.05,0.35
			c0.933,0.167,2.433,0.566,4.5,1.2l3.7,1.25c0.4,0.167,0.883,0.4,1.45,0.7l2.575,1.275l-0.025,0.024
			c-0.167,0.133-0.2,0.268-0.1,0.4l0.35,0.1c0.142,0.012,0.283,0.021,0.425,0.025c0.053,0.34,0.194,0.548,0.425,0.625
			c0.3,0.065,0.5-0.05,0.6-0.351c0.032-0.053,0.057-0.11,0.075-0.175c15.313,1.254,30.421,1.946,45.325,2.075
			c4.013,0.032,7.462-0.06,10.35-0.275c0.044,0.047,0.094,0.089,0.15,0.125c0.067,0.066,0.133,0.101,0.2,0.101
			C220.583-33.392,220.592-33.475,220.601-33.562z M162.676-37.062c-2.267-1.333-3.917-2.185-4.95-2.55c-0.5-0.2-1.633-0.533-3.4-1
			l5-0.801l4.1-1.425c-0.019,0.121-0.035,0.246-0.05,0.375l0.05,5.9L162.676-37.062z M129.676-39.462
			c-4.1-6.033-9.05-12.533-14.85-19.5c-3.467-4.167-8.833-10.333-16.1-18.5c-0.767-0.833-1.433-1.232-2-1.2l13.1,15.351
			c3.066,3.6,5.333,6.333,6.8,8.2c1.434,1.732,3.55,4.383,6.35,7.949C125.509-44.028,127.743-41.462,129.676-39.462z M95.826-14.861
			c-0.567-0.033-1.283,0.184-2.15,0.649c-5.133,2.733-8.917,4.867-11.35,6.4c-0.934,0.633-1.567,1.2-1.9,1.7
			c0,0.1,0.1,0.149,0.3,0.149c1.2-0.2,2.75-0.767,4.65-1.7c2.767-1.399,5.033-2.633,6.8-3.699
			C94.108-12.562,95.326-13.729,95.826-14.861z M88.426-82.861c-15.733,9.467-29.817,19.449-42.25,29.949
			c-0.667,0.533-0.983,1.066-0.95,1.601c11.3-7.667,21.5-14.75,30.6-21.25c3.2-2.233,5.967-4.233,8.3-6
			C86.292-80.262,87.726-81.694,88.426-82.861z M67.976-8.262c-9.267-10.1-17.683-20.733-25.25-31.9
			c-0.167,1.167,0.35,2.7,1.55,4.601c4.767,7.5,10.117,14.617,16.05,21.35c4.133,4.667,7.917,8.217,11.35,10.65
			C71.009-4.829,69.775-6.395,67.976-8.262z M45.176-5.662c0.533,0.2,1.1,0.218,1.7,0.051s1.1-0.45,1.5-0.851
			c0.833-0.833,1.217-1.899,1.15-3.2c0-0.3-0.066-0.649-0.2-1.05c-0.167-0.433-0.45-0.917-0.85-1.45
			c-1.3-1.866-2.817-3.149-4.55-3.85c-0.434-0.167-0.833-0.25-1.2-0.25c-0.633-0.033-1.3,0.233-2,0.8
			c-0.333,0.233-0.6,0.534-0.8,0.9c-0.2,0.433-0.3,1-0.3,1.7c0,0.467,0.033,0.8,0.1,1c0.1,0.566,0.333,1.149,0.7,1.75
			c0.2,0.366,0.566,0.883,1.1,1.55l1.3,1.5c0.233,0.3,0.483,0.533,0.75,0.7l0.6,0.25C44.676-5.845,45.009-5.694,45.176-5.662z
			 M41.076-11.412c-0.467-1.333-0.367-2.3,0.3-2.899c0.567-0.567,1.367-0.65,2.4-0.25c0.5,0.267,1.067,0.649,1.7,1.149
			c0.667,0.601,1.067,0.968,1.2,1.101c0.933,1,1.417,1.933,1.45,2.8c0.067,0.533-0.05,1.05-0.35,1.55
			c-0.267,0.5-0.65,0.817-1.15,0.95c-0.667,0.2-1.483,0.017-2.45-0.55c-0.534-0.268-1.083-0.685-1.65-1.25
			C41.926-9.412,41.442-10.278,41.076-11.412z M50.926-18.111c4.3,5.699,7.583,9.866,9.85,12.5
			c3.833,4.467,7.583,8.184,11.25,11.149c-8.133-10.399-14.2-18.232-18.2-23.5c-7.133-9.3-12.567-17.517-16.3-24.649
			c-0.233-0.367-0.417-0.583-0.55-0.65c-0.233-0.1-0.467-0.067-0.7,0.1c-0.2,0.134-0.333,0.333-0.4,0.601
			c-0.066,0.399,0.033,0.899,0.3,1.5c1.7,3.667,3.95,7.617,6.75,11.85C44.593-26.712,47.259-23.012,50.926-18.111z M29.676-23.212
			c0.1-0.033,0.45-0.267,1.05-0.7c0.2-0.167,0.783-0.532,1.75-1.1c0.7-0.4,1.2-0.817,1.5-1.25c0.367-0.567,0.467-1.067,0.3-1.5
			c-0.066-0.2-0.2-0.333-0.4-0.4c-0.1-0.032-0.25,0.018-0.45,0.15c-1.434,0.8-2.85,1.8-4.25,3c-0.333,0.333-0.534,0.567-0.6,0.7
			c-0.133,0.333-0.133,0.617,0,0.85C28.809-23.062,29.176-22.979,29.676-23.212z M29.726-30.462c0.467-0.5,0.65-0.982,0.55-1.45
			h-0.3l-0.4,0.2c-0.367,0.133-0.8,0.383-1.3,0.75l-2,1.4l-0.5,0.45c-0.167,0.232-0.2,0.449-0.1,0.649
			c0.133,0.268,0.4,0.367,0.8,0.3c0.167-0.066,0.417-0.217,0.75-0.449c0.1-0.101,0.533-0.4,1.3-0.9
			C29.059-29.845,29.458-30.162,29.726-30.462z"/>
	</g>
</symbol>
<g>
	<g>
		<g>
			<path fill="#A82B47" d="M605.766,132.006c3.094,1.706,5.473,3.595,7.135,5.665c1.094,1.372,1.793,2.708,2.102,4.009
				c1.803,1.552,3.119,4.679,3.943,9.379c0.516,1.245,0.965,3.182,1.342,5.812c0.408,2.911,0.799,4.96,1.176,6.148
				c0.879,2.728,1.344,6.701,1.385,11.918c0.041,5.848,0.279,9.848,0.715,12.004c1.26,6.155,2.082,14.078,2.473,23.774
				c0.031,0.726,0.15,4.741,0.359,12.043c0.139,4.798,0.314,8.714,0.523,11.75v35.254c-0.279,1.678-0.42,4.252-0.42,7.721
				c0,3.664,0.141,6.338,0.42,8.018v18.254c0.043,0.111,0.076,0.23,0.105,0.355c0.502,0.477,0.762,1.371,0.779,2.688
				c0,0.629,0.066,1.574,0.209,2.832c0.139,1.26,0.209,2.203,0.209,2.834c0,1.482-0.07,3.762-0.209,6.84
				c-0.143,3.078-0.209,4.678-0.209,4.805c0,3.621,0.209,8.33,0.627,14.121c0.42,5.777,0.627,10.885,0.627,15.316
				c0,2.477,0.061,5.199,0.17,8.166c0.068,2.264,0.082,3.908,0.043,4.928c-0.129,2.547-1.072,8.096-2.832,16.641
				c-0.588,2.855-1.701,5.271-3.338,7.264c-2.352,2.836-5.797,4.879-10.342,6.125c-1.316,0.35-3.178,1.127-5.584,2.328
				c-2.35,1.16-4.65,2.029-6.902,2.6c-1.428,0.352-4.016,0.863-7.766,1.535c-3.201,0.559-4.986,0.922-5.348,1.09
				c-0.59,0.404-1.387,0.762-2.395,1.07c-1.93,0.615-4.455,0.924-7.574,0.924c-0.336,0-0.791-0.014-1.365-0.043
				c-0.027,0.027-0.055,0.049-0.082,0.063c-0.436,0.254-1.588,0.461-3.465,0.629c-8.363,0.52-18.338,1.141-29.922,1.867
				l-14.16,0.211c-0.17,0.072-0.674,0.174-1.514,0.316c-0.84,0.139-1.35,0.242-1.529,0.313l-29.693,0.211
				c-2.461,0.322-4.275,0.553-5.436,0.691c-2.014,0.238-3.246,0.357-3.691,0.357c-3.775,0-7.191-0.273-10.238-0.82
				c-1.373-0.234-2.857-0.594-4.451-1.068c-6.742-0.027-13.518-0.068-20.334-0.125c-13.594-0.111-20.525-0.211-20.791-0.295
				c-2.336-0.025-4.707-0.068-7.113-0.127c-4.785-0.109-7.311-0.209-7.578-0.293l-14.475-0.209c-0.45-0.152-0.702-0.252-0.757-0.293
				c-0.042-0.027-0.078-0.07-0.105-0.127c-2.336-0.016-5.532-0.117-9.589-0.314c-3.917-0.209-6.05-0.314-6.399-0.314
				c-0.351,0-2.924,0.176-7.723,0.523c-4.812,0.35-7.394,0.525-7.742,0.525c-0.601,0-2.357-0.119-5.267-0.357
				c-3.105-0.266-5.337-0.498-6.694-0.691h-16.534c-0.63,0.277-2.196,0.594-4.7,0.945c-1.679,0.236-4.344,0.553-7.995,0.941h-11.331
				c-11.722-1.58-20.284-3.385-25.683-5.41c-2.225-0.842-4.204-1.822-5.938-2.939c-1.008-0.643-2.427-1.707-4.259-3.189
				c-3.792-2.77-6.611-4.883-8.457-6.336c-3.288-2.561-5.47-4.889-6.548-6.99c-2.112-4.07-3.517-9.182-4.217-15.338
				c-0.489-6.922-0.937-12.008-1.342-15.256v-40.287c-0.182-1.537-0.3-3.334-0.357-5.395c-0.041-1.229-0.063-3.102-0.063-5.621
				c0-1.008-0.21-3.055-0.63-6.15c-0.419-3.102-0.629-4.67-0.629-4.697c0-0.699,0.126-1.244,0.378-1.637
				c0.027-0.029,0.055-0.057,0.084-0.084c-0.029-0.377-0.042-0.84-0.042-1.385c0-0.098,0.139-1.818,0.42-5.162
				c0.279-3.33,0.419-5.805,0.419-7.428c0.139-1.355,0.28-3.398,0.42-6.129c0.14-2.727,0.279-4.775,0.419-6.146V247.1
				c1.049-6.813,1.678-17.039,1.889-30.678c0.209-13.653,0.839-23.887,1.888-30.7c0.547-1.985,0.979-4.524,1.302-7.616
				c0.322-3.483,0.601-6.099,0.839-7.847c0.853-6.338,2.833-11.479,5.938-15.424c2.63-3.372,4.869-5.896,6.714-7.576
				c2.882-2.601,6.064-4.517,9.548-5.748c1.665-0.574,3.309-1.504,4.931-2.792c0.924-0.726,2.288-1.972,4.091-3.734
				c1.693-1.665,3.043-2.875,4.051-3.63c1.594-1.176,3.218-1.986,4.867-2.435l0.022,0.021c1.3-0.587,2.657-0.943,4.071-1.07
				c6.995-0.713,12.142-1.371,15.443-1.972c2.462-0.434,5.988-0.826,10.576-1.175c0-0.056,1.629-0.098,4.89-0.125
				c3.286-0.015,5.049,0.027,5.287,0.125l29.691,0.211c3.357,0.321,5.77,0.481,7.238,0.481c1.455,0,5.778-0.16,12.969-0.481h13.43
				c0.18,0.069,1.111,0.174,2.789,0.313c1.678,0.14,2.602,0.246,2.77,0.315c9.023,0,13.744-0.069,14.164-0.209h11.33
				c2.799,0.14,6.484,0.356,11.057,0.651c3.568,0.209,6.182,0.272,7.828,0.188l19.662,0.21h23.775l0.631-0.21
				c7.691-0.14,11.748-0.279,12.168-0.42l21.611-0.21c0.211-0.069,1.785-0.175,4.721-0.315c2.941-0.139,4.514-0.244,4.725-0.313
				h27.695C587.988,125.48,598.213,127.837,605.766,132.006z"/>
		</g>
		
			<use xlink:href="#FXGH"  width="259.998" height="197.072" x="-129.999" y="-98.536" transform="matrix(0.4197 0 0 -0.4197 261.8799 156.1631)" overflow="visible"/>
		<text transform="matrix(1 7.536709e-004 -7.536709e-004 1 319.8555 108.4507)" font-family="'HappySans'" font-size="42.0578">Connect with Us</text>
		
			<use xlink:href="#FGJ"  width="377.608" height="102.456" x="-188.804" y="-51.229" transform="matrix(0.4197 0 0 -0.4197 678.1602 196.1841)" overflow="visible"/>
		
			<use xlink:href="#GFH"  width="443.652" height="186.123" x="-221.826" y="-93.062" transform="matrix(-0.4197 0 0 -0.4197 235.4878 412.9453)" overflow="visible"/>
		<g>
			<path fill="#00AFF0" d="M578.805,134.063c0.154-0.658,0.672-0.987,1.553-0.987c2.49,0,6.484,1.091,11.98,3.274
				c6.102,2.391,10.164,4.778,12.191,7.155c0.309,0.377,0.582,1.007,0.818,1.889c0.266,0.853,0.553,1.483,0.861,1.888
				c0.377,0.532,0.951,1.069,1.719,1.615c0.379,0.266,1.281,0.84,2.709,1.722c0.977,0.614,1.58,1.698,1.805,3.25
				c0,0.211,0,1.489,0,3.84c0,0.323,0,0.638,0,0.945c0.039,0,0.09,0,0.148,0c2.277,6.308,3.475,10.876,3.588,13.702
				c0.039,1.846-0.143,5.077-0.547,9.694c0,1.035,0.113,3.055,0.336,6.064c0.227,3.636,0.49,6.546,0.797,8.729
				c0,0.294-0.1,0.525-0.295,0.693c-1.371-3.903-2.246-7.135-2.621-9.694c-0.016,1.972-0.064,4.469-0.148,7.49
				c-0.461,10.437-0.691,16.688-0.691,18.759c0,2.868,0.748,7.28,2.248,13.24c0.277-7.987,0.51-14.442,0.689-19.367h0.818
				c0.184,3.652,0.406,8.506,0.672,14.563c0.199,5.611,0.295,8.812,0.295,9.611c0,1.047-0.078,2.77-0.23,5.16
				c0.615,3.652,0.92,7.021,0.92,10.115c0,0.463,0.113,2.609,0.338,6.441c0.197,4.072,0.271,7.197,0.23,9.381
				c-0.086,2.125,0.027,4.855,0.338,8.182c0.32,3.639,0.48,6.066,0.48,7.283c0,1.412-0.211,2.77-0.629,4.07
				c-0.74,2.225-1.279,4.041-1.615,5.455c-0.24,1.176-0.316,2.973-0.23,5.393c0.08,1.246,0.158,2.652,0.23,4.217
				c0,6.885,0.143,11.744,0.439,14.584c0.154,1.539,0.316,3.932,0.482,7.178c0.209,2.936,0.607,5.412,1.197,7.426v23.734
				c0.234,1.299,0.445,2.984,0.629,5.055c0.125,1.705,0.188,3.016,0.188,3.926c0,1.203-0.383,3.322-1.152,6.357
				c-0.895,3.75-2.029,7.26-3.402,10.533c-2.922,6.883-6.225,11.26-9.902,13.135c-0.281,0.377-0.912,0.68-1.891,0.9
				c-1.762,0.336-6.539,0.504-14.33,0.504c-2.379,0-3.881,0.385-4.512,1.154c-0.139,0.352-0.299,0.68-0.482,0.988
				c0.42,0.016,0.881,0.098,1.385,0.254c0,0.066,0.072,0.16,0.211,0.27c0.156,0.113,0.232,0.439,0.232,0.986
				c0,0.865-0.52,1.566-1.555,2.102c-0.684,0.348-1.236,0.523-1.656,0.523c-0.938,0-1.545-0.309-1.826-0.924
				c-0.084-0.154-0.129-0.379-0.129-0.672c-2.445,0.908-6.418,1.578-11.916,2.016c3.439,0.293,5.791,1.082,7.049,2.369l-0.125,0.945
				c-0.141,0.195-0.518,0.293-1.133,0.293c-0.238,0-0.699-0.189-1.387-0.564c-0.682-0.381-1.09-0.695-1.213-0.947h-6.695
				c-8.531,0.729-13.766,1.092-15.693,1.092c-7.262,0-13.514-0.461-18.762-1.385c-1.875-0.336-3.309-0.637-4.299-0.902
				c-3.555,0.379-7.113,0.68-10.682,0.902c-0.447,0.016-1.834,0.553-4.156,1.615c-2.252,1.035-4.342,1.553-6.273,1.553
				c-1.594,0-3.467-0.418-5.623-1.258c-2.184-0.813-4.313-1.219-6.396-1.219c-14.764,0.465-22.506,0.504-23.23,0.129
				c-3.389,0.404-7.268,0.76-11.648,1.068c-4.447,0.309-7.713,0.461-9.799,0.461c-2.559,0-4.373-0.258-5.434-0.777
				c-1.061-0.5-1.602-0.752-1.617-0.752c-0.615,0.252-1.244,0.502-1.887,0.752c-1.287,0.52-3.021,0.777-5.205,0.777
				c-5.314,0-11.246-0.188-17.793-0.566c-6.268-0.42-12.059-0.914-17.373-1.49h-1.869c-1.258,0.182-4.477,0.414-9.652,0.695
				c-1.215,0.221-2.378,0.494-3.483,0.816c-0.419,0.098-1.07,0.361-1.951,0.795c-0.657,0.311-1.246,0.463-1.763,0.463
				c-10.017-0.277-15.759-0.33-17.226-0.145c-0.954,0-1.428-0.15-1.428-0.441c0.952-0.086,3.735-0.127,8.351-0.127
				c7.093,0,11.758-0.512,13.997-1.529c0.503-0.227,1.238-0.4,2.203-0.527h-2.435c-4.882,0.098-10.687,0.008-17.416-0.271
				c-8.016-0.379-14.346-0.67-18.99-0.881h-21.928c-6.281,0.658-10.093,0.791-11.436,0.396c-0.378-0.139-0.686-0.373-0.924-0.691
				c-0.209-0.334-0.497-0.551-0.86-0.65c-1.063-0.322-1.896-0.539-2.497-0.65c-1.105-0.254-2.581-0.447-4.427-0.588
				c-0.461-0.07-0.798-0.201-1.008-0.398c-0.168-0.266-0.328-0.455-0.481-0.566c-0.616-0.504-2.302-0.645-5.057-0.42
				c-1.595,0.098-3.26,0.008-4.994-0.271c-1.47-0.252-2.309-0.498-2.518-0.736c-0.266-0.375-0.623-1.299-1.07-2.77
				c-0.225-0.883-1.105-1.58-2.645-2.098c-2.588-0.826-4.175-1.344-4.763-1.553c-2.406-0.883-3.875-1.617-4.407-2.203
				c-0.657-0.688-1.091-1.504-1.3-2.455c-0.099-0.516-0.176-1.355-0.231-2.52c-0.014-0.795-0.405-1.656-1.175-2.58
				c-0.966-1.061-1.637-1.879-2.016-2.455c-0.516-0.699-1.313-2.154-2.392-4.363c-1.37-2.799-2.056-4.668-2.056-5.605
				c0-0.613,0.097-1.004,0.294-1.174c0.027-0.027,0.132-0.076,0.314-0.146c-1.218-2.98-1.853-6.35-1.91-10.115
				c0.476-6.781,0.714-11.805,0.714-15.064c0-5.414-0.112-9.26-0.335-11.541c-0.504-4-1.034-8.926-1.594-14.77
				c0-3.484-0.063-8.738-0.189-15.76c-0.112-3.721-0.182-6.436-0.21-8.141c-1.077,6.951-1.679,11.078-1.805,12.377l-0.567,0.148
				c1.498-17.625,2.245-29.916,2.245-36.867c0-0.475-0.195-1.596-0.587-3.357c-0.35-1.75-0.524-2.859-0.524-3.336
				c0-1.566,0.251-3.289,0.756-5.164c0.111-0.445,0.65-2.123,1.615-5.035c0-2.209,0.021-3.875,0.063-4.992
				c0.112-1.848,0.315-3.52,0.609-5.016c0-4.449-0.029-8.072-0.084-10.87c-0.042-2.853-0.064-5.686-0.064-8.499
				c0-0.433,0.112-2.433,0.336-6c0.265-4.114,0.434-7.045,0.503-8.792c0.042-1.554,0.314-3.994,0.818-7.324
				c0.462-3.161,0.692-5.38,0.692-6.652c0-0.559,0.063-0.839,0.189-0.839c0.071,0,0.197-0.008,0.378-0.021
				c0.741,0,1.531,0.539,2.371,1.616c0.447-2.937,0.818-5.295,1.112-7.071c0.168-1.133,0.72-2.511,1.658-4.135
				c0.965-1.734,2.063-3.217,3.294-4.447c0-1.301,0.532-3.043,1.595-5.226c1.008-2.183,1.511-3.497,1.511-3.943
				c0-0.462-0.231-1.05-0.692-1.763c-0.476-0.741-0.714-1.336-0.714-1.783c0-2.155,1.378-4.17,4.135-6.045
				c3.636-2.475,5.959-4.502,6.966-6.083c0.405-0.617,1.168-1.113,2.287-1.491c1.188-0.433,1.86-0.728,2.015-0.881
				c0.098-0.098,0.664-0.567,1.699-1.407c1.063-0.88,1.699-1.53,1.909-1.951c0.49-0.868,1.518-1.973,3.084-3.315
				c1.482-1.232,2.819-2.217,4.008-2.959c3.525-0.097,6.428-0.315,8.708-0.649c0.265-0.015,0.503-0.05,0.713-0.106
				c0.027-0.308,0.105-0.581,0.23-0.818c0.279-0.77,0.728-1.168,1.343-1.196c9.204-0.182,14.19-0.566,14.96-1.155
				c0.434-0.335,5.714-0.356,15.842-0.062c0.365-1.861,1.679-2.904,3.945-3.128c1.722-0.154,6.345-0.139,13.87,0.042
				c0.686,0,2.246,0.167,4.681,0.504c2.433,0.321,4.336,0.629,5.707,0.922l13.767,0.252c0.181,0.07,0.271,0.196,0.271,0.377
				c0,0.126,0.252,0.189,0.756,0.189c7.692,0,13.569-0.393,17.626-1.176c4.029-0.797,8.555-1.196,13.576-1.196
				c1.02,0,3.729,0.105,8.121,0.314c4.74,0.225,7.268,0.406,7.572,0.546c14.73,0.168,22.32,0.342,22.77,0.525l50.443,0.271
				c0.238,0.098,2.111,0.218,5.623,0.357c3.523,0.141,5.398,0.259,5.625,0.358h16.805c0.213-0.084,0.986-0.288,2.328-0.609
				c1.344-0.335,2.326-0.602,2.939-0.797h3.904c1.371,0.531,3.32,1.167,5.855,1.909c2.32,0.685,3.609,1.028,3.857,1.028
				c0.447,0,1.006-0.189,1.678-0.567c0.633-0.377,1.186-0.566,1.66-0.566c0.768,0,2.51,0.133,5.225,0.399
				c1.23,0.111,2.23,0.209,3.002,0.293c-0.016-0.196-0.023-0.427-0.023-0.692c0.463,0,1.307,0.287,2.541,0.86
				c1.215,0.532,2.496,0.797,3.838,0.797C578.385,135.028,578.652,134.706,578.805,134.063z M605.514,143.337
				c-0.836-1.077-1.256-2.057-1.256-2.939c0-0.559,0.188-0.929,0.566-1.111c0.184-0.098,0.355-0.176,0.523-0.232
				c0.461,0.182,1.049,0.693,1.764,1.532c0.631,0.686,1.764,1.204,3.398,1.552l0.061,0.189c0.045,0.252,0.064,0.664,0.064,1.238
				c0,0.614-0.07,1.147-0.207,1.595c-0.072,0.153-0.275,0.489-0.611,1.006l-0.861,0.148
				C607.545,145.478,606.396,144.483,605.514,143.337z M612.439,168.454c0.102,0.826,0.15,3.532,0.15,8.12
				c0,0.617,0.215,1.896,0.648,3.84c0.25,1.05,0.426,2.127,0.523,3.232c0.615-3.259,0.926-6.708,0.926-10.345
				c0-1.496-0.514-3.931-1.533-7.302c-0.379-1.244-0.686-2.322-0.924-3.231c-0.168,0.756-0.42,1.483-0.754,2.183
				C611.908,165.746,612.23,166.915,612.439,168.454z M620.498,197.851l0.271,1.615c-0.223,0.364-0.781,0.84-1.678,1.428
				c-0.91,0.544-1.504,0.818-1.783,0.818c-0.588,0-1.033-0.036-1.344-0.105c-0.461-0.127-0.889-0.223-1.279-0.294l-0.271-1.679
				c0.529-0.658,1.291-1.188,2.285-1.595c0.713-0.336,1.199-0.502,1.449-0.502c0.645,0,1.061,0.014,1.258,0.042
				C619.447,197.579,619.813,197.67,620.498,197.851z M621.23,294.479c-0.18,3.85-0.275,6.729-0.293,8.646
				c-0.043,1.342-0.266,3.715-0.672,7.111c-0.389,3.287-0.584,5.773-0.584,7.451c0,0.35,0.117,1.455,0.355,3.314
				c-0.127-0.656-0.414-1.936-0.859-3.84c-0.59-2.559-0.885-4.322-0.885-5.289c0-1.805,0.064-3.58,0.191-5.328
				c0.152-1.721,0.23-4.121,0.23-7.197c0.072-0.504,0.084-2.609,0.043-6.316c-0.031-2.518,0.502-4.379,1.592-5.58
				c0.254,0.082,0.533,0.125,0.84,0.125c0.211,0.07,0.318,0.398,0.318,0.986C621.508,288.826,621.416,290.799,621.23,294.479z
				 M620.311,323.018c0.416,3.063,0.627,4.824,0.627,5.287c0,0.365-0.055,1.688-0.168,3.965c-0.082,2.252-0.123,3.926-0.123,5.014
				l-0.297,0.275c-0.223-2.184-0.336-5.352-0.336-9.506c0.043-3.932,0.064-6.127,0.064-6.59
				C620.162,321.939,620.24,322.457,620.311,323.018z M561.199,399.668c0.604-0.672,1.447-1.162,2.537-1.469
				c-3.551,0.152-7.553,0.23-11.998,0.23c-0.449,0-2.348-0.188-5.688-0.566c-3.332-0.391-5.221-0.588-5.668-0.588
				c-1.176,0-3.664,0.26-7.469,0.777c0.627,0.057,1.264,0.131,1.91,0.23c2.434,0.322,6.848,0.664,13.238,1.027
				c5.5,0.324,8.863,0.482,10.096,0.482C559.064,399.793,560.082,399.752,561.199,399.668z M288.796,146.715
				c0,0.391-1.715,2.475-5.141,6.252c-3.343,3.707-5.092,5.561-5.246,5.561c-0.588,0-1.021-0.02-1.3-0.063l-0.378-0.104
				c-0.098-0.042-0.147-0.336-0.147-0.882c0-2.195,1.287-4.272,3.861-6.231c0.77-0.574,1.972-1.426,3.608-2.56
				c1.455-1.077,2.638-2.098,3.546-3.064c0.224,0.083,0.51,0.126,0.861,0.126C288.684,145.82,288.796,146.141,288.796,146.715z
				 M276.037,166.984l0.546,0.839c-0.183,0.602-0.308,1.352-0.377,2.245c-0.126,0.561-0.595,0.839-1.406,0.839
				c-1.245,0-2.077-0.363-2.497-1.09c-0.195-0.336-0.293-0.749-0.293-1.238c0-0.588,0.405-1.07,1.216-1.449
				C274.093,166.741,275.031,166.69,276.037,166.984z M274.191,191.325c-1.035,0.951-1.721,2.462-2.057,4.532
				c-0.182,1.12-0.272,3.351-0.272,6.695c0,1.3-0.301,3.481-0.902,6.545c-0.587,3.05-0.881,5.184-0.881,6.401
				c0,0.056,0.315,2.07,0.944,6.042c0.126,0.799,0.245,1.54,0.357,2.225c0.112-1.3,0.244-2.651,0.398-4.05
				c1.035-9.764,1.532-15.673,1.49-17.73c-0.027-2.672,0.203-5.742,0.692-9.212C274.072,192.27,274.149,191.787,274.191,191.325z
				 M269.931,251.191c-0.644,2.967-0.965,5.084-0.965,6.355c0,0.49,0.176,1.672,0.525,3.547c0.07,0.238,0.125,0.49,0.168,0.756
				v-4.008c0-1.037,0.28-2.623,0.839-4.762c0.559-2.156,0.839-3.703,0.839-4.641c0-0.375-0.126-1.488-0.378-3.334
				C270.778,246.854,270.434,248.883,269.931,251.191z M480.371,403.004c0.688-0.951,2.154-1.281,4.406-0.986
				c0.951,0.238,1.678,0.615,2.184,1.135c0.404,0.389,0.609,0.797,0.609,1.217c0,0.545-0.037,0.873-0.107,0.984
				c-0.15,0-0.244,0.057-0.27,0.168l0.145,0.105c0,0.098-0.293,0.146-0.883,0.146c-0.123,0-0.432-0.217-0.92-0.65
				c-0.59-0.531-0.926-0.818-1.01-0.861h-2.369c-0.168,0.406-0.344,0.715-0.525,0.924c-0.279,0.465-0.699,0.799-1.26,1.008
				c-0.098,0.154-0.193,0.236-0.293,0.25c-0.195,0.084-0.291-0.166-0.291-0.754C479.787,404.361,479.979,403.467,480.371,403.004z
				 M513.588,401.516c2.084,0,3.658,0.818,4.721,2.455c-0.486,0.602-0.832,1-1.027,1.195c-0.336,0.309-0.689,0.463-1.068,0.463
				c-0.408,0-1.279-0.191-2.625-0.568c-1.273-0.42-2.215-0.594-2.832-0.523l-0.104-0.041c-0.1-0.043-0.148-0.336-0.148-0.883
				C510.504,402.215,511.533,401.516,513.588,401.516z M431.461,405.186c-5.75-0.166-8.625-0.439-8.625-0.816
				c3.26,0,7.813,0.252,13.66,0.756c5.469,0.459,8.479,0.818,9.021,1.07l0.148,0.355c0,0.223-0.287,0.336-0.859,0.336
				c-0.311,0-1.477-0.127-3.506-0.379c-2.391-0.334-4.742-0.578-7.051-0.732C432.57,405.605,431.643,405.412,431.461,405.186z"/>
		</g>
	</g>
</g>
</svg>
