<svg version="1.2" baseProfile="tiny-ps" xmlns="http://www.w3.org/2000/svg" viewBox="0 0 121 151" width="121" height="151">
	<title>logo--svg</title>
	<style>
		tspan { white-space:pre }
		.shp0 { fill: #a0e9fe } 
		.shp1 { fill: #5edafe } 
		.shp2 { fill: #2ccffe } 
		.shp3 { fill: #16cbfe } 
	</style>
	<g id="layer1">
		<g id="g1199">
			<path id="path1207" fill-rule="evenodd" class="shp0" d="M11.93 145.81C9.62 145.39 6.89 144.18 5.05 142.75C3.15 141.29 3.03 140.62 3.14 132.11C3.23 125.58 3.24 125.43 3.89 124.26L4.55 123.07L4.82 91.85L10.9 91.85L10.9 94.14C10.9 96.01 10.99 96.52 11.41 96.98C12.19 97.84 13.7 97.73 14.84 96.73C16.07 95.65 16.24 94.74 15.51 93.05C15.19 92.31 15.02 91.61 15.12 91.51C15.23 91.4 16.34 91.26 17.6 91.19L19.9 91.05L19.9 86.56L19.11 86.48C17.62 86.35 17.08 86.14 16.44 85.45C15.71 84.66 15.61 83.58 16.18 82.49C16.72 81.43 17.29 81.05 18.53 80.88L19.63 80.74L19.63 76.77L17.39 76.69C16.15 76.65 15.04 76.51 14.92 76.4C14.81 76.28 15.03 75.81 15.41 75.35C16.18 74.43 16.13 73.53 15.33 73.86C14.14 74.35 13.97 74.32 13.8 73.55C13.5 72.15 13.47 72.14 12.14 72.14C10.13 72.14 9.29 73.51 10.1 75.46C10.77 77.06 10.62 77.16 7.48 77.16C5.09 77.16 4.67 77.1 4.45 76.69C3.9 75.66 5.08 66.07 6.44 60.53C9.07 49.78 15.03 39.01 21.59 33.11C28.89 26.55 37.9 21.57 47.28 18.93C48.96 18.46 50.36 18.04 50.41 18.01C50.46 17.97 49.95 17.13 49.29 16.14C48.63 15.14 48.01 13.95 47.92 13.49C47.78 12.79 47.86 12.58 48.45 12.2C49.03 11.82 49.32 11.79 50.31 12.04C50.96 12.21 51.54 12.34 51.6 12.34C51.66 12.34 51.66 11.8 51.58 11.14C51.33 8.93 53.03 8.16 54.78 9.69C55.28 10.13 55.76 10.49 55.85 10.49C55.94 10.49 56.01 10.02 56.01 9.45C56.01 8.26 56.55 7.58 57.49 7.58C58.44 7.58 59.12 8.41 60.43 11.18C61.08 12.55 61.64 13.66 61.68 13.66C61.73 13.66 62.1 12.75 62.51 11.63C63.3 9.46 65.04 7.31 66.02 7.31C66.82 7.31 67.4 8.2 67.58 9.72L67.74 11.14L68.21 10.04C68.76 8.74 69.52 8.41 70.47 9.03C71.28 9.56 71.98 11.12 71.74 11.87C71.58 12.36 71.64 12.39 72.32 12.23C74.84 11.6 75.59 11.81 75.59 13.12C75.59 13.91 74.46 15.84 73.39 16.84C73.01 17.2 72.69 17.58 72.69 17.69C72.69 17.79 73.19 18.01 73.81 18.16C97.11 24.08 110.55 36.37 114.51 55.37C114.81 56.81 115.56 59.59 116.18 61.55C116.81 63.52 117.45 65.69 117.62 66.39C117.84 67.3 117.93 76.48 117.93 99.99C117.93 136.05 117.98 134.87 116.16 138.35C114.81 140.9 112.44 143.25 109.96 144.48C106.22 146.32 109.19 146.22 59.06 146.18C23.28 146.16 13.42 146.08 11.93 145.81L11.93 145.81ZM41.42 132.44C42.71 131.99 42.74 131.66 42 126.08C41.83 124.83 41.73 123.22 41.78 122.51C41.85 121.32 41.92 121.21 42.59 121.13C43.49 121.03 43.9 120.31 43.79 119.03C43.72 118.17 43.61 118.04 42.84 117.88C42.36 117.79 41.9 117.64 41.82 117.56C41.74 117.49 41.82 116.79 41.99 116.01C42.16 115.24 42.26 114.07 42.21 113.41L42.12 112.22L37.9 112.22L37.73 113.01C37.63 113.45 37.54 114.73 37.53 115.86L37.49 117.91L35.64 117.91C34.13 117.91 33.69 118.01 33.25 118.45C32.18 119.52 33.25 120.95 35.32 121.22C36.01 121.31 36.71 121.43 36.88 121.48C37.09 121.55 37.21 122.97 37.27 126.17C37.35 130.06 37.44 130.88 37.84 131.5C38.6 132.66 39.85 132.98 41.42 132.44ZM48.69 132.22C48.84 132.07 48.99 130.87 49.03 129.54C49.11 127.05 49.53 125.85 50.33 125.85C51.13 125.85 51.61 127.16 51.76 129.78L51.91 132.33L53.55 132.41C55.08 132.48 55.22 132.44 55.66 131.77C56.2 130.96 56.2 130.21 55.75 120.86C55.59 117.59 55.33 114.66 55.17 114.36C54.21 112.49 52.81 111.75 50.19 111.75C46.95 111.75 46.04 112.5 45.46 115.61C44.64 120.09 44.46 131.21 45.2 132.1C45.72 132.73 48.1 132.81 48.69 132.22L48.69 132.22ZM48.87 117.95C48.87 117.15 50.01 116.06 50.86 116.06C51.62 116.06 52.84 117.12 52.84 117.78C52.84 118.3 52.34 119.29 51.94 119.56C51.32 119.97 50.02 119.76 49.45 119.15C49.13 118.81 48.87 118.27 48.87 117.95ZM67.17 132.14C67.53 131.57 67.43 123.95 67.05 123.2C66.63 122.37 65.44 122.18 64.72 122.83C64.26 123.24 64.22 123.69 64.22 127.73C64.22 131.67 64.27 132.2 64.68 132.45C65.25 132.8 66.88 132.6 67.17 132.14ZM36.13 127.79C36.25 124.89 36.1 124.54 33.96 122.96C31.66 121.27 30.29 118.67 31.08 117.49C31.49 116.87 32.5 116.59 34.27 116.59C36.26 116.59 36.44 116.46 36.44 115.02C36.44 112.72 35.28 111.69 32.71 111.71C30.76 111.72 29.64 112.25 28.27 113.81C27.31 114.9 27.06 116.02 27.24 118.44C27.41 120.91 28.54 123.24 30.47 125.17C31.68 126.36 31.96 126.79 31.89 127.37C31.82 127.93 31.65 128.11 31.12 128.18C30.59 128.24 30.26 128.03 29.71 127.3C29.14 126.56 28.82 126.36 28.27 126.43C27.58 126.51 27.57 126.53 27.5 128.95C27.39 132.25 27.59 132.46 30.89 132.46C32.35 132.46 33.63 132.32 34.17 132.09C35.61 131.49 36 130.62 36.13 127.79ZM61.63 131.69L62.5 130.92L62.5 127.52C62.5 125.66 62.44 122.64 62.36 120.82L62.23 117.51L63.03 117.43C64.65 117.27 66.58 116.57 66.98 115.99C67.21 115.67 67.39 114.96 67.39 114.41C67.39 113.56 67.26 113.32 66.53 112.88C65.77 112.41 65.19 112.36 61.25 112.35C56.28 112.35 56.28 112.35 56.28 114.39C56.28 115.65 56.87 116.53 58.03 117.01C58.52 117.22 58.93 117.48 58.93 117.59C58.93 117.7 58.62 118.98 58.25 120.43C57.07 125.04 57.1 130.64 58.31 131.99C59.01 132.75 60.6 132.61 61.63 131.69L61.63 131.69ZM77.21 131.82C79.5 130.27 80.93 126.68 80.97 122.41C81.01 119.18 80.39 116.73 79.02 114.67C77.85 112.9 76.86 112.27 75.08 112.15C73.23 112.03 72.09 112.61 70.88 114.29C69.43 116.3 68.9 118.16 68.77 121.64C68.6 126.41 69.81 129.91 72.26 131.71C73.66 132.73 75.8 132.78 77.21 131.82ZM72.8 119.79C73.62 118.2 75.81 118.12 76.39 119.64C76.86 120.87 76.71 123.06 76.1 123.83C75.57 124.5 74.48 124.72 73.54 124.35C72.52 123.94 72.08 121.19 72.8 119.79ZM87 131.77C87.24 131.48 87.44 129.79 87.64 126.5C87.83 123.25 88.04 121.53 88.27 121.24C88.47 121.01 89.02 120.82 89.51 120.82C90.24 120.82 90.48 120.97 90.87 121.68C91.26 122.4 91.34 123.27 91.37 126.97C91.4 132.16 91.44 132.26 93.43 132.14C95.32 132.03 95.44 131.7 95.66 125.65C95.96 117.56 95.45 114.58 93.54 113.42C92.11 112.55 91.02 112.7 89.88 113.94C89.34 114.52 88.77 115 88.61 115C88.2 115 87.76 114.12 87.76 113.28C87.76 112.34 86.22 111.66 84.86 111.99C84.03 112.2 83.87 112.38 83.43 113.68C82.83 115.46 82.55 123.82 82.94 128.34C83.16 130.85 83.27 131.3 83.79 131.72C84.55 132.33 86.5 132.37 87 131.77L87 131.77ZM66.72 120.83C67.8 119.63 66.25 117.91 64.89 118.8C64.12 119.31 64.02 120.16 64.65 120.87C65.23 121.5 66.13 121.48 66.72 120.83L66.72 120.83ZM69.98 109.42C71.01 109.06 71 109.12 71.37 101.77C71.69 95.45 71.84 94.84 73.08 94.36C74.16 93.95 75.22 94.51 75.76 95.77C76.17 96.72 76.25 97.72 76.28 102.78C76.32 109.68 76.25 109.49 78.84 109.66C81.92 109.85 82.08 109.43 82.47 99.93C82.98 87.6 81.64 83.81 76.79 83.78C75.53 83.78 75.42 83.84 74.06 85.3L72.64 86.82L72.13 86.2C71.85 85.85 71.63 85.24 71.63 84.83C71.63 83.73 71.38 83.27 70.55 82.84C69.57 82.34 67.14 82.34 66.42 82.85C65.69 83.36 65.1 85.14 64.72 87.98C64.29 91.18 64.56 106.25 65.08 107.72C65.67 109.43 67.82 110.18 69.98 109.42L69.98 109.42ZM34.06 109C35.7 107.88 35.78 107.13 35.24 98.24C34.84 91.72 34.82 90.57 35.14 90.37C35.34 90.24 37.95 90.12 40.93 90.11C43.92 90.1 49.33 90 52.97 89.89C58.39 89.72 59.79 89.6 60.71 89.22C63.78 87.93 64 84.89 61.12 83.47L59.85 82.85L44.77 82.77C34.39 82.72 29.38 82.78 28.7 82.98C27.46 83.34 26.91 84.32 26.91 86.17C26.91 88.44 27.55 89.36 29.65 90.13C30.26 90.35 30.38 90.52 30.27 90.99C29.17 95.52 28.73 98.36 28.58 101.78C28.39 106.49 28.56 107.84 29.47 108.76C30.06 109.35 30.39 109.44 31.78 109.44C32.87 109.44 33.62 109.3 34.06 109L34.06 109ZM96.18 105.67C96.27 103.88 96.23 103.71 95.57 103.09C94.97 102.53 94.57 102.42 92.78 102.34C91.43 102.28 90.59 102.12 90.39 101.88C90.07 101.49 90 101.63 92.27 97.93C93.73 95.56 94.95 92.88 95.81 90.15C97.5 84.8 96.09 83.12 89.63 82.8C84.92 82.57 83.6 83.14 83.33 85.49C83.17 86.96 83.85 88.94 84.68 89.39C84.99 89.56 86.14 89.9 87.24 90.14C89.1 90.55 89.22 90.62 89.17 91.25C89.15 91.63 88.44 93.04 87.6 94.4C84.21 99.9 83.28 102.29 83.27 105.55C83.26 108.13 83.86 108.78 86.71 109.29C87.69 109.46 92.77 109.21 93.96 108.93C95.63 108.53 96.07 107.89 96.18 105.67ZM49.41 103.62C49.73 101.32 49.55 98.66 48.86 95.46C48.49 93.76 47.18 92.16 45.78 91.7C44.31 91.21 40.56 91.5 39.67 92.16C37.91 93.46 37.11 96.28 37.1 101.24C37.09 105.83 37.76 107.23 40.54 108.55C42.27 109.37 45.28 109.42 46.96 108.65C48.38 108.01 48.97 106.8 49.41 103.62ZM41.46 97.87C41.89 97.16 42.15 97.01 42.91 97.01C43.6 97.01 43.94 97.17 44.26 97.66C44.94 98.7 45.01 100.19 44.41 101.14C43.81 102.1 43.08 102.36 42.22 101.93C40.92 101.29 40.56 99.34 41.46 97.87ZM63.39 101.11C63.97 94.71 62.09 91.83 57.12 91.51C52.21 91.18 50.79 93.28 51.06 100.45C51.21 104.42 51.66 106.29 52.77 107.61C53.87 108.92 54.75 109.19 57.65 109.11C60.19 109.05 60.23 109.03 61.17 108.12C62.37 106.97 63.06 104.77 63.39 101.11ZM56 99.42C56.69 98.13 58.54 98.21 59.16 99.56C60.14 101.72 58.66 104.34 56.9 103.55C55.74 103.04 55.26 100.81 56 99.42Z" />
			<path id="path1205" fill-rule="evenodd" class="shp1" d="M12.79 145.79C9.11 145 5.89 143.41 4.02 141.46L3.23 140.63L3.23 125.71L4.09 124.33L4.95 122.94L5.08 92.11L10.64 92.11L10.56 94.1C10.49 95.73 10.58 96.24 11.02 96.94C11.51 97.72 11.68 97.8 12.85 97.8C14.29 97.8 15.28 97.21 15.94 95.94C16.46 94.92 16.43 94.14 15.8 92.91C15.51 92.34 15.27 91.83 15.27 91.79C15.27 91.75 16.27 91.72 17.49 91.72C19.06 91.72 19.79 91.61 20.01 91.35C20.21 91.11 20.29 90.13 20.24 88.63L20.16 86.29L18.74 86.15C17.6 86.03 17.19 85.86 16.67 85.24C15.36 83.73 16.53 81.45 18.76 81.15L19.9 81L19.9 76.5L17.58 76.43C16.31 76.38 15.27 76.29 15.27 76.22C15.27 76.14 15.52 75.75 15.82 75.33C16.65 74.22 16.41 73.58 15.19 73.65C14.52 73.69 14.21 73.6 14.21 73.36C14.21 72.69 13.13 71.61 12.46 71.61C10.31 71.61 9.12 73.16 9.67 75.23C9.84 75.88 9.92 76.52 9.83 76.65C9.67 76.92 5.77 76.99 5.1 76.74C4.56 76.53 4.55 74.47 5.09 69.9C6.95 54.01 13.66 40.08 23.38 31.93C30.37 26.07 40.2 21 48.8 18.81C49.96 18.52 50.72 18.19 50.72 17.98C50.72 17.79 50.31 17.06 49.8 16.35C48.65 14.75 48.03 13.3 48.25 12.73C48.38 12.39 48.67 12.32 49.64 12.42C50.31 12.48 51.13 12.63 51.46 12.74C52.05 12.93 52.05 12.9 51.89 11.5C51.75 10.34 51.81 9.97 52.17 9.61C52.86 8.92 53.55 9.08 54.79 10.22C55.42 10.81 56.02 11.28 56.11 11.28C56.2 11.28 56.28 10.75 56.28 10.1C56.28 8.65 56.74 7.58 57.37 7.58C58.1 7.58 59.21 9.15 60.38 11.82C60.96 13.15 61.54 14.26 61.67 14.28C61.8 14.31 62.22 13.41 62.62 12.29C63.74 9.1 65.35 7.05 66.4 7.46C66.92 7.66 67.39 9.52 67.39 11.4C67.39 12.93 67.81 13.4 68.05 12.14C68.47 10.02 68.84 9.3 69.54 9.22C70.56 9.1 71.36 10.22 71.36 11.75C71.36 12.76 71.43 12.91 71.82 12.78C74.05 12.05 74.5 11.98 74.91 12.32C75.14 12.51 75.33 12.84 75.33 13.05C75.33 13.71 74.26 15.54 73.18 16.71C72.59 17.35 72.25 17.92 72.4 18.02C72.54 18.11 74.13 18.58 75.92 19.08C97.67 25.08 110.27 36.96 114.11 55.09C114.46 56.73 115.46 60.28 116.34 62.97L117.94 67.87L117.79 133.65L117.18 135.37C115.25 140.72 111.81 143.94 106.19 145.66C104.38 146.22 104.37 146.22 59.49 146.2C21 146.18 14.35 146.12 12.79 145.79L12.79 145.79ZM33.73 132.59C35.25 132.13 36.02 131.34 36.29 129.95C36.52 128.71 36.86 128.78 37.07 130.1C37.29 131.49 37.85 132.33 38.83 132.73C39.83 133.15 41.61 132.92 42.3 132.29C42.9 131.75 42.89 130.84 42.25 125.14C42.07 123.52 41.98 122.02 42.06 121.81C42.15 121.6 42.57 121.35 43.01 121.26C43.66 121.13 43.88 120.91 44.12 120.1C44.43 119.06 44.13 117.64 43.6 117.64C43.46 117.64 43.05 117.53 42.69 117.39L42.03 117.15L42.43 115.61C42.89 113.87 42.75 112.38 42.08 111.89C41.83 111.71 40.88 111.56 39.98 111.56C37.57 111.56 37.31 111.96 37.16 115.79L37.1 117.51L35.16 117.64C33.64 117.75 33.14 117.89 32.84 118.29C32.39 118.91 32.37 119.27 32.76 120.12C33.14 120.94 33.87 121.33 35.52 121.56L36.83 121.75L36.91 123.53C36.99 125.37 36.74 125.8 36.24 124.69C36.08 124.35 35.27 123.54 34.43 122.91C32.47 121.41 31.43 120.1 31.23 118.88C30.99 117.4 31.39 117.12 33.7 117.12C35.46 117.12 35.74 117.04 36.34 116.44C36.92 115.87 36.99 115.62 36.84 114.79C36.59 113.41 36.15 112.62 35.33 112.01C34.33 111.27 32.22 111.12 30.73 111.68C27.66 112.86 26.38 115.32 26.94 118.97C27.31 121.39 28.2 123.16 30.06 125.16C31.72 126.94 32 127.59 31.24 127.88C30.93 128 30.56 127.75 30.02 127.08C29.2 126.07 28.13 125.79 27.49 126.43C27.15 126.77 27.04 131.01 27.35 131.81C27.78 132.94 31.16 133.35 33.73 132.59ZM48.43 132.69C49.31 132.22 49.39 131.97 49.4 129.51C49.4 127.72 49.5 127.1 49.87 126.65L50.34 126.07L50.83 126.61C51.21 127.03 51.34 127.69 51.42 129.6C51.54 132.57 51.75 132.86 53.75 132.84C56.37 132.82 56.64 132.05 56.28 125.57C56.14 123.03 56.02 119.85 56.02 118.51L56.01 116.07L56.91 116.66C57.4 116.98 57.99 117.37 58.22 117.51C58.6 117.75 58.57 118.03 57.96 120.29C57.47 122.1 57.24 123.73 57.15 126.11C56.94 131.12 57.57 132.73 59.73 132.73C61.49 132.73 62.59 131.68 62.97 129.66C63.06 129.21 62.97 126.41 62.78 123.44C62.58 120.47 62.48 117.95 62.54 117.84C62.61 117.73 62.98 117.64 63.37 117.64C65.46 117.64 67.53 116.34 67.81 114.85C68.02 113.79 66.95 112.48 65.59 112.1C64.32 111.75 58.55 111.75 57.27 112.1C56.51 112.31 56.25 112.54 56.13 113.09C55.81 114.56 55.75 114.6 55.24 113.77C54.51 112.57 53.5 111.89 51.93 111.54C49.18 110.93 46.6 111.72 45.67 113.47C44.85 114.99 44.03 127.01 44.49 130.68C44.65 131.96 44.79 132.26 45.38 132.58C46.25 133.05 47.64 133.1 48.43 132.69L48.43 132.69ZM49.66 118.97C48.94 118.25 49 117.52 49.83 116.87C50.71 116.18 51.01 116.18 51.9 116.89C52.47 117.33 52.58 117.59 52.45 118.14C52.12 119.5 50.64 119.94 49.66 118.97L49.66 118.97ZM67.07 132.58C67.64 132.18 67.66 132.01 67.66 127.78L67.66 123.4L66.73 122.52C65.86 121.7 65.84 121.64 66.35 121.48C67.06 121.25 67.5 120.25 67.29 119.38C67.08 118.54 66.1 118.04 65.15 118.28C63.77 118.63 63.59 120.81 64.89 121.4C65.61 121.73 65.76 122.14 65.16 122.14C64.95 122.14 64.59 122.41 64.36 122.73C63.74 123.62 63.76 131.81 64.39 132.51C64.93 133.1 66.27 133.14 67.07 132.58L67.07 132.58ZM76.52 132.5C80.19 130.83 82.24 124.64 81.03 118.93C80.39 115.91 78.69 113.15 76.86 112.2C75.94 111.72 73.66 111.72 72.74 112.2C71.02 113.1 69.39 115.62 68.69 118.44C68.25 120.22 68.24 124.15 68.67 126.08C69.33 129.04 71.06 131.55 73.08 132.49C74.41 133.1 75.18 133.11 76.52 132.5L76.52 132.5ZM72.82 121.64C72.82 119.94 73.24 119.21 74.43 118.86C75.73 118.47 76.8 120.73 76.29 122.77C75.92 124.24 74.6 124.69 73.44 123.75C72.91 123.32 72.82 123.01 72.82 121.64ZM95.46 131.47C95.95 130.21 96.31 120.45 95.96 118.04C95.44 114.38 94.05 112.62 91.72 112.62C90.74 112.62 90.46 112.76 89.6 113.69C88.55 114.83 88.46 114.82 88.18 113.51C87.93 112.37 87.21 111.79 85.86 111.63C84.98 111.54 84.57 111.63 84.02 112.06C82.81 113.02 82.61 114.56 82.61 122.8C82.61 132.16 82.7 132.46 85.62 132.46C87.56 132.46 87.66 132.21 87.97 126.58C88.25 121.54 88.41 121 89.59 121.14C90.81 121.28 91.06 122.29 91.06 127.17C91.07 129.57 91.17 131.69 91.3 131.88C91.78 132.64 93.31 132.92 94.5 132.47C94.88 132.32 95.31 131.88 95.46 131.47ZM71.07 108.96C71.22 108.68 71.48 105.73 71.65 102.4C71.84 98.73 72.1 96.01 72.31 95.49C72.62 94.72 72.77 94.63 73.72 94.63C74.55 94.63 74.88 94.77 75.19 95.24C75.86 96.27 76.19 99.96 76.01 104.36L75.84 108.4L76.62 109.19C77.33 109.9 77.57 109.97 79.16 109.97C81.42 109.97 82.08 109.41 82.35 107.23C82.54 105.71 83 105.41 83 106.81C83 108.04 84.23 109.2 85.8 109.46C88.52 109.91 93.92 109.57 95.24 108.88C96.39 108.27 97.06 105.37 96.41 103.82C95.86 102.51 94.83 102.03 92.54 102.03C90.86 102.03 90.68 101.98 90.68 101.51C90.68 101.23 91.2 100.19 91.83 99.2C94.54 95 96.76 89.48 96.76 86.96C96.76 85.11 96.16 84.18 94.44 83.33C93.26 82.76 92.56 82.63 90.04 82.52C86.37 82.36 84.95 82.55 83.95 83.34C83.31 83.85 83.17 84.2 83.06 85.42C82.81 88.45 83.92 89.87 86.96 90.41C88.6 90.7 88.82 90.81 88.82 91.32C88.82 91.64 87.97 93.26 86.93 94.92C84.94 98.08 83.72 100.53 83.41 101.97C82.93 104.2 82.76 102.67 82.81 96.69C82.88 89.55 82.62 87.8 81.21 85.79C80.04 84.12 79.25 83.68 77.23 83.56C75.62 83.47 75.35 83.53 74.65 84.12C74.21 84.49 73.69 85.09 73.49 85.47C72.86 86.64 72.23 86.36 72.02 84.81C71.92 84.06 71.61 83.24 71.35 82.97C70.28 81.91 67.54 81.71 66.16 82.59C65.04 83.32 64.38 86.58 64.06 92.91L63.89 96.35L63.26 95.02C62.02 92.4 59.81 91.18 56.3 91.19C52.62 91.2 51.29 92.6 50.71 97.1C50.37 99.65 50.67 103.25 51.42 105.78C51.96 107.59 53.42 109.01 55.17 109.43C56.96 109.86 59.73 109.56 60.85 108.82C62 108.06 63.07 105.8 63.45 103.36C63.62 102.27 63.85 101.27 63.96 101.15C64.07 101.03 64.25 102.34 64.35 104.06C64.58 107.75 64.98 108.97 66.15 109.55C67.1 110.01 69.14 110.1 70.14 109.72C70.5 109.58 70.92 109.24 71.07 108.96ZM34.86 108.72C35.28 108.26 35.7 107.43 35.81 106.87C35.91 106.32 35.8 102.48 35.56 98.35C35.25 93.1 35.2 90.77 35.39 90.65C35.55 90.55 40.76 90.4 46.97 90.32C53.85 90.22 58.8 90.05 59.64 89.86C63.41 89.04 64.72 86 62.24 83.82C60.7 82.47 59.95 82.41 43.36 82.5L28.19 82.59L27.42 83.45C26.73 84.23 26.65 84.5 26.65 86.1C26.65 88.37 27.24 89.42 28.92 90.17C29.85 90.58 30.08 90.8 29.95 91.14C29.85 91.38 29.47 92.95 29.11 94.63C28.61 96.92 28.42 98.78 28.31 102.2C28.15 107.21 28.34 108.27 29.51 109.2C30.12 109.68 30.49 109.74 32.16 109.66C33.96 109.57 34.17 109.5 34.86 108.72L34.86 108.72ZM56.43 102.77C55.9 102.01 55.9 100.2 56.43 99.45C56.89 98.78 58.16 98.65 58.63 99.22C59.04 99.72 59.28 101.1 59.09 101.87C58.72 103.35 57.19 103.86 56.43 102.77ZM49.77 101.24C49.74 93.63 48.15 91.18 43.26 91.19C39.58 91.2 38.37 92.09 37.33 95.55C36.96 96.77 36.85 98.05 36.84 101.11C36.83 104.67 36.89 105.18 37.4 106.14C38.13 107.48 38.94 108.24 40.28 108.81C42.52 109.76 43.83 109.88 45.93 109.32C48.89 108.54 49.79 106.63 49.77 101.24ZM41.83 97.83C42.97 96.57 44.46 97.53 44.46 99.52C44.46 101.51 42.97 102.47 41.83 101.21C41.15 100.46 41.15 98.58 41.83 97.83Z" />
			<path id="path1203" fill-rule="evenodd" class="shp2" d="M14.34 146.04C13.91 145.98 13.31 145.84 13.02 145.71C12.73 145.59 11.48 145.17 10.24 144.78C7.84 144.03 5.23 142.5 4.02 141.14L3.27 140.3L3.27 133.05C3.27 128.93 3.38 125.73 3.52 125.63C3.75 125.45 4.15 124.81 4.86 123.47C5.14 122.94 5.21 119.65 5.21 107.52L5.21 92.24L10.4 92.24L10.39 94.34C10.37 97.14 10.87 97.9 12.82 98.01C14 98.08 14.28 97.99 15.08 97.29C16.67 95.89 16.89 94.68 15.94 92.44C15.76 92.03 15.94 91.98 17.7 91.98C20.52 91.98 20.6 91.89 20.5 88.67L20.43 86.03L18.88 85.89C17.65 85.78 17.22 85.62 16.8 85.1C15.69 83.73 16.95 81.4 18.8 81.4C19.27 81.4 19.8 81.25 19.98 81.08C20.4 80.66 20.4 76.85 19.98 76.42C19.79 76.23 18.87 76.11 17.71 76.11C16.63 76.11 15.8 76.02 15.85 75.91C15.9 75.8 16.12 75.37 16.32 74.96C16.82 73.96 16.42 73.33 15.28 73.33C14.58 73.33 14.37 73.18 14.08 72.48C13.63 71.42 12.38 71.11 10.96 71.7C9.35 72.37 8.93 73.73 9.6 76.05C9.78 76.65 9.77 76.66 7.43 76.58L5.08 76.5L5.12 73.59C5.24 64.36 8.72 52.32 13.67 44.03C16.86 38.68 20.05 34.92 24.35 31.42C30.96 26.04 39.06 21.88 47.81 19.36C49.82 18.78 50.88 18.34 50.94 18.08C50.98 17.86 50.6 17.09 50.08 16.37C49 14.87 48.25 13.23 48.48 12.86C48.72 12.47 50.4 12.56 51.27 13.01C51.71 13.24 52.16 13.36 52.27 13.29C52.39 13.22 52.36 12.55 52.21 11.81C51.9 10.27 52.14 9.62 53.09 9.47C53.52 9.41 54 9.72 54.82 10.6C55.44 11.27 56.08 11.81 56.25 11.81C56.43 11.81 56.54 11.26 56.54 10.37C56.54 8.86 56.96 7.58 57.45 7.58C57.93 7.58 59.39 9.97 60.29 12.21C61.16 14.39 61.49 14.99 61.84 14.99C61.95 14.99 62.34 14 62.72 12.8C63.38 10.67 64.8 8.11 65.32 8.11C65.46 8.11 65.51 8 65.42 7.87C65.24 7.57 65.89 7.31 66.26 7.54C66.71 7.82 67.12 9.71 67.13 11.5C67.13 12.94 67.19 13.16 67.58 13.09C68.06 12.99 68.33 12.35 68.59 10.69C68.8 9.29 69.56 8.93 70.44 9.8C70.96 10.33 71.1 10.73 71.1 11.76C71.1 12.47 71.17 13.12 71.25 13.2C71.33 13.28 71.9 13.13 72.51 12.85C73.86 12.24 74.76 12.2 74.98 12.77C75.21 13.36 74.27 15.16 72.94 16.66C72.3 17.38 71.92 18.03 72.05 18.15C72.18 18.27 73.66 18.74 75.33 19.18C92.78 23.8 104.46 32.35 110.44 44.88C111.89 47.92 113.24 51.95 113.92 55.27C114.46 57.92 116.61 64.96 117.43 66.78C117.93 67.88 117.94 68.8 117.87 100.52C117.81 124.94 117.72 133.26 117.48 133.65C117.31 133.94 116.97 134.84 116.73 135.64C115.39 140.07 111.72 143.65 106.95 145.16C106.36 145.34 105.72 145.63 105.52 145.79C105.25 146.01 92.92 146.1 60.14 146.12C35.39 146.13 14.78 146.1 14.34 146.04L14.34 146.04ZM33.7 132.86C35.09 132.45 35.83 131.83 36.33 130.65C36.62 130 36.65 129.98 36.82 130.48C37.32 131.91 37.55 132.24 38.35 132.73C39.73 133.57 42.21 133.27 42.79 132.19C43.12 131.58 43.12 129.49 42.8 127.8C42.67 127.09 42.47 125.47 42.37 124.2C42.22 122.34 42.26 121.87 42.55 121.78C42.75 121.72 43.1 121.61 43.31 121.54C43.53 121.47 43.81 121.43 43.93 121.45C44.05 121.47 44.15 123.51 44.14 125.98C44.13 128.45 44.21 130.89 44.32 131.4C44.58 132.63 45.87 133.33 47.54 133.16C49.32 132.98 49.66 132.39 49.66 129.57C49.66 128.1 49.79 127.1 50.01 126.8C50.66 125.91 51.06 126.94 51.2 129.85L51.33 132.52L52.25 132.9C53.67 133.5 56.28 132.86 56.28 131.91C56.28 131.8 56.41 131.37 56.56 130.96L56.84 130.23L57.33 131.32C57.91 132.62 58.5 132.99 59.99 132.99C60.89 132.99 61.26 132.83 62 132.09C62.49 131.59 62.97 130.82 63.06 130.36C63.34 128.97 63.69 129.17 63.69 130.73C63.69 131.84 63.81 132.32 64.22 132.73C65.03 133.54 67.07 133.33 67.72 132.36C67.83 132.2 67.93 130.34 67.94 128.23L67.97 124.39L68.43 126.11C69.34 129.47 70.94 131.79 73.01 132.73C74.43 133.38 75.17 133.38 76.59 132.73C81.09 130.69 83.1 122.16 80.46 116.32C78.93 112.94 77.29 111.56 74.8 111.56C71.26 111.56 68.84 114.93 68.06 120.95C67.87 122.41 67.7 123.45 67.69 123.27C67.67 123.09 67.41 122.69 67.12 122.4L66.58 121.86L67.12 121.17C67.41 120.79 67.66 120.2 67.66 119.85C67.66 119.01 66.53 117.91 65.67 117.91C64.81 117.91 63.69 119.01 63.69 119.85C63.69 120.2 63.93 120.8 64.24 121.18L64.78 121.88L64.24 122.58C63.79 123.14 63.69 123.65 63.69 125.22C63.69 128.69 63.22 127.29 62.99 123.14C62.86 120.92 62.76 118.87 62.76 118.59C62.76 118.19 63.06 118.02 64.22 117.79C66.27 117.38 67.43 116.64 67.89 115.44C68.23 114.55 68.22 114.34 67.84 113.54C67.07 111.93 66.24 111.69 61.44 111.69C56.86 111.69 56.15 111.86 55.86 113.03L55.69 113.69L54.56 112.65C52.12 110.4 47.06 110.62 45.64 113.04C45.4 113.47 45.05 114.7 44.88 115.8C44.7 116.89 44.53 117.81 44.5 117.85C44.48 117.89 44.11 117.74 43.68 117.52C43.26 117.3 42.76 117.12 42.56 117.12C42.33 117.12 42.26 116.95 42.37 116.67C43.19 114.54 43.1 112.34 42.17 111.69C41.53 111.24 38.79 111.15 38.03 111.55C37.77 111.7 37.41 112.2 37.24 112.68L36.94 113.54L36.49 112.81C35.78 111.65 34.03 110.93 32.35 111.11C28.78 111.47 26.58 113.96 26.6 117.57C26.61 120.69 27.87 123.46 30.32 125.79C31.38 126.8 31.74 127.7 31.08 127.7C30.9 127.7 30.41 127.28 30.01 126.77C29.23 125.8 28.41 125.59 27.42 126.12C26.97 126.36 26.91 126.69 26.91 128.97C26.91 131.89 27.19 132.56 28.58 132.96C29.89 133.34 32.23 133.3 33.7 132.86L33.7 132.86ZM56.46 123.76C56.36 122.39 56.28 120.22 56.28 118.94L56.28 116.6L57.21 117.15C57.72 117.45 58.19 117.78 58.25 117.89C58.31 117.99 58.13 118.84 57.85 119.78C57.57 120.71 57.18 122.55 56.99 123.86L56.65 126.24L56.46 123.76ZM35.4 123.52C33.16 121.65 31.68 119.95 31.51 119.05C31.27 117.76 31.52 117.38 32.58 117.38L33.5 117.38L32.82 118.06C31.64 119.24 32.4 121.09 34.29 121.61C34.82 121.76 35.57 121.88 35.97 121.88C36.67 121.88 36.7 121.93 36.7 123.2C36.7 123.93 36.67 124.52 36.63 124.51C36.6 124.5 36.04 124.06 35.4 123.52ZM73.64 123.65C72.6 122.89 72.88 119.83 74.05 119.21C75.25 118.56 76.12 119.61 76.12 121.7C76.12 123.61 74.9 124.57 73.64 123.65ZM49.82 118.82C49.2 118.2 49.31 117.45 50.09 116.94C50.72 116.53 50.85 116.52 51.48 116.89C52.01 117.19 52.16 117.47 52.12 118.04C52.09 118.45 51.91 118.89 51.73 119.01C51.18 119.36 50.26 119.27 49.82 118.82L49.82 118.82ZM36.73 116.59C36.86 116.59 36.96 116.77 36.96 116.98C36.96 117.21 36.73 117.38 36.4 117.38C35.93 117.38 35.9 117.32 36.17 116.98C36.35 116.77 36.6 116.59 36.73 116.59ZM96.26 125.36C96.56 119.32 96.36 117.1 95.32 114.82C94.57 113.18 93.73 112.58 91.97 112.41C90.72 112.29 90.61 112.33 89.65 113.34L88.65 114.4L88.34 113.23C88.08 112.27 87.86 111.99 87.11 111.68C85.3 110.92 83.86 111.33 83.16 112.8C82.39 114.42 82.13 117.69 82.26 124.25C82.4 131.04 82.58 131.95 83.96 132.47C85.04 132.89 86.59 132.77 87.26 132.23C87.84 131.76 87.89 131.47 88.1 127.66C88.41 122.01 88.51 121.5 89.42 121.4C90.56 121.27 90.78 122.16 90.79 127.21C90.81 131.11 90.86 131.67 91.3 132.15C91.57 132.45 92.04 132.75 92.36 132.82C93.21 133 94.64 132.79 95.09 132.42C95.83 131.81 95.99 130.8 96.26 125.36ZM70.24 109.95C70.78 109.77 71.15 109.4 71.33 108.87C71.49 108.44 71.75 105.38 71.92 102.08C72.26 95.22 72.38 94.81 73.96 94.94C75.49 95.07 75.7 95.98 75.72 102.7C75.73 105.75 75.84 108.52 75.95 108.85C76.26 109.74 77.47 110.24 79.31 110.24C80.74 110.24 81.01 110.15 81.7 109.46C82.13 109.04 82.47 108.44 82.47 108.14C82.47 107.39 82.85 107.45 83.22 108.27C83.65 109.21 85.08 109.72 87.74 109.89C90.35 110.06 94.5 109.59 95.37 109.03C96.33 108.4 96.85 107.09 96.86 105.26C96.86 103.74 96.79 103.53 96.01 102.75C95.23 101.96 95.02 101.9 93.05 101.81C91.49 101.74 90.94 101.62 90.94 101.35C90.94 101.15 91.47 100.17 92.13 99.16C95 94.72 97.18 89.05 96.97 86.56C96.72 83.58 94.81 82.45 89.69 82.25C84.42 82.04 83 82.73 82.79 85.62C82.7 86.84 82.8 87.44 83.23 88.33C83.89 89.7 84.71 90.22 86.84 90.66C87.71 90.84 88.52 91.03 88.62 91.1C88.88 91.25 88.36 92.23 86.17 95.74C85.17 97.33 84.15 99.19 83.9 99.87C83.06 102.16 82.94 101.79 83.13 97.4C83.4 91.14 82.83 87.67 81.13 85.2C80.21 83.87 78.81 83.25 76.73 83.25C75.27 83.25 75.19 83.29 73.98 84.57C73.3 85.3 72.68 85.89 72.6 85.89C72.53 85.89 72.38 85.39 72.28 84.77C72.18 84.15 71.98 83.44 71.85 83.19C71.18 81.9 67.67 81.34 66.23 82.28C65.83 82.54 65.31 83.2 65.09 83.73C64.49 85.15 63.97 88.36 63.95 90.79C63.93 92.59 63.55 95.62 63.45 94.73C63.44 94.57 62.94 93.89 62.36 93.22C60.97 91.64 59.11 90.92 56.47 90.93C52.52 90.94 51.1 92.37 50.47 96.94C50.37 97.7 50.23 98.38 50.16 98.45C50.09 98.52 49.82 97.52 49.56 96.22C48.98 93.34 48.03 92.04 45.89 91.22L44.51 90.68L47.81 90.66C54.38 90.6 59.79 90.23 60.91 89.76C63.94 88.47 64.67 85.85 62.57 83.8C60.95 82.22 60.64 82.19 44.03 82.19C27.32 82.19 27.63 82.16 26.8 83.9C26.16 85.26 26.25 87.74 26.98 88.83C27.44 89.51 29.08 90.68 29.74 90.8C29.77 90.8 29.56 91.73 29.27 92.85C28.41 96.21 27.97 99.84 27.97 103.56C27.97 107.46 28.22 108.45 29.46 109.42C30.12 109.95 30.46 110.01 32.12 109.93C33.7 109.85 34.14 109.72 34.73 109.17C35.8 108.19 36.17 107.05 36.19 104.62L36.21 102.43L36.57 104.05C36.76 104.95 37.1 106.03 37.33 106.46C38.55 108.83 42.27 110.33 45.36 109.7C48.41 109.08 49.37 107.87 49.97 103.89L50.3 101.65L50.77 103.99C51.48 107.47 52.68 109.04 55.18 109.7C56.5 110.05 59.48 109.83 60.51 109.3C61.97 108.56 63.21 106.47 63.59 104.15C63.83 102.6 64.17 103.39 64.2 105.61C64.24 107.72 64.96 109.3 66.12 109.81C67.18 110.27 69.13 110.34 70.24 109.95L70.24 109.95ZM56.55 102.58C56.2 101.92 56.2 100.29 56.55 99.64C56.73 99.31 57.11 99.12 57.6 99.12C58.1 99.12 58.48 99.31 58.65 99.64C59.05 100.39 58.98 101.83 58.51 102.5C58 103.23 56.92 103.28 56.55 102.58L56.55 102.58ZM35.69 96.32C35.51 93.47 35.44 91.03 35.52 90.9C35.61 90.77 37.01 90.66 38.63 90.67L41.59 90.69L40.25 91.3C39.5 91.64 38.63 92.29 38.29 92.76C37.4 94.01 36.74 96.4 36.54 99.11C36.44 100.43 36.28 101.51 36.18 101.51C36.08 101.51 35.86 99.17 35.69 96.32L35.69 96.32ZM41.87 100.92C41 99.67 41.65 97.54 42.9 97.54C43.24 97.54 43.67 97.72 43.86 97.95C44.3 98.48 44.3 100.56 43.86 101.09C43.36 101.69 42.35 101.6 41.87 100.92Z" />
			<path id="path1201" fill-rule="evenodd" class="shp3" d="M14.34 145.96C13.56 145.82 13.46 145.75 13.95 145.7C14.32 145.67 13.86 145.49 12.89 145.29C9.41 144.6 6.9 143.4 4.88 141.49C4.01 140.67 3.89 140.4 3.85 139.22L3.81 137.89L3.65 139.21C3.37 141.54 3.08 133.49 3.29 129.41C3.44 126.58 3.53 126.02 3.65 127.04L3.81 128.36L3.85 126.97C3.88 125.94 4.08 125.28 4.62 124.45L5.35 123.33L5.49 92.51L10.25 92.51L10.08 93.96C9.86 95.79 10.47 97.58 11.45 98.03C14.35 99.35 17.73 96.16 16.51 93.25L16.11 92.3L18.22 92.2C19.71 92.14 20.39 91.99 20.57 91.71C20.84 91.28 20.92 86.72 20.66 86.05C20.55 85.74 20.13 85.63 19.08 85.63C17.21 85.63 16.46 84.98 16.69 83.55C16.88 82.34 17.69 81.66 18.95 81.66C19.49 81.66 20.07 81.52 20.24 81.34C20.67 80.92 20.67 76.59 20.24 76.16C20.05 75.97 19.14 75.84 17.98 75.84L16.03 75.84L16.44 75.25C17.32 74 16.6 72.73 15.21 73.06C14.72 73.18 14.53 73.04 14.21 72.34C13.7 71.25 12.63 70.91 11.19 71.39C9.42 71.99 8.59 73.89 9.27 75.77C9.48 76.36 9.45 76.37 7.31 76.37L5.13 76.37L5.3 73.26C5.84 63.17 8.99 52.41 13.78 44.27C19 35.4 26.3 28.95 37.05 23.69C40.27 22.12 46.75 19.77 50.1 18.95C50.7 18.81 51.26 18.52 51.34 18.31C51.42 18.11 51.03 17.3 50.48 16.53C49.39 15 48.61 13.59 48.61 13.15C48.61 12.68 50.4 12.84 51.44 13.4C52.65 14.05 52.97 13.78 52.6 12.44C52.44 11.88 52.31 11.08 52.31 10.68C52.31 9.15 53.95 9.51 55.12 11.28C56.2 12.91 56.65 12.63 56.81 10.22C56.92 8.62 57.03 8.23 57.4 8.16C58.01 8.04 59.24 10.01 60.31 12.83C61.5 15.94 62.07 16.04 62.8 13.25C63.3 11.32 64.22 9.49 65.11 8.66C65.48 8.32 65.73 7.93 65.65 7.8C65.57 7.68 65.78 7.59 66.12 7.6C66.46 7.61 66.58 7.68 66.39 7.76C66.11 7.87 66.11 7.97 66.38 8.3C66.57 8.52 66.78 9.73 66.86 10.99C66.99 13.19 67.02 13.27 67.64 13.27C68.31 13.27 68.44 13 68.83 10.71C69.2 8.56 70.83 9.55 70.83 11.93C70.83 12.72 70.95 13.44 71.09 13.53C71.23 13.61 71.82 13.44 72.4 13.14C73.67 12.49 74.8 12.43 74.8 13.01C74.8 13.74 73.81 15.36 72.71 16.43C71.29 17.8 71.3 18.32 72.75 18.7C83.32 21.49 89.6 24.14 95.97 28.51C105.22 34.86 111.06 43.6 113.55 54.83C114.43 58.77 117.17 67.48 117.41 67.09C117.51 66.93 117.66 67.18 117.76 67.65C118 68.85 117.92 130.43 117.67 132.2C117.56 133 117.45 133.35 117.41 132.99C117.38 132.59 117.22 132.96 117.01 133.92C116.53 136.1 115.58 138.12 114.13 140.03C112.28 142.48 110.24 143.81 106.42 145.06C105.4 145.39 104.74 145.68 104.96 145.71C105.18 145.73 105.06 145.84 104.7 145.96C103.88 146.22 15.81 146.22 14.34 145.96L14.34 145.96ZM33 133.24C34.91 132.82 35.59 132.46 36.15 131.58L36.67 130.76L36.92 131.41C37.57 133.08 39.63 133.9 41.57 133.26C43.48 132.63 43.54 132.24 42.78 125.39C42.58 123.61 42.47 122.11 42.53 122.06C42.6 122 42.95 121.88 43.31 121.79L43.98 121.64L43.9 125.53C43.76 132.36 44.19 133.39 47.19 133.39C48.46 133.39 48.73 133.29 49.29 132.65C49.86 131.98 49.93 131.65 49.93 129.6C49.94 127.27 50.19 126.26 50.6 126.92C50.71 127.11 50.86 128.44 50.93 129.88C51.05 132.31 51.11 132.53 51.72 132.93C52.38 133.36 54.37 133.48 55.42 133.14C55.72 133.05 56.17 132.54 56.42 132.01C56.83 131.14 56.9 131.1 57.14 131.56C57.83 132.86 58.46 133.26 59.81 133.26C61.03 133.26 61.22 133.17 62.28 132.06C63.33 130.96 63.42 130.91 63.42 131.5C63.42 131.85 63.65 132.42 63.93 132.76C64.34 133.27 64.68 133.39 65.8 133.39C67.88 133.39 68.18 132.88 68.2 129.32L68.21 126.51L68.77 127.96C71.52 135.2 78.03 135.2 80.88 127.97C81.18 127.21 81.52 125.98 81.63 125.23C81.82 123.99 81.86 124.18 82.04 127.14C82.29 131.18 82.69 132.32 83.98 132.74C85.14 133.13 87.15 132.92 87.7 132.37C88.02 132.05 88.17 130.97 88.35 127.65C88.68 121.78 88.71 121.61 89.47 121.61C90.38 121.61 90.53 122.44 90.54 127.49C90.54 131.2 90.61 131.98 90.97 132.34C91.61 132.98 93.29 133.28 94.47 132.96C95.98 132.56 96.19 131.79 96.5 125.63C96.81 119.41 96.58 116.88 95.5 114.75C94.67 113.1 93.86 112.41 92.47 112.18C91.16 111.97 90.37 112.2 89.52 113.05C88.73 113.84 88.77 113.85 88.41 112.75C87.9 111.18 84.85 110.5 83.55 111.67C82.83 112.33 82.21 114.88 82.02 117.96L81.86 120.69L81.49 118.86C80.86 115.76 79.39 113.27 77.49 112.06C74.98 110.47 71.79 111.36 70.03 114.12C69.15 115.51 68.19 117.91 68.19 118.71C68.19 119.39 68.16 119.38 67.09 118.38L66.17 117.52L66.97 116.98C67.41 116.69 67.94 116.01 68.14 115.47C68.47 114.6 68.46 114.4 68.02 113.5C67.25 111.95 66.19 111.49 63.02 111.35C61.52 111.28 59.49 111.31 58.5 111.42C57.01 111.58 56.59 111.74 56.01 112.36C55.37 113.05 55.3 113.06 55.02 112.63C54.43 111.67 52.35 110.94 50.21 110.92C46.69 110.9 45.21 112.13 44.64 115.53C44.33 117.35 44.31 117.38 43.62 117.21C42.57 116.96 42.52 116.89 42.82 116.11C43.19 115.15 43.21 112.61 42.84 111.92C42.52 111.33 41.51 111.03 39.86 111.03C38.46 111.03 37.54 111.43 37.19 112.2L36.89 112.86L36.4 112.23C36.12 111.88 35.37 111.4 34.71 111.15C32.21 110.19 28.8 111.42 27.31 113.82C26.56 115.01 26.51 115.25 26.51 117.76C26.51 120.27 26.57 120.55 27.41 122.26C27.93 123.3 28.92 124.7 29.73 125.52C31.11 126.93 31.42 127.43 30.88 127.43C30.73 127.43 30.61 127.31 30.61 127.16C30.61 127.01 30.32 126.59 29.97 126.23C29.22 125.48 28.1 125.39 27.23 125.99C26.69 126.37 26.65 126.62 26.65 129.02C26.65 131.36 26.71 131.71 27.25 132.34C28.17 133.41 30.55 133.79 33 133.24L33 133.24ZM35.74 123.33C35.42 123.04 34.89 122.6 34.55 122.34C33.93 121.89 33.93 121.89 35.11 122.05C35.77 122.14 36.34 122.25 36.39 122.29C36.43 122.32 36.43 122.7 36.39 123.11L36.3 123.86L35.74 123.33ZM73.63 123.31C72.98 122.66 73.09 120.73 73.82 119.87C74.54 119.05 75.44 119.15 75.69 120.1C75.94 121.03 75.88 122.66 75.58 123.22C75.25 123.84 74.2 123.89 73.63 123.31L73.63 123.31ZM62.99 119.17C62.84 118.27 62.88 118.17 63.42 118.17C63.88 118.17 63.97 118.28 63.82 118.64C63.4 119.66 63.37 120.06 63.69 120.82C63.87 121.26 64.12 121.61 64.24 121.61C64.36 121.61 64.22 122.03 63.92 122.54C63.62 123.05 63.32 123.47 63.26 123.47C63.21 123.47 63.16 122.72 63.16 121.81C63.15 120.9 63.08 119.71 62.99 119.17ZM56.54 120.2L56.54 117.1L57.36 117.52C57.95 117.83 58.13 118.07 58 118.39C57.91 118.64 57.61 119.77 57.33 120.92C57.06 122.06 56.77 123.07 56.69 123.15C56.61 123.22 56.54 121.9 56.54 120.2ZM67.19 122.08C66.92 121.76 66.93 121.62 67.26 121.35C67.77 120.92 67.88 121.05 67.67 121.85C67.54 122.39 67.47 122.42 67.19 122.08L67.19 122.08ZM31.69 118.64C31.68 117.8 31.76 117.64 32.23 117.64C32.67 117.64 32.73 117.72 32.51 117.99C32.35 118.18 32.11 118.63 31.97 118.98C31.73 119.58 31.71 119.55 31.69 118.64ZM51.42 117.08C52.49 117.57 52.07 118.97 50.86 118.97C50.55 118.97 50.16 118.82 49.98 118.65C49.1 117.77 50.22 116.54 51.42 117.08ZM70.41 110.13C71.04 109.87 71.39 109.5 71.58 108.87C71.74 108.39 72.01 105.31 72.18 102.03C72.35 98.76 72.59 95.87 72.73 95.62C73.01 95.07 74.34 94.99 74.76 95.5C75.35 96.21 75.66 99.76 75.51 103.97C75.43 106.3 75.47 108.45 75.6 108.8C76 109.84 77.36 110.5 79.11 110.5C80.97 110.5 82.02 110.01 82.47 108.92C82.81 108.11 82.81 108.11 83.2 108.67C83.8 109.52 85.13 109.96 87.71 110.14C90.37 110.33 94.41 109.86 95.48 109.23C96.47 108.66 97.08 107.16 97.08 105.27C97.08 102.61 95.83 101.51 92.82 101.51C91.86 101.51 91.2 101.39 91.2 101.23C91.2 101.07 91.66 100.27 92.23 99.44C93.67 97.32 95.5 93.57 96.4 90.92C97.36 88.07 97.44 85.53 96.6 84.39C95.31 82.65 92.07 81.77 87.64 81.98C83.82 82.15 82.5 83.17 82.46 85.93C82.44 86.96 82.41 87.02 82.18 86.43C81.33 84.29 79.36 83 76.96 82.99C75.29 82.98 74.2 83.53 73.44 84.77C72.8 85.81 72.42 85.67 72.42 84.4C72.42 82.1 68.97 80.83 66.01 82.05C65.5 82.26 64.62 84 64.34 85.35L64.15 86.25L63.8 85.21C63.36 83.91 62.2 82.92 60.47 82.36C59.29 81.98 57.29 81.93 44.01 81.93C30.15 81.93 28.82 81.97 27.97 82.39C26.76 82.99 26.12 84.31 26.12 86.16C26.13 88.29 26.86 89.72 28.32 90.42L29.49 90.99L29 92.88C27.67 97.98 27.26 106.19 28.22 108.3C28.85 109.69 29.86 110.24 31.82 110.24C34.54 110.24 35.99 109.03 36.33 106.48L36.5 105.24L37.15 106.54C37.83 107.91 38.67 108.66 40.27 109.33C43.57 110.7 47.66 110.08 49.03 107.98C49.28 107.6 49.68 106.45 49.92 105.42L50.36 103.56L50.85 105.35C51.4 107.39 52.6 108.95 54.14 109.62C55.45 110.2 58.97 110.17 60.45 109.57C61.73 109.06 62.45 108.17 63.33 106.03L63.94 104.55L63.95 105.61C63.96 107 64.38 108.46 64.98 109.21C65.94 110.4 68.67 110.86 70.41 110.13L70.41 110.13ZM56.7 99.81C56.89 99.31 57.89 99.25 58.34 99.71C58.75 100.12 58.75 102.1 58.34 102.51C58.17 102.69 57.84 102.83 57.6 102.83C57.37 102.83 57.04 102.69 56.86 102.51C56.53 102.18 56.43 100.52 56.7 99.81ZM43.07 97.84C44.46 98.04 44.34 101.24 42.93 101.24C42.55 101.24 42.16 101.02 42 100.73C41.3 99.41 41.93 97.68 43.07 97.84ZM83.35 95.88C83.38 93.37 83.3 90.72 83.18 90C82.98 88.73 82.99 88.7 83.4 89.27C83.98 90.08 84.69 90.42 86.78 90.9L88.57 91.32L86.93 93.96C86.02 95.42 84.83 97.47 84.29 98.53L83.29 100.45L83.35 95.88ZM36.09 97.8C36 97.15 35.85 95.33 35.76 93.77L35.59 90.92L40.27 90.92L39.42 91.44C37.88 92.38 36.89 94.39 36.48 97.42L36.26 98.99L36.09 97.8ZM49.62 95.43C49.11 93.33 48.33 92.14 47.02 91.44L46.09 90.95L48.5 90.93C49.83 90.93 51.67 90.85 52.6 90.77L54.29 90.61L52.96 91.4C51.47 92.28 51.1 92.89 50.49 95.48L50.06 97.26C50.06 97.26 49.62 95.43 49.62 95.43ZM60 91.27C59.26 91.01 58.66 90.72 58.66 90.63C58.66 90.54 59.09 90.39 59.61 90.31C61.07 90.07 62.9 89.08 63.4 88.25C63.85 87.51 63.86 87.56 63.74 90.47C63.68 92.1 63.55 93.51 63.46 93.59C63.37 93.68 62.85 93.3 62.32 92.75C61.76 92.18 60.77 91.55 60 91.27Z" />
		</g>
	</g>
</svg>