<?xml version="1.0" encoding="utf-8"?>
<!-- Generator: Adobe Illustrator 16.0.0, SVG Export Plug-In . SVG Version: 6.00 Build 0)  -->
<!DOCTYPE svg PUBLIC "-//W3C//DTD SVG 1.1//EN" "http://www.w3.org/Graphics/SVG/1.1/DTD/svg11.dtd">
<svg version="1.1" id="Layer_1" xmlns="http://www.w3.org/2000/svg" xmlns:xlink="http://www.w3.org/1999/xlink" x="0px" y="0px"
	 width="634px" height="649px" viewBox="0 0 634 649" enable-background="new 0 0 634 649" xml:space="preserve">
<g>
	<path d="M469.517,491.288c-2.18-0.839-4.04-1.655-5.59-2.466c-3.576-1.849-7.214-4.58-10.904-8.199
		c-2.117-2.043-5.216-5.471-9.292-10.289c-5.688-6.733-10.325-12.053-13.898-15.953c-5.25-5.704-10.258-10.658-15.018-14.839
		c-11.919-10.521-23.812-17.827-35.681-21.913c0.714,3.43,2.024,6.633,3.927,9.608c1.115,1.802,3.531,4.834,7.244,9.077
		c6.415,7.381,12.181,15.332,17.291,23.88c1.041,1.688,1.467,3.054,1.28,4.104c-0.199,1.166-0.991,1.969-2.358,2.425
		c-1.162,0.391-2.501,0.475-4.009,0.276c-4.751-0.551-9.189-2.167-13.308-4.836c-1.83-1.153-3.774-2.66-5.831-4.523
		c-0.968-0.871-2.762-2.586-5.382-5.149c-12.541-11.453-21.885-20.11-28.032-25.966c-10.899-10.299-19.285-19.748-25.15-28.352
		c-1.628-2.414-2.858-4.202-3.679-5.382c-1.487-2.016-2.908-3.682-4.25-4.997c-1.692-1.601-3.516-2.815-5.458-3.647
		c-2.143-0.927-4.181-1.26-6.124-0.991c-1.945,0.258-3.904,1.091-5.892,2.498c-3.735,2.55-5.98,5.546-6.729,8.991
		c-0.775,3.856,0.265,8.111,3.118,12.779c0.91,1.521,2.243,3.391,3.971,5.59c2.315,2.934,3.724,4.741,4.208,5.419
		c-4.528-3.929-7.753-7.279-9.655-10.046c-3.072-4.476-4.396-8.766-3.963-12.858c0.322-3.283,1.791-6.353,4.399-9.22
		c2.185-2.313,4.776-3.91,7.776-4.792c3.212-0.943,6.28-0.901,9.216,0.116c2.966,1.057,5.801,3.14,8.503,6.263
		c1.113,1.309,3.282,4.296,6.506,8.967c5.655,8.274,13.702,17.403,24.141,27.398c5.902,5.618,14.881,13.991,26.93,25.117
		c3.143,3.054,5.21,5.03,6.201,5.924c2.411,2.188,4.677,3.936,6.788,5.233c4.326,2.597,8.894,4.097,13.705,4.491
		c0.846,0.097,1.424-0.038,1.727-0.405c0.365-0.445,0.322-1.139-0.14-2.099c-2.139-4.908-7.035-12.003-14.668-21.271
		c-7.224-8.758-11.854-15.925-13.877-21.513c-0.365-0.953-0.517-1.82-0.449-2.591c0.075-0.93,0.473-1.521,1.175-1.77
		c0.456-0.185,1.221-0.095,2.296,0.267c6.364,2.386,12.856,5.783,19.475,10.196c5.397,3.616,11.255,8.164,17.563,13.643
		c3.917,3.392,7.132,6.388,9.661,9.001c1.878,1.951,4.022,4.392,6.435,7.323c1.392,1.666,3.472,4.176,6.24,7.535
		c3.72,4.389,7.356,8.465,10.915,12.22c2.862,3.012,5.381,5.429,7.553,7.267c2.914,2.442,5.79,4.338,8.632,5.669
		c1.543,0.714,3.516,1.462,5.932,2.251c1.336,0.429,3.35,1.067,6.039,1.907c9.686,3.158,18.542,8.002,26.554,14.526
		c4.961,4.072,8.637,8.114,11.02,12.111c3.313,5.623,5.179,12.919,5.603,21.894c0.165,3.213-0.11,5.728-0.831,7.538
		c-0.734-0.165-1.063-0.92-0.993-2.239c0.357-7.358-0.343-13.578-2.1-18.646c-1.443-4.299-3.746-8.414-6.9-12.36
		c-2.923-3.591-6.417-6.87-10.488-9.84c-6.294-4.554-14.815-8.673-25.569-12.357C472.745,492.433,470.809,491.763,469.517,491.288z
		 M608.229,585.353c-0.111,0.208-0.222,0.419-0.347,0.629c0.377,0.102,0.746,0.193,1.107,0.286c-0.384-0.05-0.778-0.104-1.184-0.164
		c-6.109,11.527-11.869,23.135-17.274,34.805c-1.864,4.016-3.172,7.173-3.932,9.475c-1.186,3.604-1.783,6.951-1.788,10.051
		c-0.079,1.283-0.408,2.021-0.971,2.226c-0.854-0.849-1.18-2.244-0.979-4.208c0.339-3.348,1.194-6.914,2.547-10.697
		c0.948-2.65,2.396-6.007,4.345-10.063c3.77-7.817,7.892-15.726,12.39-23.718c1.824-3.332,3.533-5.978,5.111-7.964
		c-3.728-0.618-8.096-1.747-13.11-3.398c-8.354-2.731-17.563-6.316-27.634-10.764c-6.341-2.756-15.349-6.94-27.016-12.537
		c-10.436-4.966-18.304-8.875-23.603-11.744c-8.576-4.639-16.012-9.304-22.315-13.996c0.452,0.282,0.913,0.56,1.371,0.831
		c-0.84-0.676-1.644-1.435-2.408-2.274l0.087-0.17c0.344,0.14,0.759,0.471,1.261,0.987c0.273,0.259,0.947,0.745,2.021,1.452
		c0.95,0.59,1.89,1.323,2.805,2.188c0.018,0.045,0.009,0.076-0.026,0.104c8.335,4.961,17.709,10.021,28.139,15.179
		c7.301,3.579,18.754,8.906,34.347,15.991c10.348,4.653,18.214,8.064,23.612,10.236c8.176,3.268,15.714,5.849,22.602,7.749
		c0.295-0.374,0.587-0.723,0.878-1.046C608.366,584.936,608.356,585.123,608.229,585.353z M589.75,592.391l0.001,0.031l-0.222,0.383
		l-0.59,0.625c-0.033,0.055-0.076,0.126-0.124,0.214c0.049,0.015,0.104,0.036,0.147,0.069c-0.212,0.322-0.411,0.681-0.6,1.08
		l-0.091-0.059c-0.188,0.163-0.349,0.262-0.485,0.297c-0.144,0.041-0.241,0.055-0.313,0.031l-0.224-0.144
		c-0.173-0.164-0.263-0.314-0.276-0.458c-0.001-0.074,0.046-0.179,0.161-0.312l-68.032-34.495c-3.119-1.635-5.323-2.848-6.608-3.623
		c-2.429-1.464-4.422-2.992-5.975-4.597c4.723,2.628,9.509,5.186,14.369,7.674c5.363,2.758,10.416,5.274,15.171,7.579
		c6.028,2.94,15.072,7.351,27.13,13.237c9.343,4.65,17.52,9.014,24.533,13.08l0.389-0.49c0.23-0.245,0.435-0.442,0.603-0.599
		c-30.849-14.452-60.976-30.154-90.37-47.086c8.026,3.826,20.787,10.285,38.287,19.383c16.488,8.629,29.292,15.045,38.418,19.247
		c4.404,2.063,7.35,3.466,8.817,4.2c2.631,1.351,4.96,2.724,6.994,4.116c-0.344,0.109-0.669,0.327-0.975,0.65
		C589.844,592.416,589.793,592.403,589.75,592.391z M582.14,600.709c0.051,0.136,0.244,0.413,0.575,0.807
		c0.252,0.328,0.402,0.626,0.443,0.879c0.055,0.439-0.171,0.931-0.676,1.466c-0.384,0.504-0.839,0.907-1.35,1.205
		c-0.586,0.367-1.19,0.484-1.806,0.339c-0.731-0.131-1.544-0.739-2.434-1.844l-0.729-0.955c-0.16-0.326-0.234-0.566-0.225-0.729
		c-0.015-0.233,0.12-0.548,0.391-0.945c0.178-0.269,0.485-0.659,0.944-1.145c0.237-0.253,0.46-0.411,0.672-0.483
		c0.113-0.024,0.548-0.002,1.294,0.053l1.328-0.058c0.613,0.049,1.011,0.25,1.198,0.601
		C581.897,600.065,582.016,600.337,582.14,600.709z M580.465,600.309l-1.169-0.183c-0.329-0.052-0.622-0.045-0.872,0.021
		c-0.21,0.073-0.465,0.267-0.771,0.591l-0.351,0.451c-0.162,0.418-0.1,0.876,0.195,1.363c0.152,0.237,0.479,0.587,0.977,1.058
		c0.224,0.211,0.416,0.358,0.592,0.425c0.209,0.074,0.425,0.098,0.631,0.078c0.446,0.07,0.821,0.031,1.111-0.128
		c0.227-0.094,0.456-0.294,0.697-0.593c0.322-0.391,0.554-0.635,0.686-0.726c-0.225-0.213-0.348-0.508-0.373-0.876
		c-0.487-0.375-0.816-0.755-0.982-1.129l-0.121-0.245L580.465,600.309z M526.706,582.644c0.117,0.023,0.446,0.175,0.978,0.462
		c0.605,0.359,1.533,0.775,2.778,1.249c1.098,0.337,1.915,0.645,2.444,0.929c0.655,0.397,1.16,0.813,1.52,1.235
		c0.198,0.188,0.292,0.387,0.284,0.598c-0.028,0.233-0.191,0.369-0.466,0.416c-0.067,0.022-0.289,0.006-0.666-0.041
		c-1.279-0.292-3.128-1.054-5.541-2.285l-1.061-0.671c-0.517-0.354-0.908-0.859-1.187-1.518
		C525.936,582.767,526.24,582.641,526.706,582.644z M540.246,600.548c4.213,2.365,8.266,4.685,12.15,6.955
		c0.156,0.193,0.184,0.411,0.078,0.67c-0.123,0.229-0.323,0.367-0.602,0.412c-0.063,0.005-0.139,0.006-0.21-0.002
		c0.038,0.128,0.005,0.294-0.109,0.485c-0.199,0.211-0.316,0.385-0.347,0.526l-0.068,0.665c-0.02,0.063-0.141,0.19-0.356,0.377
		c-0.154,0.164-0.243,0.301-0.254,0.422c-0.015,0.039-0.031,0.082-0.043,0.118c0.029,0.019,0.063,0.038,0.09,0.054
		c-0.034,0.017-0.067,0.022-0.104,0.035c-0.301,0.103-0.584,0.208-0.829,0.327c-0.223,0.124-0.437,0.254-0.63,0.393
		c-0.084,0.057-0.16,0.114-0.23,0.177c-0.226,0.179-0.414,0.378-0.557,0.589c-0.088-0.164-0.104-0.317-0.066-0.455
		c0.033-0.14,0.153-0.267,0.36-0.383c0.051-0.047,0.104-0.085,0.147-0.122c-11.901-6.813-19.156-10.963-21.773-12.438
		c-12.413-6.883-23.498-12.621-33.263-17.225c-0.175,0.145-0.362,0.192-0.563,0.151c-0.498-0.47-0.688-0.974-0.553-1.507
		c0.124-0.277,0.282-0.521,0.478-0.726c0.233-0.309,0.43-0.713,0.591-1.22l0.344-1.047c0.184-0.438,0.449-0.826,0.805-1.146
		c0.24-0.163,0.429-0.18,0.553-0.062c0.124,0.115,0.186,0.132,0.179,0.038c0.21,0.271,0.315,0.732,0.337,1.358
		c0.015,0.675,0.12,1.145,0.3,1.403l0.43,0.405c-0.001-0.04,0.003-0.077,0.011-0.119c0.36-0.136,0.992,0.014,1.888,0.469
		c1.596,0.903,3.411,1.546,5.449,1.937c0.203,0.279,0.164,0.525-0.13,0.731c-1.996-0.224-3.924-0.759-5.773-1.586
		c-0.214-0.088-0.41-0.185-0.578-0.281c0.008,0.414-0.153,0.611-0.488,0.585c-0.088,0.003-0.275-0.08-0.539-0.25
		c-0.74-0.613-1.303-1.097-1.676-1.448c-0.039,0.533-0.26,1.148-0.679,1.849c-0.108,0.178-0.217,0.314-0.33,0.414
		c0.757-0.145,1.834,0.085,3.235,0.698c9.478,4.276,20.061,9.616,31.76,16.035c4.276,2.364,11.161,6.27,20.66,11.713
		c0.08-0.084,0.18-0.19,0.296-0.313c0.149-0.158,0.333-0.451,0.54-0.865c0.205-0.423,0.389-0.704,0.544-0.868
		c0.05-0.054,0.103-0.104,0.162-0.147c-0.125-0.049-0.261-0.122-0.402-0.211c-15.804-9.549-32.401-19.05-49.81-28.498
		c0.69,0.168,1.361,0.434,2.018,0.788c6.908,3.209,17.035,8.574,30.363,16.098L540.246,600.548z M578.7,610.253
		c0.004,0.044-0.003,0.127-0.015,0.241l-0.025,0.11l-0.067,0.071l-0.555,0.13l-0.6-0.566c0.025-0.32,0.111-0.509,0.246-0.556
		l0.14-0.066l0.21,0.002c0.084-0.002,0.218,0.06,0.393,0.178l0.067-0.07L578.7,610.253z M566.971,608.16
		c0.111-0.118,0.261-0.197,0.443-0.24c0.16-0.021,0.365,0.035,0.602,0.177c0.247,0.147,0.432,0.226,0.549,0.249
		c0.254,0.326,0.262,0.538,0.035,0.633c-0.018,0.019-0.168,0.03-0.449,0.028c-0.23,0.002-0.345,0.065-0.339,0.21
		c0.468,0.655,1.097,1.142,1.882,1.447c0.62,0.235,1.383,0.384,2.271,0.438c0.277-0.343,0.175-0.752-0.324-1.223
		c-0.642-0.476-0.986-0.778-1.045-0.922c-0.121,0.19-0.33,0.152-0.603-0.105c-0.297-0.281-0.487-0.527-0.574-0.741
		c-0.093-0.348-0.036-0.606,0.163-0.767c0.219-0.142,0.469-0.145,0.73-0.032c0.38,0.148,0.77,0.441,1.148,0.886l0.859,0.882
		c0.274,0.26,0.468,0.48,0.573,0.671c0.368,0.653,0.343,1.261-0.097,1.813c-0.348,0.367-0.787,0.589-1.321,0.657
		c-0.297,0.068-0.598,0.088-0.909,0.06c-0.205-0.024-0.558-0.133-1.035-0.325c-1.149-0.474-1.926-0.945-2.332-1.415
		c-0.329-0.356-0.513-0.75-0.57-1.192C566.552,608.83,566.663,608.438,566.971,608.16z M565.409,613.7
		c-0.104-0.099-0.254-0.202-0.476-0.315c-0.238-0.097-0.401-0.205-0.477-0.322c-0.132-0.253-0.23-0.431-0.279-0.525
		c-0.151-0.143-0.411-0.192-0.781-0.147c-0.247,0.112-0.492,0.13-0.737,0.027c-0.047,0.262-0.303,0.569-0.742,0.943
		c-0.395,0.368-0.594,0.702-0.597,1.008c0,0.345,0.197,0.71,0.597,1.088c0.128,0.165,0.337,0.383,0.64,0.67
		c0.366,0.263,0.718,0.457,1.055,0.605c0.438,0.19,0.777,0.246,1.029,0.177c0.303-0.017,0.576-0.179,0.813-0.479
		c0.191-0.249,0.31-0.557,0.359-0.907c0.037-0.14,0.001-0.503-0.106-1.085C565.633,614.066,565.535,613.82,565.409,613.7z
		 M566.846,615.319c0.098,0.702-0.04,1.339-0.4,1.918c-0.377,0.605-0.895,0.973-1.537,1.11c-0.627,0.105-1.351,0.007-2.196-0.303
		c-0.814-0.334-1.43-0.724-1.86-1.17c-0.578-0.589-0.91-1.336-0.99-2.242c-0.092-0.306-0.06-0.652,0.074-1.05
		c0.042-0.087,0.37-0.463,0.981-1.11c0.629-0.665,0.997-1.025,1.08-1.071c0.203-0.116,0.627-0.236,1.27-0.373
		c0.46-0.089,0.825-0.1,1.09-0.022c0.285,0.092,0.554,0.307,0.807,0.631c0.059,0.097,0.235,0.402,0.555,0.918
		C566.413,613.86,566.787,614.785,566.846,615.319z M484.884,529.841c0.017,0.007,0.035,0.012,0.053,0.018
		c0.563,0.054,0.914,0.182,1.04,0.394c0.105,0.144,0.103,0.317,0.001,0.525c-0.085,0.139-0.206,0.243-0.364,0.309
		c-0.071,0.04-0.243,0.073-0.502,0.083c0.046,1.511-0.128,3.145-0.538,4.908c-0.309,1.368-0.867,3.161-1.681,5.368
		c-3.781,10.63-8.449,20.761-14.007,30.379c-2.117,3.686-4.142,6.229-6.079,7.633c7.021-12.869,13.33-25.929,18.928-39.178
		c0.76-1.911,1.294-3.321,1.609-4.249c0.467-1.602,0.799-3.23,0.992-4.866l-1.284-0.068c-1.164,0.035-1.931,0.008-2.315-0.092
		l-0.676-0.178c-0.255,0.023-0.455,0.011-0.596-0.04c-0.123-0.013-0.225-0.042-0.307-0.088c-0.123,1.75-0.588,3.951-1.401,6.607
		c-1.54,5.367-3.213,10.479-5.021,15.331c-2.292,6.271-4.881,12.524-7.761,18.771c-1.229,2.688-2.271,4.718-3.137,6.084
		c-0.254,0.462-0.537,0.762-0.852,0.901c-0.07,0.04-0.136,0.075-0.208,0.103c0.905,0.791,2.255,1.602,4.048,2.41
		c18.83,8.741,38.708,19.585,59.636,32.538c14.721,9.105,31.679,20.362,50.87,33.767l4.851-2.362
		c-21.115-15.067-43.028-28.903-65.736-41.521c-11.24-6.206-26.975-14.377-47.203-24.528c5.528,1.677,12.932,4.761,22.211,9.247
		c32.263,15.794,63.464,34.472,93.612,56.036c0.047-0.086,0.112-0.18,0.189-0.271c0.459-0.486,0.731-0.807,0.812-0.948l0.354-0.513
		c0.123-0.237,0.307-0.284,0.55-0.137l0.184,0.105l0.219,0.074c0.145,0.136,0.23,0.326,0.245,0.563
		c0.015,0.229-0.058,0.399-0.215,0.518l-0.274,0.135l-0.43,0.379c-0.236,0.354-0.497,0.604-0.787,0.765
		c-0.429,0.248-0.778,0.33-1.076,0.235c-0.04-0.236,0.012-0.504,0.175-0.82c-0.172,0.133-0.333,0.263-0.479,0.4
		c0.001,0.017,0.004,0.041,0.003,0.068c0.031,0.207-0.187,0.438-0.654,0.693c-0.088,0.035-0.184,0.076-0.289,0.123
		c-0.077,0.081-0.145,0.173-0.215,0.256c-0.043-0.032-0.092-0.065-0.143-0.104c-0.554,0.272-1.211,0.664-1.988,1.17
		c-1.117,0.694-1.974,1.155-2.557,1.391c0.275,0.196,0.548,0.393,0.828,0.589c-0.236-0.049-0.443-0.073-0.631-0.077
		c-0.385-0.039-0.728-0.072-1.043-0.094l-0.016,0.017c-0.399-0.025-0.743-0.047-1.033-0.063c-0.095,0.004-0.184,0.013-0.264,0.016
		l-0.021-0.019c-0.223,0-0.402,0.002-0.544,0.012c-0.044-0.002-0.073,0.012-0.097,0.036c0.077-0.081,0.169-0.18,0.276-0.292
		c-17.949-12.194-32.15-21.624-42.604-28.283c-23.188-14.739-44.587-27-64.184-36.774c-3.381-1.706-5.739-3.014-7.083-3.937
		c-0.419-0.261-0.68-0.554-0.794-0.881c-0.057-0.185-0.024-0.374,0.104-0.559c0.018-0.033,0.034-0.051,0.067-0.07
		c-0.043-0.301,0.065-0.683,0.305-1.151c1.804-3.104,3.842-7.254,6.118-12.453c1.446-3.271,3.041-7.187,4.794-11.733l5.487-14.63
		c0.751-2.041,1.24-3.459,1.471-4.248c0.352-1.271,0.587-2.466,0.688-3.574c-0.051-0.093-0.086-0.179-0.099-0.261
		c-0.063-0.281-0.003-0.484,0.171-0.593l0.001-0.04l0.033,0.004c0.025-0.016,0.044-0.021,0.063-0.036
		c0.16-0.067,0.441-0.042,0.848,0.079l0.802-0.099c0.372,0.002,0.896,0.15,1.566,0.432c0.235,0,0.563-0.017,0.979-0.062
		c0.387,0.001,0.912,0.104,1.6,0.296l-0.003-0.04C484.637,529.614,484.772,529.67,484.884,529.841z M494.744,554.474l1.2,0.673
		c1.3,0.874,2.196,1.617,2.703,2.226c0.272,0.258,0.399,0.532,0.365,0.807c-0.03,0.278-0.253,0.415-0.67,0.41
		c-0.209,0.029-0.484-0.054-0.825-0.245c-1.398-0.717-3.191-1.924-5.383-3.645l-0.419-0.462c-0.161-0.235-0.156-0.431-0.002-0.594
		c0.198-0.211,0.551-0.159,1.06,0.152C493.182,554.005,493.846,554.234,494.744,554.474z M494.884,563.01
		c-1.509-0.599-2.659-1.011-3.443-1.221c-0.399-0.12-0.644-0.195-0.716-0.215c-0.023-0.021-0.275-0.195-0.735-0.5
		c-0.433-0.235-0.735-0.437-0.912-0.603c-0.335-0.233-0.457-0.539-0.341-0.912c0.189,0.005,0.623,0.111,1.318,0.329
		c1.383,0.566,3.022,1.104,4.899,1.615c0.594,0.165,0.983,0.333,1.159,0.499c0.432,0.231,0.591,0.599,0.456,1.085
		C496.182,563.196,495.617,563.178,494.884,563.01z M479.357,572.406c-0.036,0.139-0.075,0.321-0.104,0.563
		c-0.063,0.159-0.193,0.341-0.387,0.546c-0.036,0.146-0.043,0.354-0.026,0.636c0.199,0.114,0.416,0.336,0.641,0.669
		c0.567,0.794,1.291,1.395,2.185,1.802c0.282-0.255,0.587-0.778,0.911-1.568c0.321-0.744,0.644-1.248,0.948-1.53
		c-1.155-0.785-2.372-1.415-3.654-1.885c-0.035,0.036-0.069,0.073-0.1,0.105C479.508,572.022,479.374,572.248,479.357,572.406z
		 M478.503,571.142c-0.272-0.258-0.345-0.485-0.215-0.665c0.38-0.005,0.767,0.015,1.143,0.067c0.192-0.126,0.344-0.16,0.462-0.123
		c0.119,0.051,0.21,0.128,0.274,0.228c1.544,0.307,2.977,1.035,4.297,2.189c0.323,0.306,0.484,0.563,0.471,0.773
		c0.003,0.048-0.076,0.238-0.241,0.556c-0.45,0.581-0.755,1.203-0.926,1.88c-0.075,0.281-0.193,0.673-0.346,1.188
		c-0.158,0.42-0.398,0.69-0.715,0.83c-0.386,0.161-0.929,0.089-1.619-0.221c-1.039-0.497-1.915-1.194-2.625-2.087
		c-0.073-0.111-0.141-0.224-0.199-0.318c-0.154,0.347-0.482,0.521-0.982,0.516c-0.296-0.279-0.475-0.512-0.536-0.701l0.036-0.562
		c0.203-0.764,0.493-1.45,0.877-2.054l0.348-0.585c0.224-0.32,0.442-0.588,0.661-0.819
		C478.61,571.201,478.557,571.171,478.503,571.142z"/>
	<path fill="#A82B47" d="M621.295,121.979c6.825,39.459,11.164,73.62,13.018,102.474c1.818,28.858,2.036,66.815,0.649,113.86
		c-1.419,47.087-6.821,82.039-16.212,104.854c-9.352,22.726-38.661,35.139-87.936,37.247c-49.323,2.055-122.862,5.378-220.628,9.966
		c-37.316,1.756-70.909,2.904-100.78,3.406c-29.029,0.563-54.05,1.166-75.034,1.807c-20.992,0.724-44.759,1.007-71.313,0.833
		c-26.549-0.211-41.995-34.432-46.337-102.661C12.342,325.534,7.79,255.05,3.053,182.319C-1.72,109.587,14.217,71.732,50.869,68.785
		c36.653-3.049,59.813-4.679,69.475-4.893c60.993-1.162,118.695-2.704,173.098-4.633c63.088-2.314,117.032-5.516,161.849-9.588
		c44.779-4.118,81.931-2.956,111.434,3.472C596.315,59.673,614.507,82.614,621.295,121.979z"/>
</g>
<g id="Layer_10">
	<g>
		<path fill="#007AA8" d="M604.839,113.754c0.356,0.015,0.615,0.033,0.768,0.061c0.081,0,0.698,0.149,1.842,0.45l0.346,2.125
			c-0.155,0-0.315,0-0.478,0c-0.423,0-1.227,0.282-2.413,0.835c-1.649,0.686-2.921,1.591-3.811,2.706l0.133,0.869
			c-0.551-0.023-0.993-0.072-1.335-0.165c-0.106-0.028-0.213-0.061-0.316-0.099c0.065-1.677,0.134-3.44,0.219-5.306
			c0.396-0.23,0.831-0.448,1.298-0.646c1.187-0.552,1.99-0.828,2.413-0.828c0.051,0,0.086,0,0.134,0
			c0.278,0.858,0.576,1.735,0.884,2.633c0.34-0.3,0.508-0.683,0.508-1.158C604.964,114.765,604.903,114.268,604.839,113.754z
			 M599.166,150.127c0.249-7.273,0.477-13.528,0.659-18.755h1.396c0.299,6.18,0.655,14.392,1.081,24.644
			c0.113,3.148,0.203,5.846,0.288,8.097c-0.028,0.871-0.065,1.75-0.099,2.641C600.834,160.053,599.717,154.514,599.166,150.127z
			 M607.382,265.821c0.373,0.085,0.775,0.127,1.206,0.127c0.335,0.131,0.504,0.688,0.504,1.677c0,0.322-0.072,1.984-0.221,4.986
			c-0.382,1.502-0.558,3.25-0.537,5.234c0.026,2.436,0.052,4.46,0.063,6.08c-0.146,3.449-0.23,6.23-0.254,8.342
			c-0.041,2.264-0.401,6.275-1.084,12.018c-0.095,0.854-0.195,1.667-0.285,2.447c-0.274-4.91-0.415-11.829-0.415-20.78
			c-0.125-2.652-0.246-5.035-0.385-7.138c-0.163-4.072-0.036-7.096,0.385-9.075C606.63,268.587,606.964,267.278,607.382,265.821z
			 M599.923,111.401c0.09-3.905,0.154-7.255,0.188-10.069c0.335,4.552,0.7,8.303,1.11,11.26c0,0.467-0.165,0.858-0.507,1.162
			C600.442,112.949,600.173,112.165,599.923,111.401z M531.571,454.558c1.082,0.535,1.978,1.161,2.672,1.866l-0.035,0.288
			c-2.095-0.806-4.746-1.35-7.963-1.632C528.125,454.921,529.899,454.751,531.571,454.558z M493.834,457.715
			c-1.089-0.058-2.248-0.122-3.464-0.197c-10.664-0.602-18.034-1.182-22.092-1.738c-1.064-0.178-2.121-0.3-3.181-0.387
			c4.715-0.636,8.214-1.029,10.513-1.19c2.493,0.177,5.301,0.353,8.439,0.549c0.895,0.082,1.877,0.191,2.952,0.323
			c5.584,0.641,8.763,0.962,9.526,0.962c7.407,0,14.07-0.133,19.999-0.384c-0.451,0.127-0.873,0.279-1.271,0.45
			C505.265,456.961,498.127,457.502,493.834,457.715z M433.643,459.669c0.972,0.505,1.824,1.203,2.574,2.092
			c-1.022-0.342-2.146-0.515-3.375-0.515c-3.127,0-4.834,0.983-5.104,2.961c-1.472-0.405-2.599-0.579-3.395-0.519l-0.192-0.063
			c-0.096-0.026-0.153-0.176-0.192-0.45c2.227-0.396,4.581-1.162,7.052-2.321C431.989,460.401,432.863,460.006,433.643,459.669z
			 M28.771,104.102c-1.294,1.597-2.173,3.87-2.635,6.819c-0.292,1.89-0.443,5.657-0.443,11.322c0,2.188-0.513,5.866-1.527,11.063
			c-0.97,5.143-1.453,8.742-1.453,10.806c0,0.083,0.522,3.489,1.584,10.229c0.212,1.329,0.401,2.568,0.569,3.726
			c0.007-0.078,0.022-0.169,0.037-0.252c0.012,2.669,0.047,5.35,0.094,8.04c0.08,4.759,0.125,10.889,0.125,18.397
			c-0.51,2.528-0.846,5.357-1.01,8.492c-0.04,0.757-0.068,1.665-0.101,2.733c-0.314,2.642-0.828,5.629-1.554,8.979
			c-0.296,1.406-0.557,2.7-0.764,3.881c-0.2,0.654-0.329,1.097-0.379,1.316c-0.848,3.177-1.271,6.093-1.271,8.757
			c0,0.823,0.295,2.692,0.89,5.659c0.635,2.957,0.953,4.849,0.953,5.658c0,10.829-1.058,29.337-3.177,55.515
			c-0.026-1.055-0.043-2.127-0.064-3.212c-0.169-6.306-0.277-10.896-0.318-13.771c-1.825,11.751-2.839,18.719-3.05,20.906
			l-0.952,0.256c2.496-29.802,3.746-50.575,3.746-62.327c0-0.822-0.318-2.703-0.954-5.669c-0.591-2.955-0.89-4.839-0.89-5.649
			c0-2.666,0.421-5.583,1.272-8.758c0.169-0.72,1.059-3.556,2.669-8.49c0-3.725,0.039-6.537,0.125-8.427
			c0.171-3.127,0.511-5.961,1.018-8.49c0-7.504-0.043-13.642-0.128-18.406c-0.084-4.795-0.125-9.573-0.125-14.338
			c0-0.728,0.189-4.116,0.573-10.159c0.42-6.95,0.699-11.904,0.827-14.858c0.08-2.618,0.548-6.741,1.396-12.357
			c0.759-5.356,1.142-9.109,1.142-11.258c0-0.938,0.107-1.419,0.316-1.419c0.129,0,0.341-0.013,0.636-0.061
			c1.201,0,2.48,0.88,3.84,2.639h-0.03c-0.296,0.039-0.507,0.065-0.635,0.065c-0.21,0-0.318,0.47-0.318,1.419
			C28.801,103.245,28.794,103.65,28.771,104.102z M382.089,459.796c1.036,0.414,1.878,0.94,2.51,1.582
			c0.289,0.274,0.52,0.568,0.7,0.874c-0.171-0.073-0.338-0.121-0.512-0.174c-3.317-0.414-5.63-0.023-6.91,1.162h-1.279
			c-0.293,0.689-0.596,1.22-0.884,1.604c-0.467,0.778-1.161,1.336-2.101,1.672c-0.166,0.265-0.331,0.405-0.507,0.461
			c-0.292,0.126-0.445-0.306-0.445-1.284c0-2.284,0.319-3.808,0.952-4.575c0.37-0.504,0.864-0.904,1.494-1.196
			C377.191,459.896,379.521,459.848,382.089,459.796z M592.107,35.366c-0.877-0.556-1.479-0.945-1.806-1.19
			c-0.431-0.314-0.823-0.609-1.183-0.9c0.555,0.338,1.179,0.727,1.879,1.16C591.405,34.695,591.781,35.01,592.107,35.366z
			 M590.969,21.57c-0.87-0.439-1.563-0.927-2.063-1.483c-0.207-0.245-0.409-0.487-0.598-0.706c0.707,0.272,1.526,0.505,2.44,0.706
			l0.129,0.317C590.929,20.688,590.959,21.067,590.969,21.57z M585.384,17.735c-0.094,0.057-0.189,0.11-0.293,0.164
			c-0.639,0.301-0.954,0.923-0.954,1.869c0,1.498,0.697,3.149,2.095,4.958c0.644,0.853,1.375,1.656,2.198,2.406l-0.222,0.03
			c-2.377-1.416-4.299-3.109-5.784-5.079c-1.394-1.796-2.096-3.453-2.096-4.955c0-0.945,0.314-1.575,0.954-1.871
			c0.297-0.172,0.594-0.299,0.887-0.381c0.765,0.296,1.737,1.161,2.922,2.574C585.19,17.555,585.285,17.652,585.384,17.735z
			 M207.305,458.675c2.469,0.014,4.839,0.014,7.112,0c-0.715,0.212-1.682,0.625-2.891,1.226c-1.101,0.514-2.077,0.768-2.921,0.768
			c-16.72-0.469-26.306-0.558-28.759-0.254c-1.566,0-2.351-0.235-2.351-0.709c1.563-0.172,6.197-0.263,13.901-0.263
			C197.942,459.442,203.247,459.186,207.305,458.675z M62.992,447.32c-1.729-0.338-2.737-0.674-3.018-0.995
			c-0.461-0.641-1.058-2.213-1.776-4.699c-0.073-0.276-0.177-0.542-0.318-0.795c2.388,0.849,3.761,1.997,4.128,3.431
			C62.368,445.522,62.699,446.537,62.992,447.32z M18.8,291.87l0.284-0.065c0.214-2.189,1.233-9.148,3.049-20.908
			c0.043,2.887,0.151,7.469,0.318,13.774c0.211,11.834,0.318,20.706,0.318,26.63c0.929,9.863,1.82,18.188,2.667,24.956
			c0.379,3.854,0.568,10.361,0.568,19.495c0,5.531-0.399,14.02-1.201,25.476c0.083,6.385,1.143,12.095,3.172,17.104
			c-0.295,0.135-0.466,0.223-0.507,0.266c-0.342,0.298-0.51,0.96-0.51,1.991c0,1.586,1.146,4.742,3.433,9.455
			c1.819,3.728,3.148,6.194,3.998,7.404c0.636,0.979,1.758,2.361,3.367,4.115c1.268,1.586,1.925,3.043,1.964,4.364
			c0.088,1.986,0.214,3.402,0.386,4.25c0.282,1.373,0.83,2.575,1.653,3.606c-1.67-0.782-2.77-1.467-3.304-2.056
			c-1.1-1.162-1.822-2.557-2.16-4.188c-0.169-0.852-0.296-2.266-0.378-4.249c-0.047-1.323-0.7-2.781-1.971-4.368
			c-1.607-1.754-2.732-3.132-3.364-4.115c-0.847-1.21-2.181-3.666-4-7.4c-2.286-4.717-3.428-7.873-3.428-9.459
			c0-1.03,0.166-1.693,0.507-1.991c0.043-0.052,0.211-0.134,0.507-0.265c-2.032-5.01-3.087-10.72-3.174-17.104
			c0.807-11.455,1.206-19.94,1.206-25.472c0-9.143-0.189-15.635-0.571-19.494c-0.846-6.777-1.731-15.092-2.664-24.956
			C18.963,304.524,18.908,298.922,18.8,291.87z M26.262,207.089c0.847-3.904,1.419-7.336,1.717-10.287
			c0.423,3.127,0.633,5.004,0.633,5.651c0,1.586-0.461,4.198-1.397,7.85c-0.931,3.601-1.399,6.283-1.399,8.041v6.76
			c-0.082-0.433-0.167-0.854-0.253-1.294c-0.593-3.158-0.889-5.166-0.889-5.973C24.676,215.685,25.208,212.105,26.262,207.089z
			 M33.308,64.507c-0.516,0.084-1.021,0.244-1.521,0.483c-1.35,0.646-2.035,1.456-2.035,2.444c0,0.453,0.055,0.877,0.16,1.252
			c-1.706-0.114-2.859-0.726-3.46-1.826c-0.341-0.572-0.507-1.251-0.507-2.066c0-0.983,0.676-1.802,2.032-2.442
			c1.44-0.69,3.007-0.774,4.699-0.256l0.893,1.415C33.476,63.815,33.39,64.146,33.308,64.507z M577.607,19.381
			c-3.495-2.146-7.944-4.293-13.334-6.433c-9.183-3.68-15.854-5.532-19.998-5.532c-1.481,0-2.355,0.559-2.61,1.674
			c-0.251,1.074-0.699,1.609-1.335,1.609c-2.244,0-4.382-0.453-6.415-1.349c-2.033-0.95-3.452-1.416-4.257-1.416
			c0,0.432,0.026,0.814,0.066,1.15c-1.266-0.167-2.949-0.34-5.021-0.515c-4.525-0.419-7.421-0.636-8.699-0.636
			c-0.807,0-1.73,0.301-2.793,0.896c-1.101,0.647-2.028,0.964-2.793,0.964c-0.42,0-2.563-0.576-6.411-1.732
			c-4.237-1.246-7.49-2.321-9.778-3.221h-6.543c-1.012,0.344-2.634,0.798-4.89,1.354c-2.237,0.557-3.529,0.895-3.873,1.026h-28.059
			c-0.385-0.169-3.514-0.365-9.395-0.571c-5.852-0.263-8.975-0.476-9.397-0.648l-84.122-0.454c-0.765-0.3-13.442-0.604-38.029-0.904
			c-0.505-0.207-4.724-0.511-12.634-0.896c-7.325-0.339-11.826-0.519-13.53-0.519c-8.378,0-15.926,0.68-22.664,2.005
			c-6.77,1.324-16.568,1.99-29.395,1.99c-0.838,0-1.264-0.104-1.264-0.321c0-0.298-0.152-0.51-0.447-0.642l-22.981-0.451
			c-2.285-0.475-5.463-0.989-9.521-1.552c-4.063-0.545-6.667-0.832-7.808-0.832c-12.573-0.304-20.3-0.318-23.174-0.065
			c-3.766,0.391-5.954,2.147-6.541,5.279c-16.887-0.476-25.713-0.433-26.474,0.13c-1.274,0.989-9.59,1.625-24.952,1.926
			c-1.014,0.044-1.757,0.71-2.221,1.999c-0.21,0.427-0.338,0.9-0.382,1.42c-0.381,0.078-0.781,0.145-1.204,0.187
			c-3.813,0.563-8.655,0.932-14.543,1.102c-1.987,1.243-4.207,2.913-6.665,5.011c-2.618,2.274-4.34,4.137-5.143,5.605
			c-0.379,0.684-1.436,1.771-3.174,3.274c-1.735,1.415-2.688,2.216-2.859,2.387c-0.253,0.253-1.375,0.747-3.367,1.48
			c-1.861,0.645-3.132,1.48-3.808,2.501c-1.691,2.71-5.569,6.138-11.619,10.297c-4.617,3.179-6.921,6.585-6.921,10.229
			c0,0.776,0.4,1.777,1.207,3.023c0.761,1.203,1.143,2.189,1.143,2.957c0,0.777-0.846,3.004-2.54,6.694
			c-1.734,3.687-2.605,6.62-2.605,8.811c-2.072,2.108-3.914,4.612-5.524,7.535c-1.565,2.743-2.497,5.083-2.794,7.009
			c-0.464,3.004-1.081,6.995-1.845,11.965c-1.342-1.77-2.6-2.692-3.776-2.768c0.746-4.912,1.347-8.855,1.813-11.833
			c0.292-1.929,1.225-4.271,2.793-7.013c1.605-2.915,3.448-5.427,5.524-7.528c0-2.193,0.872-5.124,2.606-8.816
			c1.69-3.684,2.539-5.918,2.539-6.691c0-0.762-0.381-1.751-1.142-2.957c-0.803-1.24-1.208-2.252-1.208-3.027
			c0-3.645,2.308-7.051,6.92-10.223c6.053-4.162,9.923-7.59,11.62-10.293c0.674-1.031,1.945-1.867,3.809-2.511
			c1.987-0.731,3.108-1.225,3.361-1.481c0.171-0.168,1.122-0.966,2.856-2.382c1.735-1.502,2.799-2.598,3.177-3.28
			c0.805-1.464,2.519-3.32,5.143-5.602c2.46-2.103,4.679-3.771,6.67-5.013c5.884-0.173,10.726-0.543,14.536-1.099
			c0.423-0.045,0.826-0.103,1.208-0.189c0.043-0.518,0.168-0.99,0.379-1.417c0.464-1.293,1.21-1.955,2.227-2.003
			c15.361-0.3,23.679-0.937,24.947-1.922c0.764-0.565,9.591-0.605,26.477-0.129c0.592-3.137,2.774-4.896,6.54-5.283
			c2.88-0.253,10.605-0.232,23.174,0.065c1.14,0,3.744,0.287,7.805,0.837c4.07,0.558,7.244,1.078,9.521,1.545l22.985,0.452
			c0.296,0.133,0.448,0.348,0.448,0.646c0,0.208,0.424,0.317,1.263,0.317c12.826,0,22.625-0.663,29.401-1.987
			c6.73-1.331,14.283-2.004,22.664-2.004c1.691,0,6.197,0.176,13.53,0.515c7.905,0.388,12.123,0.689,12.627,0.897
			c24.592,0.306,37.266,0.603,38.028,0.905l84.122,0.449c0.427,0.18,3.56,0.391,9.398,0.648c5.882,0.214,9.017,0.406,9.394,0.576
			h28.063c0.338-0.126,1.63-0.466,3.876-1.027c2.245-0.555,3.878-1.007,4.89-1.354h6.543c2.286,0.908,5.544,1.977,9.777,3.226
			c3.852,1.151,5.988,1.733,6.416,1.733c0.757,0,1.691-0.317,2.792-0.966c1.057-0.601,1.983-0.902,2.792-0.902
			c1.268,0,4.165,0.217,8.691,0.646c2.076,0.175,3.756,0.338,5.021,0.513c-0.043-0.338-0.061-0.724-0.061-1.159
			c0.809,0,2.224,0.47,4.254,1.423c2.035,0.898,4.165,1.353,6.416,1.353c0.636,0,1.08-0.541,1.328-1.616
			c0.262-1.111,1.126-1.672,2.613-1.672c4.146,0,10.815,1.848,19.998,5.532C568.073,13.331,573.791,16.354,577.607,19.381z
			 M599.316,88.306c-0.056-0.291-0.116-0.583-0.188-0.863c-0.721-3.302-1.083-5.474-1.083-6.501c0-7.763-0.087-12.331-0.257-13.7
			c-0.332-2.616-0.867-4.612-1.59-5.985c0.534-1.117,0.951-2.301,1.239-3.542c1.732,5.797,2.651,10.271,2.765,13.445
			c0.08,3.135-0.216,8.598-0.893,16.409C599.316,87.788,599.316,88.04,599.316,88.306z M48.835,34.495
			c-2.209,1.572-3.871,2.777-4.986,3.605c-3.673,2.848-5.781,5.822-6.319,8.911c-0.538,0.538-0.846,0.805-0.922,0.805
			c-0.976,0-1.69-0.043-2.157-0.131l-0.633-0.189c-0.175-0.045-0.253-0.536-0.253-1.48c0-3.689,2.158-7.205,6.474-10.551
			c1.275-0.939,3.26-2.378,5.971-4.312c2.453-1.794,4.423-3.541,5.904-5.214c0.378,0.177,0.869,0.258,1.461,0.258
			c0.379,0.137,0.568,0.662,0.568,1.612C53.94,28.341,52.24,30.566,48.835,34.495z M27.976,135.942
			c1.018-5.188,1.524-8.874,1.524-11.068c0-5.657,0.147-9.434,0.446-11.319c0.551-3.519,1.694-6.067,3.429-7.653
			c-0.082,0.775-0.21,1.586-0.382,2.444c-0.805,5.871-1.187,11.063-1.146,15.563c0.088,3.479-0.739,13.471-2.472,29.975
			c-0.253,2.368-0.489,4.637-0.699,6.828c-0.172-1.164-0.36-2.396-0.572-3.732c-1.06-6.738-1.592-10.141-1.592-10.228
			C26.515,144.688,27.004,141.089,27.976,135.942z M315.715,467.104c0,0.38-0.488,0.574-1.461,0.574
			c-0.508,0-2.459-0.211-5.839-0.64c-3.984-0.561-7.898-0.966-11.747-1.223c-2.792-0.302-4.341-0.614-4.642-0.971
			c-9.598-0.29-14.405-0.768-14.405-1.413c5.415,0,13.009,0.431,22.782,1.285c9.151,0.776,14.162,1.373,15.053,1.8L315.715,467.104z
			"/>
		<path fill="#00AFF0" d="M592.107,35.366c0.713,0.461,1.616,1.028,2.699,1.705c1.608,1.029,2.606,2.854,2.986,5.469
			c0,0.387,0,2.556,0,6.501c0,0.558,0,1.097,0,1.604c0.09,0,0.174,0,0.255,0c3.812,10.684,5.803,18.405,5.966,23.156
			c0.083,3.139-0.213,8.606-0.885,16.409c0,1.757,0.192,5.164,0.57,10.227c0.336,5.396,0.714,9.838,1.146,13.323
			c0.061,0.515,0.124,1.011,0.188,1.472c0,0.469-0.169,0.858-0.511,1.162c-0.309-0.905-0.603-1.774-0.879-2.634
			c-1.782-5.444-2.951-10.029-3.494-13.769c-0.008,0.44-0.021,0.885-0.038,1.351c-0.034,2.817-0.096,6.167-0.188,10.069
			c-0.014,0.409-0.024,0.831-0.032,1.25c-0.04,0.873-0.067,1.737-0.097,2.57c-0.08,1.865-0.151,3.632-0.216,5.309
			c-0.554,12.932-0.828,20.887-0.828,23.837c0,1.621,0.135,3.546,0.416,5.756c0.551,4.386,1.668,9.925,3.323,16.628
			c0.036-0.888,0.071-1.77,0.099-2.644c0.42-12.296,0.772-22.325,1.053-30.098h1.396c0.298,6.173,0.655,14.392,1.076,24.632
			c0.345,9.485,0.516,14.882,0.516,16.22c0,1.793-0.133,4.707-0.383,8.741c1.011,6.172,1.519,11.876,1.519,17.104
			c0,0.771,0.191,4.397,0.572,10.878c0.338,6.904,0.467,12.202,0.38,15.896c-0.126,3.559,0.063,8.167,0.57,13.819
			c0.557,6.144,0.829,10.238,0.829,12.294c0,2.402-0.353,4.693-1.08,6.887c-0.639,1.961-1.187,3.738-1.659,5.346
			c-0.408,1.454-0.743,2.769-1.008,3.916c-0.424,1.98-0.556,4.999-0.385,9.075c0.13,2.104,0.259,4.478,0.385,7.139
			c0,8.953,0.135,15.871,0.406,20.779c0.086,1.469,0.189,2.758,0.292,3.863c0.255,2.615,0.528,6.664,0.829,12.148
			c0.333,4.978,0.987,9.164,1.967,12.552v40.141c0.424,2.182,0.79,5.039,1.082,8.561c0.21,2.868,0.313,5.079,0.313,6.621
			c0,2.017-0.632,5.595-1.896,10.742c-1.528,6.345-3.434,12.294-5.718,17.825c-4.868,11.614-10.372,19.018-16.511,22.188
			c-0.46,0.646-1.514,1.158-3.172,1.542c-2.919,0.557-10.875,0.848-23.87,0.848c-3.981,0-6.495,0.632-7.558,1.926
			c-0.246,0.592-0.527,1.148-0.822,1.668c0.715,0.045,1.503,0.188,2.35,0.454c0,0.121,0.105,0.271,0.316,0.439
			c0.251,0.217,0.384,0.78,0.384,1.68c0,1.46-0.87,2.637-2.61,3.542c-1.136,0.604-2.049,0.905-2.729,0.905
			c-1.564,0-2.583-0.521-3.045-1.554c-0.129-0.257-0.191-0.646-0.191-1.156c-3.265,1.225-8.137,2.197-14.603,2.894
			c-1.673,0.198-3.452,0.363-5.332,0.52c3.225,0.294,5.878,0.834,7.967,1.636c1.633,0.615,2.91,1.412,3.837,2.346l-0.247,1.608
			c-0.216,0.344-0.83,0.521-1.846,0.521c-0.426,0-1.204-0.328-2.35-0.972c-1.145-0.645-1.819-1.178-2.037-1.608h-11.17
			c-14.217,1.243-22.942,1.865-26.159,1.865c-12.108,0-22.537-0.789-31.299-2.375c-3.136-0.562-5.522-1.054-7.173-1.483
			c-5.929,0.645-11.875,1.136-17.848,1.483c-0.564,0.027-1.993,0.555-4.281,1.572c-0.776,0.335-1.653,0.731-2.632,1.187
			c-2.471,1.158-4.821,1.926-7.05,2.32c-1.182,0.21-2.322,0.318-3.426,0.318c-2.667,0-5.797-0.703-9.396-2.116
			c-3.637-1.372-7.195-2.057-10.665-2.057c-7.103,0.218-13.228,0.384-18.383,0.482c-2.568,0.044-4.901,0.091-6.985,0.128
			c-8.248,0.084-12.729-0.058-13.429-0.412c-5.63,0.674-12.107,1.278-19.424,1.79c-7.408,0.514-12.845,0.778-16.32,0.778
			c-4.272,0-7.299-0.433-9.083-1.29c-1.775-0.854-2.688-1.278-2.724-1.278c-1.017,0.424-2.058,0.845-3.115,1.278
			c-2.156,0.857-5.051,1.29-8.703,1.29c-8.84,0-18.749-0.328-29.711-0.967c-10.448-0.689-20.103-1.528-28.953-2.508h-3.103
			c-2.125,0.298-7.495,0.683-16.131,1.152c-2.033,0.383-3.958,0.854-5.778,1.414c-0.719,0.175-1.826,0.625-3.31,1.355
			c-1.094,0.51-2.073,0.767-2.912,0.767c-16.72-0.465-26.313-0.553-28.762-0.248c-1.566,0-2.354-0.247-2.354-0.706
			c1.566-0.183,6.197-0.265,13.904-0.265c11.854,0,19.642-0.854,23.362-2.566c0.844-0.393,2.071-0.692,3.685-0.903h-4.062
			c-1.232,0.021-2.485,0.042-3.774,0.063c-2.273,0.021-4.639,0.021-7.112,0c-5.542-0.063-11.607-0.243-18.195-0.51
			c-13.373-0.648-23.932-1.135-31.68-1.479h-36.567c-10.493,1.113-16.865,1.328-19.109,0.639c-0.636-0.216-1.14-0.602-1.524-1.153
			c-0.336-0.559-0.823-0.921-1.46-1.097c-1.778-0.562-3.149-0.925-4.128-1.098c-1.861-0.42-4.339-0.768-7.429-1.024
			c-0.764-0.088-1.312-0.301-1.651-0.648c-0.296-0.467-0.57-0.788-0.821-0.963c-1.018-0.855-3.835-1.097-8.449-0.707
			c-2.667,0.172-5.44,0.021-8.316-0.45c-2.456-0.433-3.852-0.838-4.188-1.222c-0.236-0.326-0.498-0.866-0.795-1.65
			c-0.292-0.774-0.624-1.794-0.984-3.041c-0.368-1.445-1.742-2.599-4.127-3.447c-0.105-0.031-0.212-0.066-0.317-0.094
			c-4.321-1.414-6.964-2.294-7.936-2.636c-4.024-1.502-6.478-2.755-7.367-3.734c-0.179-0.192-0.345-0.383-0.506-0.575
			c-0.819-1.036-1.369-2.24-1.649-3.608c-0.172-0.855-0.296-2.271-0.386-4.245c-0.039-1.334-0.698-2.783-1.963-4.373
			c-1.611-1.76-2.732-3.132-3.368-4.112c-0.846-1.202-2.179-3.68-3.995-7.407c-2.29-4.708-3.432-7.872-3.432-9.452
			c0-1.036,0.171-1.689,0.511-2c0.043-0.042,0.209-0.125,0.51-0.257c-2.035-5.008-3.09-10.72-3.172-17.107
			c0.802-11.448,1.201-19.937,1.201-25.476c0-9.136-0.189-15.626-0.568-19.485c-0.846-6.781-1.735-15.101-2.673-24.959
			c0-5.916-0.103-14.794-0.315-26.636c-0.17-6.306-0.274-10.892-0.317-13.764c-1.818,11.753-2.832,18.722-3.046,20.914l-0.284,0.059
			l-0.665,0.199c0.195-2.335,0.388-4.616,0.57-6.828c2.118-26.177,3.175-44.683,3.175-55.506c0-0.819-0.318-2.708-0.954-5.658
			c-0.594-2.967-0.889-4.847-0.889-5.666c0-2.657,0.426-5.567,1.271-8.747c0.056-0.226,0.181-0.662,0.379-1.322
			c0.425-1.403,1.187-3.797,2.289-7.169c0-2.231,0.009-4.131,0.032-5.688c0.03-1.07,0.06-1.98,0.099-2.737
			c0.167-3.131,0.505-5.96,1.013-8.489c0-7.508-0.043-13.636-0.129-18.4c-0.049-2.687-0.079-5.367-0.09-8.042
			c-0.026-2.106-0.038-4.207-0.038-6.305c0-0.724,0.192-4.113,0.574-10.162c0.422-6.941,0.7-11.896,0.822-14.861
			c0.086-2.613,0.554-6.728,1.399-12.344c0.636-4.45,1.006-7.799,1.114-10.039c0.023-0.452,0.03-0.858,0.03-1.223
			c0-0.949,0.104-1.413,0.318-1.413c0.128,0,0.338-0.03,0.635-0.067h0.033c0.04,0,0.08,0,0.129,0
			c1.178,0.068,2.431,0.987,3.779,2.761c0.761-4.971,1.378-8.96,1.842-11.96c0.297-1.932,1.231-4.27,2.793-7.017
			c1.61-2.914,3.449-5.422,5.527-7.522c0-2.188,0.866-5.131,2.602-8.816c1.692-3.691,2.539-5.922,2.539-6.689
			c0-0.774-0.382-1.76-1.146-2.966c-0.799-1.236-1.204-2.247-1.204-3.019c0-3.653,2.304-7.055,6.921-10.231
			c6.052-4.157,9.929-7.588,11.62-10.29c0.677-1.028,1.945-1.865,3.81-2.514c1.989-0.722,3.111-1.224,3.367-1.478
			c0.167-0.17,1.12-0.967,2.859-2.386c1.733-1.495,2.792-2.593,3.171-3.275c0.804-1.467,2.518-3.328,5.145-5.603
			c2.457-2.102,4.679-3.771,6.667-5.012c5.881-0.176,10.727-0.544,14.542-1.099c0.419-0.044,0.822-0.104,1.201-0.191
			c0.043-0.513,0.168-0.987,0.385-1.412c0.46-1.296,1.203-1.96,2.218-2.001c15.366-0.302,23.681-0.946,24.952-1.931
			c0.765-0.561,9.586-0.604,26.478-0.126c0.593-3.135,2.771-4.892,6.537-5.28c2.879-0.256,10.606-0.24,23.174,0.062
			c1.143,0,3.747,0.284,7.809,0.841c4.066,0.562,7.238,1.071,9.526,1.542l22.977,0.454c0.297,0.133,0.451,0.343,0.451,0.64
			c0,0.226,0.423,0.327,1.268,0.327c12.824,0,22.613-0.675,29.386-2c6.734-1.325,14.292-1.996,22.672-1.996
			c1.692,0,6.201,0.175,13.526,0.514c7.912,0.385,12.132,0.685,12.636,0.902c24.589,0.3,37.265,0.592,38.026,0.894l84.124,0.454
			c0.424,0.173,3.547,0.386,9.393,0.648c5.887,0.204,9.017,0.402,9.396,0.574h28.063c0.339-0.129,1.629-0.473,3.872-1.029
			c2.247-0.556,3.882-1.008,4.889-1.354h6.545c2.288,0.899,5.54,1.975,9.776,3.221c3.85,1.156,5.993,1.732,6.41,1.732
			c0.768,0,1.694-0.316,2.793-0.964c1.063-0.596,1.992-0.896,2.796-0.896c1.276,0,4.174,0.213,8.695,0.643
			c2.077,0.168,3.753,0.341,5.026,0.508c-0.052-0.34-0.069-0.724-0.069-1.15c0.8,0,2.226,0.466,4.26,1.416
			c2.034,0.896,4.166,1.349,6.414,1.349c0.632,0,1.082-0.529,1.332-1.614c0.257-1.11,1.122-1.669,2.608-1.669
			c4.149,0,10.819,1.853,20.002,5.532c5.396,2.143,9.836,4.286,13.331,6.433c3.063,1.89,5.395,3.773,6.985,5.659
			c0.503,0.646,0.969,1.698,1.393,3.156c0.425,1.46,0.89,2.527,1.397,3.211c0.429,0.608,1.014,1.232,1.745,1.868
			c0.354,0.302,0.748,0.598,1.179,0.903C590.628,34.411,591.23,34.811,592.107,35.366z M607.794,116.387
			c0.825,0.003,1.36,0.028,1.623,0.067c0.078,0,0.691,0.145,1.836,0.445l0.443,2.774c-0.378,0.598-1.312,1.386-2.793,2.376
			c-1.519,0.946-2.516,1.413-2.983,1.413c-0.968,0-1.717-0.058-2.224-0.192c-0.758-0.212-1.479-0.384-2.154-0.511l-0.32-1.956
			l-0.129-0.873c0.89-1.115,2.161-2.014,3.811-2.703c1.187-0.556,1.99-0.838,2.413-0.838
			C607.479,116.387,607.639,116.387,607.794,116.387z M608.396,283.931c-0.015-1.621-0.036-3.648-0.063-6.08
			c-0.023-1.999,0.155-3.74,0.537-5.243c0.453-1.723,1.162-3.125,2.13-4.217c0.422,0.136,0.886,0.193,1.397,0.193
			c0.34,0.134,0.503,0.691,0.503,1.675c0,0.479-0.148,3.819-0.447,10.034c-0.295,6.474-0.457,11.344-0.508,14.61
			c-0.035,2.272-0.401,6.284-1.075,12.031c-0.679,5.581-1.021,9.783-1.021,12.603c0,0.604,0.213,2.477,0.635,5.605
			c-0.211-1.115-0.7-3.289-1.454-6.503c-0.976-4.325-1.464-7.31-1.464-8.942c0-3.04,0.105-6.048,0.317-9.002
			c0.262-2.919,0.382-6.972,0.382-12.161C608.348,288.003,608.391,286.469,608.396,283.931z M493.834,457.715
			c7.144,0.42,11.603,0.64,13.363,0.64c1.521,0,3.217-0.093,5.074-0.258c0.766-0.839,1.759-1.504,2.984-1.998
			c0.399-0.172,0.826-0.319,1.271-0.449c-5.927,0.251-12.592,0.384-19.999,0.384c-0.764,0-3.937-0.32-9.521-0.962
			c-1.078-0.135-2.059-0.235-2.957-0.323c-3.727-0.433-5.895-0.646-6.508-0.646c-0.501,0-1.139,0.031-1.93,0.097
			c-2.301,0.163-5.8,0.557-10.509,1.19c1.054,0.078,2.122,0.208,3.175,0.387c4.06,0.557,11.428,1.132,22.092,1.739
			C491.586,457.593,492.745,457.66,493.834,457.715z M436.217,461.761c1.85,0.618,3.353,1.827,4.502,3.604
			c-0.803,1.03-1.371,1.713-1.71,2.056c-0.555,0.51-1.143,0.78-1.781,0.78c-0.674,0-2.133-0.324-4.384-0.971
			c-2.108-0.687-3.675-0.989-4.692-0.895l-0.195-0.068c-0.163-0.037-0.247-0.537-0.247-1.477c0-0.206,0.01-0.402,0.03-0.584
			c0.273-1.971,1.979-2.961,5.104-2.961C434.071,461.246,435.194,461.419,436.217,461.761z M385.294,462.242
			c1.319,0.42,2.354,1.004,3.113,1.771c0.674,0.642,1.017,1.321,1.017,2.054c0,0.948-0.063,1.498-0.19,1.667
			c-0.251,0-0.4,0.094-0.449,0.264l0.258,0.195c0,0.17-0.486,0.258-1.459,0.258c-0.218,0-0.723-0.362-1.524-1.099
			c-1.018-0.898-1.591-1.39-1.712-1.477h-3.943c-0.297,0.683-0.596,1.224-0.889,1.607c-0.462,0.775-1.163,1.332-2.097,1.669
			c-0.165,0.265-0.338,0.409-0.511,0.457c-0.29,0.126-0.436-0.298-0.436-1.287c0-2.273,0.31-3.801,0.946-4.565
			c0.133-0.188,0.282-0.363,0.451-0.517c1.283-1.186,3.592-1.576,6.912-1.162C384.958,462.131,385.128,462.179,385.294,462.242z
			 M590.969,21.57c0.974,0.453,2.17,0.842,3.584,1.154l0.135,0.32c0.08,0.435,0.129,1.137,0.129,2.124
			c0,1.028-0.129,1.905-0.388,2.641c-0.126,0.253-0.461,0.836-1.02,1.738l-1.396,0.254c-1.338-0.8-2.534-1.689-3.583-2.663
			c-0.819-0.756-1.551-1.56-2.194-2.409c-1.405-1.805-2.099-3.456-2.099-4.961c0-0.945,0.318-1.567,0.954-1.864
			c0.104-0.059,0.198-0.109,0.293-0.162c0.199-0.087,0.405-0.169,0.603-0.227c0.626,0.249,1.4,0.868,2.321,1.871
			c0.191,0.213,0.396,0.455,0.598,0.704C589.409,20.644,590.099,21.131,590.969,21.57z M26.262,207.089
			c-1.054,5.011-1.585,8.592-1.585,10.748c0,0.807,0.292,2.811,0.888,5.973c0.087,0.439,0.172,0.861,0.254,1.294v-6.76
			c0-1.756,0.468-4.44,1.399-8.041c0.93-3.651,1.397-6.257,1.397-7.85c0-0.647-0.21-2.53-0.632-5.651
			C27.681,199.753,27.109,203.187,26.262,207.089z M33.308,64.507c1.008-0.191,2.071-0.113,3.178,0.228l0.892,1.419
			c-0.296,1.024-0.507,2.287-0.636,3.791c-0.209,0.943-0.996,1.42-2.349,1.42c-2.073,0-3.446-0.628-4.127-1.866
			c-0.144-0.243-0.263-0.513-0.348-0.804c-0.108-0.375-0.16-0.799-0.16-1.26c0-0.988,0.682-1.799,2.034-2.444
			C32.287,64.751,32.792,64.591,33.308,64.507z M597.442,57.719c-0.289,1.236-0.703,2.42-1.237,3.54
			c0.72,1.37,1.246,3.367,1.588,5.989c0.177,1.362,0.26,5.938,0.26,13.696c0,1.027,0.353,3.193,1.079,6.499
			c0.072,0.284,0.132,0.579,0.188,0.867c0.328,1.493,0.561,3.025,0.7,4.6c1.019-5.528,1.521-11.368,1.521-17.501
			c0-2.525-0.847-6.643-2.539-12.348c-0.632-2.103-1.136-3.928-1.515-5.469C597.465,57.631,597.457,57.678,597.442,57.719z
			 M610.939,328.534c0.677,5.197,1.011,8.181,1.011,8.948c0,0.599-0.084,2.829-0.254,6.685c-0.126,3.819-0.189,6.65-0.189,8.49
			l-0.506,0.465c-0.378-3.699-0.572-9.06-0.572-16.095c0.086-6.638,0.129-10.355,0.129-11.123
			C610.678,326.714,610.813,327.588,610.939,328.534z M37.529,47.012c0.538-3.097,2.646-6.063,6.319-8.919
			c1.115-0.829,2.777-2.025,4.986-3.603c0.317-0.23,0.649-0.462,0.983-0.707c2.457-1.798,4.422-3.536,5.906-5.212
			c0.382,0.174,0.865,0.261,1.455,0.261c0.381,0.132,0.574,0.663,0.574,1.607c0,0.688-2.856,4.219-8.567,10.618
			c-5.588,6.256-8.511,9.389-8.765,9.389c-0.974,0-1.69-0.046-2.155-0.133l-0.637-0.195c-0.166-0.034-0.251-0.531-0.251-1.474
			C37.374,48.101,37.427,47.55,37.529,47.012z M27.976,135.942c-0.974,5.146-1.463,8.746-1.463,10.809
			c0,0.075,0.532,3.489,1.592,10.227c0.212,1.329,0.4,2.569,0.572,3.729c0.214-2.188,0.445-4.465,0.699-6.824
			c1.732-16.509,2.56-26.498,2.472-29.975c-0.041-4.501,0.341-9.691,1.146-15.568c0.172-0.855,0.296-1.666,0.382-2.449
			c-1.735,1.594-2.878,4.142-3.429,7.664c-0.293,1.886-0.446,5.658-0.446,11.319C29.5,127.068,28.993,130.755,27.976,135.942z
			 M319.525,469.735c0,0.392-0.492,0.577-1.464,0.577c-0.507,0-2.456-0.212-5.837-0.64c-3.979-0.557-7.897-0.966-11.747-1.222
			c-2.792-0.299-4.341-0.619-4.643-0.97c-9.604-0.294-14.405-0.773-14.405-1.413c5.412,0,13.008,0.433,22.783,1.283
			c9.145,0.771,14.161,1.373,15.052,1.799L319.525,469.735z"/>
	</g>
</g>
</svg>
