<?xml version="1.0" encoding="utf-8"?>
<!-- Generator: Adobe Illustrator 16.0.0, SVG Export Plug-In . SVG Version: 6.00 Build 0)  -->
<!DOCTYPE svg PUBLIC "-//W3C//DTD SVG 1.1//EN" "http://www.w3.org/Graphics/SVG/1.1/DTD/svg11.dtd">
<svg version="1.1" xmlns="http://www.w3.org/2000/svg" xmlns:xlink="http://www.w3.org/1999/xlink" x="0px" y="0px" width="24px"
	 height="24px" viewBox="0 0 24 24" enable-background="new 0 0 24 24" xml:space="preserve">
<g id="Layer_1">
	<g>
		<g>
			<path fill="none" stroke="#872339" stroke-width="3" stroke-linecap="round" stroke-linejoin="round" stroke-miterlimit="3" d="
				M19.277,4.877c1.968,1.979,2.949,4.355,2.949,7.132c0,2.778-0.981,5.155-2.949,7.134c-1.977,1.965-4.354,2.946-7.13,2.946
				c-2.776,0-5.153-0.981-7.132-2.946c-1.978-1.979-2.967-4.355-2.967-7.134c0-2.777,0.988-5.153,2.967-7.132
				C6.994,2.899,9.37,1.91,12.147,1.91C14.925,1.91,17.302,2.9,19.277,4.877z"/>
		</g>
		<g>
			<g>
				<path fill="#872339" d="M13.003,8.986l-1.236,1.274c-1.002-0.711-2.035-0.717-3.101-0.02c-0.8,0.558-1.142,1.401-1.026,2.529
					c0.254,1.268,1.104,1.947,2.549,2.035c1.191-0.063,1.952-0.627,2.282-1.69H10.15V11.4l4.088-0.095
					c0.255,2.195-0.405,3.785-1.976,4.773c-1.308,0.697-2.612,0.785-3.919,0.268c-1.307-0.508-2.13-1.647-2.473-3.424
					c-0.038-2.028,0.635-3.48,2.018-4.355C9.726,7.566,11.431,7.705,13.003,8.986z M19.432,11.42v1.046H17.93v1.522h-1.048v-1.522
					H15.38V11.42h1.502V9.917h1.048v1.503H19.432z"/>
			</g>
		</g>
	</g>
</g>
<g id="Layer_4">
	<circle fill="#CB3355" cx="12.297" cy="12" r="9.703"/>
</g>
<g id="Layer_3">
	<path fill="#872339" d="M5.869,10.625c0,0,1.444-1.156,1.631,0c1.083,2.942,2.167,6.417,2.167,6.417s0.958,1.376,1.958,1.167
		S16.5,14.438,17.458,12c1.073-2.656,1.167-3.563,0.334-4.542c-2.542-1.552-4.334,1-4.667,1.625c-0.105,0.198-0.653,0.97-0.219,0.76
		s1.344-0.406,1.688,0.281c0.625,0.688-1.375,4.063-2.094,3.969c-1.5-1.156-0.875-8.219-3.438-7C7.25,7.908,5.375,9.875,5.375,9.875
		L5.869,10.625z"/>
</g>
</svg>
