<?xml version="1.0" encoding="utf-8"?>
<!-- Generator: Adobe Illustrator 16.0.0, SVG Export Plug-In . SVG Version: 6.00 Build 0)  -->
<!DOCTYPE svg PUBLIC "-//W3C//DTD SVG 1.1//EN" "http://www.w3.org/Graphics/SVG/1.1/DTD/svg11.dtd">
<svg version="1.1" id="Layer_1" xmlns="http://www.w3.org/2000/svg" xmlns:xlink="http://www.w3.org/1999/xlink" x="0px" y="0px"
	 width="30px" height="30px" viewBox="0 0 30 30" enable-background="new 0 0 30 30" xml:space="preserve">
<g>
	<g>
		<path fill="#872339" d="M20.941,26.598c-1.191,0.635-2.474,1.047-3.843,1.236l0.039-9.908h-3.023v-3.5h3.023v-1.502
			c0-0.102,0-0.209,0-0.324c-0.051-3.994,2.168-5.889,6.656-5.686c0.037,0.05,0.082,0.095,0.133,0.133
			c0.202,0.203,0.394,0.412,0.57,0.628l0.039,2.644h-1.883c-0.064,0.012-0.121,0.019-0.172,0.019
			c-1.003,0.152-1.482,0.792-1.445,1.921v1.959l3.5-0.019l-0.496,3.67l-3.1,0.057L20.941,26.598L20.941,26.598z"/>
		<path fill="none" stroke="#872339" stroke-width="3" stroke-linecap="round" stroke-linejoin="round" stroke-miterlimit="3" d="
			M20.941,26.598c1.063-0.558,2.061-1.3,2.985-2.225c2.396-2.396,3.595-5.281,3.595-8.653c0-3.106-1.009-5.788-3.023-8.044
			 M23.795,6.914c0.037,0.05,0.082,0.095,0.133,0.133c0.202,0.203,0.394,0.412,0.57,0.628 M17.1,27.833
			c-0.596,0.089-1.203,0.133-1.825,0.133c-3.386,0-6.275-1.198-8.673-3.594c-2.384-2.396-3.573-5.281-3.573-8.653
			c0-3.385,1.19-6.276,3.573-8.672c2.396-2.384,5.287-3.575,8.673-3.575c3.31,0,6.148,1.147,8.521,3.442 M17.1,27.833
			c1.369-0.19,2.65-0.603,3.843-1.235"/>
	</g>
</g>
</svg>
