<?xml version="1.0" encoding="utf-8"?>
<!-- Generator: Adobe Illustrator 16.0.0, SVG Export Plug-In . SVG Version: 6.00 Build 0)  -->
<!DOCTYPE svg PUBLIC "-//W3C//DTD SVG 1.1//EN" "http://www.w3.org/Graphics/SVG/1.1/DTD/svg11.dtd">
<svg version="1.1" id="Layer_1" xmlns="http://www.w3.org/2000/svg" xmlns:xlink="http://www.w3.org/1999/xlink" x="0px" y="0px"
	 width="733px" height="1085px" viewBox="0 0 733 1085" enable-background="new 0 0 733 1085" xml:space="preserve">
<symbol  id="FGJ" viewBox="-188.107 -121.189 362.347 157.577">
	<g id="Layer_3_5_">
		<path d="M158.677-61.102l-0.069-0.456l-0.325-0.839c-0.065-0.261-0.086-0.682-0.061-1.263c-0.145-0.373-0.293-0.619-0.447-0.738
			c-0.11-0.101-0.202-0.155-0.276-0.161l-0.251,0.043c-0.218,0.084-0.355,0.191-0.412,0.32c-0.038,0.086-0.016,0.239,0.068,0.456
			c0.013,0.495,0.031,0.862,0.054,1.105l0.243,0.764c0.217,0.561,0.409,0.968,0.581,1.224c0.08-0.067,0.239-0.074,0.474-0.023
			C158.479-60.828,158.62-60.972,158.677-61.102z M154.64-73.317c-0.584,0.155-1.017,0.375-1.299,0.663l-0.196,0.184l-0.27-0.003
			l-1.139-0.309c-0.322-0.09-0.586-0.22-0.794-0.389c-0.166-0.15-0.333-0.442-0.502-0.878l-0.17-0.578
			c-0.001-0.465,0.218-0.87,0.653-1.218c0.226-0.16,0.647-0.359,1.27-0.601c0.279-0.108,0.509-0.162,0.689-0.159
			c0.223,0.021,0.426,0.084,0.61,0.192c0.439,0.116,0.764,0.311,0.978,0.585c0.177,0.181,0.323,0.465,0.437,0.851
			c0.161,0.508,0.288,0.835,0.38,0.979C155.007-73.89,154.791-73.664,154.64-73.317z M156.078-73.34
			c0.202-0.399,0.165-0.957-0.112-1.673c-0.178-0.646-0.454-1.218-0.826-1.717c-0.409-0.591-0.922-0.947-1.539-1.065
			c-0.716-0.188-1.675,0.059-2.878,0.739l-0.999,0.603c-0.263,0.244-0.416,0.447-0.462,0.607c-0.096,0.216-0.084,0.568,0.035,1.059
			c0.058,0.335,0.214,0.829,0.467,1.481c0.133,0.343,0.281,0.587,0.447,0.738c0.1,0.07,0.501,0.234,1.211,0.496l1.2,0.606
			c0.579,0.204,1.016,0.179,1.31-0.079c0.175-0.103,0.382-0.308,0.62-0.615c0.1-0.11,0.371-0.287,0.813-0.529
			C155.715-72.895,155.952-73.111,156.078-73.34z M153.577-82.559l0.101,0.121l0.194,0.086c0.085,0.038,0.229,0.036,0.427-0.005
			l0.036,0.094l0.376-0.414c0.019-0.043,0.041-0.124,0.068-0.241l0.01-0.111l-0.036-0.094l-0.461-0.357l-0.745,0.289
			C153.457-82.869,153.467-82.658,153.577-82.559z M148.432-84.211c0.343-0.133,0.595-0.267,0.757-0.401
			c0.568-0.47,0.75-1.06,0.548-1.767c-0.192-0.497-0.523-0.889-0.99-1.172c-0.252-0.188-0.522-0.333-0.812-0.436
			c-0.204-0.063-0.56-0.105-1.067-0.123c-1.225-0.025-2.105,0.101-2.641,0.381c-0.424,0.198-0.736,0.499-0.938,0.899
			c-0.253,0.455-0.285,0.879-0.098,1.271c0.061,0.156,0.167,0.293,0.32,0.412c0.142,0.088,0.349,0.114,0.621,0.081
			c0.272-0.036,0.468-0.038,0.586-0.013c0.349-0.205,0.434-0.401,0.256-0.582c-0.012-0.031-0.146-0.104-0.406-0.219
			c-0.216-0.095-0.295-0.207-0.237-0.336c0.654-0.433,1.398-0.631,2.234-0.599c0.656,0.033,1.402,0.208,2.241,0.526
			c0.139,0.447-0.104,0.791-0.726,1.032c-0.751,0.183-1.177,0.331-1.276,0.44c-0.054-0.229-0.251-0.278-0.593-0.146
			c-0.374,0.145-0.636,0.3-0.786,0.465c-0.207,0.295-0.247,0.561-0.119,0.797c0.157,0.226,0.379,0.335,0.665,0.332
			c0.401,0.023,0.854-0.099,1.358-0.366L148.432-84.211z M173.221-46.684c-1.678-13.828-2.981-27.568-3.913-41.223
			c-0.315-4.596-0.423-8.147-0.322-10.654c0.16-3.923,0.775-7.361,1.847-10.314c0.373-1.252,0.332-2.094-0.12-2.526
			c-1.077,0.452-1.862,1.651-2.36,3.597c-0.853,3.333-1.311,7.085-1.374,11.258c-0.05,2.914,0.117,6.71,0.5,11.389
			c0.739,9.008,1.785,18.256,3.138,27.741c0.643,4.792,1.456,8.552,2.441,11.279C173.201-46.229,173.255-46.41,173.221-46.684z
			 M172.431-111.531l-0.202-0.244l-0.264-0.542c-0.095-0.429-0.248-0.779-0.462-1.054c-0.305-0.418-0.606-0.641-0.902-0.668
			c-0.178,0.282-0.188,0.716-0.033,1.299c0.253,0.652,0.394,1.063,0.424,1.23l0.141,0.643c0.035,0.273,0.188,0.393,0.461,0.357
			l0.204-0.026l0.224,0.021c0.187-0.072,0.326-0.216,0.422-0.432S172.533-111.356,172.431-111.531z M169.837-114.763
			c-0.521-0.514-1.161-1.337-1.923-2.472c-0.805-1.154-1.44-1.963-1.905-2.426c-0.325-0.375-0.526-0.618-0.604-0.73
			c-0.84-0.318-1.415-0.56-1.729-0.724c-0.04-0.018-0.068-0.042-0.083-0.075c0.073,0.188,0.17,0.437,0.289,0.745
			c0.193,0.497,0.369,0.858,0.527,1.083l4.43,5.201c0.3,0.312,0.514,0.497,0.644,0.555c0.346,0.152,0.584,0.076,0.717-0.225
			C170.307-114.015,170.186-114.325,169.837-114.763z M144.837-96.116c-0.535-0.364-1.241-0.572-2.12-0.626
			c-0.866-0.021-1.573,0.092-2.12,0.339c-0.735,0.32-1.297,0.896-1.69,1.728c-0.189,0.252-0.288,0.595-0.299,1.028
			c0.006,0.105,0.177,0.593,0.514,1.464c0.35,0.901,0.558,1.393,0.625,1.474c0.147,0.192,0.494,0.488,1.04,0.884
			c0.393,0.275,0.723,0.435,0.988,0.475c0.297,0.028,0.619-0.062,0.969-0.268c0.081-0.067,0.355-0.28,0.824-0.641
			c1.094-0.961,1.761-1.685,2-2.171c0.329-0.628,0.43-1.292,0.3-1.993C145.727-95.155,145.384-95.721,144.837-96.116z
			 M144.208-92.065c-0.195,0.325-0.371,0.521-0.525,0.58c-0.124,0.048-0.309,0.084-0.55,0.105c-0.254-0.01-0.437,0.026-0.549,0.104
			c-0.213,0.19-0.359,0.318-0.441,0.386c-0.186,0.072-0.442,0.012-0.768-0.185c-0.19-0.213-0.412-0.322-0.665-0.332
			c0.04-0.265-0.079-0.666-0.359-1.202c-0.235-0.515-0.302-0.918-0.2-1.209c0.121-0.333,0.431-0.596,0.928-0.788
			c0.175-0.104,0.448-0.228,0.821-0.372c0.428-0.095,0.821-0.139,1.181-0.136c0.464-0.001,0.801,0.083,1.01,0.253
			c0.271,0.145,0.462,0.41,0.576,0.796c0.09,0.322,0.096,0.659,0.017,1.011C144.668-92.905,144.511-92.576,144.208-92.065z"/>
		<path d="M86.666-48.632c7.971-0.374,20.36-0.688,37.17-0.948c11.138-0.136,19.566-0.111,25.283,0.066
			c9.344,0.312,17.717,1.068,25.12,2.274c-3.931-1.192-8.907-2.089-14.93-2.685c-8.632-0.873-18.355-1.286-29.171-1.241
			c-6.797-0.012-16.536,0.225-29.219,0.708c-11.325,0.388-19.926,0.842-25.8,1.367c-9.499,0.858-17.967,2.209-25.401,4.056
			C60.569-46.739,72.885-47.938,86.666-48.632z"/>
		<path d="M64.87-98.635c35.186-1.627,70.4-6.438,105.65-14.435c-0.465-0.828-0.81-1.579-1.034-2.254
			c-25.104,5.735-50.54,9.912-76.307,12.526c-12.498,1.233-29.82,2.477-51.964,3.732C46.885-98.366,54.77-98.224,64.87-98.635z"/>
		<path d="M34.189-101.007c1.098-0.675,2.942-1.033,5.537-1.074c20.364-0.493,42.426-2.556,66.186-6.188
			c17.34-2.645,37.709-6.492,61.11-11.542c-0.234-0.083-0.44-0.154-0.62-0.216c-0.983-0.345-1.728-0.627-2.233-0.851
			c-20.938,4.187-37.422,7.288-49.456,9.303c-26.467,4.397-50.415,7.173-71.846,8.33c-3.705,0.22-6.334,0.489-7.893,0.807
			c-0.471,0.074-0.816,0.245-1.036,0.51c-0.118,0.153-0.151,0.345-0.098,0.573C33.893-101.125,34.011-101.009,34.189-101.007z"/>
		<path d="M39.979-45.122c0.233,0.231,0.51,0.07,0.832-0.482c0.716-1.564,1.212-3.419,1.49-5.564
			c0.193-1.435,0.302-3.371,0.321-5.81c0.22-11.703-0.556-23.29-2.32-34.761c-0.664-4.39-1.644-7.656-2.939-9.799
			c1.983,15.175,3.247,30.236,3.786,45.186c0.04,2.13,0.041,3.701,0.005,4.716C40.987-49.392,40.595-47.22,39.979-45.122z"/>
		<path d="M41.565-45.039c0.145-0.091,0.204-0.259,0.182-0.499c-0.028-0.168-0.104-0.317-0.227-0.448
			c-0.078-0.112-0.399-0.293-0.961-0.54l-1.386-0.535c-1.061-0.519-1.781-0.811-2.164-0.878l-0.687-0.108
			c-0.228-0.127-0.414-0.197-0.563-0.212c-0.247-0.083-0.467-0.05-0.66,0.097c-0.341,0.132-0.566,0.29-0.674,0.476
			c-0.177,0.282-0.17,0.53,0.02,0.742c0.121,0.132,0.391,0.225,0.805,0.278l0.701,0.425c0.346,0.153,0.877,0.232,1.595,0.24
			c0.217,0.095,0.508,0.25,0.877,0.464c0.432,0.19,1.115,0.338,2.048,0.44C41.008-44.912,41.373-44.894,41.565-45.039z"/>
		<path d="M35.262-47.744c0.601-1.771,0.999-4.248,1.195-7.434c0.451-5.753,0.689-11.315,0.716-16.688
			c0.069-6.925-0.137-13.959-0.617-21.103c-0.191-3.072-0.447-5.438-0.77-7.102c-0.068-0.545-0.226-0.949-0.47-1.212
			c-0.318-0.449-0.682-0.559-1.093-0.327c-0.403,0.156-0.558,0.682-0.463,1.573c0.58,3.708,1.012,8.511,1.295,14.406
			c0.189,3.715,0.3,8.107,0.333,13.17l-0.044,16.212c-0.019,2.259-0.061,3.812-0.125,4.66c-0.148,1.737-0.434,3.26-0.856,4.568
			C34.721-46.838,35.02-47.079,35.262-47.744z"/>
		<path d="M55.133-46.009c-2.322,0.186-4.614,0.824-6.872,1.914l0.024,0.204c0.359,0.004,0.858-0.135,1.5-0.421
			c0.342-0.133,1.129-0.313,2.363-0.54c1.078-0.169,2.195-0.475,3.344-0.92c0.051-0.056,0.026-0.118-0.072-0.187
			C55.334-45.997,55.237-46.014,55.133-46.009z"/>
		<path d="M158.426-61.058c-33.716,0.914-67.184,3.34-100.405,7.28c8.712-0.303,22.701-1.149,41.969-2.54
			c18.171-1.359,32.184-2.144,42.041-2.354c4.773-0.134,7.967-0.247,9.577-0.335c2.899-0.207,5.517-0.532,7.852-0.978
			c-0.26-0.291-0.477-0.645-0.653-1.062C158.685-61.053,158.557-61.058,158.426-61.058z"/>
		<path d="M83.729-58.006c5.892-0.387,11.423-0.691,16.594-0.907c6.57-0.296,16.427-0.737,29.568-1.327
			c10.83-0.593,20.322-1.394,28.482-2.406c-0.063-0.388-0.11-0.807-0.141-1.26l-75.958,4.641c-3.438,0.261-5.885,0.494-7.342,0.701
			c-2.747,0.386-5.113,1.018-7.097,1.893C73.099-57.209,78.396-57.653,83.729-58.006z"/>
		<path d="M61.959-66.994c-1.534,0.095-3.61,0.506-6.226,1.233l-0.541,0.263c-0.225,0.158-0.295,0.348-0.21,0.564
			c0.107,0.28,0.452,0.379,1.027,0.299c0.453-0.033,1.136,0.024,2.051,0.169l1.338-0.143c1.495-0.292,2.582-0.624,3.261-0.995
			c0.342-0.133,0.549-0.339,0.62-0.616c0.07-0.277-0.088-0.503-0.477-0.674C62.618-67,62.337-67.033,61.959-66.994z"/>
		<path d="M61.154-72.527c-1.597-0.061-2.792-0.15-3.591-0.271c-0.413-0.053-0.656-0.083-0.731-0.091
			c-0.03,0.012-0.313,0.066-0.848,0.167c-0.481,0.044-0.832,0.109-1.05,0.193c-0.397,0.083-0.608,0.325-0.631,0.727
			c0.173,0.076,0.614,0.155,1.325,0.237c1.479,0.034,3.17,0.2,5.074,0.499c0.605,0.088,1.018,0.089,1.235,0.005
			c0.481-0.045,0.748-0.326,0.797-0.846C62.417-72.178,61.89-72.384,61.154-72.527z"/>
		<path d="M105.715-78.484c0.248-0.097,0.403-0.246,0.469-0.45c0.052-0.233-0.043-0.431-0.282-0.587
			c-0.054-0.051-0.264-0.131-0.629-0.239c-1.278-0.255-3.243-0.298-5.894-0.129l-1.21,0.201c-0.596,0.124-1.135,0.439-1.617,0.949
			c0.048,0.303,0.287,0.55,0.717,0.74c0.117,0.026,0.472,0.017,1.06-0.034c0.684-0.085,1.678-0.096,2.991-0.033
			c1.124,0.135,1.981,0.179,2.569,0.13C104.631-78.048,105.239-78.229,105.715-78.484z"/>
		<path d="M74.381-85.858c7.474-0.182,18.653-1.083,33.539-2.705l8.033-0.861c4.702-0.501,9.236-1.023,13.602-1.571
			c0.204-0.115,0.306-0.316,0.303-0.601c-0.035-0.273-0.171-0.489-0.411-0.646c-0.326-0.195-0.809-0.241-1.446-0.136
			c-17.861,2.525-36.442,4.671-55.743,6.433C72.947-85.822,73.656-85.793,74.381-85.858z"/>
		<path d="M128.703-92.222c0.154,0.119,0.312,0.112,0.474-0.023c0.145-0.091,0.192-0.288,0.146-0.593
			c-0.108-0.279-0.155-0.494-0.141-0.642l0.174-0.657c0.008-0.074-0.059-0.245-0.199-0.514c-0.084-0.217-0.112-0.385-0.087-0.502
			c-0.003-0.054,0.007-0.119,0.029-0.199c-0.552-0.511-0.97-1.036-1.255-1.578c-0.127-0.258-0.227-0.515-0.298-0.77
			c-0.147,0.123-0.223,0.248-0.228,0.383c-0.013,0.148,0.053,0.318,0.199,0.514c0.128,0.236,0.2,0.422,0.217,0.559l-0.063,0.669
			c-0.008,0.073,0.086,0.36,0.278,0.856c0.084,0.218,0.147,0.567,0.193,1.052c0.044,0.483,0.107,0.833,0.192,1.052
			C128.408-92.429,128.531-92.299,128.703-92.222z"/>
		<path d="M68.468-87.695c0.288,0.281,0.92,0.393,1.9,0.336c1.784-0.191,3.68-0.051,5.687,0.422
			c0.286-0.181,0.334-0.432,0.138-0.749c-1.918-0.616-3.874-0.912-5.867-0.889c-0.433-0.012-0.806,0.044-1.117,0.164
			C68.772-88.243,68.526-88.006,68.468-87.695z"/>
		<path d="M65.415-86.995c0.013,0.497,0.126,0.971,0.336,1.425c0.173,0.255,0.335,0.353,0.489,0.292
			c0.155-0.06,0.216-0.047,0.176,0.04c0.288-0.182,0.549-0.57,0.784-1.161c0.254-0.635,0.509-1.038,0.765-1.209l0.933-0.361
			c0.404-0.157,0.659-0.327,0.768-0.513c0.188-0.43,0.119-0.707-0.215-0.828c-0.086-0.038-0.281-0.034-0.586,0.013
			c-0.893,0.274-1.574,0.502-2.04,0.683c0.153-0.524,0.158-1.204,0.013-2.042c-0.08-0.576-0.297-0.903-0.648-0.981
			c-0.622,0.241-0.966,0.643-1.034,1.205c0.015,0.316,0.077,0.615,0.186,0.894c0.112,0.385,0.151,0.854,0.114,1.403L65.415-86.995z"
			/>
		<path d="M69.899-90.503c10.21-0.133,21.813-0.822,34.805-2.07c4.956-0.493,13.115-1.396,24.478-2.704
			c-0.496-0.447-0.887-0.903-1.174-1.368c-13.567,1.559-21.821,2.496-24.757,2.813c-13.831,1.393-26.048,2.249-36.649,2.568
			C67.228-90.755,68.327-90.501,69.899-90.503z"/>
		<path d="M50.141-87.938c0.014-0.148,0.048-0.341,0.099-0.575c0.001-0.179-0.05-0.408-0.159-0.689
			c0.014-0.147,0.078-0.352,0.192-0.61l-0.171-0.577c-0.017-0.137,0.012-0.345,0.082-0.622c0.079-0.531-0.161-0.921-0.722-1.169
			c-0.373,0.145-0.62,0.295-0.738,0.447l-0.165,0.546c-0.076,0.815-0.044,1.592,0.096,2.322l0.113,0.706
			c0.196,0.783,0.423,1.411,0.677,1.883c0.183,0.287,0.349,0.438,0.497,0.452c0.284-0.003,0.466-0.181,0.544-0.533
			c0.002-0.18-0.064-0.44-0.196-0.782C50.146-87.512,50.096-87.779,50.141-87.938z"/>
		<path d="M55.557-90.843c0-0.465-0.123-0.827-0.367-1.09c-0.302-0.312-0.825-0.466-1.574-0.463
			c-1.128,0.044-2.175,0.342-3.14,0.895c-0.386,0.293-0.634,0.532-0.74,0.717c-0.191,0.431-0.107,0.738,0.249,0.921
			c0.26,0.114,0.628,0.006,1.108-0.321c0.799-0.524,1.678-0.793,2.637-0.808c0.177,0.36,0.274,0.984,0.296,1.869
			c0.041,0.843,0.155,1.46,0.342,1.853c-1.557,0.316-3.12,0.386-4.69,0.209c-0.234-0.052-0.488-0.06-0.762-0.026
			c-0.341,0.133-0.484,0.313-0.433,0.544c2.095,0.976,4.263,1.082,6.506,0.319c0.403-0.156,0.637-0.336,0.702-0.54
			c0.019-0.043,0.009-0.253-0.031-0.632c-0.214-0.74-0.28-1.465-0.199-2.176C55.488-89.869,55.52-90.292,55.557-90.843z"/>
		<path d="M-119.596-0.265c7.386-2.898,18.557-7.14,33.517-12.724c3.955-1.604,6.543-2.625,7.768-3.065
			c2.977-1.083,5.664-1.803,8.063-2.161c4.885-0.678,9.609-0.203,14.173,1.425c0.814,0.255,1.296,0.623,1.445,1.102
			c0.187,0.572-0.099,1.219-0.856,1.94C-59.166-9.962-66.131-5.242-76.38,0.41c-9.694,5.332-16.445,10.236-20.251,14.714
			c-0.67,0.761-1.108,1.521-1.314,2.279c-0.251,0.92-0.095,1.646,0.468,2.177c0.355,0.364,1.089,0.598,2.202,0.702
			c6.688,0.376,13.844-0.164,21.466-1.618c6.221-1.196,13.191-3.093,20.906-5.69c4.778-1.603,8.784-3.117,12.019-4.55
			c2.406-1.077,5.229-2.51,8.468-4.302c1.86-1.009,4.647-2.535,8.358-4.581c4.951-2.634,9.717-4.999,14.302-7.099
			c3.677-1.675,6.835-2.935,9.475-3.779c3.534-1.12,6.84-1.723,9.917-1.807c1.666-0.04,3.745,0.067,6.237,0.316
			c1.378,0.146,3.452,0.379,6.222,0.698c10.012,1.018,19.839,0.086,29.482-2.794c5.982-1.817,10.768-4.139,14.355-6.959
			c5.001-3.976,9.259-10.148,12.771-18.517c1.271-2.995,1.888-5.504,1.854-7.53c-0.734-0.144-1.298,0.433-1.69,1.728
			c-2.23,7.157-5.036,12.786-8.416,16.885c-2.83,3.491-6.381,6.459-10.653,8.902c-3.936,2.204-8.293,3.875-13.072,5.012
			c-7.378,1.718-16.651,2.095-27.821,1.132c-2.671-0.251-4.685-0.418-6.039-0.5c-2.296-0.111-4.295-0.104-5.999,0.02
			c-3.933,0.272-8.229,1.366-12.886,3.278c-2.661,1.067-6.702,3.045-12.125,5.933c-7.582,4.047-13.695,7.186-18.338,9.413
			c-6.818,3.252-13.146,5.882-18.98,7.894c-14.626,5.063-28.111,7.072-40.456,6.028c1.852-2.969,4.169-5.477,6.952-7.521
			c1.661-1.25,4.936-3.128,9.829-5.632c8.464-4.354,16.536-9.538,24.215-15.554c1.548-1.172,2.417-2.296,2.608-3.37
			c0.218-1.192-0.226-2.29-1.33-3.292c-0.937-0.853-2.135-1.497-3.591-1.934c-4.565-1.448-9.208-1.758-13.927-0.929
			c-2.084,0.342-4.397,0.971-6.938,1.885c-1.193,0.427-3.44,1.315-6.742,2.667c-15.524,5.695-95.57,49.252-103.266,52.271"/>
	</g>
</symbol>
<symbol  id="FXGH" viewBox="-129.999 -98.536 259.999 197.072">
	<g id="Layer_3_3_">
		<path d="M-76.015,81.663c-0.033-1.4-0.75-2.983-2.15-4.75c-1.733-2.268-3.9-4.551-6.5-6.851c-1.867-1.633-4.35-3.617-7.45-5.95
			c-8.188-6.133-15.462-10.857-21.825-14.174c-0.3,0.34-0.6,0.697-0.9,1.074c0.665,0.396,1.374,0.846,2.125,1.351
			c8.167,5.2,14.25,9.283,18.25,12.25c6.5,4.867,11.867,9.768,16.1,14.7C-77.298,80.513-76.515,81.296-76.015,81.663z"/>
		<path d="M-91.515,52.513c1-1.833,2.066-3.167,3.2-4c1.633-1.232,3.5-1.6,5.6-1.1c0.267,0.633,0.167,1.333-0.3,2.1
			c-0.566,0.801-0.95,1.417-1.15,1.851c-0.267,0.667-0.517,1.134-0.75,1.399c-0.167,0.233-0.45,0.45-0.85,0.65
			c-0.467,0.232-0.816,0.417-1.05,0.55c-0.667,0.533-1.184,0.899-1.55,1.101c-0.966,0.601-1.983,0.732-3.05,0.399
			c-0.4-0.133-0.667-0.3-0.8-0.5c-0.167-0.3-0.15-0.685,0.05-1.149L-91.515,52.513z M-93.165,56.963c0.033,0,0.183-0.133,0.45-0.4
			c0.067-0.1,0.15-0.149,0.25-0.149c0.134-0.033,0.217,0,0.25,0.1c-0.033,0.5,0.384,0.783,1.25,0.85c1.467,0.134,2.55,0,3.25-0.399
			c0.367-0.233,0.85-0.685,1.45-1.351c0.367-0.268,0.95-0.633,1.75-1.101c0.367-0.3,0.816-0.85,1.35-1.649
			c0.7-1.066,1.167-1.866,1.4-2.399c0.467-0.899,0.717-1.768,0.75-2.601c0.066-0.934-0.167-1.583-0.7-1.949
			c-0.333-0.2-0.8-0.301-1.4-0.301c-1.966,0-3.4,0.184-4.3,0.551c-0.967,0.399-1.917,1.116-2.85,2.149
			c-2.267,2.5-3.383,5.149-3.35,7.95C-93.615,56.763-93.465,56.996-93.165,56.963z"/>
		<path d="M-95.165,94.312c-4.6,1.733-9.434,2.434-14.5,2.101c-4.547-0.27-8.797-1.328-12.75-3.176c0.007,0.169,0.007,0.312,0,0.426
			c-0.045,0.494-0.145,0.937-0.3,1.324c1.137,0.629,2.437,1.188,3.9,1.676c6.167,2.1,12.616,2.434,19.35,1
			c6.667-1.434,12.45-4.351,17.35-8.75c3.333-3,6.05-6.483,8.15-10.45c2.167-4.033,3.534-8.233,4.1-12.601
			c0.6-4.399,0.383-8.8-0.65-13.199c-0.72-3.09-1.795-5.981-3.225-8.676c-0.208-0.111-0.417-0.221-0.625-0.324
			c-1.09-0.552-2.124-1.02-3.1-1.4c0.744,1.116,1.544,2.684,2.4,4.7c1.1,2.601,1.85,4.649,2.25,6.149
			c0.466,1.833,0.733,3.801,0.8,5.9c0.167,3.767-0.267,7.483-1.3,11.15c-1,3.699-2.534,7.116-4.6,10.25
			c-2.067,3.167-4.567,5.934-7.5,8.3C-88.415,91.112-91.665,92.979-95.165,94.312z"/>
		<path d="M-124.465,93.163c0.4,0.6,0.8,0.949,1.2,1.05c0.267,0.1,0.533,0.083,0.8-0.05c0.267-0.167,0.4-0.384,0.4-0.65
			c0-0.233-0.184-0.533-0.55-0.9c-1.4-1.333-2.533-3.517-3.4-6.55c-2.4-8.034-2.617-16.184-0.65-24.45
			c0.5-2.267,1.167-4.199,2-5.799c0.733-1.435,1.95-3.2,3.65-5.301c3.434-4.1,6.7-6.967,9.8-8.6c2.167-1.134,4.717-1.95,7.65-2.45
			c2.1-0.367,4.816-0.633,8.15-0.8c2.6-0.134,4.667-0.083,6.2,0.149c2.1,0.3,5,1.25,8.7,2.851c2.2,0.967,3.7,1.833,4.5,2.6
			c0.333,0.333,0.816,0.867,1.45,1.601c0.566,0.601,1.133,0.982,1.7,1.149c0.3-0.866,0.25-1.782-0.15-2.75
			c-0.367-0.899-0.934-1.667-1.7-2.3c-0.633-0.533-1.45-1.018-2.45-1.45c-0.1-0.065-0.967-0.449-2.6-1.149
			c-1.267-0.601-2.217-1.032-2.85-1.3c-1.1-0.534-2.066-0.917-2.9-1.149c-1.6-0.5-3.45-0.783-5.55-0.851
			c-1.333-0.066-3.217-0.034-5.65,0.101c-5.4,0.333-9.517,1-12.35,2c-2.534,0.899-4.983,2.25-7.35,4.05
			c-3.233,2.467-5.95,5.434-8.15,8.899c-2.233,3.533-3.767,7.268-4.6,11.2c-0.733,3.4-0.983,7.4-0.75,12
			C-129.449,82.112-127.632,88.395-124.465,93.163z"/>
		<path d="M-112.515,50.612c-1.667-1.333-3.467-2.601-5.4-3.8c-0.467-0.268-0.817-0.417-1.05-0.45c-0.433,0-0.733,0.149-0.9,0.45
			c-0.167,0.333-0.1,0.649,0.2,0.949c0.066,0.067,0.35,0.268,0.85,0.601c1.267,0.7,2.35,1.367,3.25,2
			c0.667,0.5,1.233,0.982,1.7,1.45c0.5,0.399,0.817,0.633,0.95,0.699c0.466,0.134,0.816,0.067,1.05-0.199
			c0.2-0.333,0.2-0.649,0-0.95C-111.965,51.13-112.182,50.88-112.515,50.612z"/>
		<path d="M129.186,10.763l-4.85-26.8c-0.833-4.435-1.633-7.783-2.4-10.05c-1.267-3.601-2.983-6.483-5.15-8.65
			c-1.167-1.167-2.65-2.3-4.45-3.399c-1.133-0.633-2.817-1.5-5.05-2.601c-3.6-1.767-6.433-2.982-8.5-3.649
			c-3.267-1.066-6.25-1.467-8.95-1.199c-2.967,0.267-5.983,1.35-9.05,3.25c-2.267,1.399-4.833,3.434-7.7,6.1
			c-2,1.768-3.483,2.9-4.45,3.4c-2.5,1.199-5.35,1.316-8.55,0.35c-3.167-0.933-6.017-2.75-8.55-5.449
			c-2.333-2.435-4.183-5.351-5.55-8.75c-1.133-2.867-2-6.185-2.6-9.95c-0.367-2.366-0.733-5.816-1.1-10.351l-1.35-16.5
			c-0.333-3.967-0.867-6.866-1.6-8.699c-1.233-3.268-3.184-5.384-5.85-6.351c1.3,2.367,2.1,3.934,2.4,4.7c0.8,2,1.35,4.366,1.65,7.1
			c0.167,1.268,0.317,3.75,0.45,7.45c0.3,7.268,1.083,14.617,2.35,22.05c0.7,4,1.483,7.317,2.35,9.95
			c1.167,3.533,2.683,6.533,4.55,9c2.367,3.133,5.283,5.533,8.75,7.2c2.066,1.033,4.167,1.667,6.3,1.899
			c2.333,0.268,4.467,0.018,6.4-0.75c1.533-0.634,3.183-1.718,4.95-3.25c1-0.867,2.45-2.218,4.35-4.051
			c4.6-3.933,9.217-5.833,13.85-5.699c1.733,0.032,3.633,0.399,5.7,1.101c1.1,0.366,2.917,1.1,5.45,2.199
			c3.733,1.7,6.5,3.134,8.3,4.301c2.9,1.899,5.034,4.033,6.4,6.399c0.7,1.232,1.3,2.716,1.8,4.449c0.3,1.101,0.65,2.685,1.05,4.75
			l5.649,28.851c0.5,2.566,0.801,4.533,0.9,5.899c0.2,2.233,0.083,4.2-0.35,5.9c-0.7,2.767-2.417,5.699-5.15,8.8
			c-4.567,5.232-9.317,8.3-14.25,9.2c-2.934,0.566-6.917,0.333-11.95-0.7c-3.7-0.768-7.117-1.533-10.25-2.3
			c-1.867-0.467-3.167-1.051-3.9-1.75c-0.7-0.602-1.333-1.65-1.9-3.15c-2.2-5.333-3.517-8.433-3.95-9.3
			c-1.767-3.367-3.8-5.917-6.1-7.649c-0.767-0.534-1.333-0.95-1.7-1.25c-0.667-0.5-1.2-0.968-1.6-1.399
			c-0.833-0.967-1.583-2.733-2.25-5.301c-1.767-6.566-4.283-12.816-7.55-18.75c-3.333-6.066-7.067-11.116-11.2-15.149
			c-2.2-2.232-5.4-4.95-9.6-8.149c-3.7-2.867-6.816-4.816-9.35-5.851c-2.966-1.167-6.917-1.833-11.85-2
			c-5.333-0.2-10.55-0.033-15.65,0.5c-4.5,0.5-7.9,1.45-10.2,2.851c-2.133,1.3-3.883,3.149-5.25,5.55
			c-1.267,2.2-2.133,4.667-2.6,7.399c-0.367,2.301-0.467,4.884-0.3,7.75c0.1,1.935,0.366,4.518,0.8,7.75
			c-1.167-0.433-2.367-0.482-3.6-0.149c-1.267,0.333-2.267,0.968-3,1.899c-0.9,1.101-1.533,2.7-1.9,4.801
			c-1.467,7.966-0.85,17.466,1.85,28.5c0.733,3,2.017,7.616,3.85,13.851c1.8,6.033,3.083,10.649,3.85,13.85
			c0.5,2.2,0.817,3.983,0.95,5.351c0.2,2,0.15,3.801-0.15,5.4c-0.534,2.8-1.75,4.75-3.65,5.85c-2.367,1.4-5.583,1.134-9.65-0.8
			c-4.633-2.3-9.116-5.767-13.45-10.399c-3.067-3.301-6.6-7.851-10.6-13.65c-4.2-6.133-7.667-11.565-10.4-16.3
			c-3.5-6-6.317-11.768-8.45-17.3c-0.566-1.5-1.4-3.768-2.5-6.801c-1-2.667-1.933-4.866-2.8-6.601
			c-2.467-4.967-5.583-8.532-9.35-10.699c-3.367-1.935-6.617-2.468-9.75-1.601c-1.667,0.467-3.1,1.333-4.3,2.601
			c-1.267,1.3-2,2.768-2.2,4.399c-0.167,1.565,0.233,3.667,1.2,6.3c2.566,6.801,6.683,14.551,12.35,23.25
			c3.2,4.968,8.117,12.333,14.75,22.101c0.467-0.199,0.684-0.633,0.65-1.3c-0.034-0.566-0.233-1.134-0.6-1.7
			c-6.3-9.268-10.95-16.25-13.95-20.949c-5.2-8.233-9-15.65-11.4-22.25c-1-2.9-1.233-5.117-0.7-6.65
			c0.333-0.967,0.934-1.782,1.8-2.449c0.8-0.667,1.733-1.134,2.8-1.399c1.9-0.467,3.95-0.25,6.15,0.649
			c4.134,1.633,7.583,5,10.35,10.101c0.967,1.8,1.95,4.05,2.95,6.75c1.1,3.1,1.933,5.417,2.5,6.949
			c2.133,5.634,4.966,11.518,8.5,17.649c2.767,4.801,6.3,10.301,10.6,16.5c3.966,5.7,7.45,10.2,10.45,13.5
			c4.233,4.6,8.583,8.117,13.05,10.55c2.333,1.268,4.55,2.066,6.65,2.4c2.533,0.399,4.716,0.05,6.55-1.05c2.534-1.5,4.1-4,4.7-7.5
			c0.367-2.2,0.2-5.217-0.5-9.051c-0.7-3.699-1.867-8.399-3.5-14.101c-2.267-7.866-3.583-12.532-3.95-14
			c-2.9-11.333-3.65-20.933-2.25-28.8c0.3-2,0.9-3.467,1.8-4.399c0.566-0.634,1.283-1,2.15-1.101c0.9-0.101,1.633,0.117,2.2,0.649
			c0.534,3.5,1.017,6.134,1.45,7.899c0.733,2.867,1.7,5.317,2.9,7.351c1.133,1.833,2.784,3.934,4.95,6.301
			c3.4,3.699,6.333,6.167,8.8,7.399c1.934,0.966,4,1.532,6.2,1.699c2.233,0.167,4.383-0.065,6.45-0.699
			c1.333-0.367,2.25-0.482,2.75-0.351c0.767,0.167,1.517,0.899,2.25,2.2l7.3,11.899c3.033,5,5.45,8.851,7.25,11.55
			c2.833,4.167,5.583,7.768,8.25,10.801c3.633,4.1,7.683,7.816,12.15,11.149c3.934,2.966,7.5,4.917,10.7,5.851
			c2.066,0.566,4.1,0.8,6.1,0.699c2.167-0.133,4.1-0.683,5.8-1.649c4.733-2.667,7.55-8.117,8.45-16.351
			c0.867-6.866,0.534-13.267-1-19.199c3.4,1.1,6.067,1.899,8,2.399c2.934,0.768,5.65,1.282,8.15,1.55
			c6.2,0.732,11.616-0.018,16.25-2.25c3.267-1.633,6.55-4.351,9.85-8.149c3.434-4.033,5.367-7.783,5.8-11.25
			c0.2-1.333,0.216-2.833,0.05-4.5C129.785,14.213,129.551,12.729,129.186,10.763z M64.186,72.062c-3.233-0.8-7.083-2.833-11.55-6.1
			c-2.633-1.967-4.833-3.8-6.6-5.5c-1.5-1.435-3.4-3.45-5.7-6.05c-2.833-3.134-4.917-5.769-6.25-7.9c-0.5-0.833-1.15-2-1.95-3.5
			c-0.933-1.699-1.583-2.866-1.95-3.5c-0.767-1.399-2.134-3.565-4.1-6.5l-9.5-14.199c3.367-2.7,6.017-4.718,7.95-6.051
			c3.034-2.065,5.917-3.683,8.65-4.85c3.233-1.367,6.45-2.167,9.65-2.4c3.533-0.267,6.75,0.218,9.65,1.45
			c1.533,0.633,3.733,1.815,6.6,3.55c1.6,0.801,2.65,1.483,3.15,2.051c0.333,0.366,0.65,0.866,0.95,1.5
			c0.3,0.732,0.517,1.282,0.65,1.649c1.4,3.934,3.15,7.667,5.25,11.2c3.1,5.065,6.367,8.231,9.8,9.5
			c2.4,7.633,2.784,15.383,1.15,23.25c-1.366,6.467-4.066,10.517-8.1,12.149C69.702,72.713,67.118,72.796,64.186,72.062z
			 M49.686,3.463c-5.567-1.435-11.5-0.768-17.8,2c-4.333,1.867-9.417,5.184-15.25,9.95c-0.566,0.434-1,0.633-1.3,0.6
			c-0.367-0.032-0.767-0.333-1.2-0.899c-4.933-6.268-9.533-11.366-13.8-15.3c-5.467-5.034-11.067-8.816-16.8-11.351
			c-0.466-4.633-0.55-9.167-0.25-13.601c0.2-2.5,0.534-4.55,1-6.149c0.634-2.167,1.617-3.899,2.95-5.2
			c2-1.866,5.083-3.083,9.25-3.649c3.033-0.467,7.217-0.8,12.55-1c3.3-0.101,5.934-0.066,7.9,0.101c2.9,0.232,5.433,0.783,7.6,1.649
			c2.134,0.867,4.833,2.482,8.1,4.851c3.5,2.467,6.5,4.851,9,7.149c9.167,8.468,16,20.667,20.5,36.601
			c-2.667-1.5-4.683-2.583-6.05-3.25C53.718,4.796,51.585,3.963,49.686,3.463z M77.436,32.663c-0.934-0.167-1.9-0.9-2.9-2.2
			c-3.667-4.732-6.45-9.883-8.35-15.45c1.6,0.533,3.216,2.033,4.85,4.5c1.134,1.601,2.134,3.333,3,5.2L77.436,32.663z
			 M-14.064,1.063c-0.433-1.268-0.884-3.051-1.35-5.351c-0.4-1.867-0.65-3.268-0.75-4.2c1.267,0.134,2.883,0.917,4.85,2.351
			c4.633,3.268,7.95,5.816,9.95,7.649c1.567,1.367,4.017,3.867,7.35,7.5l2.75,3c0.767,0.833,1.417,1.601,1.95,2.301
			c0.433,0.601,1.066,1.649,1.9,3.149c-1.133,0.7-2.434,1.149-3.9,1.351c-2.7,0.3-6.1-0.601-10.2-2.7
			c-1.3-0.732-2.15-1.282-2.55-1.649c-0.434-0.367-0.884-0.883-1.35-1.55c-0.534-0.768-0.95-1.316-1.25-1.65
			c-0.467-0.565-1.3-1.449-2.5-2.649c-1.1-1.066-1.917-1.949-2.45-2.649C-12.615,4.63-13.432,2.996-14.064,1.063z"/>
	</g>
</symbol>
<symbol  id="GFH" viewBox="-221.826 -93.067 443.651 186.132">
	<g id="Layer_3_2_">
		<path d="M-115.424,91.392c-0.233,0.399-0.367,0.667-0.4,0.8c-0.133,0.367-0.05,0.633,0.25,0.8c0.333,0.167,0.7,0.05,1.1-0.35
			c1.067-0.968,2-2.733,2.8-5.301l0.85-2.399c0.4-1.333,0.617-2.185,0.65-2.55c0.1-0.934-0.033-2.184-0.4-3.75
			c-0.6-2.268-1.434-4-2.5-5.2c-0.733-0.867-2.1-1.867-4.1-3c-0.733-0.4-1.283-0.667-1.65-0.8c-1.233-0.233-2.133-0.468-2.7-0.7
			c-0.7-0.367-1.25-0.601-1.65-0.7c-0.733-0.2-1.283-0.067-1.65,0.4c-0.333-0.167-0.567-0.25-0.7-0.25c-0.1,0.032-0.2,0.1-0.3,0.199
			c-0.067,0.134-0.067,0.25,0,0.351c0.033,0.033,0.216,0.1,0.55,0.2c0.233,0.032,0.55,0.25,0.95,0.649c0.767,0.633,2,1.25,3.7,1.851
			c1.867,0.633,3.15,1.184,3.85,1.649c1.3,0.833,2.35,2.101,3.15,3.8c0.867,1.733,1.233,3.367,1.1,4.9
			c-0.033,0.567-0.217,1.45-0.55,2.65l-0.75,2.699C-114.292,89.174-114.825,90.524-115.424,91.392z"/>
		<path d="M63.524,23.566c-9.165-7.237-18.381-16.445-27.65-27.625c-5.833-7-13.917-17.75-24.25-32.25
			c-1.034-1.4-1.884-2.519-2.55-3.352c0.267,2.135,1.467,4.769,3.6,7.9c3.434,5.167,8.816,12.333,16.15,21.5
			c8.1,10.167,14.817,17.933,20.15,23.3c4.55,4.569,9.108,8.544,13.675,11.925C62.917,24.432,63.208,23.965,63.524,23.566z"/>
		<path d="M138.65-27.434c-18.288,7.889-35.612,17.298-51.976,28.225c-5.4,3.601-9.767,6.867-13.1,9.8
			c-4.433,3.968-7.917,8.083-10.45,12.352c0.767,0.065,1.6-0.45,2.5-1.551c4.333-5.232,9.816-10.268,16.45-15.101
			c4.867-3.6,11.184-7.633,18.95-12.1c10.7-6.134,21.683-11.935,32.95-17.4c1.201-0.585,2.276-1.109,3.226-1.575
			C137.588-25.564,138.073-26.448,138.65-27.434z"/>
		<path d="M136.225-25.459c0.745-0.301,1.412-0.718,2-1.25c0.348-0.59,0.73-1.224,1.15-1.899l1.175-1.875
			c0.165-0.703,0.225-1.43,0.175-2.176c-0.032-1-0.315-2.133-0.85-3.398c-1.1-2.733-2.55-4.634-4.35-5.7
			c-0.301,0.033-0.367,0.35-0.2,0.95c1.066,2.033,1.85,3.565,2.35,4.6c0.9,1.8,1.3,3.383,1.2,4.75
			c-0.067,0.935-0.35,1.816-0.85,2.65s-1.134,1.5-1.9,2c-0.367,0.199-0.6,0.398-0.7,0.6c-0.065,0.133-0.1,0.283-0.1,0.45
			c0.034,0.2,0.117,0.315,0.25,0.35C135.775-25.309,135.993-25.326,136.225-25.459z"/>
		<path d="M36.976-43.259c-0.233-0.101-0.466-0.067-0.7,0.1c-0.2,0.135-0.333,0.333-0.4,0.602c-0.067,0.398,0.033,0.898,0.3,1.5
			c1.7,3.667,3.95,7.616,6.75,11.85c1.667,2.5,4.333,6.2,8,11.101c4.3,5.699,7.583,9.866,9.85,12.5
			c3.833,4.467,7.583,8.184,11.25,11.149c-8.133-10.399-14.2-18.232-18.2-23.5c-7.133-9.3-12.566-17.517-16.3-24.649
			C37.292-42.976,37.108-43.192,36.976-43.259z"/>
		<path d="M71.675-3.559c-0.667-1.269-1.9-2.833-3.7-4.7c-9.267-10.101-17.683-20.733-25.25-31.9c-0.167,1.167,0.35,2.7,1.55,4.602
			c4.767,7.5,10.117,14.616,16.05,21.35C64.458-9.543,68.243-5.992,71.675-3.559z"/>
		<path d="M80.726-5.959c1.2-0.2,2.75-0.767,4.65-1.7c2.767-1.398,5.033-2.633,6.8-3.699c1.934-1.199,3.15-2.366,3.65-3.5
			c-0.566-0.033-1.283,0.184-2.15,0.649c-5.133,2.733-8.917,4.867-11.35,6.4c-0.933,0.633-1.566,1.199-1.9,1.699
			C80.425-6.009,80.524-5.959,80.726-5.959z"/>
		<path d="M44.175-7.559c-0.533-0.269-1.083-0.685-1.65-1.25c-0.6-0.602-1.083-1.467-1.45-2.602c-0.466-1.333-0.367-2.3,0.3-2.898
			c0.566-0.566,1.366-0.65,2.4-0.25c0.5,0.267,1.066,0.648,1.7,1.148c0.667,0.602,1.067,0.968,1.2,1.102
			c0.934,1,1.417,1.934,1.45,2.8c0.066,0.533-0.05,1.05-0.35,1.55c-0.267,0.5-0.65,0.816-1.15,0.95
			C45.958-6.809,45.143-6.992,44.175-7.559z M49.524-9.659c0-0.3-0.067-0.648-0.2-1.05c-0.167-0.434-0.45-0.917-0.85-1.45
			c-1.3-1.865-2.816-3.148-4.55-3.85c-0.434-0.167-0.833-0.25-1.2-0.25c-0.633-0.034-1.3,0.232-2,0.8
			c-0.333,0.233-0.6,0.533-0.8,0.9c-0.2,0.434-0.3,1-0.3,1.699c0,0.467,0.033,0.801,0.1,1c0.1,0.565,0.333,1.149,0.7,1.75
			c0.2,0.366,0.566,0.884,1.1,1.551l1.3,1.5c0.233,0.3,0.483,0.533,0.75,0.699l0.6,0.25c0.5,0.268,0.833,0.417,1,0.449
			c0.533,0.2,1.1,0.218,1.7,0.051s1.1-0.449,1.5-0.851C49.208-7.293,49.592-8.358,49.524-9.659z"/>
		<path d="M53.826,3.892c0.1-0.366,0.05-0.768-0.15-1.199c-0.3-0.602-0.7-0.967-1.2-1.102c-0.267-0.064-0.55-0.05-0.85,0.051
			c-0.267,0.134-0.45,0.333-0.55,0.601c-0.167-0.101-0.316-0.233-0.45-0.4l-0.1,0.102l0.3,0.75c0.267,0.667,0.7,1.231,1.3,1.699
			c0.333,0.199,0.6,0.301,0.8,0.301C53.358,4.624,53.66,4.357,53.826,3.892z M52.625,2.941l0.2,0.25l0.1,0.25
			c0.066,0.1,0.05,0.199-0.05,0.3c-0.1-0.268-0.284-0.483-0.55-0.65l-0.15-0.148c-0.033-0.066-0.033-0.117,0-0.15
			c0.1-0.065,0.217-0.033,0.35,0.101L52.625,2.941z"/>
		<path d="M29.175-25.009c-0.333,0.333-0.533,0.565-0.6,0.7c-0.133,0.333-0.133,0.616,0,0.85c0.233,0.4,0.6,0.483,1.1,0.25
			c0.1-0.033,0.45-0.267,1.05-0.7c0.2-0.167,0.784-0.532,1.75-1.1c0.7-0.4,1.2-0.817,1.5-1.25c0.367-0.567,0.467-1.067,0.3-1.5
			c-0.067-0.2-0.2-0.333-0.4-0.4c-0.1-0.032-0.25,0.019-0.45,0.15C31.993-27.209,30.576-26.209,29.175-25.009z"/>
		<path d="M26.476-28.159c0.167-0.064,0.417-0.216,0.75-0.449c0.1-0.101,0.534-0.399,1.3-0.899c0.533-0.333,0.933-0.65,1.2-0.95
			c0.467-0.5,0.65-0.982,0.55-1.45h-0.3l-0.4,0.2c-0.367,0.133-0.8,0.383-1.3,0.75l-2,1.4l-0.5,0.449
			c-0.167,0.232-0.2,0.449-0.1,0.649C25.809-28.192,26.076-28.092,26.476-28.159z"/>
		<path d="M86.175-89.559c-5.7,2.767-11.934,6.517-18.7,11.25c-2.267,1.6-8.15,5.949-17.65,13.05
			c-11.833,8.833-24,17.417-36.5,25.75c-1.167,0.866-2.216,1.399-3.15,1.6c-0.233,0-0.367,0.067-0.4,0.2
			c-0.1,0.268,0.066,0.4,0.5,0.4c0.8,0.033,2-0.367,3.6-1.2c8.733-4.935,20.2-12.601,34.4-23
			c15.867-11.667,27.183-19.601,33.95-23.8c3.856-2.404,8.089-4.879,12.7-7.426c-0.326-0.218-0.593-0.324-0.8-0.324
			c-0.05-0.011-0.1-0.011-0.15,0C90.659-91.667,88.058-90.5,86.175-89.559z"/>
		<path d="M88.425-82.858c-15.733,9.467-29.816,19.449-42.25,29.949c-0.667,0.534-0.983,1.067-0.95,1.602
			c11.3-7.667,21.5-14.75,30.6-21.25c3.2-2.233,5.967-4.233,8.3-6C86.292-80.259,87.726-81.692,88.425-82.858z"/>
		<path d="M139.775-31.309c0.133-0.066,0.199-0.25,0.199-0.551c-0.065-2.033-0.583-4.167-1.55-6.399
			c-0.732-1.667-1.815-3.634-3.25-5.9c-2.633-4.032-6.649-9.5-12.05-16.398c-5.5-6.935-9.767-12.217-12.8-15.852
			c-3.833-4.667-7.033-8.267-9.6-10.8c-2.235-2.234-4.469-4.186-6.7-5.85c-0.14-0.018-0.307,0.017-0.5,0.1l-0.6,0.2
			c-0.09,0.021-0.182,0.039-0.275,0.05c12.671,13.734,24.563,28.051,35.675,42.95c4.333,5.767,7.434,10.6,9.3,14.5l1.5,3.45
			C139.359-31.409,139.576-31.242,139.775-31.309z"/>
		<path d="M129.675-39.459c-4.1-6.033-9.05-12.533-14.85-19.5c-3.466-4.167-8.833-10.333-16.1-18.5c-0.767-0.833-1.433-1.232-2-1.2
			l13.1,15.352c3.067,3.6,5.333,6.333,6.8,8.199c1.433,1.732,3.55,4.384,6.35,7.949C125.509-44.025,127.743-41.459,129.675-39.459z"
			/>
		<path d="M30.326,3.191c1.567-1.5,3.217-2.9,4.95-4.2c1.066-0.7,1.517-1.417,1.35-2.15c-0.067-0.333-0.284-0.6-0.65-0.8
			c-0.366-0.2-0.733-0.267-1.1-0.2c-0.5,0.102-1.15,0.45-1.95,1.051c-1.2,0.967-2.5,2.101-3.9,3.399c-2.133,2-3.567,3.733-4.3,5.2
			c-0.767,1.565-1.283,3.866-1.55,6.899c-0.3,3.467-0.667,5.833-1.1,7.101c-0.767,2.267-2.3,4.616-4.6,7.05
			c-3.366,3.435-7.35,6.033-11.95,7.8c-4.6,1.801-9.284,2.551-14.05,2.25c-3.633-0.231-6.767-1.05-9.4-2.449
			c-1.267-0.699-2.9-1.884-4.9-3.551c-2.434-2-4.267-3.917-5.5-5.75c-0.934-1.466-2.033-4.083-3.3-7.85
			c-1.8-5.733-2.95-10.083-3.45-13.05c-0.233-1.467-0.533-3.667-0.9-6.602c-0.4-2.6-0.917-4.731-1.55-6.398
			c-0.866-2.233-2.1-4.083-3.7-5.551c-1.767-1.634-3.7-2.518-5.8-2.649c-1.767-0.067-3.616,0.433-5.55,1.5
			c-1.3,0.7-2.934,1.85-4.9,3.45c-4.967,4.199-9.9,8.667-14.8,13.398c-2.333,2.333-4.133,4.051-5.4,5.15c-1.933,1.633-4.2,3.3-6.8,5
			c-3.934,2.633-8.167,5.149-12.7,7.55c-3.3,1.733-6.017,2.967-8.15,3.7c-3.133,1.1-7.517,2-13.15,2.7c-5.067,0.6-9.3,0.8-12.7,0.6
			c-4.633-0.232-8.65-1.217-12.05-2.95c-1.434-0.731-2.983-1.699-4.65-2.898c-0.733-0.566-2.184-1.7-4.35-3.4
			c-3.9-3.065-9.55-7.133-16.95-12.2c-3.267-2.3-5.883-3.883-7.85-4.75c-3.2-1.398-6.9-2.3-11.1-2.699
			c-2.667-0.268-4.767-0.167-6.3,0.301c-1.367,0.398-3.1,1.398-5.2,3c-2.767,2.065-5.5,4.333-8.2,6.8
			c-5.3,4.767-9.033,9.283-11.2,13.55c-1.4,2.733-2.283,5.55-2.65,8.45c-0.367,3.1-0.066,5.982,0.9,8.649
			c1,2.768,2.817,5.434,5.45,8c1.767,1.768,4.367,3.833,7.8,6.199c3.333,2.301,6.2,4.102,8.6,5.4c2.133,1.1,5.083,2.333,8.85,3.7
			c3.233,1.133,5.8,1.899,7.7,2.3c2,0.433,4.716,0.783,8.15,1.05c2.8,0.167,7.8,0.351,15,0.55c6.367,0.167,11.367,0.417,15,0.75
			c11.7,1.135,21.25,3.851,28.65,8.15c0.267,0.167,0.566,0.25,0.9,0.25s0.5-0.134,0.5-0.4c0-0.199-0.15-0.417-0.45-0.649
			c-5.333-3.633-11.8-6.25-19.4-7.851c-5.233-1.1-12.216-1.865-20.95-2.3c-0.1,0-3.684-0.149-10.75-0.45
			c-4.833-0.133-8.45-0.333-10.85-0.6c-5.867-0.7-11.7-2.333-17.5-4.9c-5.467-2.433-10.684-5.583-15.65-9.449
			c-4.633-3.634-7.583-7.185-8.85-10.649c-0.967-2.667-1.167-5.55-0.6-8.65c0.5-2.865,1.567-5.615,3.2-8.25
			c1.367-2.267,3.216-4.564,5.55-6.898c1.467-1.435,3.667-3.417,6.6-5.95c1.833-1.601,3.467-2.967,4.9-4.101
			c2.167-1.732,4.034-2.801,5.6-3.199c1.267-0.333,3.066-0.367,5.4-0.102c4.467,0.5,8.233,1.5,11.3,3c1.4,0.7,3.616,2.102,6.65,4.2
			l10.85,7.65c3.066,2.199,5,3.616,5.8,4.25c3.733,2.967,5.95,4.684,6.65,5.148c3.934,2.468,8.633,3.983,14.1,4.551
			c3.934,0.434,8.9,0.315,14.9-0.351c4.1-0.5,7.35-1.065,9.75-1.7c5.5-1.466,12.067-4.532,19.7-9.199
			c3.8-2.301,6.867-4.316,9.2-6.051c2.867-2.167,7.15-6,12.85-11.5c5.367-5.231,9.684-9.017,12.95-11.35
			c2.267-1.601,4.167-2.417,5.7-2.45c1.467-0.033,2.85,0.45,4.15,1.45c1.167,0.933,2.1,2.133,2.8,3.6
			c0.533,1.2,0.95,2.635,1.25,4.301c0.066,0.366,0.283,1.866,0.65,4.5c0.867,6.899,2.75,14.167,5.65,21.801
			c0.867,2.267,1.717,4.033,2.55,5.3c0.9,1.333,2.583,3.065,5.05,5.2c2.967,2.6,5.45,4.383,7.45,5.35
			c2.233,1.033,4.816,1.685,7.75,1.95c5.566,0.533,11.05-0.2,16.45-2.2s10.034-5.033,13.9-9.1c1.333-1.367,2.333-2.65,3-3.852
			c1.633-2.731,2.633-6.648,3-11.75c0.133-2.167,0.366-3.683,0.7-4.55C27.358,6.357,28.524,4.824,30.326,3.191z"/>
		<path d="M163.576-43.959c-0.033,0.133-0.101,0.633-0.2,1.5l0.05,6.7c0,0.533,0.15,0.85,0.45,0.95c0.3,0.065,0.5-0.051,0.6-0.352
			c0.101-0.167,0.15-0.417,0.15-0.75c0.066-2.564,0.066-5.115,0-7.648l-0.1-0.602c-0.134-0.267-0.301-0.365-0.5-0.3
			C163.792-44.459,163.642-44.293,163.576-43.959z"/>
		<path d="M162.675-35.559l0.351,0.1c15.833,1.333,31.449,2.066,46.85,2.2c4.184,0.041,7.758-0.051,10.725-0.275
			c0.026-0.202,0.052-0.419,0.075-0.648c-25.24-0.47-44.34-1.127-57.3-1.977c-0.233,0-0.434,0.067-0.6,0.2
			S162.576-35.692,162.675-35.559z"/>
		<path d="M220.576-33.284c0.079-0.668,0.196-1.543,0.35-2.625c0-1.231,0.066-2.064,0.2-2.5c0.152-0.418,0.385-0.774,0.7-1.074
			c-0.16-0.662-0.426-1.154-0.8-1.476c-0.667,0.566-0.968,1.483-0.9,2.75l0.05,1.5c0.033,0.601,0.018,1.101-0.05,1.5
			c-0.167,0.633-0.217,1.066-0.15,1.3c0.067,0.2,0.2,0.367,0.4,0.5C220.444-33.352,220.511-33.31,220.576-33.284z"/>
		<path d="M170.225-44.259c-1.399-0.067-3.517-0.034-6.35,0.1c-0.333,0.067-0.517,0.15-0.55,0.25c-0.101,0.167-0.033,0.333,0.2,0.5
			c0.1,0.067,0.282,0.102,0.55,0.102l3.05,0.1c2.767,0.066,4.417,0.133,4.95,0.2c1.434,0.1,2.816,0.3,4.149,0.6
			c0.233,0.067,0.4,0.083,0.5,0.051c0.2,0,0.367-0.134,0.5-0.399c0.067-0.2,0-0.4-0.199-0.601c-0.134-0.134-0.333-0.199-0.601-0.199
			c-1.065-0.233-2.3-0.4-3.7-0.5L170.225-44.259z"/>
		<path d="M180.275-42.159c-0.101-0.133-0.284-0.231-0.551-0.3c-0.333-0.033-0.667-0.167-1-0.399
			c-0.333-0.268-0.615-0.399-0.85-0.399c-0.134,0.033-0.267,0.116-0.4,0.25c-0.1,0.133-0.133,0.283-0.1,0.45
			c0.033,0.267,0.25,0.467,0.65,0.6l0.899,0.3l0.45,0.25c0.3,0.135,0.55,0.117,0.75-0.05
			C180.425-41.692,180.475-41.926,180.275-42.159z"/>
		<path d="M178.076-42.809c-0.367,0-0.566,0.116-0.601,0.35c-0.032,0.233,0.185,0.435,0.65,0.601c2.4,0.532,5.183,0.884,8.35,1.051
			c1.468,0.1,4.284,0.184,8.45,0.25c9,0.167,17.283,0.5,24.851,1c0.433,0.065,0.8,0.033,1.1-0.102c0.167-0.1,0.3-0.25,0.4-0.449
			c0.065-0.199,0.05-0.366-0.051-0.5c-0.065-0.167-0.365-0.283-0.899-0.351l-18.05-0.8c-0.968-0.067-2.45-0.134-4.45-0.2
			c-3.601,0-6.316-0.017-8.15-0.05c-3.2-0.034-5.899-0.217-8.1-0.55C179.875-42.793,178.708-42.876,178.076-42.809z"/>
		<path d="M164.275-35.509c0.032-0.101,0.032-0.185,0-0.25c-0.034-0.101-0.15-0.25-0.351-0.45l-1.25-0.85
			c-2.267-1.333-3.917-2.185-4.95-2.551c-0.5-0.199-1.633-0.533-3.399-1l5-0.801l4.2-1.449c0.433-0.134,0.667-0.316,0.699-0.551
			c0.034-0.133,0-0.267-0.1-0.398c-0.1-0.133-0.233-0.217-0.4-0.25c-0.1-0.033-0.399-0.019-0.899,0.05
			c-1.833,0.633-3.233,1.083-4.2,1.35l-1.25,0.25c-1.733,0.367-4.167,0.519-7.3,0.45c-0.268,0-0.483,0.05-0.65,0.15
			c-0.133,0.133-0.184,0.3-0.149,0.5c0,0.231,0.083,0.417,0.25,0.55c0.199,0.167,0.55,0.283,1.05,0.35
			c0.934,0.167,2.434,0.567,4.5,1.2l3.7,1.25c0.399,0.167,0.883,0.4,1.449,0.7l3.851,1.899
			C164.142-35.358,164.208-35.409,164.275-35.509z"/>
	</g>
</symbol>
<g id="Layer_7">
	
		<use xlink:href="#GFH"  width="443.651" height="186.132" x="-221.826" y="-93.067" transform="matrix(-1.424165e-004 0.8977 0.9047 1.605156e-004 84.8115 527.4609)" overflow="visible"/>
	
		<use xlink:href="#FGJ"  width="362.347" height="157.577" id="XMLID_1_" x="-188.107" y="-121.189" transform="matrix(1.4251 -0.0215 -0.0167 -1.1096 436.4385 953.1396)" overflow="visible"/>
	
		<use xlink:href="#FXGH"  width="259.999" height="197.072" x="-129.999" y="-98.536" transform="matrix(-1.964895e-004 1.216 0.8688 1.572423e-004 647.2734 158.0732)" overflow="visible"/>
</g>
<g id="Layer_6">
	<path fill="#A82B47" d="M649.546,885.851c-1.925,3.473-3.531,7.248-4.829,11.331c-1.922,6.037-4.81,10.426-8.657,13.185
		c-1.954,0.975-3.673,1.847-5.163,2.643c-1.069,0.796-5.085,4.125-12.038,9.969c-4.958,4.134-9.135,7.15-12.542,9.055
		c-3.033,1.659-7.098,2.758-12.205,3.275c-6.66,0.712-10.805,1.279-12.429,1.715c-9.732,2.753-17.962,4.426-24.693,5.045
		c-3.59,0.333-8.363,0.715-14.314,1.137c-5.622,0.379-8.881,0.566-9.769,0.565c-3.993,0-15.593-0.803-34.79-2.424
		c-8.973-0.739-15.918-1.322-20.834-1.756c-5.024,1.238-11.046,2.01-18.062,2.324c-13.463,0.611-20.654,0.965-21.584,1.067
		c-5.623,0.607-12.654,1.111-21.085,1.492c-9.731,0.328-16.915,0.582-21.528,0.777c-10.583,0.475-24.785,1.272-42.613,2.415
		c-21.79,1.326-36.179,2.178-43.169,2.555l-27.244-0.005c-4.699,0.858-9.649,0.857-14.871-0.003l-48.376-0.009
		c-3.81,0.379-9.085,0.775-15.817,1.202c-5.876,0.334-9.388,0.511-10.542,0.511c-9.021-0.002-17.273-1.009-24.748-3.005
		c-9.287-2.446-15.748-6.166-19.39-11.157c-1.218-1.098-2.439-2.297-3.63-3.598c-5.73-6.227-10.543-14.228-14.423-24.018
		c-1.476-3.891-2.383-6.554-2.715-7.979c-0.701-2.765-1.366-7.081-1.994-12.973c-0.738-6.842-1.565-16.463-2.494-28.861
		c-1.029-13.592-1.916-24.211-2.65-31.859c-2.108-17.483-3.932-33.255-5.488-47.317c-2.954-27.08-4.438-46.35-4.436-57.794
		c0.002-13.927,0.696-34.854,2.073-62.783c0.486-9.85,0.846-18.246,1.087-25.189c-1.253-13.511-2.133-26.538-2.631-39.084
		l0.007-46.68c0.111-0.575,0.299-3.799,0.55-9.701c0.304-5.797,0.505-8.938,0.619-9.478c0.002-20.231-0.108-30.849-0.332-31.842
		c-0.217-18.391-0.434-28.089-0.664-29.085l0.009-57.153c0.56-3.849,1.301-8.742,2.225-14.682c0.781-6.132,1.538-15.249,2.28-27.353
		l0.338-38.057c0.113-1.761,0.329-4.323,0.669-7.696c0.117-1.103,0.222-2.188,0.305-3.277c-0.512-4.135-0.444-10.455,0.201-18.952
		l-0.329-23.941l-0.332-1.579l-0.716-62.129c0.003-17.147,0.697-32.113,2.063-44.899c0.969-8.833,1.948-14.682,2.942-17.526
		c2.149-6.233,3.925-12.801,5.338-19.743c2.591-13.112,6.918-22.779,12.986-28.996c1.7-1.765,4.345-4.356,7.932-7.767
		c2.926-2.95,4.906-5.493,5.941-7.637c4.406-9.015,8.958-15.497,13.654-19.449c23.455-19.37,42.247-29.068,56.375-29.065
		c1.368,0,4.031,0.105,7.995,0.293c3.736,0.216,6.896,0.443,9.458,0.683c0.261-0.087,0.53-0.173,0.802-0.25
		c6.33-1.576,10.357-2.66,12.097-3.283l43.222,0.007c0.294-0.182,0.571-0.355,0.829-0.509c0.449-0.229,1.027-0.345,1.723-0.345
		c0.963,0,6.361,0.266,16.204,0.786c10.538,0.53,19.015,0.973,25.406,1.362l25.133,0.005c4,0.567,11.266,0.947,21.812,1.136
		c9.541,0.189,16.989,0.867,22.357,1.995c2.888,0.572,6.512,0.932,10.874,1.078c2.447,0.048,6.143,0.116,11.099,0.217
		c5.323,0.256,10.016,1.077,14.064,2.455c0.945-0.336,2.021-0.538,3.246-0.6c1.554-0.095,3.919-0.195,7.102-0.286
		c1.737-0.288,4.196-0.407,7.379-0.349c1.669,0.043,3.496,0.086,5.498,0.135c14.681,0.002,29.758,1.219,45.22,3.645
		c2.289,0.379,9.835,1.014,22.637,1.928c9.545,0.673,17.054,1.951,22.525,3.847c1.072,0.384,2.995,1.709,5.771,3.998
		c2.771,2.333,4.62,3.632,5.547,3.921c0.074,0.048,1.961,0.479,5.659,1.288c2.625,0.57,4.513,1.334,5.659,2.279
		c3.011,2.395,6.208,4.621,9.597,6.666c0.568,0.351,1.139,0.696,1.721,1.033c0.886,0.519,2.754,2.303,5.604,5.346
		c2.883,3.038,4.772,4.852,5.658,5.418c7.985,5.227,15.366,12.904,22.138,23.029c7.835,11.732,13.604,25.086,17.301,40.048
		l-0.165,4.054c-0.102,0.129-0.197,0.254-0.307,0.364c1.188,5.139,2.636,12.432,4.353,21.87c3.437,18.918,5.206,29.533,5.321,31.854
		c1.03,10.023,2.917,26.25,5.647,48.676c3.768,31.073,5.854,48.273,6.264,51.593l0.325,22.239c0.038,0.283,0.079,0.557,0.112,0.859
		c0.071,0.523,0.146,0.777,0.221,0.777l-0.02,119.579l-0.333,1.647l-0.176,72.322c-0.3,0.994-0.501,2.759-0.613,5.278l-0.007,41.334
		c-0.146,0.614-0.366,4.606-0.667,11.967c-0.3,7.84-0.465,12.383-0.503,13.617l-0.004,28.076
		c-0.409,11.646-0.89,20.995-1.447,28.081c-0.258,3.566-0.52,7.098-0.778,10.613l-0.333,24.591
		c0.327,14.862,0.161,24.268-0.509,28.212c-0.773,4.521-1.166,8.31-1.166,11.409l-0.45,32.636l-0.333,1.713l-0.334,33.416
		l-0.333,1.723l-0.336,23.012c-0.932,32.064-2.468,51.929-4.617,59.575C652.523,879.896,651.319,882.622,649.546,885.851z"/>
</g>
<g id="Layer_5">
	<g>
		<path fill="#00AEEF" d="M616.752,900.46c-1.26,1.521-2.815,3.366-4.664,5.555c-2.627,3.564-5.81,6.203-9.542,7.91
			c-1.965,0.906-5.312,1.868-10.042,2.924c-11.359,2.656-19.014,4.005-22.971,4.055c-4.583-0.424-9.652-0.648-15.2-0.649
			c-3.107,0-7.311,0.412-12.597,1.223c-5.617,0.847-9.741,1.319-12.372,1.411c-3.438,0.145-8.376,0.187-14.819,0.143
			c-5.984-0.093-9.265-0.146-9.817-0.146c-4.849-0.001-8.45,0.412-10.821,1.212l-25.639-0.004
			c-7.061,1.844-15.384,2.774-24.962,2.772c-0.482,0-1.035-0.023-1.666-0.076c-1.001,0.104-2.54,0.357-4.606,0.784
			c-2.222,0.434-4.016,0.694-5.383,0.782c-5.733,0.475-12.925,0.501-21.58,0.072c-11.319-0.62-18.163-0.928-20.535-0.929
			c-0.96,0-3.198,0.579-6.714,1.774c-3.474,1.136-5.876,1.717-7.214,1.717c-3.881-0.001-7.953-0.276-12.203-0.798
			c-1.479,0.436-3.344,0.623-5.604,0.571c-3.96-0.051-9.25-0.574-15.869-1.574c-3.852-0.001-8.655,0.387-14.424,1.144
			c-5.73,0.714-10.803,1.067-15.204,1.066c-1.106,0-9.989-0.669-26.639-1.999c-0.253,0-6.709,0.4-19.358,1.21
			c-12.652,0.805-20.584,1.206-23.807,1.205c-3.519,0-11.719-0.407-24.633-1.213c-13.239-0.813-20.27-1.218-21.081-1.218
			c-8.991-0.479-16.274-2.096-21.859-4.848c-0.34,0.054-0.71,0.074-1.114,0.074c-1.696,0-4.313-2.021-7.817-6.059
			c-1.744-1.477-3.542-3.138-5.39-4.996c-5.655-5.609-8.486-9.999-8.486-13.185c0-0.427,0.038-0.826,0.113-1.208
			c-3.328-5.558-5.381-10.14-6.158-13.753c-2.109-9.795-4.804-47.324-8.081-112.601c-3.579-70.74-6.008-111.74-7.302-122.995
			l0.057-351.542c4.961-27.126,7.289-47.676,7.003-61.647c-0.041-3.512-0.39-8.862-1.054-16.04
			c-0.589-6.554-0.888-12.369-0.886-17.449c0-0.956,0-1.887,0-2.784l-0.717-0.351c-0.254-3.761,0.075-8.155,1.003-13.194
			c0.375-8.362,1.075-14.225,2.113-17.593c0.737-2.519,2.029-3.833,3.878-3.919c1.596-4.467,3.445-9.25,5.558-14.326
			c7.582-18.438,14.966-32.973,22.147-43.615c8.063-11.82,15.625-20.488,22.694-26c2.107-1.612,4.195-3.022,6.273-4.206
			c-0.042-0.043-0.09-0.073-0.168-0.073v-1.497c9.478-3.606,20.009-6.604,31.631-8.967c12.279-2.521,23.121-3.786,32.512-3.785
			c12.025,0.002,29.187,0.466,51.488,1.368c7.732,0.332,14.729,0.693,20.971,1.079c3.479-0.153,7.808-0.219,12.988-0.218
			c6.654,0.001,13.053,0.504,19.194,1.5c6.141,1.004,12.641,1.509,19.478,1.51c5.328-0.378,10.862-0.766,16.594-1.139
			c11.427-0.809,18.287-1.211,20.584-1.211c3.586,0,13.795,0.641,30.628,1.935c11.244-0.382,21.229-0.27,29.964,0.355
			c0.706,0.053,1.407,0.097,2.105,0.145c0.891-0.091,1.775-0.192,2.665-0.287c10.762,0.002,20.475,0.718,29.133,2.146
			c7.696,1.237,17.972,3.634,30.841,7.202c3.481,1.003,8.438,2.876,14.871,5.635c8.063,3.476,13.204,5.616,15.422,6.423
			c6.366,2.328,12.802,7.435,19.309,15.314c2.259,2.764,4.09,5.289,5.493,7.562c6.509,7.132,12.075,16.273,16.697,27.444
			c10.022,24.327,16.748,59.646,20.178,105.966l0.718,47.888c1.104,31.215,2.006,57.029,2.703,77.468
			c1.327,38.426,2.025,61.669,2.1,69.694l-0.003,12.466c-0.187,0.576-0.408,1.128-0.664,1.646c0.33,8.219,0.605,17.888,0.823,29
			c-0.002,17.436,0.013,34.876,0.053,52.306c0.028,34.873,0.096,52.308,0.212,52.308l-0.007,40.399
			c-0.746,14.928-2.023,34.636-3.839,59.159l-0.006,31.214c0.366,26.462-0.267,56.007-1.9,88.647
			c-1.63,33.296-3.561,53.712-5.78,61.215c-2.632,8.731-5.292,14.917-7.99,18.523c-1.404,1.858-2.959,3.181-4.659,3.987
			c-0.408,0.618-0.855,1.313-1.337,2.067C620.816,895.206,619.158,897.514,616.752,900.46z"/>
	</g>
</g>
</svg>
