<?xml version="1.0" encoding="utf-8"?>
<!-- Generator: Adobe Illustrator 16.0.0, SVG Export Plug-In . SVG Version: 6.00 Build 0)  -->
<!DOCTYPE svg PUBLIC "-//W3C//DTD SVG 1.1//EN" "http://www.w3.org/Graphics/SVG/1.1/DTD/svg11.dtd">
<svg version="1.1" id="Layer_1" xmlns="http://www.w3.org/2000/svg" xmlns:xlink="http://www.w3.org/1999/xlink" x="0px" y="0px"
	 width="175.1px" height="80px" viewBox="0 0 175.1 80" enable-background="new 0 0 175.1 80" xml:space="preserve">
<g>
	<g>
		<path fill="#A82B47" d="M18.891,0.914c3.47-0.612,12.785-0.789,27.942-0.531h39.392l0.511-0.204l62.905-0.102
			c6.055,0.585,10.157,1.401,12.308,2.45c0.722,0.354,1.448,0.856,2.185,1.51c0.926,0.816,1.605,1.367,2.041,1.654
			c1.252,0.802,2.438,2.047,3.551,3.735c0.912,1.374,1.565,2.681,1.961,3.918c0.707,2.164,1.115,4.756,1.225,7.777
			c0.068,1.728,0.102,4.341,0.102,7.837c0.041,1.389,0.198,4,0.471,7.838c0.231,3.278,0.347,5.885,0.347,7.816
			c0,1.743,0.226,4.346,0.674,7.817c0.437,3.472,0.651,6.067,0.651,7.797c0,0.449,0.016,1.082,0.041,1.897
			c0,0.666-0.094,1.218-0.284,1.652c-0.312,0.705-0.968,1.365-1.97,1.98c-0.592,0.832-1.418,1.906-2.481,3.225
			c-2.381,2.938-3.877,4.545-4.489,4.816c-3.604,1.688-6.285,2.781-8.041,3.285c-4.191,1.227-10.082,2.17-17.676,2.838h-12.695
			c-0.205-0.068-2.205-0.184-6-0.348c-3.781-0.179-5.764-0.301-5.938-0.369H75.815c-0.258,0.098-1.789,0.131-4.592,0.104
			c-2.803-0.025-4.334-0.096-4.592-0.205l-20.717-0.201l-11.328,0.201c-0.843,0.082-2.776,0.191-5.797,0.328
			c-2.789,0.107-4.701,0.238-5.735,0.389L10.4,79.923c-3.034-0.178-4.994-1.285-5.878-3.326c-0.299-0.682-0.497-1.53-0.592-2.551
			c-0.054-1.074-0.109-1.805-0.164-2.186c-0.122-0.83-0.496-2.423-1.123-4.775c-0.598-2.191-0.938-3.762-1.021-4.717
			c-0.667-5.441-1.068-8.892-1.204-10.347c-0.15-1.729-0.225-4.554-0.225-8.472c0-2.857,0.327-6.477,0.979-10.857
			c0.681-4.49,1.035-8.39,1.063-11.696c0.013-1.375,0.38-3.272,1.101-5.695c0.871-2.667,1.456-4.544,1.756-5.633
			c0.956-3.453,4.512-5.947,10.664-7.481c0.221-0.113,0.436-0.239,0.643-0.377C17,1.391,17.83,1.093,18.891,0.914z"/>
	</g>
	<g>
		<g>
			<path fill="#007AA8" d="M45.466,10.957c0.163-0.436,0.748-0.681,1.755-0.735c0.762-0.027,2.81-0.021,6.144,0.021
				c0.313,0,1.007,0.04,2.082,0.122c1.075,0.068,1.918,0.136,2.531,0.204l6.103,0.061c0.082,0.014,0.123,0.041,0.123,0.082
				c0,0.027,0.108,0.041,0.327,0.041c3.415,0,6.021-0.089,7.817-0.266c1.783-0.19,3.789-0.286,6.021-0.286
				c0.449,0,1.646,0.028,3.592,0.082c2.109,0.055,3.232,0.096,3.369,0.122c6.529,0.042,9.893,0.082,10.083,0.123l22.371,0.061
				c0.106,0.028,0.938,0.055,2.489,0.082c1.563,0.041,2.396,0.068,2.49,0.082h7.448c0.095-0.014,0.442-0.055,1.042-0.123
				c0.598-0.082,1.033-0.15,1.307-0.205h1.735c0.599,0.136,1.461,0.28,2.591,0.429c1.021,0.163,1.592,0.245,1.715,0.245
				c0.19,0,0.437-0.041,0.734-0.123c0.271-0.095,0.518-0.143,0.736-0.143c0.338,0,1.107,0.034,2.305,0.102
				c0.559,0.027,1.007,0.048,1.348,0.061c-0.015-0.04-0.021-0.095-0.021-0.163c0.203,0,0.578,0.068,1.123,0.204
				c0.543,0.123,1.115,0.184,1.713,0.184c0.164,0,0.279-0.074,0.348-0.225c0.068-0.149,0.301-0.224,0.693-0.224
				c1.104,0,2.871,0.251,5.309,0.754c2.709,0.544,4.51,1.088,5.408,1.633c0.137,0.082,0.26,0.225,0.369,0.429
				c0.107,0.19,0.229,0.333,0.365,0.429c0.178,0.122,0.437,0.245,0.775,0.367c0.164,0.068,0.563,0.204,1.205,0.408
				c0.422,0.136,0.688,0.382,0.795,0.735c0,0.055,0,0.347,0,0.878c0,0.068,0,0.136,0,0.204c0.016,0,0.034,0,0.063,0
				c1.008,1.442,1.537,2.49,1.592,3.144c0.014,0.421-0.068,1.156-0.245,2.204c0,0.231,0.048,0.695,0.144,1.389
				c0.108,0.829,0.231,1.497,0.369,2c0,0.054-0.049,0.102-0.145,0.143c-0.6-0.885-0.986-1.619-1.164-2.205
				c0,0.449-0.021,1.02-0.063,1.714c-0.203,2.381-0.307,3.81-0.307,4.286c0,0.653,0.333,1.66,1,3.021
				c0.123-1.823,0.227-3.299,0.307-4.429h0.369c0.08,0.843,0.176,1.952,0.283,3.327c0.098,1.278,0.145,2.013,0.145,2.205
				c0,0.231-0.033,0.619-0.104,1.163c0.26,0.844,0.391,1.612,0.391,2.306c0,0.109,0.053,0.599,0.162,1.47
				c0.08,0.938,0.113,1.653,0.102,2.143c-0.04,0.49,0.008,1.115,0.145,1.877c0.149,0.83,0.226,1.389,0.226,1.674
				c0,0.313-0.097,0.619-0.287,0.918c-0.325,0.505-0.563,0.918-0.715,1.246c-0.107,0.271-0.144,0.681-0.103,1.226
				c0.041,0.298,0.074,0.625,0.103,0.979c0,1.563,0.067,2.674,0.204,3.326c0.068,0.342,0.138,0.885,0.203,1.633
				c0.097,0.666,0.273,1.231,0.531,1.692v5.431c0.109,0.299,0.204,0.682,0.286,1.145c0.054,0.395,0.082,0.691,0.082,0.896
				c0,0.272-0.17,0.754-0.511,1.449c-0.395,0.858-0.896,1.659-1.51,2.407c-1.307,1.578-2.771,2.578-4.389,3
				c-0.123,0.097-0.408,0.164-0.857,0.205c-0.775,0.082-2.885,0.123-6.326,0.123c-1.063,0-1.729,0.088-2,0.266
				c-0.068,0.068-0.143,0.144-0.225,0.226c0.188,0,0.396,0.021,0.61,0.063c0,0.014,0.027,0.033,0.082,0.061
				c0.068,0.027,0.103,0.103,0.103,0.226c0,0.188-0.226,0.349-0.674,0.47c-0.313,0.082-0.559,0.122-0.734,0.122
				c-0.42,0-0.694-0.067-0.816-0.204c-0.027-0.041-0.041-0.095-0.041-0.162c-1.088,0.203-2.857,0.36-5.307,0.469
				c1.539,0.068,2.584,0.246,3.145,0.533l-0.063,0.223c-0.066,0.041-0.23,0.063-0.489,0.063c-0.108,0-0.317-0.041-0.632-0.123
				c-0.299-0.094-0.477-0.168-0.53-0.225h-2.979c-3.77,0.176-6.084,0.266-6.938,0.266c-3.228,0-6.001-0.108-8.327-0.326
				c-0.83-0.065-1.464-0.135-1.898-0.203c-1.578,0.082-3.156,0.149-4.735,0.203c-0.204,0-0.823,0.123-1.856,0.367
				c-0.994,0.244-1.918,0.367-2.776,0.367c-0.707,0-1.537-0.104-2.489-0.307c-0.968-0.178-1.912-0.268-2.837-0.268
				c-6.545,0.108-9.979,0.116-10.31,0.021c-1.495,0.096-3.217,0.178-5.161,0.246c-1.976,0.08-3.416,0.121-4.328,0.121
				c-1.144,0-1.945-0.062-2.408-0.184c-0.476-0.123-0.721-0.185-0.735-0.185c-0.272,0.067-0.544,0.129-0.816,0.185
				c-0.585,0.122-1.36,0.184-2.327,0.184c-2.354,0-4.98-0.047-7.878-0.144c-2.775-0.096-5.341-0.211-7.694-0.346h-0.837
				c-0.558,0.039-1.986,0.094-4.286,0.162c-0.53,0.055-1.041,0.114-1.531,0.183c-0.19,0.028-0.483,0.09-0.877,0.186
				c-0.286,0.068-0.543,0.104-0.775,0.104c-4.449-0.055-6.994-0.063-7.634-0.021c-0.421,0-0.632-0.032-0.632-0.104
				c0.422-0.014,1.653-0.021,3.694-0.021c3.143,0,5.211-0.121,6.205-0.365c0.231-0.057,0.558-0.098,0.979-0.123h-1.082
				c-2.164,0.025-4.735,0.006-7.715-0.063c-3.551-0.08-6.361-0.146-8.429-0.203h-9.715c-2.79,0.149-4.478,0.186-5.062,0.104
				c-0.177-0.025-0.313-0.082-0.408-0.164c-0.095-0.066-0.224-0.113-0.388-0.145c-0.476-0.08-0.843-0.135-1.102-0.162
				c-0.49-0.055-1.149-0.096-1.979-0.121c-0.19-0.016-0.333-0.041-0.429-0.082c-0.082-0.068-0.156-0.115-0.225-0.145
				c-0.272-0.107-1.02-0.138-2.245-0.082c-0.708,0.016-1.442-0.007-2.204-0.062c-0.653-0.067-1.028-0.129-1.123-0.185
				c-0.122-0.082-0.278-0.285-0.469-0.61c-0.095-0.205-0.49-0.369-1.184-0.492c-1.144-0.188-1.844-0.313-2.103-0.364
				c-1.061-0.203-1.714-0.367-1.959-0.49c-0.286-0.164-0.477-0.354-0.571-0.57c-0.041-0.107-0.075-0.301-0.102-0.57
				c-0.014-0.178-0.184-0.375-0.51-0.594c-0.436-0.229-0.735-0.414-0.898-0.549c-0.231-0.164-0.586-0.498-1.062-1.002
				c-0.612-0.639-0.919-1.068-0.919-1.285c0-0.137,0.041-0.227,0.123-0.266c0.013,0,0.061-0.015,0.143-0.041
				c-0.531-0.666-0.81-1.437-0.836-2.308c0.217-1.553,0.326-2.7,0.326-3.448c0-1.226-0.055-2.097-0.163-2.613
				c-0.218-0.924-0.456-2.055-0.714-3.387c0-0.791-0.027-1.988-0.082-3.594c-0.041-0.845-0.068-1.463-0.082-1.855
				c-0.477,1.591-0.742,2.529-0.796,2.815l-0.265,0.041c0.667-4.028,1-6.839,1-8.431c0-0.096-0.088-0.348-0.266-0.754
				c-0.15-0.409-0.224-0.661-0.224-0.757c0-0.367,0.108-0.761,0.327-1.184c0.055-0.108,0.292-0.497,0.714-1.163
				c0-0.502,0.014-0.877,0.041-1.124c0.041-0.42,0.129-0.801,0.265-1.142c0-1.021-0.014-1.852-0.041-2.491
				c-0.013-0.653-0.02-1.3-0.02-1.939c0-0.095,0.047-0.55,0.143-1.367c0.122-0.939,0.197-1.613,0.224-2.021
				c0.027-0.354,0.15-0.912,0.368-1.674c0.204-0.721,0.306-1.224,0.306-1.51c0-0.123,0.027-0.185,0.082-0.185
				c0.027,0,0.082,0,0.164,0c0.326,0,0.673,0.123,1.041,0.368c0.204-0.68,0.375-1.225,0.51-1.633
				c0.068-0.258,0.313-0.572,0.735-0.939c0.421-0.394,0.912-0.734,1.469-1.02c0-0.299,0.231-0.694,0.694-1.184
				c0.449-0.503,0.674-0.81,0.674-0.918c0-0.095-0.103-0.225-0.307-0.388c-0.217-0.177-0.326-0.313-0.326-0.408
				c0-0.49,0.612-0.953,1.837-1.388c1.606-0.558,2.633-1.021,3.082-1.388c0.19-0.135,0.531-0.245,1.02-0.327
				c0.531-0.109,0.831-0.184,0.899-0.224c0.041-0.014,0.292-0.116,0.755-0.306c0.462-0.205,0.742-0.355,0.836-0.45
				c0.218-0.19,0.674-0.442,1.368-0.755c0.653-0.271,1.245-0.497,1.775-0.673c1.564-0.027,2.851-0.075,3.858-0.143
				c0.123,0,0.231-0.007,0.326-0.021c0.014-0.082,0.048-0.149,0.102-0.204c0.122-0.178,0.32-0.266,0.592-0.266
				c4.083-0.04,6.294-0.128,6.634-0.265C38.635,10.875,40.975,10.875,45.466,10.957z M18.32,13.895c0,0.082-0.762,0.558-2.286,1.429
				c-1.483,0.843-2.259,1.266-2.326,1.266c-0.259,0-0.45-0.007-0.572-0.021l-0.163-0.021c-0.041,0-0.062-0.068-0.062-0.204
				c0-0.49,0.571-0.966,1.714-1.429c0.327-0.123,0.857-0.313,1.592-0.571c0.639-0.246,1.163-0.484,1.571-0.714
				c0.095,0.026,0.217,0.04,0.368,0.04C18.266,13.684,18.32,13.761,18.32,13.895z M10.87,18.875c0-0.122,0.184-0.23,0.551-0.326
				c0.381-0.082,0.796-0.096,1.245-0.041l0.246,0.204c-0.082,0.136-0.144,0.307-0.184,0.51c-0.055,0.137-0.258,0.204-0.612,0.204
				c-0.559,0-0.926-0.089-1.103-0.265C10.918,19.094,10.87,18.997,10.87,18.875z M10.931,25.121
				c-0.081,0.245-0.122,0.755-0.122,1.531c0,0.286-0.136,0.783-0.409,1.49c-0.258,0.694-0.388,1.176-0.388,1.449
				c0,0.014,0.143,0.476,0.429,1.388c0.054,0.177,0.102,0.346,0.143,0.51c0.055-0.299,0.116-0.606,0.184-0.918
				c0.462-2.232,0.687-3.587,0.673-4.063c-0.014-0.598,0.082-1.299,0.286-2.102c0.054-0.108,0.088-0.218,0.102-0.326
				C11.38,24.299,11.081,24.645,10.931,25.121z M10.564,37.122c0-0.094-0.054-0.346-0.163-0.755
				c-0.082,0.396-0.231,0.857-0.449,1.388c-0.286,0.668-0.428,1.151-0.428,1.449c0,0.109,0.082,0.375,0.245,0.796
				c0.026,0.055,0.047,0.115,0.061,0.184v-0.918c0-0.231,0.123-0.592,0.368-1.081C10.442,37.696,10.564,37.341,10.564,37.122z
				 M161.01,13.181c0,0.136-0.033,0.252-0.102,0.347c-0.027,0.041-0.116,0.123-0.266,0.245l-0.389,0.041
				c-0.625-0.204-1.136-0.436-1.531-0.694c-0.365-0.245-0.551-0.47-0.551-0.674c0-0.122,0.082-0.204,0.245-0.244
				c0.082-0.028,0.164-0.048,0.246-0.062c0.203,0.041,0.461,0.156,0.772,0.347c0.272,0.163,0.776,0.286,1.512,0.368l0.021,0.041
				C160.996,12.95,161.01,13.046,161.01,13.181z M161.378,18.059c0.19,0.177,0.333,0.442,0.429,0.796
				c0.041,0.19,0.062,0.81,0.062,1.857c0,0.136,0.097,0.429,0.286,0.877c0.109,0.23,0.191,0.476,0.244,0.735
				c0.272-0.749,0.41-1.537,0.41-2.368c0-0.34-0.231-0.892-0.694-1.653c-0.164-0.286-0.3-0.531-0.408-0.736
				C161.637,17.734,161.527,17.896,161.378,18.059z M164.338,25.49c0.285,0,0.469,0.007,0.551,0.021
				c0.014,0,0.178,0.019,0.489,0.062l0.122,0.367c-0.109,0.082-0.361,0.19-0.756,0.327c-0.395,0.122-0.652,0.183-0.773,0.183
				c-0.272,0-0.479-0.007-0.613-0.021c-0.205-0.027-0.387-0.048-0.551-0.062l-0.123-0.387c0.232-0.15,0.564-0.272,1.002-0.368
				C164.01,25.53,164.229,25.49,164.338,25.49z M126.557,71.29c0.271,0.014,0.553,0.033,0.836,0.063
				c1.076,0.066,3.028,0.145,5.858,0.225c2.45,0.068,3.938,0.104,4.47,0.104c0.408,0,0.865-0.008,1.367-0.021
				c0.258-0.148,0.633-0.258,1.123-0.326c-1.579,0.027-3.354,0.041-5.327,0.041c-0.204,0-1.041-0.041-2.511-0.123
				c-1.482-0.096-2.327-0.143-2.531-0.143C129.326,71.106,128.23,71.167,126.557,71.29z M165.275,51.226
				c-0.176,0.764-0.266,1.334-0.266,1.716c0,0.081,0.057,0.332,0.163,0.755c-0.053-0.147-0.185-0.44-0.389-0.877
				c-0.259-0.586-0.388-0.986-0.388-1.205c0-0.408,0.026-0.815,0.082-1.225c0.067-0.395,0.103-0.938,0.103-1.633
				c0.026-0.121,0.032-0.605,0.021-1.449c-0.014-0.585,0.227-1.014,0.715-1.285c0.107,0.027,0.23,0.041,0.367,0.041
				c0.096,0.014,0.145,0.088,0.145,0.225c0,0.056-0.041,0.504-0.123,1.347c-0.082,0.886-0.131,1.545-0.145,1.979
				C165.548,49.913,165.451,50.45,165.275,51.226z M165.297,54.165c0.176,0.693,0.266,1.09,0.266,1.186
				c0,0.08-0.021,0.389-0.063,0.918c-0.041,0.518-0.063,0.896-0.063,1.145l-0.121,0.06c-0.109-0.502-0.164-1.224-0.164-2.162
				c0.025-0.896,0.041-1.401,0.041-1.51C165.221,53.907,165.255,54.03,165.297,54.165z M106.166,72.452
				c0.177,0.098,0.266,0.19,0.266,0.287c0,0.123-0.014,0.196-0.041,0.225c-0.067,0-0.108,0.014-0.123,0.043l0.062,0.02
				c0,0.014-0.129,0.021-0.388,0.021c-0.055,0-0.189-0.049-0.407-0.145c-0.259-0.123-0.408-0.189-0.449-0.203h-1.04
				c-0.082,0.096-0.164,0.17-0.246,0.225c-0.122,0.107-0.306,0.186-0.552,0.227c-0.041,0.025-0.088,0.047-0.144,0.062
				c-0.067,0.014-0.102-0.041-0.102-0.164c0-0.313,0.081-0.522,0.244-0.634c0.3-0.217,0.953-0.284,1.959-0.202
				C105.629,72.263,105.949,72.345,106.166,72.452z M87.859,73.229c0,0.055-0.129,0.082-0.388,0.082
				c-0.136,0-0.652-0.033-1.551-0.104c-1.062-0.066-2.102-0.121-3.123-0.162c-0.734-0.027-1.143-0.068-1.225-0.123
				c-2.544-0.041-3.816-0.104-3.816-0.186c1.429,0,3.442,0.055,6.042,0.164c2.422,0.108,3.755,0.19,4,0.245L87.859,73.229z
				 M119.617,72.925c-0.15,0.066-0.313,0.102-0.489,0.102c-0.179,0-0.56-0.041-1.144-0.121c-0.572-0.108-0.994-0.158-1.268-0.145
				h-0.041c-0.039-0.016-0.062-0.082-0.062-0.205c0-0.313,0.456-0.469,1.366-0.469c0.912,0,1.606,0.182,2.082,0.551
				C119.85,72.773,119.699,72.868,119.617,72.925z"/>
		</g>
		<g>
			<path fill="#00AFF0" d="M46.487,10.732c0.164-0.422,0.748-0.661,1.755-0.714c0.762-0.041,2.81-0.041,6.143,0
				c0.313,0,1.007,0.041,2.082,0.122c1.075,0.068,1.919,0.136,2.531,0.204l6.103,0.061c0.082,0.015,0.123,0.042,0.123,0.082
				c0,0.027,0.109,0.041,0.327,0.041c3.415,0,6.021-0.089,7.817-0.265c1.782-0.177,3.79-0.265,6.021-0.265
				c0.449,0,1.647,0.021,3.592,0.062c2.11,0.054,3.232,0.094,3.368,0.122c6.531,0.041,9.892,0.082,10.083,0.122l22.369,0.062
				c0.109,0.026,0.939,0.054,2.491,0.082c1.563,0.04,2.396,0.067,2.489,0.081h7.451c0.094-0.014,0.44-0.055,1.041-0.123
				c0.598-0.081,1.033-0.142,1.307-0.183h1.732c0.6,0.123,1.463,0.265,2.592,0.429c1.021,0.149,1.592,0.225,1.715,0.225
				c0.189,0,0.438-0.041,0.734-0.122c0.272-0.082,0.518-0.123,0.734-0.123c0.342,0,1.11,0.027,2.309,0.082
				c0.557,0.027,1.006,0.054,1.346,0.081c-0.012-0.054-0.02-0.108-0.02-0.163c0.204,0,0.578,0.062,1.123,0.184
				c0.545,0.123,1.115,0.184,1.713,0.184c0.164,0,0.28-0.068,0.348-0.204c0.068-0.149,0.299-0.224,0.695-0.224
				c1.102,0,2.871,0.245,5.307,0.734c2.707,0.544,4.511,1.089,5.408,1.633c0.135,0.096,0.258,0.238,0.367,0.429
				c0.107,0.205,0.23,0.347,0.367,0.429c0.176,0.123,0.436,0.251,0.776,0.388c0.162,0.055,0.563,0.185,1.202,0.388
				c0.423,0.135,0.688,0.381,0.798,0.734c0,0.055,0,0.347,0,0.877c0,0.082,0,0.157,0,0.225c0.014,0,0.032,0,0.062,0
				c1.008,1.442,1.537,2.483,1.592,3.123c0.014,0.421-0.068,1.156-0.244,2.204c0,0.245,0.047,0.708,0.143,1.388
				c0.107,0.83,0.23,1.497,0.367,2c0,0.068-0.049,0.123-0.145,0.164c-0.6-0.899-0.986-1.641-1.162-2.225
				c0,0.449-0.021,1.021-0.063,1.715c-0.204,2.381-0.308,3.81-0.308,4.286c0,0.653,0.334,1.66,1,3.02
				c0.123-1.823,0.227-3.299,0.309-4.428h0.366c0.082,0.843,0.177,1.953,0.286,3.327c0.095,1.292,0.143,2.027,0.143,2.205
				c0,0.245-0.033,0.639-0.102,1.184c0.259,0.83,0.389,1.599,0.389,2.306c0,0.109,0.055,0.598,0.163,1.47
				c0.082,0.925,0.114,1.64,0.103,2.143c-0.041,0.476,0.008,1.103,0.145,1.877c0.146,0.816,0.224,1.367,0.224,1.652
				c0,0.327-0.095,0.633-0.284,0.918c-0.328,0.518-0.565,0.94-0.715,1.266c-0.109,0.26-0.145,0.667-0.104,1.225
				c0.041,0.287,0.076,0.605,0.104,0.96c0,1.577,0.068,2.687,0.204,3.327c0.067,0.354,0.136,0.896,0.204,1.633
				c0.096,0.68,0.273,1.252,0.531,1.715v5.409c0.107,0.298,0.203,0.687,0.285,1.161c0.056,0.385,0.082,0.682,0.082,0.896
				c0,0.273-0.17,0.758-0.51,1.449c-0.396,0.858-0.898,1.66-1.511,2.41c-1.308,1.563-2.771,2.563-4.389,2.999
				c-0.123,0.082-0.409,0.15-0.857,0.203c-0.774,0.067-2.885,0.103-6.327,0.103c-1.062,0-1.729,0.09-2,0.268
				c-0.066,0.082-0.144,0.156-0.226,0.227c0.19,0.015,0.396,0.033,0.61,0.062c0,0.014,0.027,0.032,0.082,0.062
				c0.068,0.026,0.104,0.104,0.104,0.227c0,0.201-0.228,0.365-0.674,0.486c-0.313,0.082-0.56,0.123-0.735,0.123
				c-0.422,0-0.693-0.074-0.816-0.226c-0.026-0.024-0.041-0.073-0.041-0.144c-1.088,0.205-2.856,0.354-5.307,0.449
				c1.537,0.068,2.586,0.252,3.145,0.553l-0.063,0.205c-0.068,0.054-0.23,0.078-0.488,0.078c-0.109,0-0.32-0.045-0.633-0.143
				c-0.301-0.08-0.478-0.148-0.531-0.203h-2.98c-3.77,0.164-6.083,0.244-6.939,0.244c-3.225,0-6-0.107-8.328-0.326
				c-0.829-0.066-1.461-0.137-1.896-0.204c-1.578,0.097-3.156,0.164-4.734,0.204c-0.205,0.014-0.824,0.145-1.857,0.389
				c-0.993,0.229-1.918,0.347-2.775,0.347c-0.709,0-1.539-0.095-2.49-0.283c-0.967-0.19-1.912-0.287-2.838-0.287
				c-6.545,0.108-9.979,0.123-10.307,0.041c-1.497,0.097-3.217,0.179-5.164,0.246c-1.973,0.067-3.416,0.103-4.326,0.103
				c-1.145,0-1.947-0.062-2.408-0.185c-0.478-0.108-0.723-0.164-0.735-0.164c-0.272,0.056-0.544,0.108-0.816,0.164
				c-0.585,0.123-1.36,0.185-2.327,0.185c-2.354,0-4.981-0.047-7.878-0.144c-2.776-0.097-5.34-0.205-7.695-0.328h-0.837
				c-0.558,0.041-1.986,0.091-4.286,0.146c-0.53,0.055-1.041,0.123-1.53,0.203c-0.191,0.016-0.483,0.076-0.878,0.184
				c-0.286,0.068-0.544,0.104-0.775,0.104c-4.449-0.067-6.994-0.082-7.633-0.041c-0.422,0-0.633-0.033-0.633-0.104
				c0.422-0.014,1.654-0.021,3.694-0.021c3.144,0,5.212-0.113,6.205-0.347c0.231-0.055,0.558-0.096,0.979-0.123H61.96
				c-2.164,0.027-4.735,0.009-7.716-0.062c-3.551-0.096-6.361-0.163-8.429-0.204H36.1c-2.79,0.149-4.478,0.178-5.062,0.081
				c-0.177-0.026-0.313-0.073-0.409-0.144c-0.095-0.081-0.224-0.136-0.388-0.163c-0.476-0.068-0.843-0.115-1.103-0.145
				c-0.489-0.055-1.149-0.102-1.979-0.145c-0.19-0.015-0.333-0.039-0.428-0.08c-0.082-0.066-0.156-0.107-0.225-0.123
				c-0.272-0.123-1.021-0.156-2.245-0.103c-0.708,0.026-1.443,0.007-2.205-0.062c-0.653-0.055-1.027-0.108-1.123-0.162
				c-0.122-0.096-0.279-0.307-0.469-0.635c-0.095-0.203-0.49-0.367-1.184-0.49c-1.143-0.188-1.844-0.305-2.103-0.346
				c-1.062-0.203-1.714-0.375-1.959-0.511c-0.286-0.149-0.476-0.334-0.572-0.552c-0.041-0.123-0.074-0.319-0.102-0.592
				c-0.014-0.178-0.184-0.367-0.51-0.572c-0.435-0.244-0.735-0.436-0.898-0.57c-0.231-0.162-0.585-0.496-1.062-1
				c-0.612-0.641-0.918-1.063-0.918-1.268c0-0.146,0.041-0.236,0.122-0.266c0.014-0.014,0.062-0.025,0.143-0.041
				c-0.531-0.68-0.81-1.447-0.837-2.306c0.218-1.553,0.327-2.7,0.327-3.45c0-1.236-0.054-2.113-0.163-2.632
				c-0.218-0.911-0.456-2.034-0.714-3.368c0-0.803-0.027-2.007-0.082-3.611c-0.041-0.844-0.068-1.463-0.082-1.858
				c-0.476,1.595-0.742,2.537-0.796,2.838l-0.265,0.041c0.667-4.028,1-6.838,1-8.429c0-0.109-0.088-0.368-0.265-0.776
				c-0.149-0.396-0.224-0.646-0.224-0.755c0-0.354,0.109-0.749,0.326-1.184c0.055-0.094,0.293-0.477,0.714-1.143
				c0-0.503,0.014-0.885,0.041-1.143c0.041-0.423,0.129-0.803,0.266-1.144c0-1.02-0.014-1.85-0.041-2.489
				c-0.014-0.654-0.021-1.3-0.021-1.939c0-0.096,0.048-0.551,0.143-1.368c0.122-0.938,0.197-1.604,0.225-2
				c0.027-0.354,0.149-0.912,0.367-1.674c0.205-0.721,0.306-1.231,0.306-1.531c0-0.122,0.027-0.183,0.082-0.183
				c0.027,0,0.082,0,0.164,0c0.327,0,0.673,0.122,1.041,0.368c0.204-0.681,0.374-1.218,0.51-1.613
				c0.068-0.258,0.314-0.578,0.735-0.959c0.422-0.396,0.912-0.728,1.47-1c0-0.3,0.231-0.702,0.694-1.205
				c0.449-0.49,0.673-0.789,0.673-0.898c0-0.108-0.102-0.245-0.306-0.408c-0.218-0.163-0.327-0.3-0.327-0.408
				c0-0.49,0.612-0.945,1.837-1.367c1.606-0.572,2.633-1.035,3.082-1.389c0.191-0.149,0.531-0.265,1.021-0.347
				c0.53-0.095,0.829-0.163,0.897-0.204c0.041-0.027,0.292-0.136,0.755-0.327c0.463-0.191,0.742-0.333,0.837-0.429
				c0.218-0.204,0.673-0.456,1.367-0.755c0.653-0.286,1.245-0.518,1.776-0.694c1.564-0.013,2.851-0.061,3.857-0.142
				c0.123,0,0.231-0.008,0.327-0.021c0.014-0.068,0.048-0.129,0.102-0.184c0.123-0.178,0.32-0.272,0.592-0.286
				c4.082-0.041,6.293-0.122,6.634-0.245C39.656,10.672,41.996,10.664,46.487,10.732z M19.341,13.672
				c0,0.096-0.762,0.572-2.286,1.429c-1.483,0.844-2.258,1.266-2.327,1.266c-0.259,0-0.449,0-0.572,0l-0.163-0.041
				c-0.041,0-0.062-0.061-0.062-0.184c0-0.503,0.572-0.979,1.715-1.429c0.327-0.136,0.857-0.333,1.592-0.591
				c0.64-0.245,1.163-0.476,1.571-0.694c0.095,0.013,0.218,0.02,0.367,0.02C19.286,13.474,19.341,13.55,19.341,13.672z
				 M13.687,18.305l0.244,0.183c-0.081,0.15-0.143,0.32-0.184,0.51c-0.054,0.136-0.258,0.205-0.612,0.205
				c-0.558,0-0.925-0.082-1.103-0.245c-0.095-0.082-0.143-0.177-0.143-0.286c0-0.136,0.184-0.245,0.551-0.327
				C12.823,18.25,13.238,18.237,13.687,18.305z M12.85,23.856c-0.449,0.218-0.748,0.564-0.898,1.04
				c-0.081,0.259-0.122,0.769-0.122,1.531c0,0.3-0.136,0.795-0.408,1.49c-0.258,0.694-0.388,1.184-0.388,1.469
				c0,0.015,0.143,0.471,0.429,1.368c0.055,0.19,0.103,0.36,0.143,0.511c0.055-0.3,0.116-0.606,0.184-0.918
				c0.463-2.232,0.688-3.58,0.674-4.042c-0.013-0.612,0.082-1.319,0.286-2.123C12.802,24.075,12.836,23.966,12.85,23.856z
				 M11.584,36.898c0-0.082-0.054-0.334-0.163-0.755c-0.082,0.395-0.232,0.858-0.449,1.388c-0.286,0.681-0.429,1.163-0.429,1.449
				c0,0.109,0.082,0.381,0.246,0.817c0.026,0.055,0.048,0.109,0.062,0.164v-0.899c0-0.245,0.122-0.612,0.366-1.103
				C11.462,37.47,11.584,37.117,11.584,36.898z M161.662,13.55l-0.387,0.041c-0.627-0.191-1.139-0.422-1.531-0.694
				c-0.366-0.246-0.551-0.47-0.551-0.674c0-0.122,0.082-0.204,0.244-0.245c0.082-0.027,0.164-0.048,0.246-0.062
				c0.203,0.041,0.463,0.164,0.774,0.368c0.272,0.149,0.774,0.266,1.51,0.347l0.021,0.041c0.027,0.054,0.041,0.15,0.041,0.286
				c0,0.136-0.034,0.259-0.103,0.367C161.9,13.351,161.813,13.427,161.662,13.55z M162.725,17.346
				c-0.067,0.177-0.177,0.34-0.326,0.49c0.189,0.19,0.334,0.456,0.431,0.796c0.041,0.19,0.062,0.809,0.062,1.856
				c0,0.15,0.094,0.443,0.284,0.878c0.109,0.245,0.188,0.49,0.245,0.735c0.271-0.735,0.407-1.517,0.407-2.347
				c0-0.354-0.229-0.912-0.692-1.674C162.971,17.793,162.834,17.55,162.725,17.346z M163.703,25.755
				c0.232-0.15,0.566-0.272,1.002-0.368c0.326-0.068,0.544-0.102,0.652-0.102c0.285,0,0.471,0,0.551,0
				c0.015,0,0.178,0.021,0.49,0.062l0.123,0.367c-0.109,0.095-0.361,0.204-0.756,0.326c-0.396,0.137-0.652,0.204-0.775,0.204
				c-0.272,0-0.477-0.012-0.611-0.04c-0.205-0.027-0.389-0.048-0.553-0.062L163.703,25.755z M128.414,71.128
				c1.076,0.066,3.027,0.148,5.859,0.244c2.447,0.067,3.938,0.104,4.469,0.104c0.408,0,0.863-0.014,1.367-0.041
				c0.258-0.15,0.631-0.26,1.123-0.327c-1.58,0.041-3.355,0.062-5.328,0.062c-0.203,0-1.041-0.047-2.512-0.143
				c-1.482-0.082-2.326-0.123-2.529-0.123c-0.518,0-1.611,0.055-3.287,0.163C127.852,71.079,128.129,71.099,128.414,71.128z
				 M166.705,45.838c0.095,0.014,0.143,0.089,0.143,0.226c0,0.066-0.041,0.518-0.123,1.346c-0.082,0.887-0.129,1.545-0.145,1.98
				c-0.014,0.313-0.107,0.855-0.284,1.633c-0.177,0.748-0.267,1.313-0.267,1.693c0,0.082,0.056,0.334,0.164,0.756
				c-0.055-0.15-0.185-0.441-0.389-0.877c-0.259-0.586-0.388-0.986-0.388-1.205c0-0.408,0.024-0.811,0.08-1.205
				c0.067-0.395,0.104-0.943,0.104-1.65c0.026-0.109,0.033-0.594,0.021-1.449c-0.015-0.572,0.224-0.993,0.714-1.266
				C166.447,45.829,166.568,45.838,166.705,45.838z M166.215,53.573c0.027,0.109,0.061,0.23,0.102,0.368
				c0.179,0.694,0.267,1.095,0.267,1.204c0,0.08-0.021,0.381-0.062,0.896c-0.041,0.519-0.062,0.906-0.062,1.164l-0.123,0.063
				c-0.108-0.504-0.164-1.233-0.164-2.187C166.201,54.187,166.215,53.681,166.215,53.573z M107.412,72.739
				c-0.066,0-0.109,0.015-0.123,0.041l0.063,0.021c0,0.025-0.129,0.041-0.389,0.041c-0.053,0-0.189-0.049-0.408-0.145
				c-0.259-0.123-0.408-0.189-0.449-0.203h-1.041c-0.082,0.096-0.164,0.162-0.246,0.203c-0.12,0.108-0.305,0.19-0.551,0.246
				c-0.041,0.026-0.088,0.039-0.143,0.039c-0.068,0.028-0.104-0.025-0.104-0.162c0-0.313,0.082-0.519,0.246-0.613
				c0.299-0.217,0.951-0.291,1.959-0.223c0.422,0.055,0.741,0.141,0.959,0.264c0.178,0.082,0.266,0.172,0.266,0.268
				C107.453,72.638,107.439,72.712,107.412,72.739z M86.94,73.005c-1.062-0.08-2.103-0.137-3.123-0.162
				c-0.735-0.041-1.144-0.09-1.225-0.145c-2.544-0.027-3.817-0.09-3.817-0.185c1.429,0,3.442,0.062,6.042,0.185
				c2.423,0.096,3.755,0.178,4,0.244l0.063,0.063c0,0.055-0.129,0.082-0.389,0.082C88.355,73.087,87.839,73.06,86.94,73.005z
				 M120.148,72.802c-0.178,0-0.56-0.041-1.145-0.123c-0.57-0.096-0.992-0.137-1.265-0.123l-0.041-0.021
				c-0.041,0-0.063-0.062-0.063-0.185c0-0.326,0.456-0.489,1.367-0.489c0.913,0,1.605,0.19,2.082,0.571
				c-0.219,0.136-0.368,0.226-0.447,0.267C120.488,72.767,120.324,72.802,120.148,72.802z"/>
		</g>
	</g>
	<g>
		<rect x="24.035" y="22.897" fill="#FFFFFF" width="130.261" height="35.943"/>
	</g>
</g>
</svg>
