<?xml version="1.0" encoding="utf-8"?>
<!-- Generator: Adobe Illustrator 16.0.0, SVG Export Plug-In . SVG Version: 6.00 Build 0)  -->
<!DOCTYPE svg PUBLIC "-//W3C//DTD SVG 1.1//EN" "http://www.w3.org/Graphics/SVG/1.1/DTD/svg11.dtd">
<svg version="1.1" id="Layer_1" xmlns="http://www.w3.org/2000/svg" xmlns:xlink="http://www.w3.org/1999/xlink" x="0px" y="0px"
	 width="247px" height="112px" viewBox="0 0 247 112" enable-background="new 0 0 247 112" xml:space="preserve">
<ellipse fill="#FFFFFF" cx="6.745" cy="73.29" rx="6.5" ry="6.679"/>
<ellipse fill="#FFFFFF" cx="241.244" cy="18.11" rx="6" ry="7.5"/>
<path fill="#FFFFFF" d="M13.245,73.29c96,11.32,165.628-19.031,193.814-37.105s40.186-18.074,40.186-18.074
	s-89.766,41.957-131,52.857C75.011,81.868,13.245,73.29,13.245,73.29z"/>
<text transform="matrix(1.0088 -0.1583 0.155 0.9879 22.8071 99.9688)" fill="#FFFFFF" font-family="'HappySans'" font-size="47.7438" letter-spacing="1.959">C</text>
<text transform="matrix(1 0 0 1 87.2446 89.6104)" fill="#FFFFFF" font-family="'HappySans'" font-size="48" letter-spacing="2">L</text>
<text transform="matrix(1.0088 -0.1583 0.155 0.9879 136.8066 79.9688)" fill="#FFFFFF" font-family="'HappySans'" font-size="47.7438" letter-spacing="1.959">i</text>
<text transform="matrix(1.0088 -0.1583 0.155 0.9879 170.8066 70.9678)" fill="#FFFFFF" font-family="'HappySans'" font-size="47.7438" letter-spacing="1.959">c</text>
<text transform="matrix(1.0088 -0.1583 0.155 0.9879 216.8066 43.9697)" fill="#FFFFFF" font-family="'HappySans'" font-size="47.7438" letter-spacing="1.959">k</text>
</svg>
