<?xml version="1.0" encoding="utf-8"?>
<!-- Generator: Adobe Illustrator 16.0.0, SVG Export Plug-In . SVG Version: 6.00 Build 0)  -->
<!DOCTYPE svg PUBLIC "-//W3C//DTD SVG 1.1//EN" "http://www.w3.org/Graphics/SVG/1.1/DTD/svg11.dtd">
<svg version="1.1" id="Layer_1" xmlns="http://www.w3.org/2000/svg" xmlns:xlink="http://www.w3.org/1999/xlink" x="0px" y="0px"
	 width="496px" height="361px" viewBox="0 0 496 361" enable-background="new 0 0 496 361" xml:space="preserve">
<path fill="#A72B47" d="M1.895,95.865c-0.752-10.526-1.511-44.358,0-36.09s1.516-27.819,1.516-27.819s9.01-11.59,15.777-17.825
	S37.233,3.383,47.008,3.383s36.841,1.503,51.127,0s33.083,0,42.105,0s56.392-7.351,67.669-0.668s37.594-0.835,53.383,2.924
	C277.083,9.398,381.834,8.646,396,10.15s52.512,5.703,60.03,3.979s19.548-5.043,24.812,0s8.271,8.051,11.278,17.073
	s3.76,39.85,3.008,73.684s3.551,83.458,0.271,103.007s-0.272,79.698-2.527,97.744s-4.512,30.827-11.278,34.587
	s-27.067,9.022-36.842,9.022s-54.135,3.009-63.158,4.512c-9.021,1.503-84.21-2.255-105.263,0s-81.203,6.767-100,6.015
	s-70.677-0.586-82.707,0.083S44,356.766,37.985,355.263s-21.053-10.525-21.805-22.556s-6.015-78.196-6.015-84.211"/>
<path fill="#08AAE9" d="M32.846,28.019c0,0,3.697-16.453,12.72-13.445s72.901-0.443,72.901-0.443L183.85,16
	c0,0,59.488-0.393,83.15,1c23.662,1.393,57.451,4,67.978,4s57.895,0,57.895,0s37.571-0.437,47.351-0.065s12.8-7.734,24.83,0.139
	s10.525,43.211,7.519,52.234s0.479,35.338,2.119,54.887s-1.641,98.496,0,118.045s0.059,48.121,0.474,56.392
	s-2.592,23.308-16.878,27.819s-45.113,6.015-75.188,6.767s-139.85-2.256-154.887,0s-62.406,1-77.443,0.124
	s-45.865,0.165-67.669,1.148s-40.601,10.295-46.616,0s-5.255-11.799-7.635-32.1s2.628-56.391,1-76.691S35.178,159.022,32.07,150
	s1.604-107.519,0-111.278S32.846,28.019,32.846,28.019z"/>
</svg>
