<?xml version="1.0" encoding="utf-8"?>
<!-- Generator: Adobe Illustrator 16.0.0, SVG Export Plug-In . SVG Version: 6.00 Build 0)  -->
<!DOCTYPE svg PUBLIC "-//W3C//DTD SVG 1.1//EN" "http://www.w3.org/Graphics/SVG/1.1/DTD/svg11.dtd">
<svg version="1.1" id="Layer_1" xmlns="http://www.w3.org/2000/svg" xmlns:xlink="http://www.w3.org/1999/xlink" x="0px" y="0px"
	 width="615.2px" height="337.3px" viewBox="0 0 615.2 337.3" enable-background="new 0 0 615.2 337.3" xml:space="preserve">
<symbol  id="FGJ" viewBox="-188.804 -51.228 377.608 102.457">
	<path fill="#872339" d="M12.696,28.379c8.966,4.566,18.466,7.25,28.5,8.051c6.233,0.467,11.533,0.032,15.9-1.301
		c6.1-1.899,12.3-6.116,18.6-12.649c2.267-2.333,3.75-4.449,4.45-6.351c-0.633-0.399-1.367-0.066-2.2,1
		c-4.667,5.867-9.317,10.101-13.95,12.7c-3.9,2.232-8.283,3.717-13.15,4.45c-4.467,0.633-9.133,0.616-14-0.051
		c-7.5-1.066-16.283-4.066-26.35-9c-2.4-1.199-4.217-2.083-5.45-2.649c-2.1-0.934-3.966-1.649-5.6-2.149
		c-3.767-1.167-8.167-1.7-13.2-1.601c-2.867,0.034-7.35,0.417-13.45,1.149c-8.533,1.033-15.367,1.75-20.5,2.149
		c-7.533,0.566-14.383,0.733-20.55,0.5c-15.467-0.566-28.767-3.566-39.9-9c2.8-2.1,5.867-3.6,9.2-4.5
		c2-0.566,5.733-1.133,11.2-1.699c9.467-1,18.867-2.917,28.2-5.75c1.867-0.533,3.083-1.268,3.65-2.2
		c0.633-1.033,0.617-2.217-0.05-3.55c-0.566-1.134-1.45-2.167-2.65-3.101c-3.733-3-7.95-4.966-12.65-5.899
		c-2.067-0.434-4.45-0.684-7.15-0.75c-1.267-0.033-3.684-0.018-7.25,0.05c-16.533-0.3-28.934-0.435-37.2-0.399
		c-14.6,0-26.85,1.167-36.75,3.5c-2.767,0.667-4.833,1.149-6.2,1.45c-2.4,0.467-4.517,0.717-6.35,0.75
		c-2.267,0-4.367-0.384-6.3-1.15c-2.133-0.833-3.8-2.05-5-3.649c-1.2-1.601-2.033-3.649-2.5-6.149
		c-0.933-4.633-0.517-8.533,1.25-11.7c2.034-3.5,5.617-6,10.75-7.5c1.667-0.5,3.85-0.967,6.55-1.398c3.6-0.567,5.8-0.936,6.6-1.102
		c-5.833-0.267-10.35-0.032-13.55,0.7c-5.167,1.2-8.967,3.518-11.4,6.95c-1.967,2.732-2.983,6.133-3.05,10.199
		c0,3.333,0.767,6.417,2.3,9.25c1.633,3.033,3.833,5.217,6.6,6.551c2.8,1.333,6.2,1.782,10.2,1.35c1.667-0.199,5.2-0.917,10.6-2.148
		c9.533-2.233,21.333-3.4,35.4-3.5c7.934-0.034,19.883,0.05,35.85,0.25c4.267-0.067,7.05-0.083,8.35-0.051
		c3.167,0.066,5.933,0.366,8.3,0.899c4.8,1.133,9.034,3.284,12.7,6.45c0.667,0.532,0.983,1.05,0.95,1.55
		c-0.034,0.601-0.534,1.101-1.5,1.5c-4.8,2.2-13,4.083-24.6,5.649c-10.967,1.467-19.033,3.601-24.2,6.399
		c-0.9,0.468-1.583,1.018-2.05,1.65c-0.567,0.767-0.684,1.5-0.35,2.199c0.2,0.467,0.8,0.95,1.8,1.45
		c6.1,2.768,12.967,4.851,20.6,6.25c6.233,1.133,13.417,1.883,21.55,2.25c5.033,0.232,9.316,0.268,12.85,0.101
		c2.633-0.134,5.784-0.45,9.45-0.95c2.1-0.268,5.25-0.684,9.45-1.25c5.566-0.667,10.867-1.149,15.9-1.45
		c4.033-0.232,7.433-0.267,10.2-0.1c3.7,0.232,7,0.866,9.9,1.899c1.566,0.566,3.466,1.417,5.7,2.55
		C8.379,26.112,10.229,27.079,12.696,28.379z M36.746,0.279l0.025,0.024c0.008,0.025,0.016,0.051,0.025,0.074
		c0.067,0.167,0.284,0.351,0.65,0.551l0.5,0.649c0.267,0.268,0.733,0.534,1.4,0.8c0.167,0.167,0.383,0.417,0.65,0.75
		c0.273,0.273,0.715,0.581,1.325,0.926l-0.025,0.024c0.075,0.169,0.208,0.229,0.4,0.175c0.016,0.009,0.033,0.017,0.05,0.025
		c0.433,0.366,0.767,0.517,1,0.449c0.167-0.033,0.283-0.167,0.35-0.399c0.033-0.167,0.017-0.333-0.05-0.5
		c-0.021-0.083-0.121-0.225-0.3-0.425c1.043-1.114,2.01-2.489,2.9-4.125c0.7-1.268,1.5-3.033,2.4-5.301
		c4.434-10.833,7.9-21.917,10.4-33.25c0.966-4.333,1.233-7.732,0.8-10.199c-3.633,14.866-7.9,29.366-12.8,43.5
		c-0.733,2-1.3,3.467-1.7,4.399c-0.742,1.561-1.592,3.034-2.55,4.425l-0.95-0.875c-0.8-0.866-1.367-1.399-1.7-1.601l-0.6-0.35
		c-0.167-0.2-0.317-0.333-0.45-0.4c-0.091-0.075-0.183-0.126-0.275-0.149c1.084-1.426,2.226-3.441,3.425-6.05
		c2.5-5.2,4.733-10.301,6.7-15.301c2.566-6.434,4.917-13.066,7.05-19.899c0.934-2.935,1.55-5.232,1.85-6.899
		c0.133-0.533,0.133-0.966,0-1.3c-0.02-0.08-0.045-0.154-0.075-0.226c1.169,0.045,2.661,0.403,4.475,1.074
		c19.167,6.9,40.483,12.95,63.95,18.15c16.51,3.661,36.034,7.295,58.575,10.899l1.851,5.3c-25.015-3.729-49.772-8.961-74.275-15.699
		c-12.1-3.367-28.7-8.468-49.8-15.301c5.033,2.7,12.333,5.684,21.9,8.95c33.386,11.194,67.952,19.429,103.7,24.699
		c-0.019,0.104-0.035,0.22-0.05,0.351c0,0.7-0.018,1.134-0.05,1.301l-0.101,0.649c-0.066,0.268,0.033,0.435,0.301,0.5l0.199,0.05
		l0.2,0.101c0.2,0,0.383-0.083,0.55-0.25s0.233-0.351,0.2-0.55l-0.1-0.301l-0.051-0.601c0.067-0.434,0.051-0.816-0.05-1.149
		c-0.133-0.5-0.333-0.816-0.6-0.949c-0.191,0.144-0.333,0.394-0.425,0.75c-0.033-0.227-0.059-0.442-0.075-0.65
		c0.013-0.013,0.03-0.029,0.05-0.05c0.167-0.133,0.167-0.466,0-1c-0.041-0.091-0.083-0.19-0.125-0.3
		c0.006-0.118,0.014-0.234,0.025-0.351c-0.056-0.009-0.113-0.017-0.176-0.024c-0.203-0.606-0.412-1.382-0.625-2.325
		c-0.324-1.333-0.616-2.3-0.875-2.899c0.323,0.048,0.647,0.1,0.976,0.149c-0.2-0.133-0.367-0.268-0.5-0.399
		c-0.294-0.245-0.562-0.471-0.8-0.676v-0.024c-0.307-0.274-0.564-0.518-0.775-0.726l-0.025-0.024
		c-0.055-0.051-0.104-0.102-0.149-0.149c-0.173-0.16-0.307-0.293-0.4-0.399c-0.031-0.032-0.049-0.064-0.05-0.101
		c0,0.119,0,0.26,0,0.425c-20.852-3.634-37.202-6.676-49.05-9.125c-26.268-5.467-49.6-11.532-70-18.199
		c-3.533-1.134-6.083-1.833-7.65-2.101c-0.467-0.101-0.85-0.065-1.15,0.101c-0.167,0.101-0.267,0.268-0.3,0.5
		c-0.005,0.032-0.005,0.066,0,0.101c-0.224,0.201-0.407,0.568-0.55,1.1c-0.8,3.667-2.133,8.301-4,13.9
		c-1.167,3.532-2.65,7.667-4.45,12.399l-5.9,15.101c-0.833,2.1-1.433,3.532-1.8,4.3c-0.6,1.228-1.233,2.301-1.9,3.226
		c-0.098,0.027-0.181,0.069-0.25,0.125c-0.227,0.171-0.319,0.361-0.275,0.574L36.746,0.279z M48.596,8.229
		c0.333,0.134,0.85,0.184,1.55,0.149c0.367,0,1.167,0.117,2.4,0.351c1.067,0.232,2.217,0.351,3.45,0.351
		c0.039-0.021,0.056-0.053,0.05-0.101c9.208,2.22,19.225,5.119,30.05,8.7c7.566,2.532,19.233,6.717,35,12.55
		c10.434,3.899,18.283,6.967,23.551,9.2c7.981,3.402,15.04,6.869,21.175,10.399c-0.04,0.483-0.065,0.95-0.075,1.4
		c0.167-0.034,0.283-0.185,0.35-0.45c0.062-0.239,0.119-0.472,0.176-0.7c0.331,0.181,0.656,0.363,0.975,0.55
		c-0.303-0.236-0.611-0.471-0.925-0.699c3.369-13.21,7.044-26.21,11.024-39c1.367-4.399,2.551-7.75,3.551-10.051
		c1.566-3.6,3.383-6.583,5.449-8.949c0.801-1.033,1.066-1.833,0.801-2.399c-1.168,0.032-2.333,0.866-3.5,2.5
		c-2,2.8-3.783,6.133-5.351,10c-1.1,2.699-2.315,6.3-3.649,10.8c-2.566,8.667-4.934,17.667-7.101,27
		c-0.928,3.851-1.495,7.101-1.7,9.75c-3.051-2.213-6.9-4.497-11.55-6.85c-7.732-3.935-16.649-7.833-26.75-11.7
		c-6.333-2.468-15.5-5.768-27.5-9.9c-10.7-3.731-18.883-6.417-24.55-8.05c-9.167-2.633-17.55-4.434-25.15-5.399
		c0.509,0.11,1.018,0.229,1.525,0.351c-1.045-0.088-2.12-0.088-3.225,0L48.596,8.229z M71.446,3.379c5.1,1.4,10.2,2.9,15.3,4.5
		c5.633,1.768,10.9,3.483,15.8,5.15c6.233,2.1,15.583,5.25,28.05,9.449c9.722,3.178,18.421,5.744,26.101,7.7l-0.05,0.649
		c0,0.355,0.008,0.656,0.024,0.899C125.178,20.524,93.369,10.79,61.246,2.528c8.233,2.866,21.583,7.133,40.05,12.8
		c17.435,5.3,30.784,9.633,40.05,13c4.5,1.601,7.518,2.649,9.051,3.149c2.767,0.867,5.332,1.5,7.699,1.899
		c-0.167-0.333-0.25-0.732-0.25-1.199c-0.041-0.026-0.083-0.053-0.125-0.075l0.025-0.024l0.1-0.45v-0.899
		c0.01-0.069,0.025-0.153,0.051-0.25c0.049,0.021,0.099,0.037,0.149,0.051c0.067-0.4,0.167-0.817,0.3-1.25l-0.1-0.025
		c-0.026-0.26-0.076-0.45-0.15-0.574c-0.066-0.134-0.133-0.218-0.199-0.25l-0.25-0.051c-0.233,0-0.4,0.051-0.5,0.15
		c-0.056,0.055-0.089,0.164-0.101,0.324l-71.2-22.675c-3.3-1-5.667-1.667-7.1-2C76.046,3.546,73.613,3.279,71.446,3.379z
		 M158.396,19.229c-0.601-0.066-1.083-0.018-1.45,0.149l-0.25,0.101l-0.25-0.101l-0.95-0.699c-0.268-0.2-0.467-0.417-0.6-0.649
		c-0.101-0.2-0.15-0.533-0.15-1l0.05-0.601c0.167-0.434,0.518-0.732,1.05-0.899c0.268-0.067,0.733-0.101,1.4-0.101
		c0.3,0,0.533,0.032,0.7,0.101c0.2,0.1,0.367,0.232,0.5,0.399c0.367,0.268,0.6,0.566,0.7,0.899c0.1,0.232,0.133,0.55,0.1,0.95
		c-0.033,0.532-0.033,0.883,0,1.05C158.946,18.829,158.663,18.962,158.396,19.229z M159.746,19.729c0.333-0.3,0.5-0.833,0.5-1.601
		c0.067-0.667,0.017-1.3-0.15-1.899c-0.167-0.699-0.517-1.217-1.05-1.55c-0.6-0.434-1.583-0.551-2.95-0.351l-1.149,0.2
		c-0.333,0.133-0.55,0.267-0.65,0.399c-0.167,0.167-0.283,0.5-0.35,1c-0.067,0.333-0.101,0.851-0.101,1.55
		c0,0.367,0.051,0.649,0.15,0.851c0.067,0.101,0.383,0.399,0.95,0.899l0.899,1c0.467,0.399,0.883,0.533,1.25,0.399
		c0.2-0.032,0.467-0.149,0.801-0.35c0.133-0.067,0.449-0.134,0.949-0.2C159.246,20.013,159.546,19.896,159.746,19.729z
		 M160.946,10.529c0.065,0.066,0.2,0.116,0.399,0.149v0.101l0.5-0.25c0.033-0.033,0.083-0.101,0.15-0.2l0.05-0.101v-0.101l-0.3-0.5
		h-0.8c-0.2,0.268-0.268,0.468-0.2,0.601l0.05,0.149L160.946,10.529z M156.546,6.829c0.367,0,0.65-0.033,0.851-0.101
		c0.699-0.232,1.082-0.717,1.149-1.449c0-0.533-0.167-1.018-0.5-1.45c-0.167-0.268-0.367-0.5-0.6-0.7
		c-0.167-0.133-0.483-0.3-0.95-0.5c-1.133-0.467-2-0.667-2.6-0.6c-0.468,0.032-0.867,0.199-1.2,0.5
		c-0.4,0.333-0.583,0.717-0.55,1.149c0,0.167,0.05,0.333,0.149,0.5c0.101,0.133,0.284,0.232,0.55,0.3
		c0.268,0.065,0.45,0.134,0.551,0.2c0.399-0.065,0.55-0.218,0.449-0.45c0-0.033-0.1-0.149-0.3-0.351c-0.167-0.167-0.2-0.3-0.1-0.399
		c0.767-0.167,1.532-0.083,2.3,0.25c0.6,0.268,1.232,0.7,1.899,1.301c-0.032,0.467-0.383,0.699-1.05,0.699
		c-0.767-0.101-1.217-0.116-1.35-0.05c0.033-0.232-0.133-0.351-0.5-0.351c-0.4,0-0.7,0.05-0.9,0.149c-0.3,0.2-0.434,0.434-0.399,0.7
		c0.065,0.268,0.232,0.449,0.5,0.55c0.366,0.167,0.833,0.217,1.399,0.149L156.546,6.829z M157.496-5.57
		c-0.367-0.533-0.95-0.982-1.75-1.351c-0.8-0.333-1.5-0.482-2.1-0.45c-0.801,0.033-1.533,0.367-2.2,1
		c-0.268,0.167-0.483,0.45-0.65,0.851c-0.033,0.101-0.05,0.617-0.05,1.551c0,0.967,0.017,1.5,0.05,1.6
		c0.067,0.233,0.284,0.634,0.65,1.2c0.267,0.399,0.517,0.667,0.75,0.8c0.267,0.134,0.6,0.167,1,0.101c0.1-0.033,0.433-0.133,1-0.3
		c1.367-0.5,2.25-0.934,2.649-1.301c0.533-0.467,0.867-1.05,1-1.75C157.979-4.354,157.863-5.004,157.496-5.57z M155.446-2.021
		c-0.3,0.232-0.534,0.351-0.7,0.351c-0.133,0-0.317-0.033-0.55-0.101c-0.233-0.101-0.417-0.133-0.55-0.101
		c-0.268,0.101-0.45,0.167-0.551,0.2c-0.199,0-0.417-0.149-0.649-0.45c-0.101-0.267-0.268-0.449-0.5-0.55
		c0.133-0.232,0.167-0.649,0.1-1.25c-0.033-0.565,0.05-0.966,0.25-1.2c0.233-0.267,0.617-0.399,1.15-0.399
		c0.2-0.033,0.5-0.05,0.899-0.05c0.434,0.066,0.816,0.167,1.15,0.3c0.433,0.167,0.717,0.367,0.85,0.601
		c0.2,0.232,0.283,0.55,0.25,0.95c-0.033,0.333-0.149,0.649-0.35,0.949C156.179-2.638,155.913-2.388,155.446-2.021z M141.746-7.521
		c-0.04-0.052-0.09-0.103-0.15-0.149c0.116-0.072,0.199-0.222,0.25-0.45c0-0.3,0.033-0.517,0.101-0.649l0.399-0.55
		c0.033-0.065,0.033-0.25,0-0.551c0-0.231,0.033-0.399,0.101-0.5c0.02-0.041,0.037-0.083,0.05-0.125
		c0.037,0.01,0.07,0.019,0.1,0.025c-0.018-0.033-0.033-0.066-0.05-0.101c-0.146-0.293-0.271-0.577-0.375-0.851
		c-0.073-0.253-0.131-0.503-0.175-0.75c-0.022-0.103-0.039-0.202-0.05-0.3c-0.034-0.301-0.034-0.583,0-0.851
		c-0.167,0.066-0.284,0.167-0.351,0.3c-0.066,0.134-0.066,0.315,0,0.551c0.01,0.071,0.018,0.139,0.025,0.199
		c-12.979-3.375-20.886-5.44-23.725-6.199c-13.378-3.694-25.062-7.303-35.05-10.825c-0.03-0.235-0.13-0.411-0.3-0.524
		c-0.667,0-1.133,0.25-1.4,0.75c-0.1,0.3-0.15,0.601-0.15,0.899c-0.033,0.399-0.167,0.851-0.4,1.351l-0.45,1.05
		c-0.167,0.467-0.233,0.95-0.2,1.45c0.066,0.3,0.183,0.449,0.35,0.449s0.217,0.033,0.15,0.101c0.333-0.066,0.716-0.333,1.15-0.8
		c0.467-0.5,0.85-0.783,1.15-0.851h0.575c-0.028,0.031-0.053,0.063-0.075,0.101c0.167,0.366,0.717,0.699,1.65,1
		c1.733,0.467,3.45,1.282,5.15,2.449c0.333-0.066,0.467-0.282,0.4-0.649c-1.567-1.268-3.284-2.25-5.15-2.949
		c-0.211-0.088-0.412-0.155-0.6-0.2c0.288-0.311,0.305-0.577,0.05-0.8c-0.067-0.067-0.25-0.134-0.55-0.2
		c-0.934-0.065-1.65-0.101-2.15-0.101c0.333-0.435,0.583-1.066,0.75-1.899c0.05-0.213,0.067-0.396,0.05-0.55
		c0.432,0.658,1.349,1.259,2.75,1.8c9.566,3.566,20.633,7.117,33.2,10.649c4.605,1.278,12.088,3.263,22.45,5.95
		c0,0.126,0,0.275,0,0.449c0,0.233-0.067,0.583-0.2,1.051c-0.133,0.467-0.2,0.816-0.2,1.05c0,0.076,0.009,0.149,0.025,0.226
		c-0.128-0.051-0.271-0.092-0.425-0.125c-17.567-4.101-35.667-8.815-54.3-14.149c0.6,0.366,1.25,0.649,1.95,0.851
		c7.033,2.532,17.783,5.732,32.25,9.6l7.801,2.102c4.566,1.231,8.982,2.383,13.25,3.449c0.232-0.032,0.399-0.184,0.5-0.449
		C141.963-7.038,141.913-7.288,141.746-7.521z M114.646-3.271c0.267,0,0.467-0.083,0.6-0.25c0.133-0.199,0.117-0.417-0.05-0.649
		c-0.034-0.065-0.2-0.216-0.5-0.45c-1.101-0.699-2.917-1.449-5.45-2.25l-1.2-0.25c-0.6-0.1-1.216,0-1.85,0.301
		c-0.067,0.3,0.065,0.616,0.399,0.949c0.101,0.066,0.434,0.184,1,0.351c0.667,0.168,1.601,0.518,2.801,1.051
		c1,0.532,1.782,0.883,2.35,1.05C113.479-3.254,114.113-3.204,114.646-3.271z M65.146-7.421l1.3,0.351
		c1.5,0.268,2.633,0.351,3.4,0.25c0.367,0,0.633-0.117,0.8-0.351c0.167-0.232,0.1-0.5-0.2-0.8c-0.133-0.167-0.383-0.301-0.75-0.4
		c-1.467-0.467-3.55-0.833-6.25-1.1l-0.6,0.05c-0.267,0.066-0.4,0.217-0.4,0.45c0,0.3,0.283,0.517,0.85,0.649
		C63.729-8.188,64.346-7.888,65.146-7.421z M65.446-14.921c1.367,0.566,2.883,1.333,4.55,2.3c0.533,0.301,0.917,0.45,1.15,0.45
		c0.467,0.133,0.817-0.033,1.05-0.5c-0.2-0.367-0.617-0.75-1.25-1.149c-1.467-0.634-2.55-1.149-3.25-1.551
		c-0.367-0.199-0.583-0.316-0.65-0.35c-0.033,0-0.316-0.051-0.85-0.15c-0.467-0.133-0.817-0.199-1.05-0.199
		c-0.4-0.065-0.683,0.083-0.85,0.449C64.429-15.487,64.813-15.254,65.446-14.921z M72.396-34.07c-0.167-0.399-0.6-0.732-1.3-1
		c-1.067-0.367-2.15-0.468-3.25-0.301c-0.125,0.036-0.242,0.069-0.35,0.101c0.125-0.376,0.008-0.742-0.35-1.101
		c-0.4,0-0.683,0.051-0.85,0.15l-0.35,0.449c-0.367,0.732-0.617,1.467-0.75,2.2l-0.15,0.699c-0.05,0.398-0.075,0.766-0.075,1.101
		c-0.061-0.021-0.119-0.035-0.175-0.05c-0.367,0-0.566,0.116-0.6,0.351c0.27,0.28,0.553,0.54,0.85,0.774
		c0.059,0.229,0.143,0.371,0.25,0.425c0.12,0.045,0.236,0.054,0.35,0.024c1.295,0.878,2.795,1.354,4.5,1.426
		c0.434,0,0.717-0.083,0.85-0.25c0.033-0.033,0.1-0.232,0.2-0.601c0.066-0.768,0.267-1.466,0.6-2.101
		c0.133-0.268,0.317-0.649,0.55-1.149C72.513-33.354,72.529-33.737,72.396-34.07z M70.296-31.871
		c-0.267,0.801-0.383,1.417-0.35,1.851c-1.346-0.229-2.629-0.629-3.85-1.199c0-0.05,0-0.1,0-0.15c0-0.399,0.05-0.667,0.15-0.8
		c0.067-0.133,0.167-0.3,0.3-0.5c0.067-0.167,0.1-0.399,0.1-0.7c0.067-0.133,0.2-0.3,0.4-0.5c0.216,0.058,0.516,0.04,0.9-0.05
		c0.933-0.2,1.85-0.133,2.75,0.2C70.729-33.32,70.596-32.704,70.296-31.871z"/>
</symbol>
<symbol  id="FXGH" viewBox="-129.999 -98.537 259.998 197.075">
	<path fill="#872339" d="M52.635,65.962c-2.633-1.967-4.833-3.8-6.6-5.5c-1.5-1.435-3.4-3.45-5.7-6.05
		c-2.833-3.134-4.917-5.768-6.25-7.9c-0.5-0.833-1.15-2-1.95-3.5c-0.933-1.7-1.583-2.867-1.95-3.5c-0.767-1.399-2.133-3.566-4.1-6.5
		l-9.5-14.199c3.367-2.7,6.017-4.717,7.95-6.051c3.034-2.066,5.917-3.683,8.65-4.85c3.233-1.367,6.45-2.167,9.65-2.4
		c3.533-0.267,6.75,0.218,9.65,1.45c1.533,0.633,3.733,1.815,6.6,3.55c1.6,0.801,2.65,1.483,3.15,2.051
		c0.333,0.366,0.65,0.866,0.95,1.5c0.3,0.732,0.517,1.283,0.65,1.649c1.4,3.934,3.15,7.667,5.25,11.2c3.1,5.066,6.367,8.232,9.8,9.5
		c2.4,7.633,2.783,15.383,1.15,23.25c-1.367,6.467-4.066,10.517-8.1,12.149c-2.233,0.9-4.817,0.983-7.75,0.25
		C60.952,71.262,57.103,69.228,52.635,65.962z M68.535,74.611c2.167-0.133,4.1-0.684,5.8-1.649c4.733-2.667,7.55-8.117,8.45-16.351
		c0.867-6.866,0.534-13.267-1-19.199c3.4,1.1,6.067,1.899,8,2.399c2.934,0.768,5.649,1.284,8.149,1.549
		c6.2,0.733,11.617-0.017,16.25-2.25c3.268-1.633,6.551-4.351,9.851-8.149c3.434-4.034,5.367-7.784,5.8-11.25
		c0.2-1.333,0.217-2.833,0.05-4.5c-0.1-1-0.333-2.482-0.7-4.45l-4.85-26.8c-0.833-4.435-1.633-7.784-2.4-10.05
		c-1.267-3.601-2.982-6.483-5.149-8.65c-1.167-1.167-2.65-2.3-4.45-3.399c-1.133-0.633-2.817-1.5-5.05-2.601
		c-3.601-1.767-6.434-2.982-8.5-3.649c-3.268-1.066-6.25-1.467-8.95-1.199c-2.967,0.267-5.983,1.35-9.05,3.25
		c-2.267,1.399-4.833,3.434-7.7,6.1c-2,1.768-3.483,2.9-4.45,3.4c-2.5,1.199-5.35,1.316-8.55,0.35
		c-3.167-0.933-6.017-2.75-8.55-5.449c-2.333-2.434-4.183-5.351-5.55-8.75c-1.133-2.867-2-6.184-2.6-9.95
		c-0.367-2.366-0.733-5.816-1.1-10.351l-1.35-16.5c-0.333-3.967-0.867-6.866-1.6-8.699c-1.233-3.268-3.184-5.384-5.85-6.351
		c1.3,2.367,2.1,3.934,2.4,4.7c0.8,2,1.35,4.366,1.65,7.1c0.167,1.268,0.317,3.75,0.45,7.45c0.3,7.268,1.083,14.617,2.35,22.05
		c0.7,4,1.483,7.317,2.35,9.95c1.167,3.533,2.683,6.533,4.55,9c2.367,3.133,5.283,5.533,8.75,7.2c2.067,1.032,4.167,1.667,6.3,1.899
		c2.333,0.268,4.467,0.018,6.4-0.75c1.533-0.634,3.183-1.717,4.95-3.25c1-0.867,2.45-2.217,4.35-4.051
		c4.6-3.933,9.217-5.833,13.85-5.699c1.733,0.033,3.633,0.399,5.7,1.101c1.1,0.366,2.917,1.1,5.45,2.199
		c3.732,1.7,6.5,3.134,8.3,4.301c2.899,1.899,5.034,4.032,6.399,6.399c0.7,1.232,1.301,2.717,1.801,4.449
		c0.3,1.101,0.649,2.684,1.05,4.75l5.649,28.851c0.5,2.565,0.801,4.533,0.9,5.899c0.2,2.233,0.083,4.2-0.35,5.9
		c-0.7,2.767-2.417,5.699-5.15,8.8c-4.567,5.232-9.317,8.3-14.25,9.2c-2.934,0.566-6.917,0.333-11.95-0.7
		c-3.7-0.768-7.117-1.534-10.25-2.3c-1.867-0.468-3.167-1.051-3.9-1.75c-0.7-0.602-1.333-1.65-1.9-3.15
		c-2.2-5.333-3.517-8.433-3.95-9.3c-1.767-3.367-3.8-5.917-6.1-7.649c-0.767-0.533-1.333-0.95-1.7-1.25
		c-0.667-0.5-1.2-0.967-1.6-1.399c-0.833-0.968-1.583-2.733-2.25-5.301c-1.767-6.566-4.283-12.816-7.55-18.75
		c-3.333-6.066-7.067-11.116-11.2-15.149c-2.2-2.232-5.4-4.95-9.6-8.149c-3.7-2.867-6.816-4.815-9.35-5.851
		c-2.966-1.167-6.917-1.833-11.85-2c-5.333-0.2-10.55-0.033-15.65,0.5c-4.5,0.5-7.9,1.45-10.2,2.851
		c-2.133,1.3-3.883,3.149-5.25,5.55c-1.267,2.2-2.133,4.667-2.6,7.399c-0.367,2.301-0.467,4.884-0.3,7.75
		c0.1,1.934,0.367,4.518,0.8,7.75c-1.167-0.433-2.367-0.482-3.6-0.149c-1.267,0.333-2.267,0.968-3,1.899
		c-0.9,1.101-1.533,2.7-1.9,4.801c-1.467,7.967-0.85,17.467,1.85,28.5c0.733,3,2.017,7.616,3.85,13.851
		c1.8,6.032,3.083,10.649,3.85,13.85c0.5,2.2,0.817,3.983,0.95,5.35c0.2,2,0.15,3.801-0.15,5.4c-0.533,2.8-1.75,4.75-3.65,5.85
		c-2.367,1.4-5.583,1.134-9.65-0.8c-4.633-2.3-9.117-5.767-13.45-10.399c-3.067-3.301-6.6-7.851-10.6-13.65
		c-4.2-6.133-7.667-11.567-10.4-16.3c-3.5-6-6.317-11.768-8.45-17.3c-0.566-1.5-1.4-3.768-2.5-6.801c-1-2.667-1.933-4.866-2.8-6.601
		c-2.467-4.967-5.583-8.532-9.35-10.699c-3.367-1.934-6.617-2.467-9.75-1.601c-1.667,0.466-3.1,1.333-4.3,2.601
		c-1.267,1.3-2,2.768-2.2,4.399c-0.167,1.565,0.233,3.667,1.2,6.3c2.566,6.801,6.683,14.551,12.35,23.25
		c3.072,4.768,7.722,11.742,13.95,20.925c-0.126-0.056-0.26-0.114-0.4-0.175c-0.1-0.067-0.967-0.45-2.6-1.15
		c-1.267-0.601-2.217-1.032-2.85-1.3c-1.1-0.533-2.066-0.917-2.9-1.149c-1.6-0.5-3.45-0.783-5.55-0.851
		c-1.333-0.065-3.217-0.033-5.65,0.101c-5.4,0.333-9.517,1-12.35,2c-2.534,0.899-4.983,2.25-7.35,4.05
		c-3.233,2.466-5.95,5.433-8.15,8.899c-2.233,3.533-3.767,7.268-4.6,11.2c-0.733,3.4-0.983,7.4-0.75,12
		c0.467,7.8,2.283,14.083,5.45,18.851c0.4,0.6,0.8,0.949,1.2,1.05c0.267,0.1,0.533,0.083,0.8-0.05
		c-0.059,0.296-0.142,0.563-0.25,0.8c1.133,0.633,2.434,1.2,3.9,1.7c6.167,2.1,12.617,2.434,19.35,1
		c6.667-1.434,12.45-4.351,17.35-8.75c3.333-3,6.05-6.483,8.15-10.45c2.167-4.034,3.534-8.233,4.1-12.601
		c0.6-4.399,0.383-8.8-0.65-13.199c-0.541-2.287-1.266-4.461-2.175-6.525c0.05-0.605-0.059-1.23-0.325-1.875
		c-0.367-0.9-0.933-1.667-1.7-2.3c-0.226-0.191-0.476-0.374-0.75-0.55c0.117-0.223,0.167-0.506,0.15-0.851
		c-0.034-0.565-0.233-1.133-0.6-1.7c-6.3-9.268-10.95-16.25-13.95-20.949c-5.2-8.233-9-15.65-11.4-22.25
		c-1-2.9-1.233-5.117-0.7-6.65c0.333-0.967,0.934-1.782,1.8-2.449c0.8-0.667,1.733-1.134,2.8-1.399c1.9-0.468,3.95-0.25,6.15,0.649
		c4.133,1.633,7.583,5,10.35,10.101c0.967,1.8,1.95,4.05,2.95,6.75c1.1,3.1,1.933,5.417,2.5,6.949
		c2.133,5.634,4.967,11.518,8.5,17.649c2.767,4.801,6.3,10.301,10.6,16.5c3.966,5.7,7.45,10.2,10.45,13.5
		c4.233,4.6,8.583,8.117,13.05,10.55c2.333,1.268,4.55,2.067,6.65,2.4c2.533,0.399,4.717,0.05,6.55-1.05c2.533-1.5,4.1-4,4.7-7.5
		c0.367-2.2,0.2-5.218-0.5-9.051c-0.7-3.699-1.867-8.399-3.5-14.101c-2.267-7.866-3.583-12.532-3.95-14
		c-2.9-11.333-3.65-20.933-2.25-28.8c0.3-2,0.9-3.467,1.8-4.399c0.566-0.634,1.283-1,2.15-1.101c0.9-0.101,1.633,0.117,2.2,0.649
		c0.534,3.5,1.017,6.134,1.45,7.899c0.733,2.867,1.7,5.317,2.9,7.351c1.133,1.833,2.783,3.934,4.95,6.301
		c3.4,3.699,6.333,6.167,8.8,7.399c1.934,0.967,4,1.533,6.2,1.699c2.233,0.167,4.383-0.066,6.45-0.699
		c1.333-0.367,2.25-0.482,2.75-0.351c0.767,0.167,1.517,0.899,2.25,2.2l7.3,11.899c3.033,5,5.45,8.851,7.25,11.549
		c2.833,4.167,5.583,7.768,8.25,10.801c3.633,4.1,7.683,7.816,12.15,11.149c3.933,2.967,7.5,4.917,10.7,5.851
		C64.502,74.478,66.535,74.712,68.535,74.611z M15.335,16.012c-0.367-0.032-0.767-0.333-1.2-0.899
		c-4.933-6.268-9.533-11.366-13.8-15.3c-5.467-5.033-11.067-8.815-16.8-11.351c-0.466-4.633-0.55-9.167-0.25-13.601
		c0.2-2.5,0.534-4.55,1-6.149c0.633-2.167,1.617-3.899,2.95-5.2c2-1.866,5.083-3.083,9.25-3.649c3.033-0.467,7.217-0.8,12.55-1
		c3.3-0.101,5.934-0.066,7.9,0.101c2.9,0.232,5.433,0.783,7.6,1.649c2.133,0.867,4.833,2.482,8.1,4.851c3.5,2.466,6.5,4.851,9,7.149
		c9.167,8.468,16,20.667,20.5,36.601c-2.667-1.5-4.683-2.583-6.05-3.25c-2.367-1.167-4.5-2-6.4-2.5c-5.567-1.435-11.5-0.768-17.8,2
		c-4.333,1.867-9.417,5.184-15.25,9.95C16.068,15.845,15.635,16.045,15.335,16.012z M12.585,17.462
		c-1.133,0.7-2.434,1.149-3.9,1.351c-2.7,0.3-6.1-0.601-10.2-2.7c-1.3-0.732-2.15-1.282-2.55-1.649
		c-0.434-0.367-0.883-0.883-1.35-1.55c-0.533-0.768-0.95-1.316-1.25-1.65c-0.467-0.566-1.3-1.449-2.5-2.649
		c-1.1-1.066-1.917-1.949-2.45-2.649c-1-1.333-1.816-2.967-2.45-4.899c-0.433-1.268-0.883-3.051-1.35-5.351
		c-0.4-1.867-0.65-3.268-0.75-4.2c1.267,0.134,2.883,0.917,4.85,2.351c4.633,3.268,7.95,5.815,9.95,7.649
		c1.567,1.367,4.017,3.867,7.35,7.5l2.75,3c0.767,0.833,1.417,1.601,1.95,2.301C11.118,14.912,11.752,15.962,12.585,17.462z
		 M74.535,30.462c-3.667-4.732-6.45-9.883-8.35-15.45c1.6,0.533,3.216,2.033,4.85,4.5c1.133,1.601,2.133,3.333,3,5.2l3.4,7.95
		C76.502,32.495,75.535,31.762,74.535,30.462z M-95.165,94.311c-4.6,1.733-9.434,2.435-14.5,2.101
		c-4.409-0.26-8.55-1.276-12.425-3.051c-0.056-0.207-0.231-0.457-0.525-0.75c-1.4-1.333-2.533-3.517-3.4-6.55
		c-2.4-8.033-2.617-16.183-0.65-24.45c0.5-2.267,1.167-4.199,2-5.8c0.733-1.433,1.95-3.2,3.65-5.3c0.676-0.807,1.343-1.565,2-2.275
		c0.065,0.038,0.132,0.08,0.2,0.125c1.267,0.7,2.35,1.367,3.25,2c0.277,0.208,0.535,0.416,0.775,0.625l-0.025,0.025
		c0.078,0.049,0.162,0.099,0.25,0.15c0.251,0.218,0.484,0.435,0.7,0.649c0.5,0.4,0.817,0.633,0.95,0.7
		c0.198,0.057,0.373,0.073,0.525,0.05c8.004,5.107,13.979,9.124,17.925,12.05c6.5,4.867,11.867,9.768,16.1,14.7
		c0.241,0.271,0.466,0.521,0.675,0.75c-0.073,0.117-0.148,0.233-0.225,0.351c-2.067,3.167-4.567,5.934-7.5,8.3
		C-88.415,91.111-91.665,92.978-95.165,94.311z M-112.515,50.611c-1.616-1.293-3.358-2.525-5.225-3.699
		c2.253-2.229,4.429-3.896,6.525-5c2.167-1.134,4.717-1.95,7.65-2.45c2.1-0.367,4.816-0.633,8.15-0.8
		c2.6-0.134,4.667-0.083,6.2,0.149c2.1,0.3,5,1.25,8.7,2.851c1.78,0.781,3.105,1.499,3.975,2.149
		c0.464,0.883,0.956,1.934,1.475,3.15c1.1,2.6,1.85,4.649,2.25,6.149c0.466,1.833,0.733,3.801,0.8,5.9
		c0.167,3.767-0.267,7.483-1.3,11.15c-0.829,3.066-2.021,5.941-3.575,8.625c-0.337-0.604-0.762-1.229-1.275-1.875
		c-1.733-2.268-3.9-4.551-6.5-6.851c-1.867-1.633-4.35-3.617-7.45-5.95c-7.529-5.631-14.271-10.082-20.225-13.35
		C-112.395,50.712-112.453,50.661-112.515,50.611z M-92.215,54.962c-0.167-0.3-0.15-0.685,0.05-1.15l0.65-1.3
		c1-1.833,2.067-3.167,3.2-4c1.633-1.233,3.5-1.6,5.6-1.1c0.267,0.633,0.167,1.333-0.3,2.1c-0.567,0.8-0.95,1.417-1.15,1.85
		c-0.267,0.667-0.517,1.134-0.75,1.4c-0.167,0.233-0.45,0.45-0.85,0.65c-0.467,0.232-0.817,0.417-1.05,0.55
		c-0.667,0.533-1.184,0.899-1.55,1.1c-0.967,0.601-1.983,0.733-3.05,0.4C-91.814,55.329-92.082,55.162-92.215,54.962z
		 M-92.215,56.512c-0.033,0.5,0.383,0.783,1.25,0.85c1.467,0.134,2.55,0,3.25-0.399c0.367-0.233,0.85-0.685,1.45-1.351
		c0.367-0.267,0.95-0.633,1.75-1.1c0.367-0.3,0.817-0.85,1.35-1.65c0.7-1.066,1.167-1.866,1.4-2.399
		c0.467-0.9,0.717-1.768,0.75-2.601c0.067-0.934-0.167-1.583-0.7-1.949c-0.333-0.2-0.8-0.301-1.4-0.301
		c-1.967,0-3.4,0.184-4.3,0.551c-0.967,0.399-1.917,1.116-2.85,2.149c-2.267,2.5-3.383,5.15-3.35,7.95c0,0.5,0.15,0.733,0.45,0.7
		c0.033,0,0.183-0.133,0.45-0.4c0.067-0.1,0.15-0.149,0.25-0.149C-92.332,56.379-92.248,56.412-92.215,56.512z"/>
</symbol>
<symbol  id="GFH" viewBox="-221.826 -93.062 443.653 186.123">
	<g id="Layer_3_1_">
		<path fill="#872339" d="M20.125,27.938c1.333-1.367,2.333-2.65,3-3.852c1.633-2.731,2.633-6.648,3-11.75
			c0.133-2.167,0.367-3.684,0.7-4.55c0.533-1.434,1.7-2.966,3.5-4.601c1.566-1.5,3.217-2.899,4.95-4.199
			c0.258-0.169,0.483-0.335,0.675-0.5c4.999,5.991,9.34,10.842,13.025,14.55c4.567,4.566,9.133,8.534,13.7,11.899
			c0.233-0.533,0.517-1,0.85-1.399c-8.924-7.041-17.89-15.95-26.9-26.726c-0.218-0.258-0.435-0.517-0.65-0.774L35.95-3.988
			c-0.027-0.021-0.052-0.048-0.075-0.074c-5.833-7-13.917-17.75-24.25-32.25c-0.27-0.366-0.528-0.717-0.775-1.051
			c0.764-0.113,1.772-0.498,3.025-1.149c8.733-4.934,20.2-12.601,34.4-23c15.867-11.667,27.184-19.601,33.95-23.8
			c3.438-2.135,7.164-4.335,11.175-6.602c12.396,13.485,24.038,27.535,34.925,42.15c4.333,5.767,7.433,10.6,9.3,14.5l1.25,2.85
			c0.022,0.33,0.022,0.646,0,0.95c-0.066,0.935-0.35,1.817-0.85,2.649c-0.5,0.833-1.134,1.5-1.9,2c-0.367,0.2-0.6,0.399-0.7,0.601
			c-0.031,0.063-0.056,0.128-0.075,0.2c-17.075,7.597-33.301,16.529-48.675,26.8c-5.4,3.601-9.767,6.867-13.1,9.8
			c-4.434,3.968-7.917,8.083-10.45,12.352c0.767,0.064,1.6-0.45,2.5-1.551c4.333-5.232,9.817-10.268,16.45-15.101
			c4.867-3.601,11.183-7.633,18.95-12.101c10.699-6.133,21.684-11.935,32.949-17.399c1.2-0.601,2.283-1.133,3.25-1.601
			c0.367-0.768,0.851-1.649,1.45-2.649h-0.024c0.225-0.368,0.466-0.751,0.725-1.149l1.2-1.899c0.133-0.7,0.183-1.417,0.149-2.15
			c-0.032-1-0.316-2.133-0.85-3.398c-0.642-1.596-1.4-2.903-2.275-3.926c-0.651-1.259-1.46-2.649-2.425-4.176
			c-2.633-4.032-6.649-9.5-12.05-16.398c-5.5-6.936-9.767-12.218-12.8-15.852c-3.833-4.667-7.033-8.267-9.601-10.8
			c-2.029-2.03-4.063-3.83-6.1-5.399c0.103-0.047,0.203-0.097,0.3-0.149c-0.333-0.2-0.6-0.3-0.8-0.3c-0.024,0-0.058,0-0.1,0h-0.051
			c-0.124,0.008-0.273,0.041-0.449,0.1l-0.601,0.2c-0.1,0.033-0.184,0.05-0.25,0.05c0.044,0.048,0.085,0.099,0.125,0.15
			c-2.773,1.178-4.982,2.178-6.625,3c-5.7,2.767-11.934,6.517-18.7,11.25c-2.267,1.6-8.15,5.949-17.65,13.05
			c-11.833,8.833-24,17.417-36.5,25.75c-1.077,0.8-2.052,1.315-2.925,1.55c-0.502-0.658-0.944-1.225-1.325-1.7
			c0.267,2.134,1.467,4.769,3.6,7.9c3.433,5.167,8.816,12.333,16.15,21.5c1.801,2.26,3.534,4.401,5.2,6.425
			c-0.327,0.179-0.694,0.421-1.1,0.726c-1.2,0.968-2.5,2.101-3.9,3.399c-2.133,2-3.566,3.733-4.3,5.2
			c-0.767,1.566-1.283,3.867-1.55,6.899c-0.3,3.468-0.667,5.833-1.1,7.101c-0.767,2.267-2.3,4.617-4.6,7.05
			c-3.367,3.435-7.35,6.034-11.95,7.8c-4.6,1.801-9.283,2.551-14.05,2.25c-3.633-0.231-6.767-1.05-9.4-2.449
			c-1.267-0.699-2.9-1.884-4.9-3.551c-2.434-2-4.267-3.917-5.5-5.75c-0.934-1.467-2.034-4.083-3.3-7.85
			c-1.8-5.733-2.95-10.083-3.45-13.05c-0.233-1.468-0.534-3.667-0.9-6.602c-0.4-2.6-0.917-4.731-1.55-6.398
			c-0.867-2.233-2.1-4.083-3.7-5.551c-1.767-1.634-3.7-2.518-5.8-2.649c-1.767-0.067-3.617,0.433-5.55,1.5
			c-1.3,0.7-2.934,1.85-4.9,3.45c-4.966,4.199-9.9,8.667-14.8,13.398c-2.333,2.333-4.133,4.051-5.4,5.15c-1.934,1.633-4.2,3.3-6.8,5
			c-3.933,2.633-8.167,5.149-12.7,7.55c-3.3,1.733-6.017,2.967-8.15,3.7c-3.133,1.1-7.517,2-13.15,2.7c-5.066,0.6-9.3,0.8-12.7,0.6
			c-4.633-0.232-8.65-1.216-12.05-2.95c-1.433-0.731-2.983-1.699-4.65-2.898c-0.733-0.567-2.183-1.7-4.35-3.4
			c-3.9-3.065-9.55-7.133-16.95-12.2c-3.267-2.3-5.883-3.883-7.85-4.75c-3.2-1.398-6.9-2.3-11.1-2.699
			c-2.667-0.268-4.767-0.167-6.3,0.301c-1.367,0.398-3.1,1.398-5.2,3c-2.767,2.064-5.5,4.333-8.2,6.8
			c-5.3,4.767-9.034,9.283-11.2,13.55c-1.4,2.733-2.283,5.55-2.65,8.45c-0.367,3.1-0.067,5.982,0.9,8.649
			c1,2.768,2.817,5.435,5.45,8c1.767,1.767,4.367,3.833,7.8,6.199c3.333,2.301,6.2,4.101,8.6,5.4c2.133,1.1,5.083,2.333,8.85,3.7
			c3.233,1.133,5.8,1.899,7.7,2.3c2,0.433,4.717,0.783,8.15,1.05c2.8,0.167,7.8,0.351,15,0.55c6.367,0.167,11.367,0.417,15,0.75
			c7.487,0.726,14.096,2.101,19.825,4.125c0.023,0.022,0.048,0.049,0.075,0.075c0.767,0.633,2,1.25,3.7,1.851
			c1.867,0.633,3.15,1.184,3.85,1.649c1.3,0.833,2.35,2.101,3.15,3.8c0.867,1.733,1.233,3.367,1.1,4.9
			c-0.033,0.567-0.217,1.45-0.55,2.65l-0.75,2.699c-0.467,1.833-1,3.184-1.6,4.051c-0.233,0.399-0.367,0.667-0.4,0.8
			c-0.133,0.367-0.05,0.633,0.25,0.8c0.333,0.167,0.7,0.05,1.1-0.35c1.067-0.968,2-2.733,2.8-5.301l0.85-2.399
			c0.4-1.333,0.617-2.185,0.65-2.55c0.1-0.934-0.033-2.184-0.4-3.75c-0.6-2.268-1.434-4-2.5-5.2c-0.733-0.867-2.1-1.867-4.1-3
			c-0.733-0.4-1.283-0.667-1.65-0.8c-1.233-0.233-2.133-0.468-2.7-0.7c-0.7-0.367-1.25-0.601-1.65-0.7
			c-0.198-0.054-0.381-0.087-0.55-0.1c-3.165-1.254-6.599-2.271-10.3-3.051c-5.233-1.1-12.217-1.866-20.95-2.3
			c-0.1,0-3.683-0.149-10.75-0.45c-4.833-0.133-8.45-0.333-10.85-0.6c-5.867-0.7-11.7-2.333-17.5-4.9
			c-5.467-2.434-10.684-5.583-15.65-9.449c-4.633-3.634-7.583-7.184-8.85-10.65c-0.967-2.667-1.167-5.55-0.6-8.65
			c0.5-2.866,1.566-5.616,3.2-8.25c1.367-2.267,3.217-4.565,5.55-6.898c1.467-1.436,3.667-3.417,6.6-5.95
			c1.833-1.601,3.466-2.967,4.9-4.101c2.167-1.732,4.033-2.801,5.6-3.199c1.267-0.333,3.066-0.367,5.4-0.102
			c4.467,0.5,8.233,1.5,11.3,3c1.4,0.7,3.617,2.102,6.65,4.2l10.85,7.65c3.067,2.199,5,3.616,5.8,4.25
			c3.733,2.966,5.95,4.683,6.65,5.148c3.933,2.468,8.633,3.983,14.1,4.551c3.933,0.435,8.9,0.316,14.9-0.351
			c4.1-0.5,7.35-1.065,9.75-1.7c5.5-1.467,12.066-4.532,19.7-9.199c3.8-2.301,6.867-4.315,9.2-6.051c2.867-2.167,7.15-6,12.85-11.5
			c5.367-5.231,9.683-9.017,12.95-11.35c2.267-1.601,4.167-2.417,5.7-2.45c1.467-0.033,2.85,0.45,4.15,1.45
			c1.167,0.933,2.1,2.133,2.8,3.6c0.533,1.2,0.95,2.634,1.25,4.301c0.066,0.366,0.283,1.866,0.65,4.5
			c0.867,6.899,2.75,14.167,5.65,21.801c0.867,2.267,1.717,4.032,2.55,5.3c0.9,1.333,2.583,3.066,5.05,5.2
			c2.967,2.6,5.45,4.383,7.45,5.35c2.233,1.034,4.817,1.685,7.75,1.95c5.567,0.533,11.05-0.2,16.45-2.2S16.259,32.004,20.125,27.938
			z M52.875,3.737c-0.1-0.268-0.283-0.483-0.55-0.65l-0.15-0.148c-0.034-0.067-0.034-0.117,0-0.15c0.1-0.065,0.216-0.033,0.35,0.101
			l0.1,0.051l0.2,0.25l0.1,0.25C52.993,3.537,52.976,3.638,52.875,3.737z M52.926,4.688c0.433-0.067,0.733-0.333,0.9-0.801
			c0.1-0.366,0.05-0.768-0.15-1.199c-0.3-0.602-0.7-0.968-1.2-1.102c-0.267-0.065-0.55-0.05-0.85,0.051
			c-0.267,0.134-0.45,0.333-0.55,0.601c-0.167-0.101-0.317-0.233-0.45-0.4l-0.1,0.102l0.3,0.75c0.267,0.667,0.7,1.231,1.3,1.699
			C52.458,4.587,52.726,4.688,52.926,4.688z M220.601-33.563h0.025c0-0.122,0.008-0.247,0.025-0.375
			c0.004-0.093,0.012-0.186,0.024-0.275c0.066-0.495,0.15-1.062,0.25-1.7c0-1.231,0.066-2.065,0.2-2.5c0.167-0.434,0.4-0.8,0.7-1.1
			c-0.167-0.633-0.435-1.117-0.8-1.45c-0.044,0.038-0.086,0.08-0.125,0.125c-0.146-0.054-0.339-0.095-0.575-0.125l-18.05-0.8
			c-0.967-0.067-2.45-0.133-4.45-0.2c-3.601,0-6.317-0.017-8.15-0.05c-3.2-0.033-5.899-0.217-8.1-0.55
			c-1.202-0.165-2.135-0.258-2.8-0.275c-0.02-0.006-0.035-0.015-0.051-0.024c-0.333-0.268-0.616-0.399-0.85-0.399
			c-0.133,0.033-0.267,0.117-0.4,0.25c-0.1,0.133-0.133,0.283-0.1,0.45c0.014,0.108,0.056,0.21,0.125,0.3
			c0.086,0.148,0.295,0.282,0.625,0.399c0.183,0.041,0.367,0.083,0.55,0.125l0.25,0.074l0.45,0.25c0.3,0.134,0.55,0.117,0.75-0.05
			c1.916,0.313,4.032,0.528,6.35,0.65c1.468,0.1,4.283,0.183,8.45,0.25c9,0.167,17.283,0.5,24.851,1
			c0.154,0.021,0.305,0.031,0.449,0.023c-0.093,0.392-0.126,0.833-0.1,1.325l0.05,1.5c0.033,0.601,0.018,1.101-0.05,1.5
			c-0.109,0.415-0.167,0.74-0.175,0.976c-24.079-0.442-42.521-1.061-55.325-1.851c0.063-2.417,0.063-4.815,0-7.2l2.5,0.075
			c2.767,0.066,4.417,0.133,4.95,0.2c1.433,0.1,2.815,0.3,4.149,0.6c0.233,0.066,0.4,0.083,0.5,0.051c0.2,0,0.367-0.134,0.5-0.399
			c0.067-0.2,0-0.4-0.199-0.601c-0.134-0.134-0.333-0.199-0.601-0.199c-1.066-0.233-2.3-0.4-3.7-0.5l-2.5-0.2
			c-1.293-0.063-3.201-0.037-5.725,0.075c-0.124-0.248-0.282-0.34-0.475-0.275c-0.2,0-0.342,0.125-0.426,0.375h-0.024
			c-0.156,0.004-0.406,0.029-0.75,0.075c-1.833,0.633-3.233,1.083-4.2,1.35l-1.25,0.25c-1.733,0.367-4.167,0.519-7.3,0.45
			c-0.268,0-0.483,0.05-0.65,0.15c-0.133,0.133-0.184,0.3-0.149,0.5c0,0.231,0.083,0.417,0.25,0.55
			c0.199,0.167,0.55,0.283,1.05,0.35c0.933,0.167,2.433,0.566,4.5,1.2l3.7,1.25c0.399,0.167,0.883,0.4,1.449,0.7l2.575,1.274
			l-0.024,0.024c-0.167,0.133-0.2,0.268-0.101,0.399l0.351,0.101c0.142,0.012,0.282,0.021,0.425,0.024
			c0.053,0.341,0.193,0.549,0.425,0.625c0.3,0.065,0.5-0.05,0.6-0.351c0.032-0.053,0.058-0.11,0.075-0.175
			c15.313,1.254,30.421,1.946,45.325,2.075c4.013,0.031,7.462-0.061,10.35-0.275c0.044,0.047,0.095,0.089,0.15,0.125
			c0.067,0.066,0.133,0.101,0.2,0.101C220.583-33.393,220.592-33.476,220.601-33.563z M162.676-37.063
			c-2.267-1.333-3.917-2.186-4.95-2.551c-0.5-0.199-1.633-0.532-3.399-1l5-0.801l4.1-1.425c-0.019,0.121-0.035,0.246-0.05,0.375
			l0.05,5.899L162.676-37.063z M129.676-39.463c-4.1-6.033-9.05-12.533-14.85-19.5c-3.467-4.167-8.833-10.333-16.101-18.5
			c-0.767-0.833-1.433-1.232-2-1.2l13.101,15.352c3.065,3.6,5.333,6.333,6.8,8.199c1.434,1.732,3.55,4.384,6.35,7.949
			C125.509-44.029,127.743-41.463,129.676-39.463z M95.826-14.862c-0.567-0.032-1.283,0.185-2.15,0.649
			c-5.133,2.733-8.917,4.867-11.35,6.4c-0.934,0.633-1.567,1.199-1.9,1.699c0,0.101,0.1,0.149,0.3,0.149
			c1.2-0.2,2.75-0.768,4.65-1.7c2.767-1.398,5.033-2.633,6.8-3.699C94.108-12.563,95.326-13.729,95.826-14.862z M88.426-82.862
			c-15.733,9.468-29.817,19.449-42.25,29.949c-0.667,0.533-0.983,1.066-0.95,1.602c11.3-7.667,21.5-14.75,30.6-21.25
			c3.2-2.233,5.967-4.233,8.3-6C86.292-80.263,87.726-81.695,88.426-82.862z M67.976-8.263c-9.267-10.101-17.683-20.733-25.25-31.9
			c-0.167,1.167,0.35,2.7,1.55,4.602c4.767,7.5,10.117,14.616,16.05,21.35c4.133,4.667,7.917,8.217,11.35,10.65
			C71.009-4.83,69.775-6.396,67.976-8.263z M45.176-5.663c0.533,0.2,1.1,0.218,1.7,0.051s1.1-0.449,1.5-0.851
			c0.833-0.833,1.217-1.899,1.15-3.2c0-0.3-0.066-0.648-0.2-1.05c-0.167-0.433-0.45-0.917-0.85-1.45
			c-1.3-1.866-2.817-3.148-4.55-3.85c-0.434-0.167-0.833-0.25-1.2-0.25c-0.633-0.033-1.3,0.232-2,0.8
			c-0.333,0.233-0.6,0.534-0.8,0.9c-0.2,0.433-0.3,1-0.3,1.699c0,0.468,0.033,0.801,0.1,1c0.1,0.566,0.333,1.149,0.7,1.75
			c0.2,0.366,0.566,0.884,1.1,1.551l1.3,1.5c0.233,0.3,0.483,0.532,0.75,0.699l0.6,0.25C44.676-5.846,45.009-5.695,45.176-5.663z
			 M41.076-11.413c-0.467-1.333-0.367-2.3,0.3-2.898c0.567-0.567,1.367-0.65,2.4-0.25c0.5,0.267,1.067,0.648,1.7,1.148
			c0.667,0.602,1.067,0.968,1.2,1.102c0.933,1,1.417,1.933,1.45,2.8c0.067,0.533-0.05,1.05-0.35,1.55
			c-0.267,0.5-0.65,0.817-1.15,0.95c-0.667,0.2-1.483,0.017-2.45-0.55c-0.534-0.269-1.083-0.686-1.65-1.25
			C41.926-9.413,41.442-10.279,41.076-11.413z M50.926-18.112c4.3,5.699,7.583,9.866,9.85,12.5
			c3.833,4.468,7.583,8.185,11.25,11.149c-8.133-10.399-14.2-18.232-18.2-23.5c-7.133-9.3-12.567-17.517-16.3-24.649
			c-0.233-0.366-0.417-0.583-0.55-0.649c-0.233-0.101-0.467-0.067-0.7,0.1c-0.2,0.134-0.333,0.333-0.4,0.602
			c-0.066,0.398,0.033,0.898,0.3,1.5c1.7,3.667,3.95,7.616,6.75,11.85C44.593-26.713,47.259-23.013,50.926-18.112z M29.676-23.213
			c0.1-0.033,0.45-0.267,1.05-0.7c0.2-0.167,0.783-0.532,1.75-1.1c0.7-0.4,1.2-0.817,1.5-1.25c0.367-0.567,0.467-1.067,0.3-1.5
			c-0.066-0.2-0.2-0.333-0.4-0.4c-0.1-0.032-0.25,0.019-0.45,0.15c-1.434,0.8-2.85,1.8-4.25,3c-0.333,0.333-0.534,0.566-0.6,0.7
			c-0.133,0.333-0.133,0.616,0,0.85C28.809-23.063,29.176-22.979,29.676-23.213z M29.726-30.463c0.467-0.5,0.65-0.982,0.55-1.45
			h-0.3l-0.4,0.2c-0.367,0.133-0.8,0.383-1.3,0.75l-2,1.4l-0.5,0.449c-0.167,0.232-0.2,0.449-0.1,0.649
			c0.133,0.268,0.4,0.367,0.8,0.3c0.167-0.065,0.417-0.217,0.75-0.449c0.1-0.101,0.533-0.399,1.3-0.899
			C29.059-29.846,29.458-30.163,29.726-30.463z"/>
	</g>
</symbol>
<g>
	<g>
		<g>
			<path fill="#A82B47" d="M463.766,18.006c3.095,1.706,5.474,3.595,7.136,5.665c1.094,1.372,1.793,2.708,2.102,4.009
				c1.803,1.552,3.119,4.679,3.943,9.379c0.516,1.245,0.965,3.182,1.342,5.812c0.408,2.911,0.799,4.96,1.176,6.148
				c0.879,2.728,1.344,6.701,1.385,11.918c0.041,5.848,0.279,9.848,0.716,12.004c1.26,6.155,2.081,14.078,2.473,23.774
				c0.031,0.726,0.15,4.741,0.359,12.043c0.139,4.799,0.313,8.715,0.522,11.75v35.254c-0.279,1.678-0.42,4.252-0.42,7.721
				c0,3.664,0.141,6.338,0.42,8.019v18.254c0.043,0.111,0.076,0.229,0.105,0.354c0.502,0.478,0.762,1.371,0.778,2.688
				c0,0.629,0.066,1.574,0.209,2.832c0.14,1.26,0.209,2.203,0.209,2.834c0,1.482-0.069,3.762-0.209,6.84
				c-0.143,3.078-0.209,4.679-0.209,4.806c0,3.621,0.209,8.33,0.627,14.121c0.42,5.776,0.627,10.885,0.627,15.315
				c0,2.478,0.062,5.199,0.171,8.166c0.067,2.264,0.081,3.908,0.043,4.928c-0.13,2.548-1.072,8.097-2.832,16.642
				c-0.588,2.854-1.701,5.271-3.338,7.264c-2.353,2.836-5.798,4.879-10.343,6.125c-1.315,0.351-3.178,1.127-5.584,2.328
				c-2.35,1.16-4.649,2.029-6.901,2.6c-1.429,0.353-4.017,0.863-7.767,1.535c-3.2,0.56-4.985,0.922-5.348,1.09
				c-0.59,0.404-1.387,0.763-2.396,1.07c-1.93,0.615-4.455,0.924-7.573,0.924c-0.336,0-0.791-0.014-1.365-0.043
				c-0.027,0.027-0.055,0.049-0.082,0.063c-0.436,0.254-1.588,0.461-3.465,0.629c-8.363,0.52-18.338,1.141-29.922,1.867
				l-14.16,0.211c-0.17,0.071-0.674,0.174-1.514,0.315c-0.841,0.14-1.351,0.242-1.529,0.313l-29.693,0.211
				c-2.461,0.322-4.274,0.553-5.436,0.69c-2.015,0.238-3.246,0.357-3.691,0.357c-3.774,0-7.19-0.273-10.238-0.82
				c-1.372-0.233-2.856-0.594-4.45-1.067c-6.742-0.027-13.519-0.068-20.334-0.125c-13.595-0.111-20.525-0.211-20.791-0.295
				c-2.336-0.025-4.707-0.068-7.113-0.127c-4.785-0.109-7.312-0.209-7.578-0.293l-14.475-0.21c-0.45-0.151-0.702-0.252-0.758-0.293
				c-0.042-0.026-0.077-0.069-0.104-0.127c-2.336-0.016-5.532-0.116-9.589-0.313c-3.917-0.209-6.05-0.314-6.399-0.314
				c-0.351,0-2.924,0.177-7.723,0.523c-4.812,0.35-7.394,0.524-7.742,0.524c-0.601,0-2.357-0.118-5.267-0.356
				c-3.105-0.266-5.337-0.498-6.694-0.691h-16.534c-0.63,0.277-2.196,0.595-4.7,0.945c-1.679,0.236-4.344,0.553-7.995,0.941h-11.331
				c-11.722-1.58-20.284-3.386-25.683-5.41c-2.225-0.842-4.204-1.822-5.938-2.939c-1.008-0.643-2.427-1.707-4.259-3.188
				c-3.792-2.771-6.611-4.883-8.457-6.336c-3.288-2.562-5.47-4.89-6.548-6.99c-2.112-4.07-3.517-9.182-4.217-15.338
				c-0.489-6.922-0.937-12.008-1.342-15.256v-40.287c-0.182-1.537-0.3-3.334-0.357-5.396c-0.041-1.229-0.063-3.102-0.063-5.62
				c0-1.009-0.21-3.056-0.63-6.15c-0.419-3.102-0.629-4.67-0.629-4.697c0-0.699,0.126-1.244,0.378-1.637
				c0.027-0.029,0.055-0.057,0.084-0.084c-0.029-0.377-0.042-0.84-0.042-1.385c0-0.099,0.139-1.818,0.42-5.162
				c0.279-3.33,0.419-5.805,0.419-7.428c0.139-1.355,0.28-3.398,0.42-6.13c0.14-2.727,0.279-4.774,0.419-6.146V133.1
				c1.049-6.813,1.678-17.039,1.889-30.678c0.209-13.653,0.839-23.887,1.888-30.7c0.547-1.985,0.979-4.524,1.302-7.616
				c0.322-3.483,0.601-6.099,0.839-7.847c0.853-6.338,2.833-11.479,5.938-15.424c2.63-3.372,4.869-5.896,6.714-7.576
				c2.882-2.601,6.064-4.517,9.548-5.748c1.665-0.574,3.309-1.504,4.931-2.792c0.924-0.726,2.288-1.972,4.091-3.734
				c1.693-1.665,3.043-2.875,4.051-3.63c1.594-1.176,3.218-1.986,4.867-2.435l0.022,0.021c1.3-0.587,2.657-0.943,4.071-1.07
				c6.995-0.713,12.142-1.371,15.443-1.972c2.462-0.434,5.988-0.826,10.576-1.175c0-0.056,1.629-0.098,4.89-0.125
				c3.286-0.015,5.049,0.027,5.287,0.125l29.691,0.211c3.357,0.321,5.77,0.481,7.238,0.481c1.455,0,5.778-0.16,12.969-0.481h13.43
				c0.181,0.069,1.111,0.174,2.789,0.313c1.678,0.14,2.603,0.246,2.771,0.315c9.022,0,13.743-0.069,14.164-0.209h11.329
				c2.8,0.14,6.484,0.356,11.058,0.651c3.567,0.209,6.182,0.272,7.828,0.188l19.662,0.21h23.774l0.631-0.21
				c7.691-0.14,11.748-0.279,12.168-0.42l21.611-0.21c0.211-0.069,1.785-0.175,4.721-0.315c2.941-0.139,4.515-0.244,4.726-0.313
				h27.694C445.988,11.48,456.213,13.837,463.766,18.006z"/>
			<path fill="#A82B47" d="M113.167,93.5c0.209-13.653,8.053-14.965,9.102-21.778c0.547-1.985,0.979-4.524,1.302-7.616
				c0.322-3.483,0.601-6.099,0.839-7.847c0.853-6.338,2.833-11.479,5.938-15.424c2.63-3.372,4.869-5.896,6.714-7.576
				c2.882-2.601,6.064-4.517,9.548-5.748c1.665-0.574,3.309-1.504,4.931-2.792c0.924-0.726,2.288-1.972,4.091-3.734
				c1.693-1.665,3.043-2.875,4.051-3.63c1.594-1.176,3.218-1.986,4.867-2.435l0.022,0.021c1.3-0.587,2.657-0.943,4.071-1.07
				c6.995-0.713,12.142-1.371,15.443-1.972c2.462-0.434,5.988-0.826,10.576-1.175c0-0.056,1.629-0.098,4.89-0.125
				c3.286-0.015,5.049,0.027,5.287,0.125l29.691,0.211c3.357,0.321,5.77,0.481,7.238,0.481c1.455,0,5.778-0.16,12.969-0.481h13.43
				c0.181,0.069,1.111,0.174,2.789,0.313c1.678,0.14,2.603,0.246,2.771,0.315c9.022,0,13.743-0.069,14.164-0.209h11.329
				c2.8,0.14,6.484,0.356,11.058,0.651c3.567,0.209,6.182,0.272,7.828,0.188l19.662,0.21h23.774l0.631-0.21
				c7.691-0.14,11.748-0.279,12.168-0.42l21.611-0.21c0.211-0.069,1.785-0.175,4.721-0.315c2.941-0.139,4.515-0.244,4.726-0.313
				h27.694c12.896,0.545,23.121,2.902,30.674,7.071c3.095,1.706,5.474,3.595,7.136,5.665c1.094,1.372,1.793,2.708,2.102,4.009
				c1.803,1.552,3.119,4.679,3.943,9.379c0.516,1.245,0.965,3.182,1.342,5.812c0.408,2.911,0.799,4.96,1.176,6.148
				c0.879,2.728,1.344,6.701,1.385,11.918c0.041,5.848-0.066,7.34,0.37,9.496c1.26,6.155,5.681,11.512,6.072,21.208
				c0.031,0.726,0.15,4.741,0.359,12.043c0.139,4.799,3.974,12.781,4.183,15.816l1.754,27.363c-0.279,1.678-0.42,4.252-0.42,7.721
				c0,3.664,0.141,6.338,0.42,8.019l5.271,30.94c0.043,0.111,0.076,0.229,0.105,0.354c0.502,0.478,0.762,1.371,0.778,2.688
				c0,0.629,0.066,1.574,0.209,2.832c0.14,1.26,0.209,2.203,0.209,2.834c0,1.482-0.069,3.762-0.209,6.84
				c-0.143,3.078-0.209,4.679-0.209,4.806c0,3.621,0.209,8.33,0.627,14.121c0.42,5.776,0.627,10.885,0.627,15.315
				c0,2.478,0.062,5.199,0.171,8.166c0.067,2.264,0.102,12.314,0.063,13.334c-0.13,2.548-8.995,19.699-12.869,27.011
				c5.876-0.667-6.148,4.673-7.785,6.666c-2.353,2.836,1.092-3.898-3.453-2.652c5.295,4.178-5.813,1.451-8.22,2.652
				c-2.35,1.16-7.309-2.473-9.561-1.902c-1.429,0.353-4.017,0.863-7.767,1.535c-3.2,0.56-4.985,0.922-5.348,1.09
				c-0.59,0.404-1.387,0.763-2.396,1.07c-1.93,0.615-4.455,0.924-7.573,0.924c-0.336,0-0.791-0.014-1.365-0.043
				c-0.027,0.027-0.055,0.049-0.082,0.063c-0.436,0.254-1.588,0.461-3.465,0.629c-8.363,0.52-21.264-1.753-32.848-1.026
				l-14.16,0.211c-0.17,0.071-0.674,0.174-1.514,0.315c-0.841,0.14-1.351,0.242-1.529,0.313l-29.693,0.211
				c-2.461,0.322-4.274,0.553-5.436,0.69c-2.015,0.238-3.246,0.357-3.691,0.357c-3.774,0-7.19-0.273-10.238-0.82
				c-1.372-0.233-2.856-0.594-4.45-1.067c-6.742-0.027-19.688-3.187-26.504-3.243c-13.595-0.111-20.525-0.211-20.791-0.295
				c-2.336-0.025-4.707-0.068-7.113-0.127c-4.785-0.109-7.312-0.209-7.578-0.293l-14.475-0.21c-0.45-0.151-0.702-0.252-0.758-0.293
				c-0.042-0.026-0.077-0.069-0.104-0.127c-2.336-0.016-5.532-0.116-9.589-0.313c-3.917-0.209-6.05-0.314-6.399-0.314
				c-0.351,0-2.924,0.177-7.723,0.523c-4.812,0.35,0.631-2.475,0.283-2.475c-0.601,0-2.357-0.118-5.267-0.356
				c-3.105-0.266-5.337-0.498-6.694-0.691h-16.534c-0.63,0.277-2.196,0.595-4.7,0.945c-1.679,0.236-4.344,0.553-7.995,0.941h-11.331
				c-11.722-1.58-20.284-3.386-25.683-5.41c-2.225-0.842-4.204-1.822-5.938-2.939c-1.008-0.643-2.427-1.707-4.259-3.188
				c-3.792-2.771-6.29,4.425-8.136,2.972c-3.288-2.562-6.359-6.566-7.437-8.667c-2.112-4.07-9.196-11.844-9.896-18
				c-0.489-6.922-3.595-17.418-4-20.666l-4.667-42.667c-0.182-1.537-0.3-3.334-0.357-5.396c-0.041-1.229-0.063-3.102-0.063-5.62
				c0-1.009-0.21-3.056-0.63-6.15c-0.419-3.102-0.278-6.339-0.251-6.334c9.313,1.52-0.252,0.393,0,0
				c0.027-0.029,0.055-0.057,0.084-0.084c-0.029-0.377-0.042-0.84-0.042-1.385c0-0.099,0.139-1.818,0.42-5.162
				c0.279-3.33,0.419-5.805,0.419-7.428"/>
		</g>
		
			<use xlink:href="#FXGH"  width="259.998" height="197.075" x="-129.999" y="-98.537" transform="matrix(0.4197 0 0 -0.4197 119.8799 42.1631)" overflow="visible"/>
		
			<use xlink:href="#FGJ"  width="377.608" height="102.457" x="-188.804" y="-51.228" transform="matrix(0.4197 0 0 -0.4197 536.1602 82.1841)" overflow="visible"/>
		
			<use xlink:href="#GFH"  width="443.653" height="186.123" x="-221.826" y="-93.062" transform="matrix(-0.4197 0 0 -0.4197 93.4878 298.9453)" overflow="visible"/>
		<g>
			<path fill="#00AFF0" d="M436.805,20.063c0.154-0.658,0.672-0.987,1.554-0.987c2.489,0,6.483,1.091,11.979,3.274
				c6.103,2.391,10.164,4.778,12.191,7.155c0.309,0.377,0.582,1.007,0.817,1.889c0.267,0.853,0.553,1.483,0.861,1.888
				c0.377,0.532,0.951,1.069,1.719,1.615c0.379,0.266,1.281,0.84,2.709,1.722c0.978,0.614,1.58,1.698,1.805,3.25
				c0,0.211,0,1.489,0,3.84c0,0.323,0,0.638,0,0.945c0.039,0,0.091,0,0.148,0c2.277,6.308,3.475,10.876,3.588,13.702
				c0.039,1.846-0.143,5.077-0.547,9.694c0,1.035,0.113,3.055,0.336,6.064c0.228,3.636,0.49,6.546,0.797,8.729
				c0,0.294-0.1,0.525-0.295,0.693c-1.371-3.903-2.246-7.135-2.621-9.694c-0.016,1.972-0.063,4.469-0.147,7.49
				c-0.461,10.437-0.691,16.688-0.691,18.759c0,2.868,0.748,7.28,2.248,13.24c0.277-7.987,0.51-14.442,0.689-19.367h0.817
				c0.185,3.652,0.406,8.506,0.672,14.563c0.199,5.612,0.295,8.812,0.295,9.612c0,1.047-0.077,2.77-0.229,5.159
				c0.615,3.652,0.92,7.021,0.92,10.115c0,0.463,0.113,2.608,0.338,6.44c0.197,4.072,0.271,7.197,0.23,9.381
				c-0.086,2.125,0.026,4.855,0.338,8.183c0.319,3.64,0.479,6.065,0.479,7.283c0,1.411-0.211,2.771-0.629,4.069
				c-0.74,2.226-1.279,4.041-1.615,5.455c-0.239,1.176-0.315,2.974-0.229,5.394c0.08,1.246,0.158,2.651,0.229,4.217
				c0,6.886,0.144,11.744,0.439,14.584c0.154,1.539,0.316,3.933,0.482,7.178c0.209,2.937,0.606,5.412,1.196,7.427v23.733
				c0.234,1.299,0.445,2.984,0.629,5.056c0.125,1.704,0.188,3.016,0.188,3.926c0,1.203-0.383,3.322-1.152,6.356
				c-0.895,3.75-2.028,7.261-3.401,10.533c-2.922,6.883-6.226,11.26-9.902,13.135c-0.281,0.377-0.912,0.681-1.891,0.9
				c-1.763,0.336-6.539,0.504-14.33,0.504c-2.379,0-3.881,0.385-4.513,1.154c-0.139,0.352-0.299,0.68-0.481,0.987
				c0.42,0.017,0.881,0.099,1.385,0.255c0,0.065,0.072,0.159,0.211,0.27c0.156,0.113,0.232,0.439,0.232,0.986
				c0,0.864-0.521,1.565-1.556,2.102c-0.684,0.348-1.235,0.523-1.655,0.523c-0.938,0-1.545-0.31-1.826-0.925
				c-0.084-0.153-0.129-0.379-0.129-0.672c-2.445,0.908-6.418,1.578-11.916,2.017c3.438,0.293,5.791,1.082,7.049,2.369l-0.125,0.944
				c-0.141,0.195-0.519,0.293-1.133,0.293c-0.238,0-0.699-0.188-1.388-0.563c-0.682-0.381-1.09-0.695-1.213-0.947h-6.694
				c-8.531,0.729-13.767,1.092-15.693,1.092c-7.262,0-13.514-0.461-18.762-1.385c-1.875-0.336-3.31-0.637-4.3-0.902
				c-3.555,0.379-7.112,0.681-10.682,0.902c-0.447,0.016-1.834,0.553-4.156,1.615c-2.252,1.035-4.342,1.553-6.272,1.553
				c-1.594,0-3.467-0.418-5.623-1.258c-2.185-0.813-4.313-1.219-6.396-1.219c-14.764,0.465-22.506,0.504-23.229,0.129
				c-3.389,0.403-7.269,0.76-11.648,1.067c-4.446,0.31-7.713,0.461-9.799,0.461c-2.559,0-4.373-0.258-5.434-0.776
				c-1.062-0.5-1.603-0.752-1.617-0.752c-0.615,0.252-1.244,0.502-1.887,0.752c-1.287,0.52-3.021,0.776-5.205,0.776
				c-5.314,0-11.246-0.188-17.793-0.565c-6.269-0.42-12.06-0.914-17.373-1.49h-1.869c-1.258,0.182-4.477,0.414-9.652,0.695
				c-1.215,0.221-2.378,0.494-3.483,0.815c-0.419,0.099-1.07,0.361-1.951,0.795c-0.657,0.312-1.246,0.464-1.763,0.464
				c-10.017-0.277-15.759-0.33-17.226-0.146c-0.954,0-1.428-0.15-1.428-0.441c0.952-0.086,3.735-0.127,8.351-0.127
				c7.093,0,11.758-0.512,13.997-1.528c0.503-0.228,1.238-0.4,2.203-0.527h-2.435c-4.882,0.098-10.687,0.008-17.416-0.271
				c-8.016-0.379-14.346-0.67-18.99-0.882h-21.928c-6.281,0.658-10.093,0.791-11.436,0.396c-0.378-0.139-0.686-0.373-0.924-0.691
				c-0.209-0.334-0.497-0.551-0.86-0.649c-1.063-0.322-1.896-0.539-2.497-0.65c-1.105-0.254-2.581-0.447-4.427-0.588
				c-0.461-0.07-0.798-0.201-1.008-0.398c-0.168-0.266-0.328-0.454-0.481-0.565c-0.616-0.504-2.302-0.646-5.057-0.42
				c-1.595,0.098-3.26,0.008-4.994-0.271c-1.47-0.252-2.309-0.498-2.518-0.735c-0.266-0.375-0.623-1.3-1.07-2.771
				c-0.225-0.883-1.105-1.58-2.645-2.098c-2.588-0.826-4.175-1.344-4.763-1.553c-2.406-0.884-3.875-1.617-4.407-2.203
				c-0.657-0.688-1.091-1.504-1.3-2.455c-0.099-0.517-0.176-1.355-0.231-2.521c-0.014-0.795-0.405-1.655-1.175-2.58
				c-0.966-1.061-1.637-1.879-2.016-2.455c-0.516-0.698-1.313-2.153-2.392-4.362c-1.37-2.799-2.056-4.668-2.056-5.605
				c0-0.612,0.097-1.004,0.294-1.174c0.027-0.027,0.132-0.076,0.314-0.146c-1.218-2.98-1.853-6.351-1.91-10.115
				c0.476-6.781,0.714-11.806,0.714-15.064c0-5.414-0.112-9.26-0.335-11.541c-0.504-4-1.034-8.926-1.594-14.77
				c0-3.484-0.063-8.738-0.189-15.76c-0.112-3.722-0.182-6.437-0.21-8.142c-1.077,6.951-1.679,11.078-1.805,12.377l-0.567,0.148
				c1.498-17.625,2.245-29.916,2.245-36.867c0-0.476-0.195-1.597-0.587-3.356c-0.35-1.75-0.524-2.859-0.524-3.336
				c0-1.566,0.251-3.289,0.756-5.164c0.111-0.445,0.65-2.123,1.615-5.035c0-2.209,0.021-3.875,0.063-4.992
				c0.112-1.848,0.315-3.52,0.609-5.016c0-4.449-0.029-8.072-0.084-10.871c-0.042-2.853-0.064-5.686-0.064-8.499
				c0-0.433,0.112-2.433,0.336-6c0.265-4.114,0.434-7.045,0.503-8.792c0.042-1.554,0.314-3.994,0.818-7.324
				c0.462-3.161,0.692-5.38,0.692-6.652c0-0.559,0.063-0.839,0.189-0.839c0.071,0,0.197-0.008,0.378-0.021
				c0.741,0,1.531,0.539,2.371,1.616c0.447-2.937,0.818-5.295,1.112-7.071c0.168-1.133,0.72-2.511,1.658-4.135
				c0.965-1.734,2.063-3.217,3.294-4.447c0-1.301,0.532-3.043,1.595-5.226c1.008-2.183,1.511-3.497,1.511-3.943
				c0-0.462-0.231-1.05-0.692-1.763c-0.476-0.741-0.714-1.336-0.714-1.783c0-2.155,1.378-4.17,4.135-6.045
				c3.636-2.475,5.959-4.502,6.966-6.083c0.405-0.617,1.168-1.113,2.287-1.491c1.188-0.433,1.86-0.728,2.015-0.881
				c0.098-0.098,0.664-0.567,1.699-1.407c1.063-0.88,1.699-1.53,1.909-1.951c0.49-0.868,1.518-1.973,3.084-3.315
				c1.482-1.232,2.819-2.217,4.008-2.959c3.525-0.097,6.428-0.315,8.708-0.649c0.265-0.015,0.503-0.05,0.713-0.106
				c0.027-0.308,0.105-0.581,0.23-0.818c0.279-0.77,0.728-1.168,1.343-1.196c9.204-0.182,14.19-0.566,14.96-1.155
				c0.434-0.335,5.714-0.356,15.842-0.062c0.365-1.861,1.679-2.904,3.945-3.128c1.722-0.154,6.345-0.139,13.87,0.042
				c0.686,0,2.246,0.167,4.681,0.504c2.433,0.321,4.336,0.629,5.707,0.922l13.767,0.252c0.181,0.07,0.271,0.196,0.271,0.377
				c0,0.126,0.252,0.189,0.756,0.189c7.692,0,13.569-0.393,17.626-1.176c4.029-0.797,8.555-1.196,13.576-1.196
				c1.02,0,3.729,0.105,8.121,0.314c4.74,0.225,7.268,0.406,7.572,0.546c14.729,0.168,22.319,0.342,22.77,0.525l50.443,0.271
				c0.237,0.098,2.11,0.218,5.623,0.357c3.522,0.141,5.397,0.259,5.625,0.358H399.2c0.213-0.084,0.986-0.288,2.328-0.609
				c1.344-0.335,2.326-0.602,2.938-0.797h3.904c1.371,0.531,3.32,1.167,5.854,1.909c2.32,0.685,3.609,1.028,3.857,1.028
				c0.447,0,1.006-0.189,1.678-0.567c0.633-0.377,1.187-0.566,1.66-0.566c0.769,0,2.51,0.133,5.225,0.399
				c1.23,0.111,2.23,0.209,3.003,0.293c-0.017-0.196-0.023-0.427-0.023-0.692c0.463,0,1.307,0.287,2.541,0.86
				c1.215,0.532,2.496,0.797,3.838,0.797C436.385,21.028,436.652,20.706,436.805,20.063z M463.514,29.337
				c-0.836-1.077-1.256-2.057-1.256-2.939c0-0.559,0.188-0.929,0.566-1.111c0.184-0.098,0.354-0.176,0.522-0.232
				c0.461,0.182,1.049,0.693,1.765,1.532c0.631,0.686,1.764,1.204,3.397,1.552l0.062,0.189c0.045,0.252,0.063,0.664,0.063,1.238
				c0,0.614-0.07,1.147-0.207,1.595c-0.072,0.153-0.274,0.489-0.61,1.006l-0.861,0.148
				C465.545,31.478,464.396,30.483,463.514,29.337z M470.439,54.454c0.102,0.826,0.149,3.532,0.149,8.12
				c0,0.617,0.215,1.896,0.648,3.84c0.25,1.05,0.426,2.127,0.522,3.232c0.615-3.259,0.927-6.708,0.927-10.345
				c0-1.496-0.515-3.931-1.533-7.302c-0.379-1.244-0.687-2.322-0.924-3.231c-0.168,0.756-0.42,1.483-0.755,2.183
				C469.908,51.746,470.229,52.915,470.439,54.454z M478.498,83.851l0.271,1.615c-0.223,0.364-0.78,0.84-1.678,1.428
				c-0.91,0.544-1.504,0.818-1.783,0.818c-0.588,0-1.032-0.036-1.344-0.105c-0.461-0.127-0.889-0.223-1.279-0.294l-0.271-1.679
				c0.529-0.658,1.291-1.188,2.285-1.595c0.713-0.336,1.198-0.502,1.448-0.502c0.646,0,1.062,0.014,1.259,0.042
				C477.447,83.579,477.813,83.67,478.498,83.851z M479.229,180.479c-0.18,3.851-0.274,6.729-0.293,8.646
				c-0.043,1.342-0.266,3.715-0.672,7.111c-0.389,3.287-0.584,5.772-0.584,7.45c0,0.351,0.117,1.455,0.355,3.314
				c-0.127-0.656-0.414-1.936-0.859-3.84c-0.59-2.56-0.885-4.322-0.885-5.289c0-1.805,0.064-3.58,0.191-5.328
				c0.151-1.722,0.229-4.121,0.229-7.196c0.072-0.505,0.084-2.609,0.043-6.316c-0.031-2.518,0.502-4.379,1.592-5.58
				c0.254,0.082,0.533,0.125,0.84,0.125c0.212,0.07,0.318,0.398,0.318,0.986C479.508,174.826,479.416,176.799,479.229,180.479z
				 M478.311,209.018c0.416,3.063,0.628,4.824,0.628,5.287c0,0.365-0.056,1.688-0.169,3.965c-0.081,2.253-0.122,3.927-0.122,5.015
				l-0.298,0.274c-0.223-2.184-0.336-5.352-0.336-9.506c0.043-3.932,0.064-6.127,0.064-6.59
				C478.162,207.939,478.24,208.457,478.311,209.018z M419.199,285.668c0.604-0.672,1.446-1.162,2.537-1.469
				c-3.552,0.151-7.554,0.229-11.998,0.229c-0.449,0-2.349-0.188-5.688-0.565c-3.332-0.392-5.221-0.588-5.668-0.588
				c-1.176,0-3.664,0.26-7.469,0.776c0.627,0.058,1.264,0.131,1.91,0.23c2.434,0.321,6.848,0.664,13.237,1.026
				c5.5,0.324,8.863,0.482,10.097,0.482C417.064,285.793,418.082,285.752,419.199,285.668z M146.796,32.715
				c0,0.391-1.715,2.475-5.141,6.252c-3.343,3.707-5.092,5.561-5.246,5.561c-0.588,0-1.021-0.02-1.3-0.063l-0.378-0.104
				c-0.098-0.042-0.147-0.336-0.147-0.882c0-2.195,1.287-4.272,3.861-6.231c0.77-0.574,1.972-1.426,3.608-2.56
				c1.455-1.077,2.638-2.098,3.546-3.064c0.224,0.083,0.51,0.126,0.861,0.126C146.684,31.82,146.796,32.141,146.796,32.715z
				 M134.037,52.984l0.546,0.839c-0.183,0.602-0.308,1.352-0.377,2.245c-0.126,0.561-0.595,0.839-1.406,0.839
				c-1.245,0-2.077-0.363-2.497-1.09c-0.195-0.336-0.293-0.749-0.293-1.238c0-0.588,0.405-1.07,1.216-1.449
				C132.093,52.741,133.031,52.69,134.037,52.984z M132.191,77.325c-1.035,0.951-1.721,2.462-2.057,4.532
				c-0.182,1.12-0.272,3.351-0.272,6.695c0,1.3-0.301,3.481-0.902,6.545c-0.587,3.05-0.881,5.184-0.881,6.401
				c0,0.056,0.315,2.07,0.944,6.042c0.126,0.799,0.245,1.54,0.357,2.225c0.112-1.3,0.244-2.651,0.398-4.05
				c1.035-9.764,1.532-15.673,1.49-17.73c-0.027-2.672,0.203-5.742,0.692-9.212C132.072,78.27,132.149,77.787,132.191,77.325z
				 M127.931,137.191c-0.644,2.967-0.965,5.084-0.965,6.354c0,0.49,0.176,1.672,0.525,3.547c0.07,0.238,0.125,0.49,0.168,0.757
				v-4.009c0-1.036,0.28-2.623,0.839-4.762c0.559-2.156,0.839-3.703,0.839-4.642c0-0.375-0.126-1.487-0.378-3.334
				C128.778,132.854,128.434,134.883,127.931,137.191z M338.371,289.004c0.688-0.951,2.154-1.281,4.406-0.986
				c0.95,0.238,1.678,0.615,2.184,1.136c0.404,0.389,0.609,0.797,0.609,1.217c0,0.545-0.037,0.873-0.107,0.984
				c-0.149,0-0.244,0.057-0.27,0.168l0.145,0.104c0,0.098-0.293,0.146-0.883,0.146c-0.123,0-0.432-0.218-0.92-0.65
				c-0.59-0.531-0.926-0.818-1.01-0.861h-2.369c-0.168,0.406-0.345,0.715-0.525,0.925c-0.279,0.465-0.699,0.799-1.26,1.008
				c-0.098,0.153-0.193,0.235-0.293,0.25c-0.195,0.084-0.291-0.166-0.291-0.754C337.787,290.361,337.979,289.467,338.371,289.004z
				 M371.588,287.516c2.084,0,3.658,0.818,4.721,2.455c-0.485,0.603-0.831,1-1.026,1.195c-0.336,0.309-0.689,0.463-1.068,0.463
				c-0.408,0-1.279-0.191-2.625-0.568c-1.272-0.42-2.215-0.594-2.832-0.522l-0.104-0.041c-0.101-0.043-0.148-0.336-0.148-0.883
				C368.504,288.215,369.533,287.516,371.588,287.516z M289.461,291.186c-5.75-0.166-8.625-0.438-8.625-0.815
				c3.26,0,7.813,0.252,13.66,0.756c5.469,0.459,8.479,0.818,9.021,1.07l0.148,0.354c0,0.224-0.287,0.336-0.859,0.336
				c-0.311,0-1.477-0.127-3.506-0.379c-2.391-0.334-4.742-0.578-7.051-0.731C290.57,291.605,289.643,291.412,289.461,291.186z"/>
		</g>
	</g>
</g>
</svg>
