<?xml version="1.0" encoding="utf-8"?>
<!-- Generator: Adobe Illustrator 16.0.0, SVG Export Plug-In . SVG Version: 6.00 Build 0)  -->
<!DOCTYPE svg PUBLIC "-//W3C//DTD SVG 1.1//EN" "http://www.w3.org/Graphics/SVG/1.1/DTD/svg11.dtd">
<svg version="1.1" id="Layer_1" xmlns="http://www.w3.org/2000/svg" xmlns:xlink="http://www.w3.org/1999/xlink" x="0px" y="0px"
	 width="60px" height="30px" viewBox="0 0 60 30" enable-background="new 0 0 60 30" xml:space="preserve">
<symbol  id="Eye_x5F__Frame_1" viewBox="-168.45 -75.35 336.9 150.7">
	<g id="Layer_3_1_">
		<path fill-rule="evenodd" clip-rule="evenodd" d="M26.4,22.65C8.2,37.95-9.917,37.967-27.95,22.7l-4,9.5
			C-11.417,52.133,9.2,52.283,29.9,32.65L26.4,22.65z"/>
	</g>
	<g>
		<g>
			<path fill-rule="evenodd" clip-rule="evenodd" d="M-94.25,73.1c20.533,0,38.033-7.232,52.5-21.699C-27.25,36.9-20,19.4-20-1.1
				c0-20.533-7.25-38.033-21.75-52.5c-14.467-14.5-31.967-21.75-52.5-21.75c-20.5,0-37.983,7.25-52.45,21.75
				c-14.5,14.467-21.75,31.967-21.75,52.5c0,20.5,7.25,38,21.75,52.5C-132.233,65.867-114.75,73.1-94.25,73.1z"/>
		</g>
		<g>
			
				<path fill-rule="evenodd" clip-rule="evenodd" fill="none" stroke="#000000" stroke-width="0.1" stroke-linecap="round" stroke-linejoin="round" stroke-miterlimit="3" d="
				M-87.9,25.9c0,3.266,1.15,6.05,3.45,8.35s5.083,3.45,8.351,3.45c3.232,0,6.016-1.15,8.35-3.45c2.3-2.3,3.45-5.084,3.45-8.35
				c0-3.234-1.15-6.018-3.45-8.351c-2.334-2.3-5.117-3.45-8.35-3.45c-3.268,0-6.051,1.15-8.351,3.45
				C-86.75,19.883-87.9,22.666-87.9,25.9z"/>
		</g>
		<g>
			<path fill-rule="evenodd" clip-rule="evenodd" fill="#17CCFF" d="M-94.25,64.5c18.133,0,33.6-6.4,46.4-19.2
				c12.8-12.8,19.2-28.267,19.2-46.4s-6.4-33.6-19.2-46.4c-12.801-12.8-28.268-19.2-46.4-19.2s-33.6,6.4-46.4,19.2
				c-12.8,12.8-19.199,28.267-19.199,46.4s6.399,33.6,19.199,46.4C-127.85,58.1-112.383,64.5-94.25,64.5z"/>
		</g>
		<g>
			<path fill-rule="evenodd" clip-rule="evenodd" fill="#FFFFFF" d="M-94.15,50.6c14.367,0,26.617-5.066,36.75-15.199
				c10.134-10.134,15.2-22.367,15.2-36.7c0-14.4-5.066-26.65-15.2-36.75c-10.133-10.133-22.383-15.2-36.75-15.2
				c-14.333,0-26.566,5.067-36.699,15.2c-10.134,10.1-15.2,22.35-15.2,36.75c0,14.333,5.066,26.566,15.2,36.7
				C-120.717,45.533-108.483,50.6-94.15,50.6z"/>
		</g>
		<g>
			<path fill-rule="evenodd" clip-rule="evenodd" fill="#17CCFF" d="M-94.6,35.2c10.232,0,18.967-3.616,26.199-10.851
				C-61.2,17.15-57.6,8.433-57.6-1.8C-57.6-12.033-61.2-20.767-68.4-28c-7.232-7.233-15.967-10.85-26.199-10.85
				c-10.234,0-18.967,3.617-26.2,10.85S-131.65-12.033-131.65-1.8c0,10.233,3.617,18.95,10.851,26.149
				C-113.566,31.584-104.834,35.2-94.6,35.2z"/>
		</g>
		<g>
			<path fill-rule="evenodd" clip-rule="evenodd" d="M-94.9,22.2c6.4,0,11.867-2.267,16.4-6.8c4.566-4.533,6.85-10.017,6.85-16.45
				c0-6.434-2.283-11.917-6.85-16.45c-4.533-4.533-10-6.8-16.4-6.8c-6.434,0-11.916,2.267-16.449,6.8s-6.801,10.017-6.801,16.45
				c0,6.433,2.268,11.917,6.801,16.45C-106.816,19.934-101.334,22.2-94.9,22.2z"/>
		</g>
		<g>
			<path fill-rule="evenodd" clip-rule="evenodd" fill="#FFFFFF" d="M-91,21.85c0,3.7,1.3,6.851,3.9,9.45
				c2.6,2.601,5.75,3.9,9.449,3.9c3.667,0,6.801-1.3,9.4-3.9c2.633-2.6,3.95-5.75,3.95-9.45c0-3.666-1.317-6.816-3.95-9.45
				c-2.6-2.6-5.733-3.9-9.4-3.9c-3.699,0-6.85,1.3-9.449,3.9C-89.7,15.033-91,18.184-91,21.85z"/>
		</g>
	</g>
	<g>
		<g>
			<path fill-rule="evenodd" clip-rule="evenodd" d="M41.75,53.65C56.217,68.117,73.7,75.35,94.2,75.35
				c20.533,0,38.033-7.232,52.5-21.699c14.5-14.5,21.75-32,21.75-52.5c0-20.533-7.25-38.033-21.75-52.5
				c-14.467-14.5-31.967-21.75-52.5-21.75c-20.5,0-37.983,7.25-52.45,21.75C27.25-36.883,20-19.383,20,1.15
				C20,21.65,27.25,39.15,41.75,53.65z"/>
		</g>
		<g>
			
				<path fill-rule="evenodd" clip-rule="evenodd" fill="none" stroke="#000000" stroke-width="0.1" stroke-linecap="round" stroke-linejoin="round" stroke-miterlimit="3" d="
				M112.35,39.95c3.233,0,6.017-1.15,8.35-3.45c2.3-2.3,3.45-5.084,3.45-8.35c0-3.234-1.15-6.018-3.45-8.351
				c-2.333-2.3-5.117-3.45-8.35-3.45c-3.267,0-6.05,1.15-8.35,3.45c-2.3,2.333-3.45,5.116-3.45,8.351c0,3.266,1.15,6.05,3.45,8.35
				S109.083,39.95,112.35,39.95z"/>
		</g>
		<g>
			<path fill-rule="evenodd" clip-rule="evenodd" fill="#17CCFF" d="M47.8,47.55c12.8,12.8,28.267,19.2,46.4,19.2
				s33.6-6.4,46.4-19.2c12.8-12.8,19.2-28.267,19.2-46.4s-6.4-33.6-19.2-46.4c-12.8-12.8-28.267-19.2-46.4-19.2s-33.6,6.4-46.4,19.2
				C35-32.45,28.6-16.983,28.6,1.15S35,34.75,47.8,47.55z"/>
		</g>
		<g>
			<path fill-rule="evenodd" clip-rule="evenodd" fill="#FFFFFF" d="M57.6,37.65C67.733,47.783,79.967,52.85,94.3,52.85
				c14.367,0,26.617-5.066,36.75-15.199c10.133-10.134,15.2-22.367,15.2-36.7c0-14.4-5.067-26.65-15.2-36.75
				C120.917-45.933,108.667-51,94.3-51c-14.333,0-26.566,5.067-36.7,15.2C47.467-25.7,42.4-13.45,42.4,0.95
				C42.4,15.283,47.467,27.517,57.6,37.65z"/>
		</g>
		<g>
			<path fill-rule="evenodd" clip-rule="evenodd" fill="#17CCFF" d="M67.65,26.6c7.233,7.234,15.967,10.851,26.2,10.851
				s18.967-3.616,26.2-10.851c7.2-7.199,10.8-15.917,10.8-26.149c0-10.233-3.6-18.967-10.8-26.2
				c-7.233-7.233-15.966-10.85-26.2-10.85s-18.967,3.617-26.2,10.85S56.8-9.783,56.8,0.45C56.8,10.683,60.417,19.4,67.65,26.6z"/>
		</g>
		<g>
			<path fill-rule="evenodd" clip-rule="evenodd" d="M77.1,17.65c4.533,4.533,10.017,6.8,16.45,6.8c6.4,0,11.867-2.267,16.4-6.8
				c4.566-4.534,6.85-10.017,6.85-16.45c0-6.434-2.283-11.917-6.85-16.45c-4.534-4.533-10-6.8-16.4-6.8
				c-6.433,0-11.917,2.267-16.45,6.8S70.3-5.233,70.3,1.2C70.3,7.633,72.567,13.117,77.1,17.65z"/>
		</g>
		<g>
			<path fill-rule="evenodd" clip-rule="evenodd" fill="#FFFFFF" d="M110.8,37.45c3.667,0,6.8-1.3,9.4-3.9
				c2.633-2.6,3.95-5.75,3.95-9.45c0-3.666-1.316-6.816-3.95-9.45c-2.6-2.6-5.733-3.9-9.4-3.9c-3.7,0-6.85,1.3-9.45,3.9
				c-2.6,2.633-3.9,5.784-3.9,9.45c0,3.7,1.3,6.851,3.9,9.45C103.95,36.15,107.1,37.45,110.8,37.45z"/>
		</g>
	</g>
</symbol>
<symbol  id="Rakesh" viewBox="-81.144 -46.028 162.292 92.061">
	
		<use xlink:href="#Eye_x5F__Frame_1"  width="336.9" height="150.7" x="-168.45" y="-75.35" transform="matrix(0.4751 -0.1093 0.1093 0.4751 0 0)" overflow="visible"/>
</symbol>
<use xlink:href="#Rakesh"  width="162.292" height="92.061" x="-81.144" y="-46.028" transform="matrix(0.331 -0.0523 -0.0523 -0.331 29.9766 15.7041)" overflow="visible"/>
</svg>
