<?xml version="1.0" encoding="utf-8"?>
<!-- Generator: Adobe Illustrator 16.0.0, SVG Export Plug-In . SVG Version: 6.00 Build 0)  -->
<!DOCTYPE svg PUBLIC "-//W3C//DTD SVG 1.1//EN" "http://www.w3.org/Graphics/SVG/1.1/DTD/svg11.dtd">
<svg version="1.1" id="Layer_1" xmlns="http://www.w3.org/2000/svg" xmlns:xlink="http://www.w3.org/1999/xlink" x="0px" y="0px"
	 width="708px" height="583px" viewBox="0 0 708 583" enable-background="new 0 0 708 583" xml:space="preserve">
<path fill="#A72B47" d="M0.536,156.4c-1.074-17.046-2.158-71.828,0-58.439s2.165-45.046,2.165-45.046s12.864-18.767,22.525-28.863
	S50.99,6.647,64.946,6.647c13.957,0,52.6,2.434,72.996,0c20.397-2.434,47.234,0,60.116,0c12.881,0,80.513-11.902,96.614-1.082
	c16.101,10.822,53.674-1.352,76.217,4.735c22.545,6.086,172.103,4.869,192.328,7.304c20.226,2.436,74.974,9.235,85.708,6.443
	c10.733-2.792,27.909-8.166,35.425,0c7.517,8.166,11.81,13.037,16.103,27.646c4.293,14.608,5.367,64.527,4.294,119.313
	c-1.073,54.786,5.069,135.141,0.388,166.795c-4.684,31.655-0.389,129.053-3.608,158.274c-3.22,29.221-6.441,49.917-16.103,56.006
	c-9.659,6.089-38.644,14.608-52.601,14.608s-77.291,4.872-90.174,7.307c-12.879,2.434-120.23-3.651-150.288,0
	c-30.06,3.65-115.937,10.958-142.774,9.741c-26.837-1.219-100.909-0.949-118.084,0.134s-70.85-5.005-79.438-7.438
	c-8.587-2.435-30.058-17.042-31.132-36.524c-1.073-19.481-8.588-126.618-8.588-136.359"/>
<path fill="#08AAE9" d="M44.727,46.54c0,0,5.278-26.642,18.161-21.771c12.882,4.871,104.083-0.717,104.083-0.717l93.351,3.026
	c0,0,84.934-0.636,118.717,1.619c33.783,2.256,82.025,6.477,97.056,6.477c15.029,0,82.659,0,82.659,0s53.642-0.707,67.604-0.105
	c13.963,0.603,18.275-12.523,35.45,0.226c17.177,12.748,15.028,69.97,10.736,84.581c-4.292,14.609,0.684,57.221,3.025,88.875
	c2.341,31.656-2.344,159.492,0,191.147c2.343,31.655,0.084,77.92,0.677,91.313c0.592,13.394-3.701,37.742-24.098,45.047
	c-20.397,7.305-64.41,9.74-107.35,10.957c-42.938,1.218-199.669-3.652-221.139,0c-21.469,3.653-89.1,1.619-110.569,0.2
	c-21.469-1.417-65.483,0.269-96.614,1.86c-31.131,1.591-57.968,16.671-66.556,0c-8.587-16.67-7.503-19.105-10.901-51.979
	c-3.398-32.872,3.752-91.312,1.428-124.182c-2.324-32.872,7.607-114.445,3.169-129.054c-4.438-14.609,2.29-174.103,0-180.189
	C41.328,57.784,44.727,46.54,44.727,46.54z"/>
</svg>
