<?xml version="1.0" encoding="utf-8"?>
<!-- Generator: Adobe Illustrator 16.0.0, SVG Export Plug-In . SVG Version: 6.00 Build 0)  -->
<!DOCTYPE svg PUBLIC "-//W3C//DTD SVG 1.1//EN" "http://www.w3.org/Graphics/SVG/1.1/DTD/svg11.dtd">
<svg version="1.1" id="Layer_1" xmlns="http://www.w3.org/2000/svg" xmlns:xlink="http://www.w3.org/1999/xlink" x="0px" y="0px"
	 width="30px" height="25px" viewBox="0 0 30 25" enable-background="new 0 0 30 25" xml:space="preserve">
<g>
	<path fill="#872339" d="M29.148,1.011c-0.531,1.293-1.395,2.396-2.586,3.309c0.963-0.126,2.047-0.45,3.252-0.97
		c-0.633,1.281-1.641,2.441-3.021,3.48l-0.039,0.076c-0.064,4.628-1.293,8.406-3.689,11.335c-2.08,2.218-4.223,3.816-6.428,4.792
		c-0.014,0.014-0.031,0.02-0.057,0.02c-6.1,2.32-11.564,2.041-16.395-0.836c3.702,0.178,6.707-0.762,9.015-2.815
		c-2.688-0.05-4.608-1.426-5.763-4.127l0.076-0.038c0.898,0.063,1.769,0.014,2.604-0.152c-3.081-0.912-4.658-2.917-4.734-6.01
		c0.812,0.431,1.705,0.691,2.682,0.78c-2.688-2.536-3.284-5.249-1.787-8.14c3.397,3.917,7.619,6.067,12.665,6.447
		c-0.723-3.348,0.433-5.706,3.461-7.075c2.842-0.875,5.072-0.4,6.695,1.426C26.48,2.285,27.83,1.785,29.148,1.011z"/>
</g>
</svg>
