<?xml version="1.0" encoding="utf-8"?>
<!-- Generator: Adobe Illustrator 16.0.0, SVG Export Plug-In . SVG Version: 6.00 Build 0)  -->
<!DOCTYPE svg PUBLIC "-//W3C//DTD SVG 1.1//EN" "http://www.w3.org/Graphics/SVG/1.1/DTD/svg11.dtd">
<svg version="1.1" xmlns="http://www.w3.org/2000/svg" xmlns:xlink="http://www.w3.org/1999/xlink" x="0px" y="0px" width="50px"
	 height="50px" viewBox="0 0 50 50" enable-background="new 0 0 50 50" xml:space="preserve">
<g id="Layer_2">
	<path fill="#CB3355" d="M47.247,35c0,6.627-5.373,12-12,12h-20.02c-6.627,0-12-5.373-12-12V14.98c0-6.627,5.373-12,12-12h20.02
		c6.627,0,12,5.373,12,12V35z"/>
</g>
<g id="Layer_1">
	<g>
		<g>
			<path fill="#872339" d="M38.173,9.382c0.813,0,1.502,0.285,2.072,0.855c0.569,0.583,0.854,1.281,0.854,2.092
				c0,0.799-0.285,1.483-0.854,2.054c-0.57,0.583-1.261,0.875-2.072,0.875s-1.503-0.292-2.073-0.875
				c-0.568-0.571-0.854-1.255-0.854-2.054c0-0.812,0.285-1.509,0.854-2.092C36.67,9.667,37.361,9.382,38.173,9.382z"/>
			<path fill="none" stroke="#872339" stroke-width="5" stroke-linecap="round" stroke-linejoin="round" stroke-miterlimit="3" d="
				M33.247,3.22c8.875-0.189,13.444,4.184,13.712,13.123c0,0.063,0,0.133,0,0.209v17.173c0,0.063,0,0.127,0,0.19
				c-0.268,8.938-4.837,13.313-13.712,13.122c-0.103,0-0.197,0-0.285,0L17.215,46.79C8.238,46.461,3.68,42.536,3.541,35.02
				l-0.02-7.552c0-0.772,0-1.553,0-2.339l0.02-9.871C3.68,7.727,8.238,3.797,17.215,3.467l15.747-0.248
				C33.051,3.22,33.146,3.22,33.247,3.22z M35.566,25.091c0,2.813-0.994,5.211-2.985,7.188c-1.99,1.99-4.388,2.986-7.188,2.986
				c-2.813,0-5.211-0.996-7.188-2.986c-1.99-1.979-2.986-4.375-2.986-7.188c0-2.814,0.995-5.211,2.986-7.189
				c1.978-1.991,4.374-2.986,7.188-2.986c2.802,0,5.198,0.995,7.188,2.986C34.572,19.88,35.566,22.276,35.566,25.091z"/>
		</g>
	</g>
</g>
</svg>
