<?xml version="1.0" encoding="utf-8"?>
<!-- Generator: Adobe Illustrator 16.0.0, SVG Export Plug-In . SVG Version: 6.00 Build 0)  -->
<!DOCTYPE svg PUBLIC "-//W3C//DTD SVG 1.1//EN" "http://www.w3.org/Graphics/SVG/1.1/DTD/svg11.dtd">
<svg version="1.1" id="Layer_1" xmlns="http://www.w3.org/2000/svg" xmlns:xlink="http://www.w3.org/1999/xlink" x="0px" y="0px"
	 width="36.5px" height="25.5px" viewBox="0 0 36.5 25.5" enable-background="new 0 0 36.5 25.5" xml:space="preserve">
<g>
	<g>
		<path fill="#872339" d="M34.158,1.718c1.027,0.913,1.654,2.523,1.884,4.831c0.15,1.94,0.241,3.981,0.267,6.124
			c0,0.025,0,0.045,0,0.057c-0.025,2.206-0.115,4.28-0.267,6.219c-0.229,2.308-0.855,3.918-1.884,4.831
			c-1,0.85-2.263,1.306-3.783,1.368c-2.485,0.141-4.964,0.203-7.438,0.19h-9.355c-2.485,0.013-4.972-0.051-7.456-0.19
			c-1.521-0.063-2.776-0.52-3.766-1.368c-1.04-0.913-1.668-2.523-1.883-4.831c-0.151-1.914-0.247-3.975-0.286-6.181
			c0-0.013,0-0.031,0-0.057v-0.076c0.039-2.143,0.134-4.171,0.286-6.086C0.692,4.241,1.32,2.631,2.36,1.718
			C3.35,0.869,4.604,0.412,6.126,0.349c2.484-0.14,4.971-0.202,7.456-0.189h9.355c2.474-0.013,4.951,0.05,7.438,0.189
			C31.896,0.412,33.158,0.869,34.158,1.718z"/>
	</g>
	<g>
		<polygon fill="#CB3355" points="13.447,17.864 13.371,7.652 23.108,12.729 		"/>
	</g>
</g>
</svg>
