<?xml version="1.0" encoding="utf-8"?>
<!-- Generator: Adobe Illustrator 16.0.0, SVG Export Plug-In . SVG Version: 6.00 Build 0)  -->
<!DOCTYPE svg PUBLIC "-//W3C//DTD SVG 1.1//EN" "http://www.w3.org/Graphics/SVG/1.1/DTD/svg11.dtd">
<svg version="1.1" id="Layer_1" xmlns="http://www.w3.org/2000/svg" xmlns:xlink="http://www.w3.org/1999/xlink" x="0px" y="0px"
	 width="24px" height="24px" viewBox="0 0 24 24" enable-background="new 0 0 24 24" xml:space="preserve">
<g>
	<g>
		<path fill="none" stroke="#872339" stroke-width="3" stroke-linecap="round" stroke-linejoin="round" stroke-miterlimit="3" d="
			M19.278,4.877c1.967,1.979,2.949,4.355,2.949,7.132c0,2.778-0.982,5.155-2.949,7.133c-1.977,1.965-4.354,2.947-7.131,2.947
			c-2.776,0-5.153-0.982-7.132-2.947c-1.978-1.979-2.967-4.355-2.967-7.133c0-2.777,0.988-5.153,2.967-7.132
			C6.994,2.899,9.37,1.91,12.147,1.91C14.925,1.91,17.302,2.9,19.278,4.877z"/>
	</g>
	<g>
		<g>
			<path fill="#872339" d="M13.003,8.986l-1.236,1.274c-1.002-0.711-2.035-0.717-3.101-0.02c-0.8,0.558-1.142,1.401-1.026,2.529
				c0.254,1.268,1.104,1.948,2.549,2.036c1.191-0.063,1.952-0.627,2.282-1.691H10.15V11.4l4.089-0.095
				c0.254,2.195-0.406,3.785-1.977,4.773c-1.308,0.697-2.612,0.785-3.919,0.268c-1.307-0.508-2.13-1.648-2.473-3.424
				c-0.038-2.028,0.635-3.48,2.018-4.355C9.726,7.566,11.431,7.705,13.003,8.986z M19.431,11.42v1.046h-1.502v1.522h-1.047v-1.522
				H15.38V11.42h1.502V9.917h1.047v1.503H19.431z"/>
		</g>
	</g>
</g>
</svg>
