<?xml version="1.0" encoding="utf-8"?>
<!-- Generator: Adobe Illustrator 16.0.0, SVG Export Plug-In . SVG Version: 6.00 Build 0)  -->
<!DOCTYPE svg PUBLIC "-//W3C//DTD SVG 1.1//EN" "http://www.w3.org/Graphics/SVG/1.1/DTD/svg11.dtd">
<svg version="1.1" id="Layer_1" xmlns="http://www.w3.org/2000/svg" xmlns:xlink="http://www.w3.org/1999/xlink" x="0px" y="0px"
	 width="750px" height="1130px" viewBox="0 0 750 1130" enable-background="new 0 0 750 1130" xml:space="preserve">
<path d="M52.974,1084.902c1.146,0.019,2.445,0.587,3.899,1.714c1.865,1.392,3.747,3.134,5.646,5.226
	c1.347,1.502,2.984,3.503,4.914,6.003c5.07,6.596,8.981,12.465,11.733,17.604c-0.276,0.247-0.567,0.492-0.872,0.735
	c-0.327-0.534-0.701-1.108-1.118-1.714c-4.306-6.588-7.685-11.494-10.137-14.718c-4.025-5.238-8.067-9.561-12.128-12.96
	C53.922,1085.934,53.277,1085.306,52.974,1084.902z"/>
<path d="M73.29,1098.649c0-0.027,0.109-0.149,0.325-0.369c0.083-0.054,0.123-0.122,0.122-0.205c0.029-0.106-0.001-0.174-0.084-0.198
	c-0.411,0.028-0.644-0.31-0.702-1.009c-0.117-1.191-0.016-2.07,0.307-2.64c0.189-0.296,0.554-0.694,1.096-1.186
	c0.217-0.298,0.512-0.773,0.887-1.426c0.246-0.298,0.692-0.665,1.344-1.103c0.868-0.575,1.519-0.958,1.955-1.151
	c0.734-0.384,1.44-0.593,2.123-0.625c0.762-0.062,1.297,0.125,1.6,0.555c0.167,0.27,0.251,0.647,0.255,1.133
	c0.012,1.596-0.13,2.759-0.424,3.49c-0.322,0.784-0.9,1.56-1.741,2.324c-2.032,1.853-4.191,2.775-6.483,2.767
	C73.457,1099.014,73.266,1098.892,73.29,1098.649z M76.921,1097.284c1.492-0.822,2.577-1.695,3.253-2.621
	c0.999-1.332,1.286-2.848,0.866-4.546c-0.521-0.213-1.095-0.127-1.719,0.258c-0.652,0.462-1.152,0.777-1.506,0.941
	c-0.542,0.222-0.925,0.429-1.141,0.616c-0.19,0.14-0.366,0.369-0.528,0.695c-0.186,0.381-0.333,0.666-0.441,0.854
	c-0.435,0.545-0.733,0.967-0.892,1.266c-0.484,0.787-0.585,1.611-0.309,2.475c0.112,0.326,0.251,0.537,0.414,0.648
	c0.248,0.132,0.561,0.117,0.94-0.05L76.921,1097.284z"/>
<path d="M47.078,1089.893c2.437-2.721,5.269-4.946,8.5-6.674c3.287-1.78,6.715-2.916,10.283-3.403
	c3.596-0.515,7.201-0.37,10.806,0.442c2.531,0.565,4.905,1.42,7.117,2.561c0.092,0.168,0.182,0.336,0.27,0.506
	c0.457,0.88,0.846,1.716,1.166,2.504c-0.917-0.594-2.207-1.233-3.861-1.914c-2.134-0.875-3.815-1.471-5.047-1.785
	c-1.501-0.366-3.113-0.57-4.831-0.611c-3.083-0.11-6.122,0.261-9.116,1.127c-3.021,0.831-5.806,2.098-8.357,3.792
	c-2.579,1.695-4.826,3.739-6.746,6.133c-1.944,2.446-3.451,5.094-4.521,7.941c-1.388,3.741-1.932,7.662-1.626,11.771
	c0.248,3.683,1.143,7.125,2.678,10.317c-0.138-0.008-0.254-0.006-0.348,0.002c-0.407,0.038-0.768,0.124-1.083,0.25
	c-0.523-0.916-0.986-1.966-1.396-3.151c-1.757-4.984-2.069-10.212-0.941-15.683C41.16,1098.6,43.511,1093.892,47.078,1089.893z"/>
<path d="M43.868,1124.256c-0.494-0.321-0.783-0.643-0.867-0.968c-0.084-0.216-0.07-0.43,0.037-0.647
	c0.134-0.218,0.313-0.327,0.53-0.329c0.191-0.002,0.439,0.146,0.742,0.441c1.098,1.128,2.894,2.031,5.379,2.716
	c6.589,1.894,13.256,2.02,20.009,0.373c1.851-0.421,3.43-0.973,4.733-1.659c1.168-0.604,2.607-1.603,4.315-2.992
	c3.332-2.81,5.654-5.476,6.976-8.001c0.913-1.762,1.563-3.834,1.955-6.218c0.288-1.705,0.488-3.91,0.602-6.61
	c0.094-2.108,0.039-3.785-0.161-5.025c-0.259-1.702-1.054-4.046-2.385-7.036c-0.803-1.777-1.526-2.988-2.156-3.633
	c-0.274-0.268-0.715-0.657-1.318-1.166c-0.496-0.456-0.812-0.912-0.95-1.37c0.704-0.251,1.456-0.215,2.25,0.105
	c0.739,0.29,1.367,0.743,1.893,1.361c0.439,0.511,0.84,1.173,1.203,1.978c0.052,0.081,0.372,0.783,0.956,2.103
	c0.5,1.021,0.858,1.788,1.082,2.303c0.444,0.886,0.762,1.668,0.958,2.341c0.421,1.296,0.664,2.793,0.729,4.493
	c0.062,1.082,0.049,2.609-0.045,4.58c-0.241,4.381-0.763,7.724-1.559,10.028c-0.724,2.061-1.813,4.053-3.268,5.983
	c-2,2.638-4.411,4.859-7.233,6.663c-2.875,1.833-5.923,3.1-9.136,3.799c-2.776,0.618-6.046,0.844-9.814,0.686
	C52.94,1128.225,47.787,1126.794,43.868,1124.256z"/>
<path d="M78.607,1114.299c1.102,1.342,2.148,2.793,3.141,4.353c0.223,0.376,0.348,0.661,0.377,0.846
	c0.003,0.356-0.119,0.597-0.365,0.736c-0.269,0.138-0.53,0.084-0.778-0.157c-0.053-0.053-0.221-0.282-0.496-0.686
	c-0.581-1.024-1.131-1.896-1.658-2.622c-0.414-0.537-0.811-0.994-1.197-1.368c-0.332-0.405-0.524-0.658-0.578-0.768
	c-0.113-0.377-0.061-0.66,0.156-0.852c0.274-0.166,0.529-0.168,0.777-0.008C78.181,1113.854,78.388,1114.029,78.607,1114.299z"/>
<path d="M109.695,918.086l21.963,3.762c3.631,0.648,6.378,1.276,8.235,1.882c2.955,1.003,5.326,2.38,7.112,4.122
	c0.961,0.938,1.899,2.134,2.81,3.584c0.527,0.915,1.246,2.274,2.161,4.081c1.465,2.905,2.482,5.196,3.039,6.866
	c0.895,2.644,1.241,5.059,1.041,7.25c-0.201,2.407-1.068,4.858-2.605,7.359c-1.131,1.847-2.779,3.939-4.94,6.28
	c-1.434,1.631-2.354,2.843-2.757,3.63c-0.964,2.034-1.042,4.348-0.232,6.935c0.783,2.563,2.287,4.862,4.512,6.898
	c2.007,1.878,4.402,3.357,7.194,4.444c2.354,0.9,5.072,1.583,8.156,2.045c1.94,0.283,4.764,0.558,8.477,0.827l13.508,0.989
	c3.248,0.248,5.624,0.659,7.129,1.243c2.681,0.979,4.426,2.546,5.233,4.704c-1.944-1.04-3.23-1.678-3.86-1.919
	c-1.641-0.636-3.582-1.065-5.821-1.294c-1.037-0.126-3.071-0.232-6.098-0.316c-5.948-0.198-11.965-0.786-18.054-1.765
	c-3.278-0.545-5.995-1.156-8.16-1.845c-2.896-0.92-5.361-2.132-7.39-3.63c-2.581-1.898-4.561-4.249-5.945-7.05
	c-0.858-1.668-1.389-3.367-1.595-5.095c-0.23-1.893-0.039-3.622,0.576-5.195c0.507-1.246,1.382-2.592,2.627-4.031
	c0.701-0.818,1.797-2.001,3.288-3.556c3.188-3.754,4.713-7.51,4.575-11.264c-0.04-1.404-0.351-2.943-0.936-4.613
	c-0.308-0.891-0.919-2.356-1.836-4.406c-1.414-3.018-2.604-5.25-3.57-6.703c-1.569-2.338-3.33-4.054-5.274-5.147
	c-1.016-0.559-2.231-1.039-3.653-1.43c-0.905-0.239-2.199-0.511-3.892-0.822l-23.641-4.398c-2.104-0.39-3.716-0.62-4.834-0.691
	c-1.828-0.148-3.437-0.04-4.825,0.321c-2.26,0.585-4.648,1.994-7.166,4.229c-4.253,3.739-6.735,7.609-7.441,11.612
	c-0.445,2.383-0.229,5.61,0.647,9.685c0.652,2.995,1.301,5.761,1.947,8.297c0.392,1.51,0.879,2.562,1.458,3.152
	c0.494,0.563,1.357,1.07,2.588,1.521c4.376,1.75,6.923,2.797,7.634,3.142c2.767,1.412,4.865,3.046,6.297,4.896
	c0.44,0.621,0.788,1.077,1.036,1.371c0.41,0.538,0.795,0.968,1.153,1.291c0.796,0.668,2.247,1.267,4.351,1.79
	c5.384,1.392,10.515,3.391,15.391,6.003c4.983,2.664,9.137,5.66,12.467,8.984c1.838,1.771,4.08,4.346,6.727,7.73
	c2.37,2.983,3.985,5.495,4.846,7.546c0.973,2.395,1.544,5.596,1.709,9.595c0.199,4.321,0.094,8.553-0.311,12.691
	c-0.38,3.653-1.139,6.412-2.27,8.29c-1.049,1.737-2.55,3.165-4.505,4.291c-1.793,1.04-3.808,1.759-6.039,2.152
	c-1.88,0.313-3.994,0.409-6.34,0.293c-1.583-0.069-3.697-0.268-6.343-0.598c0.362,0.942,0.409,1.915,0.144,2.917
	c-0.264,1.029-0.777,1.844-1.537,2.448c-0.895,0.734-2.201,1.258-3.917,1.567c-6.509,1.239-14.284,0.8-23.329-1.319
	c-2.46-0.575-6.246-1.586-11.356-3.034c-4.948-1.422-8.734-2.433-11.354-3.034c-1.806-0.394-3.266-0.639-4.387-0.738
	c-1.635-0.148-3.108-0.097-4.414,0.156c-2.289,0.45-3.878,1.448-4.766,2.997c-1.131,1.927-0.894,4.533,0.713,7.819
	c1.911,3.742,4.775,7.355,8.596,10.84c2.718,2.466,6.464,5.302,11.233,8.508c5.046,3.367,9.515,6.144,13.405,8.33
	c4.929,2.797,9.664,5.047,14.207,6.742c1.23,0.448,3.091,1.11,5.578,1.983c2.19,0.795,3.994,1.537,5.417,2.229
	c4.079,1.966,7.02,4.47,8.813,7.513c1.604,2.718,2.06,5.348,1.371,7.896c-0.37,1.354-1.07,2.52-2.1,3.502
	c-1.055,1.034-2.252,1.638-3.586,1.81c-1.28,0.148-3-0.164-5.161-0.93c-5.581-2.039-11.947-5.326-19.104-9.867
	c-4.082-2.565-10.141-6.502-18.173-11.818c0.161-0.379,0.514-0.558,1.061-0.535c0.463,0.024,0.927,0.184,1.395,0.476
	c7.62,5.05,13.36,8.775,17.229,11.18c6.769,4.163,12.859,7.197,18.275,9.102c2.378,0.791,4.193,0.966,5.443,0.524
	c0.789-0.276,1.453-0.767,1.995-1.474c0.54-0.654,0.916-1.414,1.128-2.278c0.37-1.546,0.178-3.205-0.572-4.984
	c-1.361-3.339-4.139-6.116-8.329-8.327c-1.479-0.774-3.324-1.556-5.541-2.349c-2.543-0.873-4.443-1.535-5.703-1.984
	c-4.623-1.693-9.456-3.954-14.496-6.778c-3.945-2.213-8.469-5.045-13.567-8.491c-4.687-3.18-8.389-5.976-11.109-8.386
	c-3.792-3.403-6.695-6.908-8.713-10.514c-1.05-1.883-1.721-3.676-2.006-5.377c-0.346-2.051-0.071-3.822,0.818-5.315
	c1.212-2.063,3.247-3.35,6.107-3.858c1.8-0.311,4.27-0.196,7.408,0.349c3.033,0.544,6.886,1.458,11.559,2.748
	c6.451,1.786,10.278,2.825,11.48,3.114c9.292,2.281,17.152,2.825,23.581,1.642c1.634-0.256,2.83-0.751,3.588-1.485
	c0.516-0.464,0.81-1.049,0.885-1.75c0.075-0.732-0.106-1.323-0.545-1.781c-2.869-0.411-5.026-0.785-6.472-1.128
	c-2.351-0.573-4.362-1.343-6.031-2.303c-1.509-0.909-3.236-2.232-5.186-3.975c-3.05-2.732-5.085-5.098-6.109-7.09
	c-0.806-1.561-1.279-3.233-1.432-5.017c-0.15-1.807,0.028-3.553,0.535-5.232c0.292-1.084,0.381-1.828,0.271-2.232
	c-0.142-0.622-0.749-1.224-1.816-1.811l-9.783-5.843c-4.11-2.427-7.275-4.361-9.495-5.804c-3.429-2.272-6.39-4.478-8.888-6.62
	c-3.378-2.918-6.444-6.182-9.2-9.779c-2.453-3.171-4.071-6.052-4.854-8.64c-0.477-1.67-0.682-3.317-0.611-4.942
	c0.097-1.756,0.535-3.328,1.315-4.712c2.153-3.855,6.593-6.174,13.324-6.954c5.615-0.746,10.852-0.517,15.717,0.688
	c-0.922-2.748-1.591-4.906-2.011-6.469c-0.646-2.372-1.089-4.572-1.323-6.599c-0.638-5.021-0.057-9.419,1.741-13.188
	c1.318-2.658,3.516-5.336,6.608-8.037c3.276-2.81,6.331-4.4,9.166-4.773c1.088-0.17,2.315-0.195,3.684-0.069
	C106.872,917.622,108.084,917.802,109.695,918.086z M59.947,971.173c0.677,2.617,2.365,5.725,5.064,9.325
	c1.626,2.123,3.142,3.894,4.542,5.317c1.183,1.208,2.842,2.734,4.985,4.583c2.582,2.276,4.747,3.948,6.503,5.015
	c0.684,0.401,1.643,0.92,2.875,1.56c1.398,0.747,2.357,1.265,2.877,1.56c1.15,0.613,2.931,1.706,5.342,3.282l11.678,7.612
	c2.189-2.746,3.824-4.906,4.9-6.481c1.672-2.474,2.978-4.819,3.917-7.046c1.095-2.63,1.731-5.242,1.901-7.838
	c0.198-2.867-0.218-5.47-1.247-7.815c-0.531-1.24-1.509-3.016-2.947-5.328c-0.665-1.293-1.229-2.14-1.697-2.543
	c-0.304-0.265-0.715-0.519-1.236-0.76c-0.602-0.239-1.054-0.411-1.354-0.517c-3.228-1.111-6.294-2.505-9.197-4.185
	c-4.167-2.481-6.779-5.108-7.835-7.886c-6.262-1.897-12.605-2.161-19.031-0.786c-5.282,1.148-8.578,3.364-9.89,6.645
	C59.382,966.706,59.332,968.799,59.947,971.173z M116.17,982.494c1.205,4.505,0.697,9.319-1.526,14.446
	c-1.501,3.521-4.184,7.666-8.046,12.426c-0.351,0.461-0.515,0.814-0.484,1.059c0.03,0.297,0.279,0.618,0.747,0.967
	c5.158,3.96,9.359,7.657,12.604,11.091c4.151,4.402,7.28,8.916,9.391,13.551c3.793,0.35,7.503,0.388,11.127,0.116
	c2.045-0.176,3.721-0.462,5.026-0.851c1.769-0.525,3.182-1.335,4.236-2.422c1.514-1.637,2.49-4.143,2.927-7.523
	c0.365-2.464,0.61-5.857,0.741-10.183c0.061-2.676,0.015-4.81-0.133-6.402c-0.21-2.35-0.673-4.401-1.397-6.15
	c-0.721-1.726-2.063-3.905-4.02-6.537c-2.04-2.821-4.009-5.236-5.905-7.253c-6.986-7.377-17.012-12.84-30.077-16.392
	c1.248,2.156,2.144,3.785,2.698,4.888C115.052,979.232,115.748,980.956,116.17,982.494z M92.104,960.181
	c0.142,0.755,0.75,1.535,1.816,2.336c3.894,2.942,8.126,5.169,12.695,6.672c-0.447-1.295-1.683-2.595-3.713-3.903
	c-1.316-0.908-2.739-1.706-4.271-2.4L92.104,960.181z M118.533,1034.166c1.037,0.343,2.5,0.696,4.383,1.062
	c1.529,0.313,2.677,0.506,3.441,0.581c-0.118-1.025-0.767-2.332-1.953-3.916c-2.701-3.739-4.808-6.409-6.322-8.021
	c-1.125-1.262-3.189-3.231-6.179-5.911l-2.475-2.212c-0.688-0.616-1.32-1.139-1.894-1.566c-0.495-0.348-1.359-0.854-2.592-1.519
	c-0.566,0.92-0.925,1.979-1.08,3.168c-0.23,2.192,0.53,4.943,2.274,8.252c0.608,1.051,1.065,1.736,1.369,2.056
	c0.301,0.351,0.727,0.711,1.273,1.088c0.632,0.426,1.084,0.763,1.36,1.001c0.465,0.375,1.194,1.046,2.186,2.012
	c0.878,0.885,1.606,1.54,2.183,1.968C115.605,1033.015,116.947,1033.664,118.533,1034.166z"/>
<g>
	<path fill="#A82B47" d="M26.306,488.152c-0.186,0.518-0.4,4.517-0.644,12.005c-0.243,7.489-0.47,11.492-0.686,12.005l0.258,107.389
		c-0.401,1.005-0.673,17.183-0.813,48.532c-0.267,0.652-0.608,6.035-1.022,16.146c-0.363,9.382-0.536,15.153-0.52,17.312
		c0.083,10.703,1.002,20.332,2.76,28.884c1.757,8.636,2.698,21.144,2.825,37.52c0.008,1.081-0.11,1.622-0.357,1.624
		c-0.408,0.004-0.679,0.195-0.813,0.574l-0.387,29.313c-0.576,2.953-1.187,7.021-1.828,12.219c-0.667,5.193-0.997,8.521-0.985,9.979
		c-0.288,16.028-0.238,25.896,0.145,29.595c0.501,4.778,2.745,7.53,6.732,8.261c-0.433,21.596-0.277,32.867,0.467,33.806
		c1.268,1.613,2.167,12.227,2.701,31.845c0.066,1.298,0.903,2.223,2.519,2.777c0.547,0.268,1.162,0.439,1.844,0.514
		c0.112,0.483,0.197,0.984,0.258,1.496c0.72,4.859,1.232,11.047,1.534,18.557c1.577,2.557,3.71,5.378,6.406,8.464
		c2.917,3.33,5.309,5.502,7.169,6.512c0.852,0.479,2.25,1.819,4.203,4.021c1.818,2.201,2.823,3.411,3.017,3.625
		c0.357,0.348,0.997,1.791,1.916,4.323c0.863,2.372,1.939,3.972,3.229,4.798c3.451,2.136,7.868,7.062,13.247,14.777
		c4.08,5.833,8.441,8.732,13.077,8.695c0.983-0.008,2.247-0.517,3.793-1.529c1.521-0.983,2.787-1.479,3.793-1.487
		c0.98-0.007,3.827,1.051,8.535,3.176c4.681,2.156,8.426,3.221,11.234,3.199c2.695,2.628,5.889,4.97,9.589,7.02
		c3.505,1.944,6.501,3.098,8.985,3.457c3.797,0.565,8.862,1.322,15.199,2.274c-2.332,1.775-3.494,3.459-3.481,5.053
		c0.059,0.377,0.088,0.648,0.089,0.809c0.029,0.245,0.643,0.361,1.843,0.352c2.701-0.02,7.462,0.443,14.291,1.391
		c0.18,0.025,0.357,0.052,0.53,0.076c6.911,0.973,11.987,1.488,15.231,1.546c3.741,0.134,10.013,0.435,18.828,0.908
		c7.724,0.428,12.048,0.638,12.974,0.63c6.027-0.047,12.097-0.148,18.203-0.304c6.081-0.126,13.895-0.228,23.44-0.302
		c3.197,0.625,6.785,1.015,10.771,1.175c2.401,0.117,5.987,0.156,10.759,0.118c6.291,1.979,9.885,3.088,10.788,3.322
		c4.043,1.05,7.771,1.563,11.18,1.537c1.009-0.009,3.406-0.42,7.19-1.232c3.759-0.814,6.142-1.224,7.151-1.23
		c0.957-0.008,1.959-0.008,3.007-0.002c0.987,0.004,2.016,0.017,3.086,0.038c0.233,0.001,0.466,0.007,0.701,0.013
		c0.245,0.004,0.492,0.01,0.737,0.014c0.142,0.004,0.285,0.009,0.428,0.019c0.05-0.002,0.096-0.002,0.142-0.002
		c0.054,0,0.11-0.002,0.166-0.002l47.254,2.352c7.355,0.488,15.288,1.058,23.802,1.701l-0.338-1.176
		c-2.513-0.25-10.021-1.283-22.526-3.107c-0.349-0.056-0.698-0.107-1.063-0.154c-0.985-0.157-2.012-0.312-3.075-0.463
		c1.167-0.031,2.545-0.069,4.132-0.113c3.456-0.088,7.93-0.217,13.423-0.387c15.022-0.414,26.309-0.65,33.865-0.708
		c12.539-1.285,23.111-2.505,31.716-3.652c4.905-0.524,13.139-0.831,24.706-0.922c7.066-0.054,17.871,0.378,32.414,1.292
		c8.154-0.173,15.415-1.578,21.776-4.222c0.133,0.376,0.231,0.593,0.29,0.646c0.385,0.43,1.23,0.642,2.54,0.63
		c2.046-0.016,6.041-1.493,11.994-4.431c4.757-2.363,7.893-4.091,9.414-5.183c1.245-0.848,2.981-2.294,5.195-4.336
		c1.983-1.638,3.814-2.49,5.506-2.556c2.539-0.128,4.347-0.317,5.44-0.569c2.04-0.45,3.809-1.369,5.294-2.76
		c1.249-1.146,2.79-4.291,4.635-9.439c0.428-1.248,1.518-4.635,3.276-10.163c1.063-3.305,2.552-5.222,4.451-5.75
		c3.158-0.944,5.144-1.715,5.953-2.316c0.49-0.407,0.994-2.194,1.513-5.362c0.579-3.681,0.728-7.223,0.452-10.626
		c-0.505-5.858-0.234-9.442,0.82-10.75c0.243-0.354,0.662-0.721,1.26-1.104c0.433-0.41,0.699-1.103,0.801-2.075
		c0.295-3.946,0.694-7.112,1.193-9.495c0.237-1.244,0.69-3.021,1.35-5.319c0.241-0.813,0.714-1.438,1.423-1.877
		c0.701-0.494,1.176-1.132,1.417-1.916c0.878-2.873,0.557-10.992-0.969-24.357l-0.361-46.742c0.335-9.868,0.856-23.356,1.569-40.471
		c0.491-14.303,0.573-26.655,0.25-37.056l-0.04-5.188c0.314,2.022,0.725,3.574,1.224,4.652c2.219,4.768,3.385,14.689,3.502,29.771
		c0.075,9.862,0.234,15.777,0.463,17.75c0.573-0.004,0.856-0.992,0.841-2.969c-0.408-3.156-0.397-15.386,0.044-36.688
		c-0.01-1.082-0.346-2.334-1.013-3.762c-0.912-1.857-1.496-3.259-1.749-4.205c-0.702-2.318-1.319-4.772-1.858-7.364
		c-0.685-10.993-1.229-17.854-1.632-20.579l-0.03-3.976c1.193-11.304,2.166-23.622,2.906-36.954
		c0.738-14.004,1.063-26.656,0.975-37.951c-0.036-4.678-0.606-8.374-1.722-11.096c-0.555-1.375-1.114-2.693-1.666-3.961
		c0-0.053,0.533-1.219,1.608-3.499c1.076-2.276,1.588-6.147,1.547-11.607c-0.035-4.403-0.428-11.334-1.186-20.786
		c-0.729-9.373-1.539-17.636-2.442-24.792c0.777-1.577,0.558-18.087-0.671-49.54c-0.034-4.434,0.818-8.979,2.555-13.639
		c1.765-4.637,2.634-8.638,2.609-12.021c-0.033-4.082-1.183-8.53-3.456-13.35c-2.33-4.903-3.526-7.823-3.588-8.769
		c-0.498-7.646-1.194-15.235-2.101-22.768c0.528-2.114,1.148-5.174,1.854-9.183c1.907-11.202,2.799-24.528,2.679-39.993
		c-0.032-4.128-0.91-15.264-2.63-33.381l-0.111-14.231c0.544-0.3,1.232-1.186,2.07-2.65c0.773-1.439,1.168-2.429,1.165-2.97
		c-0.01-1.295-0.236-2.093-0.676-2.391l-2.048-0.267c-2.706,2.723-4.36,7.758-4.954,15.119c-1.017-11.722-2.527-20.21-4.532-25.462
		c0.654-0.006,1.157-0.092,1.513-0.256c1.277-0.603,1.912-1.892,1.897-3.867c-0.006-0.891-0.388-2.066-1.133-3.521
		c-1.167-2.178-2.688-3.267-4.569-3.251c-1.146,0.01-1.838,0.164-2.081,0.465c-0.247,0.294-0.449,0.447-0.615,0.449
		c-0.29,1.086-0.464,2.072-0.51,2.963c-0.631-0.371-1.328-0.702-2.095-0.998c-1.647-1.338-2.494-4.545-2.532-9.628
		c-0.13-16.623-0.574-26.795-1.342-30.521c-0.473-2.076-1.14-3.408-1.992-3.999c-4.099-7.806-13.563-14.758-28.391-20.86
		c-7.036-2.896-14.59-5.267-22.682-7.124c-6.557-1.597-11.134-2.387-13.723-2.367c-1.936,0.015-4.73,0.182-8.385,0.51
		c-4.471,0.388-8.094,0.859-10.871,1.427l-51.061,0.394c-4.271,1.277-9.568,2.155-15.895,2.633
		c-7.007,0.459-12.157,0.854-15.454,1.171c-6.104,0.645-16.55,1.021-31.335,1.135c-3.377,0.22-6.415,0.406-9.115,0.557
		c-2.221,0.113-4.2,0.151-5.932,0.105l-0.001-0.017c-0.572-0.012-1.114-0.033-1.636-0.05l-3.929-0.436
		c-3.089-0.677-7.025-1.781-11.81-3.313c-2.787-0.865-5.723-1.293-8.806-1.268c-2.592,0.019-7.793,0.397-15.618,1.134
		c-7.141,0.702-12.99,1.006-17.545,0.907c-4.665-0.074-11.399,0.127-20.205,0.603c-8.205,0.545-12.813,0.827-13.82,0.834
		c-6.655,0.052-13.904,0.773-21.752,2.157c-5.102-0.309-8.799-0.459-11.089-0.44c-1.717,0.013-8.602,0.292-20.654,0.846
		c-13.036,0.641-23.462,1.183-31.287,1.623l0.013,1.779c10.558,0.271,24.43,0.641,41.616,1.1
		c-12.767,3.287-22.232,4.954-28.397,5.002c-0.357,0.002-0.774,0.006-1.246,0.01c-0.085,0-0.174,0.002-0.264,0.002
		c-0.125,0-0.257,0.002-0.388,0.004l-34.312-1.032c-0.572-0.027-1.143-0.046-1.72-0.067v0.021c-0.793-0.029-1.599-0.055-2.414-0.083
		c-6.467-0.114-11.841-0.167-16.123-0.163c5.001-0.799,11.169-2.453,18.497-4.969c0.791-0.277,1.578-0.549,2.368-0.832
		c-0.416-0.399-0.918-0.598-1.52-0.592c-0.231,0.023-0.479,0.058-0.737,0.109c-0.041,0.002-0.08,0.011-0.122,0.017
		c-4.555,0.632-10.525,1.203-17.908,1.725c-6.433,0.503-10.767,0.771-13.002,0.788c-9.964-0.76-16.933-1.084-20.914-0.975
		c-6.051,0.266-15.838,2.882-29.356,7.854c0.001,0.107,0.002,0.214,0.003,0.327c-0.652,0.004-1.35,0.01-2.084,0.016
		c-5.019,0.039-7.776,0.073-8.264,0.102c-3.297,0.484-5.605,1.776-6.926,3.867c-1.856,3.066-3.068,4.993-3.637,5.78
		c-1.16,1.684-2.309,2.923-3.446,3.72c-0.896,0.652-2.269,1.26-4.119,1.812c-1.822,0.553-3.127,1.159-3.912,1.814
		c-5.094,4.362-10.155,13.053-15.182,26.064c-4.6,11.792-6.88,20.322-6.84,25.593c0.015,1.917,0.719,3.022,2.114,3.305
		c1.393,0.344,2.092,0.908,2.099,1.688c0.021,2.867-0.543,5.601-1.697,8.208c-1.179,2.63-1.764,4.442-1.757,5.44
		c0.545-0.003,1.035-0.035,1.473-0.092c-0.18,1.625-0.382,3.777-0.608,6.453c-0.499,5.759-0.744,9.45-0.732,11.071
		c0.008,1.005,0.412,2.187,1.213,3.559c0.803,1.374,1.206,2.544,1.213,3.515c0.005,0.571-0.697,3.318-2.104,8.249
		c-1.538,5.391-2.872,9.559-3.995,12.516l0.064,8.312c0.445,1.317,1.035,3.41,1.767,6.267c0.704,2.859,1.14,4.507,1.307,4.939
		l0.277,35.803h-0.009V488.152z M2.458,488.663c0.612-9.437,1.184-14.507,1.726-15.224l-0.318-67.694
		c0.981-35.333,3.091-58.77,6.329-70.308c1.087-3.901,2.668-7.67,4.74-11.308c2.691-4.669,4.491-8.12,5.4-10.341
		c0.778-1.898,2.533-4.006,5.271-6.325c2.655-2.29,4.477-4.733,5.464-7.338c0.828-2.196,2.311-4.721,4.441-7.579
		c2.296-3.093,4.014-4.645,5.16-4.654c0.028,0,0.056,0,0.083,0c1.979-1.692,4.464-3.103,7.456-4.238
		c2.721-0.994,7.865-2.142,15.439-3.439c0.814-0.466,3.2-2.378,7.157-5.733c3.254-2.754,5.817-4.326,7.697-4.72
		c2.884-0.563,7.996-0.875,15.335-0.932c3.545-0.027,12.016,0.408,25.417,1.306c13.425,0.922,20.508,1.38,21.245,1.375
		c1.912-0.016,5.066-0.912,9.471-2.709c4.704-1.925,7.668-2.963,8.894-3.108c0.656-0.086,1.39-0.161,2.208-0.222
		c2.291-0.146,5.141-0.226,8.551-0.227c2.373,0.015,4.923,0.044,7.651,0.101c0.764-0.006,1.417,0.155,1.967,0.474
		c0.847,0.188,1.909,0.419,3.196,0.707c2.894,0.652,4.685,0.982,5.366,0.976c0.984-0.007,2.44-0.197,4.375-0.564
		c1.822-0.31,3.54-0.687,5.147-1.134l33.749-0.26c23.576-2.29,39.438-3.708,47.59-4.26c11.313-0.735,25.534-1.17,42.66-1.303
		c34.047,1.091,51.756,1.628,53.12,1.617c9.219-0.071,21.105-0.729,35.665-1.979c12.673-1.072,23.979-2.28,33.926-3.626
		l11.088-0.085c1.769-0.285,3.604-0.544,5.514-0.774c4.744-0.555,10.999-1.029,18.771-1.442c5.399-0.31,12.811-0.653,22.251-1.026
		c8.237-0.303,13.087-0.466,14.559-0.477c0.683-0.006,4.22,0.195,10.605,0.605c6.383,0.439,9.919,0.655,10.6,0.649
		c3.329-0.027,7.781,0.737,13.354,2.291c5.224,1.471,9.309,3.006,12.268,4.605c2.656,1.332,4.711,2.396,6.16,3.197
		c2.577,1.412,4.755,2.88,6.541,4.405c3.185,2.762,5.748,6.255,7.688,10.485c0.034,0.022,0.055,0.051,0.084,0.078
		c3.017,1.947,5.284,4.202,6.801,6.756c2.02,3.446,4.013,7.223,5.981,11.343c1.774,3.823,2.97,6.707,3.581,8.649
		c0.557,1.695,1.969,4.419,4.233,8.161c2.376,3.951,4.249,7.722,5.614,11.305c4.736,12.503,7.354,31.647,7.849,57.427l0.16,20.673
		c0.282,0.942,0.611,3.141,0.997,6.6c0.494,4.644,0.895,8.318,1.188,11.021l0.176,22.699c-0.188,0.705-0.271,2.087-0.256,4.138
		c0.015,2.024,0.122,3.351,0.319,3.97c0.115,4.243,0.229,8.553,0.344,12.929c0.285,8.698,0.513,13.305,0.683,13.821
		c0.12,5.455,0.248,10.977,0.368,16.577c0.307,11.132,0.547,16.956,0.713,17.468l0.439,56.753l-0.401,1.422l0.256,33.041
		c0.56,8.835,1.577,17.364,3.065,25.597c1.136,6.313,1.742,14.389,1.819,24.23c0.064,8.459-0.509,16.947-1.728,25.473
		c-0.495,3.301-0.937,5.912-1.33,7.834c0.372,2.188,0.8,8.154,1.281,17.91l1.07,138.639c-0.127,0.459-0.308,4.205-0.523,11.232
		c-0.223,7.028-0.393,10.789-0.529,11.273l0.306,39.322c1.479,15.53,2.229,23.97,2.238,25.321c0.07,9.025-0.424,17.286-1.485,24.78
		c-0.882,6.142-2.056,11.205-3.523,15.188c-1.203,3.063-2.153,5.489-2.854,7.28c-1.229,3.277-1.946,5.799-2.147,7.556
		c-0.277,2.488-1.396,4.943-3.341,7.364c-2.14,2.23-3.451,3.647-3.938,4.245c-0.89,1.146-1.898,3.03-3.024,5.66
		c-0.269,0.622-1.139,2.833-2.613,6.627c-3.685,9.623-8.69,16.864-15.008,21.725c-3.419,2.377-5.971,4.155-7.655,5.328
		c-2.928,2.104-5.31,4.313-7.148,6.623c-3.756,4.704-8.73,7.054-14.921,7.049c-1.556,0.013-4.189-0.212-7.9-0.669
		c-3.388-0.407-5.992-0.563-7.817-0.468c-2.783,0.13-7.797,0.71-15.044,1.739c-6.809,0.997-11.703,1.51-14.676,1.531
		c-0.546,0.006-3.521-0.2-8.927-0.62c-5.869-0.47-10.167-0.747-12.889-0.833c-0.408,0.004-0.809-0.033-1.191-0.112
		c-3.081,0.535-6.364,0.82-9.854,0.848c-9.826-0.493-17.188-0.786-22.102-0.884l-39.889,0.309c-3.271-0.11-8.389-0.139-15.34-0.085
		c-24.19,0.593-42.419,1.272-54.685,2.043c-8.803,0.61-17.803,0.949-26.995,1.021c-3.152-2.14-7.534-2.524-13.141-1.156
		c-3.104,0.861-5.417,1.499-6.941,1.917c-2.75,0.697-5.054,1.052-6.905,1.068c-7.472,0.058-14.664-0.429-21.573-1.457
		c-6.445-0.923-13.082-2.398-19.919-4.428c-2.751,0.373-5.859,0.612-9.32,0.72c-7.037,0.029-12.274,0.095-15.71,0.204
		c-1.416,0.038-3.968,0.004-7.651-0.103c-3.357-0.109-5.919-0.104-7.69,0.017c-2.888,0.239-5.571,0.882-8.044,1.928
		c-2.23,0.936-4.449,1.413-6.657,1.43c-0.544,0.005-2.305-0.238-5.284-0.727c-3.087-0.49-5.421-0.755-7.002-0.8
		c-1.364,0.013-3.614,0.096-6.748,0.258c-3.134,0.158-4.975,0.241-5.521,0.246c-3.084,0.023-5.759-0.266-8.026-0.871
		c-0.792-0.208-1.532-0.462-2.216-0.753c-3.368-1.435-7.943-2.455-13.729-3.057c-9.582-1.007-17.563-1.488-23.945-1.438
		c-9,0.125-17.693-0.432-26.072-1.665c-9.313-1.411-16.392-3.44-21.241-6.076c-8.629-4.772-16.637-10.533-24.026-17.287
		c-9.202-8.388-16.24-17.306-21.113-26.756c-2.685-5.168-5.896-12.966-9.632-23.396c-3.371-9.382-5.314-15.487-5.828-18.322
		c-0.673-3.563-1.745-11.854-3.211-24.866c-1.55-13.475-2.581-21.725-3.096-24.746c-0.172-1.189-0.881-4.613-2.126-10.281
		c-1.134-5.805-1.716-10.338-1.741-13.606l0.012-14.354c-0.488-3.104-0.954-6.857-1.396-11.26
		c-1.354-12.959-1.299-21.582,0.167-25.865l-0.551-71.268c-0.139-0.51-0.447-3.385-0.925-8.623
		c-0.596-6.483-1.024-10.834-1.289-13.045l-0.86-26.749c-0.192-3.594-0.358-9.269-0.501-17.024l-0.527-68.104l0.402-1.215
		l-0.28-36.283l-0.421-1.418l-0.841-24.114c-0.242-3.32-0.476-8.523-0.696-15.604l-0.401,0.004L0.848,518.47
		C1.605,503.411,2.14,493.478,2.458,488.663z M615.724,660.637c0.509-4.303,0.764-6.789,0.76-7.468
		c-0.009-1.245-0.263-1.864-0.756-1.86l-0.771,0.373c-0.536,1.139-1.255,7.537-2.146,19.19c-0.992,12.494-1.447,22.187-1.368,29.081
		c0.816-0.008,1.368-6.134,1.657-18.38c0.403-0.38,0.785-2.356,1.14-5.927C614.56,670.727,615.051,665.723,615.724,660.637z
		 M610.38,562.083c-0.933,0.007-1.812,0.447-2.655,1.317c-1.051,1.112-1.845,2.665-2.377,4.639
		c-0.562,4.814,0.155,7.955,2.162,9.427c1.017,0.775,2.969,1.158,5.86,1.135c1.225-0.01,1.767-0.207,1.63-0.583
		c-0.054-0.212-0.267-0.417-0.62-0.605c-0.447-1.21-1.148-2.11-2.109-2.697c-0.49-0.35-1.196-0.722-2.097-1.122l-0.04-5.022
		c0.113-0.136,0.73-0.858,1.865-2.165c0.92-1.033,1.378-1.7,1.376-1.996c-0.01-1.246-0.11-1.866-0.305-1.864l-0.282,0.369
		c-0.218-0.08-0.331-0.27-0.333-0.565C612.277,562.165,611.576,562.072,610.38,562.083z M610.322,512.664
		c-0.121-1.295,0.235-3.303,1.062-6.005c0.826-2.873,1.231-4.727,1.226-5.565c-0.007-0.839-0.338-1.604-0.996-2.303
		c-0.444-0.428-1.318-1.14-2.636-2.133c-3.501,2.271-5.237,5.627-5.203,10.058c0.034,4.377,1.569,6.554,4.593,6.531
		c1.201-0.01,1.828-0.109,1.881-0.302L610.322,512.664z M595.385,437.619c0.763-7.114,1.143-11.168,1.135-12.168
		c-0.072-9.461-0.287-17.957-0.65-25.499c0.646,2.32,1.695,4.111,3.15,5.367c0.235,2.382,0.362,4.553,0.378,6.531
		c0.021,2.565-0.281,9.717-0.899,21.451c-0.682,13.653-1.361,23.078-2.03,28.273c-0.182,1.324-0.323,2.68-0.417,4.056
		c-1.157-8.125-1.743-13.417-1.763-15.875C594.281,448.75,594.644,444.706,595.385,437.619z M284.675,1028.259
		c-4.973-1.041-9.355-1.726-13.148-2.049c3.978-0.569,6.391-0.857,7.235-0.866c1.99-0.015,5.309,0.555,9.955,1.707
		c4.588,1.155,8.005,1.724,10.241,1.705l8.59-0.065c-0.516,0.111-1.047,0.209-1.592,0.297c-4.057,0.814-6.589,1.226-7.6,1.233
		C295.628,1030.241,291.067,1029.589,284.675,1028.259z M155.9,1020.175c1.01,0.127,2.062,0.295,3.154,0.504
		c3.036,0.393,5.93,0.694,8.683,0.904c4.018,0.324,7.727,0.458,11.128,0.404c4.42-0.144,17.108,0.8,38.071,2.826
		c3.031,0.326,5.925,0.604,8.681,0.825c-1.442,0.254-3.011,0.508-4.701,0.767c-8.551,1.443-12.896,2.165-13.035,2.167
		c-2.59,0.019-7.176-0.579-13.76-1.8c-6.581-1.246-11.264-1.859-14.045-1.838c-6.08,0.048-10.459-0.053-13.135-0.304
		c-0.476-0.045-0.904-0.097-1.272-0.152C161.22,1023.811,157.964,1022.375,155.9,1020.175z M109.662,1024.505
		c1.548-0.875,2.312-2.626,2.292-5.247c-0.014-1.73-0.621-2.739-1.826-3.028c-1.909-0.12-3.504-0.379-4.791-0.773l-1.792,1.19
		c-0.665,2.141-0.553,4.14,0.331,5.997c0.86,1.723,1.918,2.581,3.172,2.571C108.085,1025.206,108.956,1024.971,109.662,1024.505z
		 M73.267,1000.624c-8.156-7.235-12.668-10.85-13.542-10.843c-1.228,0.01-1.921,0.257-2.081,0.748
		c0.006,0.783-0.085,1.418-0.272,1.907c2.115,1.876,4.331,4.358,6.644,7.449c2.506,3.466,4.368,5.99,5.582,7.577
		c4.269,5.481,8.763,8.201,13.481,8.166c1.2-0.01,1.828-0.108,1.88-0.298l0.199-0.813c0.103-0.597,0.153-1.514,0.143-2.758
		C85.298,1011.409,81.287,1007.696,73.267,1000.624z M433.3,280.688c-1.195,0.164-2.319,0.323-3.35,0.47
		c0.981-0.008,5.713,0.011,14.196,0.051c8.893-0.068,15.695-0.365,20.409-0.889l-0.574-0.6c-2.346,0.018-5.966-0.053-10.843-0.204
		c-4.89-0.178-7.697-0.266-8.431-0.26C443.72,279.265,439.922,279.737,433.3,280.688z M359.151,278.743
		c-1.256,0.01-1.944,0.218-2.084,0.625c0.006,0.674-0.082,1.269-0.273,1.783c1.811,1.581,4.262,2.605,7.347,3.065
		c1.441,0.205,3.024,0.289,4.748,0.25c7.962-0.176,12.487-0.165,13.585,0.017c6.572-0.05,11.728,0.055,15.464,0.328
		c3.738,0.265,7.543,0.389,11.415,0.36c2.102-0.017,5.886-0.685,11.361-1.997c4.109-0.977,6.861-1.623,8.251-1.931
		c-3.978,0.572-6.337,0.862-7.069,0.868c-3.627,0.029-8.991-0.349-16.094-1.134c-7.313-0.836-12.414-1.266-15.31-1.304
		c-4.117,0.01-10.313-0.164-18.576-0.503c-3.205-0.117-5.809-0.214-7.816-0.287l-0.001-0.019c-0.67-0.023-1.27-0.034-1.796-0.046
		L359.151,278.743z M164.703,290.464c0.886,2.074,2.031,3.685,3.432,4.835l3.595-0.595c0.186-0.893,0.395-1.813,0.634-2.758
		c0.157-0.68,0.235-1.636,0.225-2.882c-0.005-0.597-0.616-1.847-1.831-3.759c-1.245-1.906-2.246-3.104-3.016-3.585l-3.554,0.596
		c-0.344,1.487-0.514,2.286-0.514,2.396c-0.053,0.38-0.071,1.263-0.061,2.641C163.618,287.893,163.98,288.927,164.703,290.464z
		 M88.926,300.534c1.931-0.527,4.231-1.194,6.898-1.998c7.267-2.216,12.508-3.338,15.724-3.363
		c7.776-0.06,15.199,0.517,22.272,1.736c-2.398,0.262-4.729,0.656-6.989,1.189c-4.194,0.95-6.931,1.43-8.214,1.44
		c-9.872,0.077-15.695,0.244-17.465,0.5c-3.295,0.43-5.813,1.132-7.553,2.086C92.123,301.429,90.564,300.903,88.926,300.534z
		 M45.058,304.404l-0.45,0.161c-0.736,3.492-1.834,5.923-3.298,7.282c-1.79,1.525-2.859,2.766-3.204,3.716
		c0.113,0.403,0.264,0.793,0.46,1.172c0.414,0.781,1.209,1.171,2.38,1.164c1.908-0.015,4.003-0.91,6.28-2.691
		c2.469-1.908,4.591-4.396,6.367-7.466l-0.341-1.779c-1.152-0.669-1.877-1.078-2.178-1.242c-0.932-0.315-2.051-0.468-3.359-0.458
		C46.486,304.27,45.602,304.316,45.058,304.404z"/>
	<path fill="#00AFF0" d="M26.306,488.152l-0.277-35.792c-0.167-0.434-0.603-2.079-1.305-4.938c-0.734-2.857-1.323-4.95-1.767-6.267
		l-0.065-8.313c1.123-2.957,2.456-7.126,3.994-12.516c1.407-4.931,2.11-7.678,2.106-8.25c-0.008-0.971-0.413-2.14-1.215-3.515
		c-0.8-1.373-1.206-2.556-1.213-3.559c-0.012-1.621,0.231-5.312,0.732-11.069c0.226-2.678,0.428-4.83,0.608-6.453
		c-0.438,0.056-0.927,0.088-1.473,0.092c-0.008-1.003,0.579-2.816,1.757-5.442c1.154-2.603,1.719-5.338,1.697-8.208
		c-0.005-0.779-0.706-1.343-2.099-1.686c-1.395-0.285-2.098-1.389-2.113-3.306c-0.04-5.268,2.24-13.8,6.84-25.591
		c5.027-13.011,10.088-21.703,15.182-26.065c0.786-0.655,2.09-1.263,3.914-1.813c1.85-0.553,3.223-1.161,4.118-1.814
		c1.14-0.793,2.289-2.032,3.447-3.716c0.568-0.791,1.78-2.72,3.637-5.784c1.322-2.089,3.63-3.383,6.925-3.867
		c0.49-0.029,3.246-0.063,8.265-0.102c0.737-0.006,1.433-0.012,2.085-0.016c-0.001-0.112-0.002-0.22-0.003-0.327
		c13.518-4.969,23.304-7.584,29.356-7.854c3.981-0.11,10.953,0.215,20.914,0.975c2.235-0.018,6.568-0.281,13.003-0.789
		c7.38-0.519,13.35-1.09,17.907-1.725c0.043-0.006,0.081-0.016,0.124-0.018c0.256-0.046,0.502-0.084,0.736-0.109
		c0.601-0.006,1.104,0.193,1.521,0.594c-0.789,0.283-1.578,0.553-2.371,0.83c-7.327,2.516-13.494,4.169-18.495,4.969
		c4.282-0.004,9.657,0.051,16.122,0.163c0.816,0.027,1.62,0.054,2.413,0.082v-0.021c0.579,0.021,1.151,0.042,1.722,0.067
		l34.311,1.031c0.133-0.002,0.264-0.002,0.39-0.004c0.091,0,0.18-0.001,0.264-0.001c0.475-0.004,0.889-0.008,1.246-0.01
		c6.165-0.048,15.631-1.715,28.399-5.002c-17.188-0.459-31.059-0.829-41.618-1.098l-0.013-1.781
		c7.825-0.438,18.252-0.98,31.287-1.623c12.052-0.548,18.936-0.831,20.653-0.845c2.292-0.02,5.988,0.13,11.091,0.439
		c7.846-1.384,15.095-2.104,21.751-2.155c1.007-0.008,5.615-0.289,13.821-0.834c8.806-0.475,15.542-0.678,20.205-0.605
		c4.557,0.099,10.406-0.203,17.542-0.907c7.826-0.736,13.032-1.115,15.624-1.135c3.083-0.025,6.014,0.403,8.806,1.271
		c4.785,1.531,8.716,2.635,11.809,3.312l3.93,0.436c0.517,0.024,1.06,0.038,1.633,0.049v0.018c1.732,0.042,3.709,0.009,5.934-0.105
		c2.698-0.151,5.737-0.337,9.113-0.555c14.783-0.114,25.228-0.493,31.335-1.135c3.297-0.32,8.447-0.712,15.454-1.171
		c6.321-0.484,11.625-1.358,15.896-2.635l51.058-0.394c2.78-0.564,6.404-1.039,10.873-1.427c3.651-0.326,6.449-0.496,8.385-0.511
		c2.592-0.02,7.163,0.77,13.723,2.367c8.09,1.855,15.646,4.231,22.681,7.124c14.828,6.103,24.293,13.055,28.392,20.861
		c0.848,0.592,1.516,1.923,1.992,3.999c0.767,3.723,1.212,13.895,1.343,30.522c0.037,5.083,0.885,8.288,2.529,9.627
		c0.768,0.292,1.462,0.624,2.097,1c0.043-0.891,0.213-1.877,0.51-2.964c0.166-0.002,0.368-0.151,0.613-0.449
		c0.245-0.3,0.937-0.455,2.083-0.464c1.881-0.016,3.402,1.074,4.567,3.252c0.744,1.455,1.127,2.628,1.135,3.519
		c0.013,1.975-0.616,3.265-1.899,3.867c-0.353,0.165-0.855,0.25-1.51,0.256c2.002,5.253,3.518,13.74,4.531,25.463
		c0.594-7.359,2.25-12.396,4.955-15.119l2.048,0.267c0.436,0.294,0.665,1.096,0.675,2.391c0.004,0.537-0.388,1.528-1.165,2.971
		c-0.838,1.464-1.521,2.345-2.067,2.649l0.107,14.232c1.72,18.121,2.601,29.252,2.631,33.381c0.121,15.46-0.771,28.791-2.678,39.995
		c-0.706,4.008-1.32,7.064-1.856,9.18c0.91,7.534,1.602,15.12,2.103,22.768c0.06,0.946,1.258,3.867,3.586,8.769
		c2.275,4.822,3.425,9.268,3.457,13.351c0.025,3.383-0.844,7.385-2.608,12.022c-1.732,4.658-2.588,9.203-2.555,13.64
		c1.227,31.447,1.452,47.961,0.671,49.538c0.9,7.157,1.714,15.419,2.443,24.792c0.756,9.451,1.149,16.382,1.185,20.785
		c0.042,5.461-0.472,9.332-1.547,11.607c-1.076,2.281-1.608,3.449-1.608,3.5c0.552,1.266,1.109,2.588,1.666,3.963
		c1.113,2.722,1.686,6.416,1.722,11.093c0.088,11.296-0.236,23.948-0.975,37.954c-0.742,13.329-1.713,25.646-2.905,36.951
		l0.03,3.977c0.399,2.726,0.946,9.587,1.633,20.581c0.537,2.588,1.154,5.044,1.856,7.364c0.253,0.944,0.837,2.348,1.747,4.203
		c0.668,1.426,1.006,2.68,1.015,3.763c-0.441,21.3-0.451,33.529-0.045,36.687c0.015,1.977-0.265,2.965-0.84,2.969
		c-0.229-1.971-0.387-7.891-0.463-17.751c-0.117-15.082-1.287-25.004-3.501-29.771c-0.504-1.078-0.908-2.631-1.225-4.652l0.04,5.189
		c0.323,10.399,0.241,22.752-0.25,37.055c-0.715,17.112-1.231,30.604-1.571,40.469l0.362,46.742
		c1.526,13.366,1.849,21.486,0.97,24.358c-0.241,0.785-0.712,1.424-1.417,1.915c-0.703,0.438-1.184,1.064-1.422,1.877
		c-0.66,2.301-1.114,4.075-1.351,5.319c-0.498,2.386-0.898,5.549-1.193,9.498c-0.104,0.973-0.368,1.665-0.801,2.074
		c-0.6,0.381-1.017,0.749-1.262,1.103c-1.055,1.307-1.323,4.891-0.818,10.751c0.275,3.404,0.127,6.944-0.451,10.626
		c-0.52,3.166-1.025,4.953-1.514,5.362c-0.81,0.601-2.799,1.373-5.955,2.315c-1.899,0.531-3.393,2.446-4.449,5.752
		c-1.761,5.525-2.854,8.91-3.276,10.16c-1.845,5.15-3.391,8.294-4.634,9.441c-1.49,1.39-3.257,2.309-5.295,2.758
		c-1.094,0.253-2.903,0.441-5.442,0.569c-1.686,0.067-3.52,0.92-5.503,2.557c-2.216,2.043-3.954,3.491-5.197,4.336
		c-1.52,1.093-4.655,2.82-9.413,5.182c-5.951,2.939-9.949,4.416-11.995,4.431c-1.309,0.013-2.153-0.2-2.539-0.63
		c-0.054-0.053-0.153-0.27-0.293-0.646c-6.358,2.645-13.619,4.054-21.772,4.222c-14.544-0.914-25.35-1.343-32.417-1.29
		c-11.562,0.09-19.795,0.398-24.7,0.922c-8.608,1.146-19.188,2.365-31.721,3.65c-7.556,0.059-18.842,0.295-33.868,0.708
		c-5.489,0.17-9.963,0.302-13.418,0.388c-1.588,0.044-2.966,0.082-4.131,0.113c1.062,0.15,2.085,0.306,3.071,0.462
		c0.365,0.048,0.717,0.099,1.064,0.154c12.5,1.822,20.01,2.86,22.526,3.108l0.338,1.176c-8.514-0.644-16.446-1.211-23.805-1.701
		l-47.251-2.35c-0.056,0-0.112,0-0.166,0c-0.044,0.002-0.093,0.002-0.143,0.002c-0.145-0.01-0.287-0.014-0.428-0.02
		c-0.247-0.004-0.494-0.01-0.737-0.013c-0.233-0.006-0.463-0.012-0.698-0.016c-1.073-0.021-2.1-0.032-3.087-0.036
		c-1.049-0.006-2.053-0.006-3.007,0.002c-1.009,0.008-3.392,0.419-7.15,1.231c-3.785,0.813-6.181,1.224-7.191,1.231
		c-3.408,0.026-7.135-0.483-11.179-1.536c-0.902-0.236-4.499-1.346-10.787-3.323c-4.774,0.039-8.361-0.001-10.761-0.116
		c-3.984-0.16-7.573-0.551-10.769-1.176c-9.548,0.073-17.36,0.175-23.441,0.303c-6.108,0.156-12.177,0.256-18.205,0.304
		c-0.926,0.006-5.25-0.204-12.971-0.63c-8.816-0.473-15.089-0.776-18.827-0.91c-3.247-0.057-8.326-0.57-15.231-1.545
		c-0.174-0.025-0.354-0.05-0.533-0.076c-6.826-0.948-11.588-1.41-14.289-1.391c-1.202,0.01-1.814-0.109-1.845-0.352
		c-0.001-0.163-0.03-0.433-0.088-0.81c-0.013-1.593,1.146-3.277,3.48-5.053c-6.336-0.95-11.403-1.708-15.196-2.273
		c-2.483-0.359-5.482-1.514-8.989-3.458c-3.696-2.05-6.894-4.392-9.587-7.02c-2.809,0.022-6.554-1.043-11.231-3.196
		c-4.708-2.127-7.556-3.186-8.538-3.178c-1.009,0.008-2.274,0.503-3.792,1.487c-1.547,1.011-2.811,1.523-3.794,1.531
		c-4.637,0.034-8.997-2.863-13.076-8.697c-5.377-7.714-9.794-12.642-13.247-14.776c-1.287-0.83-2.366-2.429-3.229-4.799
		c-0.92-2.532-1.557-3.974-1.916-4.321c-0.194-0.217-1.198-1.424-3.017-3.628c-1.953-2.202-3.354-3.543-4.203-4.021
		c-1.86-1.012-4.252-3.183-7.169-6.512c-2.696-3.087-4.832-5.908-6.405-8.463c-0.303-7.512-0.813-13.695-1.535-18.558
		c-0.059-0.51-0.146-1.013-0.259-1.496c-0.682-0.075-1.298-0.247-1.845-0.515c-1.611-0.554-2.453-1.479-2.518-2.775
		c-0.533-19.619-1.432-30.232-2.701-31.847c-0.742-0.938-0.899-12.209-0.467-33.805c-3.988-0.729-6.233-3.48-6.732-8.261
		c-0.384-3.699-0.432-13.564-0.146-29.594c-0.011-1.458,0.318-4.787,0.985-9.98c0.641-5.193,1.252-9.267,1.827-12.218l0.388-29.313
		c0.134-0.379,0.405-0.57,0.814-0.574c0.247-0.002,0.365-0.543,0.356-1.625c-0.126-16.376-1.067-28.882-2.825-37.52
		c-1.756-8.551-2.677-18.18-2.76-28.882c-0.017-2.161,0.158-7.934,0.52-17.313c0.414-10.112,0.753-15.494,1.024-16.143
		c0.138-31.352,0.411-47.529,0.812-48.533l-0.257-107.391c0.215-0.514,0.443-4.517,0.685-12.005
		C25.906,492.669,26.121,488.67,26.306,488.152z M45.058,304.404c0.544-0.088,1.431-0.136,2.659-0.146
		c1.31-0.01,2.427,0.143,3.358,0.458c0.301,0.165,1.027,0.573,2.179,1.242l0.341,1.779c-1.778,3.072-3.898,5.559-6.367,7.466
		c-2.277,1.777-4.372,2.674-6.28,2.689c-1.171,0.008-1.966-0.376-2.381-1.162c-0.193-0.373-0.346-0.769-0.459-1.172
		c0.346-0.946,1.415-2.187,3.205-3.716c1.463-1.359,2.562-3.791,3.298-7.282L45.058,304.404z M88.926,300.534
		c1.639,0.369,3.197,0.9,4.677,1.586c1.736-0.954,4.256-1.656,7.553-2.086c1.769-0.256,7.593-0.423,17.465-0.5
		c1.281-0.01,4.02-0.49,8.214-1.44c2.258-0.534,4.587-0.927,6.985-1.189c-7.071-1.217-14.497-1.795-22.27-1.736
		c-3.217,0.025-8.459,1.147-15.724,3.363C93.159,299.34,90.859,300.007,88.926,300.534z M164.703,290.464
		c-0.723-1.537-1.085-2.571-1.089-3.112c-0.01-1.378,0.008-2.257,0.061-2.641c0-0.109,0.17-0.908,0.514-2.396l3.554-0.596
		c0.77,0.481,1.771,1.677,3.016,3.585c1.215,1.909,1.826,3.163,1.831,3.761c0.01,1.244-0.067,2.202-0.225,2.88
		c-0.239,0.945-0.447,1.866-0.634,2.758l-3.595,0.595C166.734,294.148,165.589,292.54,164.703,290.464z M359.151,278.743
		l3.154,0.078c0.531,0.012,1.126,0.027,1.796,0.046l0.001,0.019c2.008,0.072,4.611,0.166,7.816,0.287
		c8.267,0.339,14.459,0.513,18.576,0.503c2.896,0.034,7.996,0.47,15.313,1.304c7.099,0.785,12.463,1.164,16.09,1.134
		c0.732-0.005,3.092-0.294,7.068-0.869c-1.386,0.31-4.137,0.955-8.25,1.931c-5.472,1.308-9.258,1.979-11.361,1.997
		c-3.872,0.029-7.681-0.093-11.414-0.36c-3.737-0.269-8.894-0.378-15.465-0.328c-1.094-0.182-5.622-0.189-13.585-0.017
		c-1.724,0.039-3.307-0.045-4.749-0.25c-3.084-0.46-5.536-1.479-7.346-3.065c0.188-0.514,0.281-1.108,0.275-1.783
		C357.207,278.961,357.895,278.753,359.151,278.743z M433.3,280.688c6.618-0.947,10.42-1.425,11.403-1.433
		c0.738-0.005,3.546,0.082,8.432,0.26c4.881,0.152,8.499,0.219,10.843,0.202l0.574,0.602c-4.716,0.524-11.518,0.819-20.405,0.889
		c-8.483-0.04-13.215-0.059-14.199-0.051C430.98,281.013,432.104,280.856,433.3,280.688z M73.267,1000.624
		c8.021,7.072,12.032,10.785,12.035,11.137c0.009,1.242-0.038,2.159-0.143,2.758l-0.197,0.811c-0.054,0.191-0.682,0.29-1.88,0.3
		c-4.72,0.035-9.214-2.685-13.485-8.166c-1.212-1.587-3.072-4.111-5.58-7.577c-2.315-3.091-4.529-5.573-6.644-7.449
		c0.187-0.489,0.278-1.124,0.272-1.907c0.16-0.491,0.853-0.738,2.081-0.748C60.598,989.774,65.111,993.391,73.267,1000.624z
		 M109.662,1024.505c-0.706,0.466-1.576,0.701-2.614,0.71c-1.253,0.01-2.312-0.849-3.172-2.571
		c-0.884-1.857-0.996-3.856-0.331-5.997l1.792-1.19c1.283,0.396,2.882,0.653,4.791,0.773c1.205,0.289,1.812,1.298,1.826,3.028
		C111.973,1021.877,111.209,1023.628,109.662,1024.505z M155.9,1020.175c2.064,2.2,5.319,3.636,9.769,4.302
		c0.368,0.054,0.793,0.105,1.272,0.153c2.675,0.25,7.053,0.351,13.135,0.302c2.784-0.021,7.466,0.593,14.045,1.839
		c6.583,1.219,11.169,1.818,13.76,1.8c0.139,0,4.484-0.724,13.035-2.167c1.69-0.258,3.258-0.513,4.701-0.767
		c-2.758-0.224-5.649-0.499-8.681-0.825c-20.962-2.026-33.651-2.97-38.071-2.826c-3.401,0.054-7.111-0.08-11.128-0.404
		c-2.755-0.208-5.647-0.512-8.683-0.906C157.962,1020.468,156.911,1020.302,155.9,1020.175z M284.675,1028.259
		c6.392,1.33,10.953,1.98,13.681,1.96c1.009-0.008,3.542-0.419,7.6-1.235c0.545-0.086,1.076-0.184,1.592-0.295l-8.59,0.065
		c-2.236,0.019-5.649-0.55-10.241-1.705c-4.646-1.152-7.965-1.722-9.955-1.707c-0.844,0.008-3.258,0.295-7.235,0.867
		C275.318,1026.533,279.703,1027.218,284.675,1028.259z M595.385,437.619c-0.737,7.087-1.102,11.135-1.095,12.131
		c0.018,2.458,0.607,7.751,1.763,15.876c0.094-1.376,0.235-2.735,0.415-4.056c0.667-5.191,1.347-14.62,2.034-28.274
		c0.616-11.732,0.92-18.886,0.899-21.449c-0.016-1.978-0.145-4.149-0.378-6.531c-1.457-1.252-2.508-3.042-3.151-5.366
		c0.36,7.542,0.575,16.038,0.647,25.499C596.527,426.451,596.147,430.504,595.385,437.619z M610.322,512.664l-0.078,0.285
		c-0.053,0.193-0.679,0.292-1.881,0.302c-3.025,0.023-4.559-2.151-4.593-6.53c-0.034-4.435,1.701-7.787,5.203-10.058
		c1.317,0.994,2.191,1.703,2.635,2.133c0.659,0.695,0.988,1.464,0.996,2.303c0.005,0.839-0.398,2.693-1.227,5.566
		C610.558,509.365,610.201,511.369,610.322,512.664z M610.38,562.083c1.193-0.01,1.897,0.082,2.086,0.269
		c0.002,0.296,0.116,0.485,0.334,0.563l0.283-0.367c0.193-0.002,0.294,0.617,0.303,1.864c0.002,0.292-0.455,0.959-1.373,1.996
		c-1.137,1.307-1.756,2.025-1.868,2.165l0.041,5.022c0.9,0.4,1.606,0.772,2.097,1.122c0.957,0.587,1.662,1.487,2.11,2.696
		c0.353,0.189,0.561,0.391,0.621,0.606c0.135,0.376-0.405,0.573-1.632,0.583c-2.893,0.021-4.845-0.354-5.86-1.135
		c-2.006-1.472-2.72-4.611-2.159-9.427c0.525-1.978,1.323-3.526,2.374-4.639C608.568,562.529,609.447,562.09,610.38,562.083z
		 M615.724,660.637c-0.673,5.086-1.164,10.09-1.485,15.012c-0.351,3.57-0.736,5.547-1.14,5.927
		c-0.289,12.246-0.841,18.372-1.657,18.38c-0.082-6.893,0.376-16.585,1.368-29.082c0.892-11.654,1.61-18.051,2.146-19.189
		l0.771-0.373c0.493-0.004,0.747,0.615,0.756,1.86C616.487,653.846,616.236,656.334,615.724,660.637z"/>
</g>
<g>
	<path d="M598.715,466.376c-0.136-0.268-0.043-0.568,0.278-0.896c0.785-0.864,2.229-1.637,4.319-2.302l1.957-0.704
		c1.092-0.333,1.783-0.514,2.088-0.546c0.765-0.086,1.78,0.017,3.069,0.3c1.859,0.474,3.28,1.139,4.267,1.995
		c0.715,0.594,1.541,1.691,2.48,3.304c0.336,0.591,0.553,1.036,0.665,1.332c0.2,1.004,0.396,1.73,0.593,2.187
		c0.305,0.564,0.497,1.013,0.58,1.336c0.168,0.594,0.063,1.034-0.313,1.338c0.135,0.271,0.208,0.461,0.208,0.569
		c-0.024,0.079-0.077,0.161-0.159,0.243c-0.112,0.055-0.205,0.055-0.29,0.002c-0.029-0.027-0.083-0.174-0.166-0.446
		c-0.028-0.192-0.206-0.445-0.54-0.768c-0.522-0.618-1.036-1.613-1.537-2.99c-0.53-1.507-0.987-2.547-1.373-3.109
		c-0.692-1.047-1.736-1.892-3.133-2.532c-1.423-0.69-2.762-0.982-4.012-0.86c-0.463,0.033-1.188,0.186-2.168,0.465l-2.207,0.627
		c-1.495,0.386-2.592,0.831-3.303,1.32c-0.323,0.195-0.538,0.298-0.65,0.333C599.068,466.684,598.855,466.619,598.715,466.376z"/>
	<path d="M654.395,320.73c5.983,7.391,13.573,14.802,22.777,22.245c5.763,4.683,14.612,11.176,26.539,19.461
		c1.154,0.826,2.068,1.508,2.759,2.045c-1.748-0.202-3.912-1.158-6.484-2.868c-4.252-2.752-10.144-7.069-17.693-12.954
		c-8.369-6.503-14.769-11.902-19.19-16.193c-3.77-3.66-7.049-7.328-9.839-11.009C653.691,321.23,654.072,320.99,654.395,320.73z"/>
	<path d="M695.656,259.501c-6.341,14.871-13.931,28.981-22.768,42.315c-2.909,4.398-5.554,7.961-7.938,10.685
		c-3.221,3.619-6.565,6.469-10.041,8.549c-0.056-0.619,0.362-1.296,1.258-2.036c4.251-3.543,8.337-8.022,12.251-13.43
		c2.914-3.97,6.175-9.118,9.78-15.443c4.952-8.716,9.629-17.653,14.034-26.82c0.471-0.977,0.892-1.852,1.266-2.628
		C694.132,260.375,694.849,259.975,695.656,259.501z"/>
	<path d="M694.055,261.478c0.239-0.608,0.579-1.149,1.011-1.627c0.479-0.289,0.999-0.6,1.548-0.948l1.523-0.963
		c0.578-0.138,1.169-0.191,1.778-0.153c0.817,0.021,1.744,0.245,2.785,0.665c2.245,0.875,3.808,2.041,4.691,3.498
		c-0.027,0.244-0.286,0.294-0.779,0.168c-1.671-0.852-2.932-1.483-3.777-1.88c-1.478-0.718-2.773-1.034-3.896-0.942
		c-0.764,0.059-1.485,0.298-2.164,0.707c-0.679,0.411-1.223,0.931-1.624,1.554c-0.162,0.294-0.32,0.489-0.49,0.571
		c-0.104,0.048-0.228,0.084-0.363,0.084c-0.17-0.032-0.262-0.094-0.289-0.205C693.935,261.844,693.942,261.669,694.055,261.478z"/>
	<path d="M709.236,341.837c0.086,0.188,0.055,0.373-0.076,0.565c-0.104,0.161-0.27,0.277-0.486,0.329
		c-0.324,0.056-0.736-0.023-1.23-0.233c-3.01-1.353-6.254-3.156-9.737-5.399c-2.056-1.332-5.1-3.475-9.134-6.414
		c-4.69-3.449-8.122-6.089-10.29-7.907c-3.678-3.081-6.743-6.096-9.192-9.049c8.562,6.529,15.01,11.396,19.34,14.609
		c7.656,5.722,14.411,10.074,20.271,13.057C709.006,341.579,709.183,341.728,709.236,341.837z"/>
	<path d="M676.537,313.952c1.041,0.532,2.334,1.521,3.871,2.969c8.321,7.452,17.075,14.208,26.26,20.272
		c-0.952,0.141-2.214-0.268-3.773-1.227c-6.164-3.823-12.024-8.111-17.57-12.881C681.477,319.765,678.553,316.718,676.537,313.952z"
		/>
	<path d="M678.443,306.598c0.158-0.967,0.611-2.232,1.364-3.781c1.126-2.252,2.124-4.096,2.98-5.53
		c0.972-1.581,1.919-2.574,2.843-2.986c0.033,0.457-0.142,1.042-0.52,1.751c-2.204,4.178-3.927,7.253-5.161,9.239
		c-0.516,0.763-0.975,1.277-1.382,1.55C678.492,306.842,678.445,306.762,678.443,306.598z"/>
	<path d="M681.67,331.871c0.245-0.002,0.529,0.048,0.858,0.153c0.355,0.132,0.755,0.361,1.194,0.684
		c1.535,1.043,2.597,2.261,3.179,3.662c0.139,0.354,0.211,0.678,0.213,0.973c0.034,0.518-0.183,1.055-0.639,1.626
		c-0.191,0.275-0.437,0.492-0.731,0.654c-0.357,0.166-0.816,0.25-1.387,0.254c-0.382,0.004-0.652-0.021-0.817-0.073
		c-0.468-0.08-0.95-0.265-1.441-0.56c-0.299-0.157-0.722-0.451-1.277-0.883l-1.234-1.042c-0.248-0.189-0.438-0.386-0.577-0.604
		l-0.209-0.486c-0.223-0.405-0.35-0.675-0.376-0.809c-0.168-0.428-0.184-0.891-0.051-1.376c0.129-0.487,0.359-0.894,0.687-1.223
		C679.733,332.145,680.606,331.825,681.67,331.871z M679.982,336.224c0.22,0.43,0.563,0.873,1.034,1.33
		c0.495,0.481,1.207,0.87,2.139,1.162c1.09,0.369,1.883,0.281,2.37-0.262c0.46-0.463,0.523-1.112,0.19-1.948
		c-0.221-0.401-0.542-0.86-0.953-1.369c-0.498-0.537-0.797-0.86-0.91-0.967c-0.821-0.75-1.588-1.137-2.296-1.158
		c-0.438-0.05-0.862,0.046-1.268,0.292c-0.406,0.218-0.665,0.535-0.774,0.942C679.359,334.78,679.515,335.443,679.982,336.224z"/>
	<path d="M670.555,328.472c0.303-0.084,0.627-0.046,0.983,0.113c0.494,0.241,0.795,0.562,0.909,0.969
		c0.052,0.214,0.042,0.447-0.037,0.691c-0.106,0.21-0.27,0.367-0.486,0.447c0.083,0.138,0.194,0.256,0.331,0.367l-0.084,0.083
		l-0.615-0.241c-0.546-0.21-1.015-0.558-1.396-1.042c-0.168-0.273-0.251-0.486-0.253-0.648
		C669.959,328.854,670.176,328.609,670.555,328.472z M671.34,329.438l-0.207-0.162l-0.204-0.078
		c-0.081-0.056-0.162-0.041-0.243,0.042c0.216,0.081,0.396,0.224,0.535,0.444l0.127,0.12c0.048,0.033,0.092,0.033,0.121,0
		c0.055-0.08,0.023-0.176-0.085-0.285L671.34,329.438z"/>
	<path d="M694.357,348.273c-0.271,0.271-0.46,0.434-0.567,0.491c-0.274,0.113-0.506,0.115-0.698,0.004
		c-0.328-0.188-0.397-0.482-0.212-0.889c0.026-0.082,0.212-0.369,0.563-0.856c0.135-0.164,0.437-0.638,0.888-1.43
		c0.324-0.57,0.664-0.979,1.02-1.221c0.458-0.3,0.867-0.384,1.223-0.254c0.161,0.054,0.277,0.16,0.331,0.321
		c0.027,0.083-0.012,0.205-0.12,0.369C696.139,345.976,695.325,347.13,694.357,348.273z"/>
	<path d="M696.949,350.445c0.054-0.138,0.177-0.342,0.367-0.618c0.077-0.082,0.319-0.436,0.726-1.057
		c0.273-0.438,0.527-0.763,0.774-0.979c0.405-0.378,0.799-0.537,1.181-0.456l0.004,0.244l-0.162,0.321
		c-0.104,0.302-0.309,0.654-0.605,1.061l-1.139,1.631l-0.362,0.409c-0.189,0.134-0.371,0.164-0.532,0.086
		C696.98,350.983,696.899,350.767,696.949,350.445z"/>
	<path d="M746.815,301.65c-2.227,4.639-5.26,9.718-9.09,15.236c-1.294,1.847-4.815,6.642-10.564,14.395
		c-7.148,9.645-14.098,19.563-20.834,29.755c-0.707,0.946-1.139,1.806-1.292,2.565c0.003,0.189-0.051,0.296-0.163,0.323
		c-0.216,0.084-0.328-0.052-0.327-0.401c-0.039-0.65,0.281-1.623,0.956-2.926c3.981-7.114,10.183-16.456,18.602-28.035
		c9.448-12.938,15.864-22.165,19.26-27.674c1.94-3.146,3.939-6.592,5.996-10.348c0.177,0.27,0.27,0.479,0.27,0.647
		c0.012,0.042,0.011,0.083,0,0.125C748.509,298.005,747.575,300.121,746.815,301.65z"/>
	<path d="M741.317,299.87c-7.651,12.815-15.729,24.299-24.236,34.444c-0.437,0.547-0.872,0.809-1.305,0.78
		c6.2-9.209,11.93-17.521,17.192-24.944c1.806-2.607,3.426-4.863,4.858-6.766C739.203,301.616,740.369,300.446,741.317,299.87z"/>
	<path d="M698.815,258.564c0.058-0.108,0.204-0.164,0.451-0.166c1.667,0.042,3.418,0.449,5.246,1.221
		c1.37,0.586,2.982,1.448,4.85,2.599c3.313,2.108,7.815,5.329,13.493,9.663c5.706,4.417,10.054,7.842,13.043,10.279
		c3.846,3.077,6.813,5.651,8.903,7.719c1.84,1.801,3.445,3.598,4.826,5.392c0.016,0.117-0.012,0.25-0.077,0.405l-0.158,0.489
		c-0.023,0.072-0.034,0.145-0.042,0.22c-11.315-10.187-23.104-19.735-35.363-28.65c-4.748-3.479-8.722-5.959-11.924-7.448
		l-2.835-1.194C698.9,258.9,698.766,258.725,698.815,258.564z"/>
	<path d="M705.551,266.7c4.96,3.286,10.304,7.256,16.047,11.912c3.435,2.789,8.507,7.096,15.238,12.943
		c0.683,0.609,1.019,1.152,0.994,1.609l-12.645-10.523c-2.963-2.464-5.216-4.285-6.751-5.458c-1.427-1.156-3.606-2.855-6.542-5.101
		C709.315,270.051,707.197,268.258,705.551,266.7z"/>
	<path d="M652.251,358.085c-2.788,2.754-4.891,5.996-6.305,9.739c-1.444,3.74-2.031,7.541-1.754,11.405
		c0.212,2.943,0.9,5.478,2.062,7.605c0.578,1.022,1.559,2.337,2.938,3.95c1.651,1.959,3.229,3.435,4.74,4.421
		c1.202,0.748,3.347,1.625,6.443,2.625c4.702,1.42,8.269,2.328,10.701,2.718c1.198,0.179,3.001,0.407,5.403,0.688
		c2.127,0.308,3.879,0.714,5.244,1.217c1.83,0.686,3.353,1.674,4.565,2.964c1.345,1.42,2.081,2.981,2.204,4.686
		c0.063,1.426-0.332,2.935-1.19,4.508c-0.566,1.057-1.499,2.391-2.797,3.994c-3.402,4.054-7.025,8.082-10.87,12.084
		c-1.896,1.906-3.289,3.378-4.181,4.406c-1.329,1.583-2.673,3.425-4.045,5.545c-2.132,3.204-4.165,6.654-6.1,10.345
		c-1.4,2.684-2.391,4.895-2.978,6.629c-0.877,2.55-1.592,6.108-2.126,10.679c-0.459,4.113-0.597,7.547-0.412,10.302
		c0.225,3.756,1.051,7.003,2.493,9.752c0.609,1.158,1.411,2.408,2.402,3.75c0.464,0.598,1.402,1.762,2.806,3.509
		c2.536,3.142,5.898,7.695,10.092,13.664c1.899,2.636,3.209,4.748,3.938,6.336c1.163,2.588,1.923,5.579,2.277,8.981
		c0.23,2.161,0.16,3.87-0.205,5.11c-0.317,1.11-1.128,2.521-2.424,4.234c-1.675,2.257-3.512,4.484-5.512,6.69
		c-3.864,4.326-7.539,7.382-11.017,9.166c-2.225,1.154-4.522,1.885-6.893,2.204c-2.537,0.317-4.897,0.092-7.084-0.676
		c-2.271-0.791-4.467-2.248-6.58-4.367c-1.454-1.418-3.165-3.519-5.119-6.285c-1.903-2.687-3.395-4.996-4.47-6.938
		c-0.915-1.724-1.946-4.105-3.082-7.152c-0.949-2.615-1.593-4.69-1.934-6.229c-0.368-1.619-0.668-3.819-0.907-6.602
		c-0.154-2.269-0.339-6.319-0.545-12.156c-0.18-5.164-0.416-9.214-0.713-12.157c-1.003-9.477-3.284-17.204-6.848-23.177
		c-0.135-0.212-0.209-0.455-0.211-0.728c-0.002-0.27,0.104-0.407,0.326-0.409c0.163-0.002,0.341,0.122,0.539,0.365
		c3.003,4.302,5.184,9.526,6.539,15.681c0.932,4.235,1.603,9.891,2.015,16.97c0,0.083,0.146,2.985,0.438,8.712
		c0.139,3.922,0.327,6.85,0.561,8.794c0.607,4.75,1.98,9.469,4.119,14.157c2.023,4.419,4.635,8.625,7.828,12.626
		c2.999,3.732,5.926,6.106,8.767,7.107c2.188,0.767,4.549,0.905,7.083,0.43c2.342-0.42,4.583-1.302,6.73-2.646
		c1.846-1.116,3.719-2.636,5.607-4.543c1.161-1.196,2.772-2.998,4.827-5.385c1.298-1.5,2.406-2.831,3.325-3.997
		c1.402-1.767,2.267-3.293,2.582-4.563c0.266-1.026,0.278-2.491,0.05-4.377c-0.438-3.62-1.282-6.663-2.526-9.146
		c-0.585-1.128-1.742-2.917-3.481-5.365l-6.326-8.748c-1.816-2.469-2.992-4.029-3.51-4.675c-2.452-3.008-3.874-4.791-4.258-5.36
		c-2.042-3.173-3.314-6.971-3.814-11.401c-0.382-3.185-0.316-7.211,0.193-12.083c0.385-3.324,0.828-5.965,1.333-7.915
		c1.162-4.467,3.634-9.811,7.403-16.029c1.858-3.095,3.488-5.595,4.893-7.498c1.758-2.34,4.863-5.834,9.335-10.489
		c4.245-4.384,7.313-7.911,9.201-10.572c1.295-1.847,1.953-3.391,1.97-4.631c0.023-1.189-0.387-2.313-1.213-3.36
		c-0.773-0.939-1.761-1.688-2.959-2.246c-0.987-0.43-2.164-0.757-3.527-0.992c-0.303-0.05-1.529-0.214-3.69-0.497
		c-5.645-0.657-11.604-2.142-17.865-4.444c-1.859-0.686-3.312-1.369-4.354-2.034c-1.096-0.723-2.524-2.079-4.285-4.065
		c-2.146-2.389-3.616-4.388-4.427-6.005c-0.856-1.805-1.405-3.896-1.643-6.271c-0.477-4.515,0.091-8.96,1.694-13.35
		c1.601-4.39,4.061-8.169,7.361-11.329c1.104-1.089,2.15-1.909,3.129-2.456c2.228-1.342,5.427-2.176,9.596-2.505
		c1.773-0.125,3.01-0.315,3.722-0.599c1.169-0.44,2.415-1.395,3.738-2.861c1.217-1.279,2.354-2.626,3.405-4.046
		c0.568-0.862,1.149-1.237,1.75-1.107c0.273,0.053,0.493,0.228,0.662,0.522c0.164,0.296,0.221,0.598,0.168,0.891
		c-0.078,0.407-0.362,0.938-0.847,1.592c-0.781,0.979-1.703,2.041-2.759,3.179c-1.619,1.747-3.034,2.918-4.226,3.521
		c-1.273,0.628-3.154,1.063-5.631,1.304c-2.84,0.264-4.772,0.571-5.803,0.935C656.141,354.948,654.227,356.203,652.251,358.085z"/>
	<path d="M709.021,239.188c-0.116,0.027-0.525,0.085-1.23,0.172h-5.481c-0.434,0.003-0.695-0.117-0.779-0.359
		c-0.059-0.243,0.037-0.408,0.285-0.489c0.135-0.084,0.335-0.127,0.613-0.129c2.099-0.064,4.187-0.08,6.262-0.049l0.493,0.079
		c0.212,0.111,0.298,0.242,0.247,0.403C709.426,239.008,709.291,239.133,709.021,239.188z"/>
	<path d="M702.153,239.971l-0.088-0.286c-1.188-12.826-1.882-25.479-2.089-37.968c-0.062-3.387-0.008-6.292,0.155-8.693
		c0.166-0.021,0.344-0.045,0.536-0.064c0.534,20.458,1.197,35.943,1.968,46.444c0.004,0.189-0.046,0.352-0.158,0.488
		C702.37,240.023,702.258,240.05,702.153,239.971z"/>
	<path d="M699.928,193.041c0.544-0.065,1.262-0.168,2.145-0.299c1.007-0.008,1.686-0.067,2.045-0.176
		c0.343-0.127,0.628-0.317,0.871-0.575c0.544,0.12,0.949,0.338,1.212,0.638c-0.46,0.539-1.208,0.788-2.245,0.748l-1.23-0.033
		c-0.49-0.023-0.899-0.005-1.223,0.052c-0.521,0.134-0.873,0.183-1.062,0.13c-0.167-0.055-0.302-0.162-0.413-0.322
		C699.985,193.149,699.946,193.096,699.928,193.041z"/>
	<path d="M709.226,233.794c0.058,1.136,0.046,2.852-0.043,5.149c-0.054,0.271-0.123,0.42-0.205,0.446
		c-0.131,0.083-0.27,0.034-0.408-0.158c-0.054-0.08-0.081-0.227-0.085-0.443l-0.1-2.474c-0.069-2.243-0.139-3.582-0.197-4.013
		c-0.089-1.165-0.258-2.286-0.516-3.364c-0.055-0.187-0.07-0.324-0.043-0.406c0-0.161,0.108-0.297,0.323-0.408
		c0.163-0.051,0.329-0.003,0.494,0.159c0.108,0.112,0.166,0.271,0.166,0.484c0.196,0.866,0.344,1.865,0.432,3L709.226,233.794z"/>
	<path d="M707.443,225.66c0.108,0.079,0.189,0.227,0.247,0.445c0.031,0.273,0.143,0.538,0.332,0.807
		c0.22,0.267,0.332,0.497,0.332,0.688c-0.028,0.109-0.094,0.217-0.204,0.328c-0.108,0.081-0.225,0.109-0.367,0.083
		c-0.216-0.027-0.383-0.201-0.498-0.527l-0.251-0.725l-0.208-0.365c-0.111-0.241-0.101-0.448,0.039-0.613
		C707.059,225.541,707.247,225.499,707.443,225.66z"/>
	<path d="M707.983,227.439c0.004,0.294-0.089,0.457-0.281,0.489c-0.189,0.026-0.355-0.148-0.49-0.525
		c-0.455-1.946-0.76-4.194-0.913-6.766c-0.097-1.188-0.174-3.47-0.262-6.85c-0.189-7.294-0.517-14.006-0.972-20.141
		c-0.058-0.352-0.03-0.65,0.078-0.892c0.076-0.136,0.204-0.243,0.366-0.327c0.161-0.051,0.297-0.041,0.408,0.039
		c0.132,0.049,0.231,0.29,0.293,0.728l0.768,14.628c0.058,0.786,0.123,1.989,0.188,3.608c0.023,2.92,0.058,5.122,0.093,6.606
		c0.053,2.595,0.219,4.783,0.504,6.565C707.961,225.983,708.038,226.926,707.983,227.439z"/>
	<path d="M702.104,238.674c0.078-0.029,0.144-0.03,0.201-0.001c0.084,0.025,0.208,0.118,0.374,0.281l0.701,1.012
		c1.107,1.826,1.813,3.161,2.126,3.997c0.166,0.406,0.443,1.32,0.837,2.75l0.621-4.061l1.161-3.413
		c0.108-0.351,0.26-0.539,0.448-0.57c0.112-0.031,0.22-0.001,0.327,0.077c0.112,0.081,0.182,0.19,0.209,0.323
		c0.027,0.082,0.016,0.323-0.038,0.732c-0.507,1.49-0.86,2.627-1.077,3.413l-0.196,1.019c-0.29,1.407-0.398,3.382-0.325,5.916
		c0,0.218-0.038,0.395-0.123,0.534c-0.104,0.106-0.239,0.144-0.405,0.121c-0.192,0.001-0.344-0.062-0.451-0.197
		c-0.136-0.16-0.235-0.448-0.293-0.854c-0.143-0.754-0.482-1.97-1.011-3.641l-1.05-2.985c-0.143-0.326-0.335-0.716-0.582-1.175
		l-1.578-3.109C701.979,238.784,702.019,238.73,702.104,238.674z"/>
</g>
<g>
	<path d="M252.713,26.881l0.367-0.085l0.738-0.005c0.219-0.029,0.542-0.136,0.979-0.333c0.328-0.001,0.559,0.04,0.693,0.12
		c0.11,0.049,0.18,0.105,0.207,0.163l0.043,0.198c0.002,0.195-0.038,0.327-0.121,0.408c-0.053,0.054-0.175,0.083-0.37,0.085
		c-0.378,0.139-0.665,0.234-0.858,0.294l-0.653,0.045c-0.492,0.004-0.861-0.021-1.104-0.072c0.026-0.083-0.017-0.203-0.126-0.364
		C252.564,27.109,252.633,26.96,252.713,26.881z M262.524,25.914c0.051-0.327,0.146-0.571,0.282-0.732
		c0.243-0.271,0.678-0.412,1.307-0.417c0.545-0.055,1.063-0.022,1.558,0.111c0.572,0.129,0.996,0.411,1.273,0.841
		c0.36,0.483,0.462,1.279,0.306,2.393l-0.157,0.935c-0.105,0.272-0.216,0.451-0.323,0.533c-0.134,0.133-0.407,0.227-0.818,0.292
		c-0.274,0.052-0.695,0.083-1.266,0.088c-0.301,0.003-0.535-0.036-0.699-0.117c-0.084-0.053-0.331-0.309-0.743-0.768l-0.824-0.723
		c-0.333-0.372-0.441-0.71-0.338-1.01c0.028-0.164,0.123-0.379,0.285-0.649C262.421,26.574,262.471,26.318,262.524,25.914z
		 M263.222,26.272c0.06,0.484,0.022,0.879-0.113,1.178l-0.081,0.205l0.085,0.203l0.579,0.769c0.164,0.209,0.342,0.368,0.534,0.483
		c0.164,0.077,0.439,0.113,0.821,0.11l0.489-0.042c0.354-0.139,0.599-0.427,0.731-0.86c0.052-0.212,0.078-0.594,0.073-1.135
		c-0.001-0.245-0.032-0.432-0.087-0.57c-0.085-0.159-0.192-0.291-0.332-0.402c-0.218-0.291-0.466-0.481-0.741-0.56
		c-0.192-0.082-0.452-0.107-0.776-0.076c-0.435,0.034-0.723,0.036-0.86,0.006C263.546,25.824,263.439,26.052,263.222,26.272z
		 M270.199,23.827h-0.081l0.202-0.404c0.027-0.031,0.083-0.066,0.163-0.124l0.081-0.042l0.081-0.001l0.411,0.236l0.005,0.652
		c-0.215,0.162-0.378,0.218-0.489,0.164l-0.123-0.039l-0.125-0.122C270.268,24.093,270.226,23.987,270.199,23.827z M273.379,27.694
		c-0.003-0.294,0.022-0.528,0.075-0.69c0.187-0.569,0.58-0.882,1.181-0.948c0.436-0.003,0.833,0.13,1.188,0.4
		c0.221,0.132,0.411,0.294,0.579,0.481c0.108,0.132,0.25,0.39,0.414,0.769c0.389,0.917,0.558,1.614,0.508,2.103
		c-0.024,0.376-0.158,0.704-0.403,0.976c-0.272,0.327-0.581,0.477-0.937,0.457c-0.137,0.001-0.272-0.04-0.41-0.121
		c-0.11-0.081-0.192-0.225-0.248-0.446c-0.058-0.216-0.115-0.368-0.17-0.448c0.052-0.327,0.177-0.445,0.368-0.368
		c0.027,0,0.125,0.08,0.288,0.241c0.136,0.135,0.247,0.161,0.329,0.079c0.13-0.624,0.056-1.242-0.219-1.863
		c-0.224-0.486-0.579-0.995-1.077-1.533c-0.381,0.031-0.572,0.316-0.568,0.861c0.085,0.615,0.104,0.985,0.051,1.092
		c0.191-0.027,0.287,0.107,0.289,0.403c0.003,0.328-0.036,0.572-0.116,0.732c-0.163,0.244-0.354,0.354-0.572,0.33
		c-0.218-0.054-0.37-0.187-0.452-0.399c-0.142-0.301-0.183-0.676-0.132-1.136L273.379,27.694z M237.357,20.229
		c11.027-2.871,21.87-5.994,32.537-9.373c3.593-1.135,6.324-2.117,8.201-2.944c2.933-1.289,5.366-2.779,7.288-4.475
		c0.842-0.655,1.496-0.875,1.958-0.664c-0.02,0.946-0.693,1.896-2.022,2.852c-2.277,1.64-4.995,3.103-8.149,4.403
		c-2.204,0.908-5.14,1.917-8.813,3.027c-7.076,2.137-14.425,4.11-22.047,5.928c-3.838,0.949-6.944,1.457-9.318,1.529
		C237.019,20.381,237.143,20.283,237.357,20.229z M286.922,1.439l0.247,0.079l0.491,0.037c0.354-0.059,0.667-0.045,0.941,0.032
		c0.41,0.106,0.667,0.267,0.784,0.483c-0.165,0.214-0.492,0.355-0.981,0.409c-0.575,0.005-0.926,0.025-1.064,0.051l-0.532,0.084
		c-0.215,0.056-0.354-0.026-0.411-0.24l-0.04-0.161l-0.086-0.162c-0.002-0.164,0.066-0.312,0.201-0.448
		C286.611,1.468,286.759,1.412,286.922,1.439z M290.165,2.429c0.548,0.237,1.368,0.477,2.458,0.707
		c1.121,0.264,1.929,0.501,2.42,0.715c0.383,0.127,0.626,0.206,0.741,0.237c0.495,0.531,0.853,0.899,1.071,1.084
		c0.026,0.031,0.051,0.042,0.084,0.042c-0.165,0.001-0.384,0.003-0.656,0.005c-0.438,0.003-0.763-0.027-0.982-0.075l-5.292-1.787
		c-0.329-0.129-0.535-0.24-0.615-0.322c-0.22-0.21-0.235-0.413-0.045-0.605C289.454,2.299,289.726,2.297,290.165,2.429z
		 M283.519,26.843c0.438,0.291,0.813,0.766,1.117,1.411c0.277,0.646,0.406,1.213,0.381,1.699c-0.021,0.649-0.29,1.246-0.804,1.792
		c-0.135,0.219-0.37,0.392-0.695,0.53c-0.081,0.034-0.503,0.046-1.267,0.052c-0.791,0.007-1.227-0.002-1.31-0.031
		c-0.192-0.049-0.522-0.224-0.985-0.518c-0.33-0.214-0.549-0.415-0.661-0.609c-0.112-0.211-0.141-0.483-0.087-0.808
		c0.029-0.085,0.108-0.353,0.239-0.809c0.402-1.111,0.749-1.833,1.045-2.163c0.381-0.433,0.858-0.704,1.427-0.821
		C282.521,26.459,283.052,26.549,283.519,26.843z M280.627,28.528c-0.189,0.245-0.285,0.437-0.284,0.568
		c0.001,0.111,0.031,0.257,0.087,0.448c0.083,0.187,0.115,0.335,0.084,0.443c-0.079,0.219-0.132,0.368-0.16,0.449
		c0.001,0.163,0.128,0.338,0.372,0.529c0.219,0.076,0.371,0.213,0.455,0.401c0.188-0.109,0.532-0.14,1.021-0.089
		c0.463,0.024,0.791-0.049,0.978-0.212c0.219-0.191,0.324-0.503,0.321-0.936c0.029-0.164,0.039-0.403,0.037-0.728
		c-0.057-0.352-0.142-0.664-0.252-0.931c-0.14-0.355-0.305-0.585-0.497-0.69c-0.195-0.16-0.453-0.225-0.777-0.195
		c-0.276,0.026-0.533,0.126-0.777,0.289C281.127,27.93,280.923,28.147,280.627,28.528z"/>
	<path d="M264.944,84.881c-2.12-6.123-5.616-15.556-10.488-28.3c-3.258-8.433-5.816-14.778-7.674-19.037
		c-3.056-6.949-6.156-13.036-9.307-18.249c2.093,2.606,4.274,6.087,6.542,10.445c3.267,6.247,6.516,13.452,9.743,21.615
		c2.058,5.118,4.815,12.534,8.274,22.235c3.123,8.651,5.366,15.269,6.738,19.853c2.215,7.418,3.736,14.202,4.577,20.357
		C271.374,105.111,268.573,95.473,264.944,84.881z"/>
	<path d="M309.549,86.358c-9.372-27.002-16.333-54.981-20.879-83.938c0.771,0.103,1.444,0.138,2.027,0.105
		c3.205,20.642,7.701,41.055,13.482,61.26c2.832,9.787,7.108,23.212,12.83,40.276C314.767,99.996,312.283,94.096,309.549,86.358z"/>
	<path d="M320.606,108.773c0.181-1.029-0.1-2.526-0.852-4.493c-5.767-15.497-10.852-32.742-15.253-51.734
		c-3.216-13.856-6.435-30.361-9.648-49.506c0.13,0.15,0.249,0.283,0.351,0.403c0.558,0.639,0.998,1.114,1.321,1.425
		c3.13,17.036,5.742,30.387,7.836,40.052c4.639,21.267,9.749,40.141,15.333,56.638c0.948,2.86,1.535,4.924,1.765,6.189
		c0.084,0.38,0.059,0.694-0.074,0.938c-0.082,0.131-0.218,0.216-0.411,0.246C320.785,108.962,320.661,108.909,320.606,108.773z"/>
	<path d="M276.353,121.115c-0.248-0.105-0.209-0.363,0.115-0.771c0.974-1.01,2.234-1.937,3.783-2.783
		c1.031-0.579,2.471-1.239,4.321-1.983c8.837-3.664,17.886-6.541,27.141-8.641c3.54-0.809,6.318-1.051,8.339-0.713
		c-12.138,3.041-23.978,6.588-35.511,10.655c-1.631,0.606-2.831,1.074-3.588,1.403C279.296,119.08,277.762,120.024,276.353,121.115z
		"/>
	<path d="M275.813,119.946c0.026-0.139,0.133-0.232,0.326-0.29c0.132-0.028,0.27-0.015,0.409,0.039
		c0.108,0.024,0.341,0.208,0.701,0.559l0.824,0.885c0.717,0.644,1.156,1.097,1.321,1.369l0.291,0.484
		c0.165,0.132,0.274,0.254,0.331,0.364c0.138,0.164,0.183,0.339,0.125,0.527c0.002,0.296-0.048,0.518-0.157,0.648
		c-0.164,0.221-0.352,0.29-0.573,0.209c-0.135-0.05-0.288-0.225-0.452-0.525l-0.536-0.401c-0.219-0.208-0.44-0.589-0.664-1.13
		c-0.138-0.131-0.341-0.305-0.618-0.522c-0.274-0.27-0.592-0.737-0.952-1.413C275.882,120.402,275.759,120.132,275.813,119.946z"/>
	<path d="M279.769,123.885c1.167-0.981,2.932-2.02,5.295-3.118c4.237-2.06,8.398-3.904,12.475-5.528
		c5.25-2.122,10.662-4.069,16.239-5.844c2.394-0.779,4.273-1.291,5.633-1.546c0.435-0.109,0.79-0.112,1.063-0.009
		c0.438,0.11,0.63,0.351,0.578,0.727c0.003,0.355-0.349,0.623-1.056,0.82c-2.997,0.671-6.777,1.778-11.347,3.329
		c-2.885,0.967-6.256,2.2-10.121,3.687l-12.315,4.879c-1.713,0.688-2.884,1.182-3.507,1.487c-1.276,0.625-2.351,1.296-3.218,2.01
		C279.244,124.565,279.335,124.268,279.769,123.885z"/>
	<path d="M272.456,109.428c0.56,1.806,0.766,3.724,0.619,5.752l-0.165,0.042c-0.11-0.269-0.154-0.688-0.131-1.257
		c-0.003-0.298-0.104-0.945-0.303-1.944c-0.195-0.861-0.301-1.792-0.309-2.791c0.029-0.059,0.083-0.059,0.164-0.002
		C272.388,109.282,272.426,109.351,272.456,109.428z"/>
	<path d="M252.755,27.082c9.471,25.683,17.719,51.632,24.74,77.851c-2.397-6.658-5.973-17.457-10.724-32.394
		c-4.447-14.102-8.074-24.898-10.886-32.39c-1.338-3.637-2.217-6.07-2.635-7.315c-0.718-2.247-1.26-4.318-1.623-6.211
		c0.298,0.107,0.633,0.165,1.005,0.173C252.674,26.89,252.714,26.984,252.755,27.082z"/>
	<path d="M272.957,84.291c-1.478-4.558-2.916-8.816-4.312-12.778c-1.758-5.042-4.395-12.601-7.909-22.681
		c-2.817-8.336-5.067-15.735-6.758-22.185c0.315-0.066,0.648-0.156,1-0.271l19.376,58.631c0.839,2.672,1.398,4.586,1.683,5.747
		c0.534,2.181,0.769,4.155,0.7,5.911C275.559,92.541,274.298,88.416,272.957,84.291z"/>
	<path d="M286.36,98.011c0.39,1.184,0.703,2.874,0.938,5.061l-0.036,0.487c-0.05,0.213-0.176,0.325-0.367,0.326
		c-0.247,0.002-0.421-0.226-0.537-0.689c-0.113-0.348-0.36-0.849-0.749-1.495l-0.293-1.049c-0.23-1.214-0.304-2.135-0.228-2.756
		c-0.002-0.296,0.095-0.511,0.283-0.65c0.192-0.133,0.408-0.085,0.657,0.156C286.168,97.512,286.278,97.716,286.36,98.011z"/>
	<path d="M290.813,96.964c0.528,1.185,0.957,2.064,1.29,2.624c0.166,0.295,0.263,0.47,0.293,0.529c0,0.027,0.042,0.256,0.129,0.691
		c0.111,0.374,0.168,0.664,0.17,0.85c0.058,0.326-0.063,0.556-0.364,0.694c-0.108-0.105-0.304-0.416-0.581-0.93
		c-0.472-1.105-1.11-2.327-1.91-3.671c-0.25-0.437-0.374-0.74-0.375-0.935c-0.113-0.375,0.021-0.661,0.402-0.855
		C290.164,96.117,290.482,96.45,290.813,96.964z"/>
	<path d="M281.907,61.602c-0.001-0.217,0.066-0.381,0.203-0.492c0.161-0.109,0.339-0.095,0.533,0.037
		c0.054,0.032,0.176,0.162,0.369,0.404c0.582,0.884,1.207,2.354,1.876,4.405l0.211,0.97c0.086,0.485,0.007,0.988-0.233,1.505
		c-0.243,0.054-0.504-0.048-0.78-0.318c-0.055-0.08-0.153-0.354-0.294-0.809c-0.143-0.54-0.432-1.294-0.877-2.264
		c-0.442-0.809-0.735-1.439-0.875-1.899C281.901,62.545,281.854,62.029,281.907,61.602z"/>
	<path d="M296.964,83.009c-2.117-5.683-4.803-14.378-8.058-26.085l-1.765-6.307c-1.04-3.698-2.008-7.269-2.909-10.719
		c0.026-0.194,0.149-0.325,0.364-0.408c0.22-0.056,0.424-0.018,0.618,0.117c0.247,0.191,0.425,0.538,0.541,1.05
		c3.462,14.217,7.434,28.862,11.917,43.934C297.368,84.103,297.133,83.578,296.964,83.009z"/>
	<path d="M285.424,40.168c-0.14-0.079-0.18-0.201-0.128-0.366c0.028-0.134,0.162-0.23,0.407-0.29
		c0.247-0.002,0.422-0.027,0.534-0.084l0.446-0.329c0.056-0.026,0.207-0.028,0.449-0.003c0.193-0.001,0.328-0.029,0.413-0.083
		c0.041-0.014,0.088-0.042,0.14-0.083c0.556,0.268,1.083,0.427,1.58,0.475c0.233,0.021,0.459,0.02,0.675-0.004
		c-0.049,0.145-0.124,0.241-0.222,0.289c-0.111,0.051-0.261,0.052-0.452,0.003c-0.218-0.03-0.381-0.03-0.49,0.003l-0.488,0.247
		c-0.056,0.027-0.3,0.041-0.736,0.044c-0.193,0.002-0.479,0.06-0.859,0.171c-0.381,0.112-0.667,0.167-0.859,0.169
		C285.667,40.329,285.532,40.272,285.424,40.168z"/>
	<path d="M300.145,86.918c-0.302-0.134-0.578-0.577-0.831-1.338c-0.391-1.4-1.073-2.786-2.036-4.157
		c0.052-0.27,0.229-0.38,0.53-0.327c1.048,1.261,1.86,2.646,2.447,4.158c0.138,0.318,0.209,0.616,0.211,0.889
		C300.468,86.521,300.362,86.781,300.145,86.918z"/>
	<path d="M300.53,89.429c-0.379,0.135-0.774,0.195-1.186,0.173c-0.245-0.056-0.369-0.148-0.37-0.284
		c-0.001-0.128-0.028-0.176-0.082-0.12c0.052-0.274,0.267-0.585,0.648-0.942c0.406-0.376,0.636-0.693,0.688-0.936l-0.007-0.813
		c-0.003-0.352,0.052-0.594,0.158-0.731c0.27-0.272,0.501-0.302,0.696-0.088c0.054,0.054,0.111,0.202,0.169,0.447
		c0.06,0.758,0.092,1.339,0.094,1.744c0.353-0.274,0.869-0.479,1.55-0.621c0.462-0.113,0.779-0.047,0.943,0.196
		c0.004,0.539-0.197,0.923-0.604,1.14c-0.246,0.081-0.493,0.126-0.74,0.128c-0.323,0.03-0.691,0.137-1.1,0.332L300.53,89.429z"/>
	<path d="M301.848,84.997c-2.979-7.735-5.953-16.685-8.92-26.851c-1.121-3.878-2.895-10.298-5.326-19.252
		c0.492,0.242,0.956,0.399,1.396,0.474c2.906,10.693,4.681,17.194,5.326,19.499c3.111,10.841,6.144,20.302,9.097,28.389
		C302.845,86.937,302.318,86.186,301.848,84.997z"/>
	<path d="M305.856,100.657c0.107-0.057,0.244-0.136,0.407-0.246c0.135-0.057,0.327-0.083,0.572-0.085
		c0.11-0.056,0.246-0.162,0.407-0.328l0.489-0.046c0.11-0.03,0.26-0.111,0.447-0.248c0.381-0.215,0.751-0.147,1.108,0.196
		c0.002,0.322-0.037,0.552-0.116,0.689l-0.366,0.29c-0.598,0.296-1.198,0.509-1.797,0.623l-0.571,0.129
		c-0.655,0.087-1.199,0.103-1.636,0.053c-0.272-0.047-0.438-0.127-0.493-0.239c-0.082-0.212-0.002-0.405,0.244-0.57
		c0.134-0.05,0.354-0.085,0.651-0.088C305.529,100.78,305.747,100.74,305.856,100.657z"/>
	<path d="M306.431,95.708c0.354-0.136,0.667-0.156,0.939-0.047c0.329,0.129,0.603,0.479,0.827,1.046
		c0.308,0.858,0.396,1.741,0.268,2.632c-0.107,0.381-0.214,0.64-0.322,0.777c-0.27,0.275-0.53,0.298-0.775,0.086
		c-0.167-0.164-0.196-0.468-0.091-0.932c0.16-0.759,0.099-1.503-0.179-2.228c-0.328-0.029-0.833,0.085-1.513,0.335
		c-0.651,0.215-1.156,0.319-1.509,0.292c0.228,1.272,0.646,2.47,1.254,3.601c0.109,0.161,0.192,0.353,0.249,0.565
		c0.003,0.3-0.093,0.461-0.285,0.489c-1.372-1.287-2.107-2.885-2.206-4.808c-0.002-0.35,0.062-0.581,0.2-0.69
		c0.029-0.031,0.188-0.083,0.489-0.167c0.628-0.058,1.2-0.224,1.717-0.501C305.71,96.049,306.024,95.9,306.431,95.708z"/>
	<path d="M255.141,102.873c-1.804,3.179-2.989,6.746-3.559,10.692c-0.489,3.627-0.444,7.409,0.129,11.35
		c0.922,6.075,3.432,13.173,7.53,21.305c0.999,1.938,1.731,3.406,2.205,4.402c0.775,1.697,1.377,3.21,1.795,4.525
		c0.977,3.05,1.441,6.612,1.391,10.694c-0.009,2.327-0.293,5.96-0.855,10.911c-0.793,6.925-1.337,12.469-1.632,16.634
		c-0.417,6.111-0.511,11.668-0.28,16.666c0.56,12.535,3.096,23.299,7.614,32.292c1.7-2.283,2.908-4.779,3.623-7.492
		c0.45-1.621,0.892-4.653,1.322-9.089c0.758-7.682,2.266-15.315,4.527-22.903c0.423-1.513,1.017-2.505,1.777-2.974
		c0.841-0.519,1.81-0.513,2.905,0.019c0.93,0.448,1.78,1.162,2.553,2.129c2.479,3.008,4.114,6.413,4.908,10.216
		c0.368,1.669,0.587,3.604,0.658,5.792c0.037,1.029,0.036,2.99,0.003,5.879c0.35,13.406,0.535,23.458,0.561,30.157
		c0.09,11.839-0.785,21.776-2.632,29.819c-0.529,2.248-0.911,3.924-1.147,5.037c-0.366,1.946-0.559,3.667-0.576,5.151
		c0.014,1.837,0.34,3.538,0.98,5.101c0.696,1.728,1.703,3.065,3.018,4.025c1.319,0.967,2.999,1.628,5.05,1.989
		c3.794,0.728,6.983,0.366,9.564-1.086c2.849-1.671,4.875-4.593,6.07-8.762c0.398-1.354,0.767-3.126,1.104-5.321
		c0.439-2.922,0.724-4.709,0.858-5.359c0.254,4.729,0.092,8.391-0.489,10.994c-0.948,4.194-2.818,7.291-5.615,9.282
		c-2.223,1.611-5.001,2.46-8.325,2.544c-2.728,0.021-5.255-0.583-7.583-1.808c-2.494-1.307-4.294-3.075-5.399-5.311
		c-1.109-2.261-1.5-5.014-1.17-8.259c0.152-1.353,0.718-4.222,1.691-8.614c1.769-7.741,2.652-17.313,2.644-28.722
		c-0.022-6.43-0.167-16.114-0.431-29.061c0.025-3.466,0.023-5.716-0.012-6.771c-0.073-2.569-0.336-4.808-0.789-6.724
		c-0.956-3.881-2.741-7.301-5.357-10.254c-0.44-0.537-0.865-0.792-1.273-0.758c-0.492,0.027-0.898,0.435-1.22,1.219
		c-1.771,3.906-3.259,10.571-4.467,19.979c-1.133,8.904-2.828,15.455-5.085,19.664c-0.374,0.733-0.822,1.284-1.338,1.671
		c-0.623,0.463-1.224,0.564-1.796,0.3c-0.384-0.162-0.784-0.641-1.2-1.449c-2.301-4.929-4.047-10.481-5.241-16.662
		c-0.969-5.048-1.627-10.871-1.977-17.457c-0.223-4.081-0.276-7.555-0.164-10.419c0.095-2.136,0.333-4.693,0.72-7.667
		c0.204-1.705,0.525-4.262,0.963-7.668c0.51-4.52,0.874-8.819,1.085-12.9c0.168-3.272,0.173-6.03,0.021-8.275
		c-0.214-2.996-0.753-5.667-1.617-8.016c-0.475-1.267-1.179-2.801-2.123-4.605c-0.526-0.996-1.329-2.487-2.409-4.481
		c-3.793-7.241-6.049-14.921-6.766-23.056c-0.421-5.048-0.098-9.348,0.965-12.898c1.519-4.958,4.93-10.013,10.235-15.16
		c1.896-1.853,3.617-3.071,5.169-3.651c0.332,0.51,0.064,1.105-0.806,1.789C260.674,95.305,257.238,99.101,255.141,102.873z"/>
</g>
</svg>
